<svg id="ePh6F9Y37y11" xmlns="http://www.w3.org/2000/svg" xmlns:xlink="http://www.w3.org/1999/xlink" viewBox="0 0 48 48" shape-rendering="geometricPrecision" text-rendering="geometricPrecision" style="background-color:transparent">
<style><![CDATA[
#ePh6F9Y37y168_tr {animation: ePh6F9Y37y168_tr__tr 3000ms linear 1 normal forwards}@keyframes ePh6F9Y37y168_tr__tr { 0% {transform: translate(42.866px,34.63px) rotate(55deg)} 33.333333% {transform: translate(42.866px,34.63px) rotate(55deg)} 100% {transform: translate(42.866px,34.63px) rotate(0deg)}} #ePh6F9Y37y168_ts {animation: ePh6F9Y37y168_ts__ts 3000ms linear 1 normal forwards}@keyframes ePh6F9Y37y168_ts__ts { 0% {transform: scale(0,0)} 33.333333% {transform: scale(0,0)} 100% {transform: scale(1,1)}} #ePh6F9Y37y168 {animation: ePh6F9Y37y168_c_o 3000ms linear 1 normal forwards}@keyframes ePh6F9Y37y168_c_o { 0% {opacity: 0} 33.333333% {opacity: 0} 100% {opacity: 1}}
]]></style>
<defs><radialGradient id="ePh6F9Y37y12-fill" cx="0" cy="0" r="1" spreadMethod="pad" gradientUnits="userSpaceOnUse" gradientTransform="matrix(20.2031 0 0 9.29338 24.8498 38.1003)"><stop id="ePh6F9Y37y12-fill-0" offset="0%" stop-color="#000"/><stop id="ePh6F9Y37y12-fill-1" offset="100%" stop-color="rgba(0,0,0,0)"/></radialGradient><radialGradient id="ePh6F9Y37y13-fill" cx="0" cy="0" r="1" spreadMethod="pad" gradientUnits="userSpaceOnUse" gradientTransform="matrix(29.993 0 0 29.9936 18.2474 15.7162)"><stop id="ePh6F9Y37y13-fill-0" offset="0%" stop-color="#d3e9ff"/><stop id="ePh6F9Y37y13-fill-1" offset="16%" stop-color="#d3e9ff"/><stop id="ePh6F9Y37y13-fill-2" offset="75%" stop-color="#4074ae"/><stop id="ePh6F9Y37y13-fill-3" offset="100%" stop-color="#36486c"/></radialGradient><radialGradient id="ePh6F9Y37y14-fill" cx="0" cy="0" r="1" spreadMethod="pad" gradientUnits="userSpaceOnUse" gradientTransform="matrix(32.2083 0 0 27.693 21.5485 8.88184)"><stop id="ePh6F9Y37y14-fill-0" offset="0%" stop-color="rgba(255,255,255,0.42)"/><stop id="ePh6F9Y37y14-fill-1" offset="100%" stop-color="rgba(255,255,255,0)"/></radialGradient><radialGradient id="ePh6F9Y37y139-fill" cx="0" cy="0" r="1" spreadMethod="pad" gradientUnits="userSpaceOnUse" gradientTransform="matrix(41.4472 0 0 38.5556 18.8983 16.5988)"><stop id="ePh6F9Y37y139-fill-0" offset="0%" stop-color="#fff"/><stop id="ePh6F9Y37y139-fill-1" offset="38%" stop-color="#fefefe"/><stop id="ePh6F9Y37y139-fill-2" offset="100%" stop-color="#1d1d1d"/></radialGradient><radialGradient id="ePh6F9Y37y142-fill" cx="0" cy="0" r="1" spreadMethod="pad" gradientUnits="userSpaceOnUse" gradientTransform="matrix(41.4472 0 0 38.5556 18.8983 16.5988)"><stop id="ePh6F9Y37y142-fill-0" offset="0%" stop-color="#fff"/><stop id="ePh6F9Y37y142-fill-1" offset="38%" stop-color="#fefefe"/><stop id="ePh6F9Y37y142-fill-2" offset="100%" stop-color="#1d1d1d"/></radialGradient><radialGradient id="ePh6F9Y37y145-fill" cx="0" cy="0" r="1" spreadMethod="pad" gradientUnits="userSpaceOnUse" gradientTransform="matrix(41.4472 0 0 38.5556 18.8983 16.5988)"><stop id="ePh6F9Y37y145-fill-0" offset="0%" stop-color="#fff"/><stop id="ePh6F9Y37y145-fill-1" offset="38%" stop-color="#fefefe"/><stop id="ePh6F9Y37y145-fill-2" offset="100%" stop-color="#1d1d1d"/></radialGradient><radialGradient id="ePh6F9Y37y148-fill" cx="0" cy="0" r="1" spreadMethod="pad" gradientUnits="userSpaceOnUse" gradientTransform="matrix(41.4472 0 0 38.5556 18.8983 16.5988)"><stop id="ePh6F9Y37y148-fill-0" offset="0%" stop-color="#fff"/><stop id="ePh6F9Y37y148-fill-1" offset="38%" stop-color="#fefefe"/><stop id="ePh6F9Y37y148-fill-2" offset="100%" stop-color="#1d1d1d"/></radialGradient><radialGradient id="ePh6F9Y37y151-fill" cx="0" cy="0" r="1" spreadMethod="pad" gradientUnits="userSpaceOnUse" gradientTransform="matrix(41.4472 0 0 38.5556 18.8983 16.5988)"><stop id="ePh6F9Y37y151-fill-0" offset="0%" stop-color="#fff"/><stop id="ePh6F9Y37y151-fill-1" offset="38%" stop-color="#fefefe"/><stop id="ePh6F9Y37y151-fill-2" offset="100%" stop-color="#1d1d1d"/></radialGradient><radialGradient id="ePh6F9Y37y154-fill" cx="0" cy="0" r="1" spreadMethod="pad" gradientUnits="userSpaceOnUse" gradientTransform="matrix(41.4472 0 0 38.5556 18.8983 16.5988)"><stop id="ePh6F9Y37y154-fill-0" offset="0%" stop-color="#fff"/><stop id="ePh6F9Y37y154-fill-1" offset="38%" stop-color="#fefefe"/><stop id="ePh6F9Y37y154-fill-2" offset="100%" stop-color="#1d1d1d"/></radialGradient><radialGradient id="ePh6F9Y37y157-fill" cx="0" cy="0" r="1" spreadMethod="pad" gradientUnits="userSpaceOnUse" gradientTransform="matrix(41.4472 0 0 38.5556 18.8983 16.5988)"><stop id="ePh6F9Y37y157-fill-0" offset="0%" stop-color="#fff"/><stop id="ePh6F9Y37y157-fill-1" offset="38%" stop-color="#fefefe"/><stop id="ePh6F9Y37y157-fill-2" offset="100%" stop-color="#1d1d1d"/></radialGradient><radialGradient id="ePh6F9Y37y160-fill" cx="0" cy="0" r="1" spreadMethod="pad" gradientUnits="userSpaceOnUse" gradientTransform="matrix(41.4472 0 0 38.5556 18.8983 16.5988)"><stop id="ePh6F9Y37y160-fill-0" offset="0%" stop-color="#fff"/><stop id="ePh6F9Y37y160-fill-1" offset="38%" stop-color="#fefefe"/><stop id="ePh6F9Y37y160-fill-2" offset="100%" stop-color="#1d1d1d"/></radialGradient><radialGradient id="ePh6F9Y37y163-fill" cx="0" cy="0" r="1" spreadMethod="pad" gradientUnits="userSpaceOnUse" gradientTransform="matrix(41.4472 0 0 38.5556 18.8983 16.5988)"><stop id="ePh6F9Y37y163-fill-0" offset="0%" stop-color="#fff"/><stop id="ePh6F9Y37y163-fill-1" offset="38%" stop-color="#fefefe"/><stop id="ePh6F9Y37y163-fill-2" offset="100%" stop-color="#1d1d1d"/></radialGradient><radialGradient id="ePh6F9Y37y166-fill" cx="0" cy="0" r="1" spreadMethod="pad" gradientUnits="userSpaceOnUse" gradientTransform="matrix(41.4472 0 0 38.5556 18.8983 16.5988)"><stop id="ePh6F9Y37y166-fill-0" offset="0%" stop-color="#fff"/><stop id="ePh6F9Y37y166-fill-1" offset="38%" stop-color="#fefefe"/><stop id="ePh6F9Y37y166-fill-2" offset="100%" stop-color="#1d1d1d"/></radialGradient><radialGradient id="ePh6F9Y37y167-stroke" cx="0" cy="0" r="1" spreadMethod="pad" gradientUnits="userSpaceOnUse" gradientTransform="matrix(43.5262 0 0 43.5271 15.6011 12.1424)"><stop id="ePh6F9Y37y167-stroke-0" offset="0%" stop-color="#fff"/><stop id="ePh6F9Y37y167-stroke-1" offset="100%" stop-color="rgba(255,255,255,0.16)"/></radialGradient></defs><path d="M45.053,38.099v.003c0,5.098-9.12,9.294-20.203,9.294s-20.203-4.196-20.203-9.294v-.003c0-5.099,9.12-9.294,20.203-9.294s20.203,4.195,20.203,9.294Z" clip-rule="evenodd" fill="url(#ePh6F9Y37y12-fill)"/><path d="M43.96,23.485c0,10.71-8.682,19.392-19.39,19.392-10.71,0-19.391-8.682-19.391-19.392c0-10.709,8.681-19.39,19.391-19.39c10.708,0,19.39,8.681,19.39,19.39Z" clip-rule="evenodd" fill="url(#ePh6F9Y37y13-fill)" stroke="#39396c"/><path d="M35.557,15.271c0,5.098-4.879,9.293-10.808,9.293-5.93,0-10.809-4.195-10.809-9.293s4.879-9.293,10.809-9.293c5.929,0,10.808,4.195,10.808,9.293Z" clip-rule="evenodd" fill="url(#ePh6F9Y37y14-fill)"/><g clip-rule="evenodd"><g clip-rule="evenodd"><g clip-rule="evenodd"><path d="M43.415,20.582c0,.258,0,0,0,0l-.535.606c-.328-.386-.696-.711-1.07-1.051l-.822.121-.75-.848v1.049l.643.487.428.484.571-.646c.144.269.286.539.429.808v.808l-.643.727-1.179.809-.892.89-.571-.648.285-.727-.57-.647-.965-2.061-.821-.928-.215.241.323,1.173.606.687c.346.999.689,1.955,1.144,2.91.705,0,1.369-.075,2.07-.163v.566l-.857,2.102-.786.888-.642,1.376v2.262l.215.89-.357.403-.787.486-.821.686.679.768-.929.81.179.523-1.393,1.578h-.928l-.786.485h-.5v-.647l-.213-1.295c-.277-.811-.564-1.617-.857-2.423c0-.595.035-1.184.071-1.779l.358-.807-.501-.971.036-1.334-.679-.767.34-1.111-.553-.627h-.965l-.321-.364-.964.607-.393-.446-.893.768c-.606-.687-1.213-1.374-1.821-2.061L25.1,23.531l.642-.969-.357-.404.785-1.86c.645-.802,1.318-1.571,2-2.343l1.214-.324l1.357-.161.928.243l1.321,1.332.465-.524.641-.081l1.215.404h.929l.642-.566.286-.404-.644-.404-1.071-.08c-.298-.413-.574-.847-.927-1.213l-.358.161-.143,1.052-.643-.728-.141-.809-.714-.564h-.287l.715.807-.286.728-.571.161.357-.727-.644-.323-.57-.646-1.072.241-.142.323-.643.405-.357.889-.892.444-.394-.444h-.427v-1.455l.928-.486h.714l-.144-.565-.57-.566.963-.202.536-.606.428-.728h.786l-.215-.565.501-.323v.647l1.071.241l1.07-.888.072-.405.928-.646c-.336.042-.672.072-1,.162v-.728l.357-.809h-.357l-.784.727-.215.405.215.566-.358.969-.571-.323-.499-.565-.786.565-.286-1.293l1.356-.889v-.485l.858-.566l1.356-.323.929.323l1.713.324-.427.484h-.929l.929.97.713-.808.217-.355c0,0,2.738,2.454,4.303,5.138c1.565,2.685,2.299,5.85,2.299,6.493Z" clip-rule="evenodd" fill-opacity="0.71"/></g></g><g clip-rule="evenodd"><g clip-rule="evenodd"><path d="M25.732,9.306l-.072.485.501.323.855-.565-.427-.485-.572.323-.285-.081" clip-rule="evenodd" fill-opacity="0.71"/></g></g><g clip-rule="evenodd"><g clip-rule="evenodd"><path d="M26.517,5.993L24.66,5.265l-2.141.242-2.643.728-.5.485l1.643,1.131v.647l-.643.646.857,1.699.57-.324.716-1.132c1.103-.341,2.092-.727,3.141-1.212l.857-2.182" clip-rule="evenodd" fill-opacity="0.71"/></g></g><g clip-rule="evenodd"><g clip-rule="evenodd"><path d="M28.446,12.783l-.286-.729-.501.163.144.888.643-.322" clip-rule="evenodd" fill-opacity="0.71"/></g></g><g clip-rule="evenodd"><g clip-rule="evenodd"><path d="M28.731,12.62l-.143.97.785-.162.571-.565-.5-.485c-.167-.447-.36-.865-.57-1.293h-.428v.484l.285.323v.728" clip-rule="evenodd" fill-opacity="0.71"/></g></g><g clip-rule="evenodd"><g clip-rule="evenodd"><path d="M18.163,27.977l-.572-1.132-1.071-.242-.572-1.535-1.428.161-1.213-.888-1.286,1.131v.178c-.389-.112-.867-.127-1.214-.34l-.286-.808v-.889l-.856.08c.071-.566.142-1.131.214-1.697h-.5l-.5.647-.5.242-.714-.403-.072-.89.143-.97l1.072-.807h.857l.142-.486l1.071.242.786.971.143-1.618l1.357-1.131.499-1.212l1-.404.571-.808l1.285-.244.644-.969h-1.929l1.214-.566h.857l1.214-.405.143-.483-.429-.405-.5-.162.143-.484-.357-.728-.857.323.143-.646-.999-.566-.786,1.373.071.485-.785.324-.5,1.051-.214-.97-1.357-.566-.215-.727l1.786-1.052.786-.727.071-.889-.428-.242-.572-.081-.356.889c0,0-.598.117-.751.155-1.961,1.807-5.923,5.708-6.844,13.071.037.171.668,1.161.668,1.161l1.499.889l1.5.404.643.809.999.727.571-.08.429.193v.13l-.571,1.535-.429.647.143.324-.357,1.211l1.285,2.345l1.285,1.132.572.807-.072,1.698.429.969-.429,1.86c0,0-.033-.012.021.174.056.186,2.288,1.426,2.43,1.32.142-.107.263-.201.263-.201l-.143-.403.571-.566.215-.566.928-.325.714-1.778-.214-.484.499-.727l1.072-.243.571-1.294-.143-1.615.857-1.213.143-1.212c-1.172-.582-2.335-1.18-3.499-1.779" clip-rule="evenodd" fill-opacity="0.71"/></g></g><g clip-rule="evenodd"><g clip-rule="evenodd"><path d="M16.591,9.629l.714.485h.572v-.565l-.714-.324-.572.404" clip-rule="evenodd" fill-opacity="0.71"/></g></g><g clip-rule="evenodd"><g clip-rule="evenodd"><path d="M14.735,8.983l-.358.889h.715l.357-.808c.308-.218.615-.437.928-.647l.715.243c.475.323.951.646,1.428.969l.714-.646-.786-.323-.357-.728-1.357-.162-.071-.404-.643.162-.286.566-.357-.728-.142.324.071.808-.571.485" clip-rule="evenodd" fill-opacity="0.71"/></g></g><g clip-rule="evenodd"><g clip-rule="evenodd"><path d="M17.305,6.962l.357-.323.715-.162c.489-.238.98-.398,1.499-.566l-.285-.485-.922.133-.435.434-.718.104-.639.3-.31.15-.19.254.928.161" clip-rule="evenodd" fill-opacity="0.71"/></g></g><g clip-rule="evenodd"><g clip-rule="evenodd"><path d="M18.519,14.641l.429-.647-.643-.484.214,1.131" clip-rule="evenodd" fill-opacity="0.71"/></g></g></g><g clip-rule="evenodd"><g clip-rule="evenodd"><g clip-rule="evenodd"><path d="M43.213,20.38c0,.258,0,0,0,0l-.535.606c-.328-.386-.696-.711-1.07-1.051l-.822.121-.75-.848v1.049l.643.487.428.484.571-.646c.144.269.286.539.429.808v.808l-.643.727-1.179.809-.892.89-.571-.648.285-.727-.57-.647-.965-2.061-.821-.928-.215.241.323,1.173.606.687c.346.999.689,1.955,1.144,2.91.705,0,1.369-.075,2.07-.163v.566l-.857,2.102-.786.888-.642,1.376v2.262l.215.89-.357.403-.787.486-.821.686.679.768-.929.81.179.523-1.393,1.578h-.928l-.786.485h-.5v-.647l-.213-1.295c-.277-.811-.564-1.617-.857-2.423c0-.595.035-1.184.071-1.779l.358-.807-.501-.971.036-1.334-.679-.767.34-1.111-.553-.627h-.965l-.321-.364-.964.607-.393-.446-.893.768c-.606-.687-1.213-1.374-1.821-2.061l-.713-1.698.642-.969-.357-.404.785-1.86c.645-.802,1.318-1.571,2-2.343l1.214-.324l1.357-.161.928.243l1.321,1.332.465-.524.641-.081l1.215.404h.928l.643-.566.286-.404-.644-.404-1.071-.08c-.298-.413-.574-.847-.927-1.213l-.358.161-.143,1.052-.643-.728-.141-.809-.714-.564h-.287l.715.807-.286.728-.571.161.357-.727-.644-.323-.57-.646-1.072.241-.142.323-.643.405-.357.889-.892.444-.394-.444h-.427v-1.455l.928-.486h.714l-.144-.565-.57-.566.963-.202.536-.606.428-.728h.786l-.215-.565.501-.323v.646l1.071.242l1.07-.888.072-.405.928-.646c-.336.042-.672.072-1,.162v-.728l.357-.809h-.357l-.784.727-.215.405.215.566-.358.969-.571-.323-.499-.565-.786.565-.286-1.293l1.356-.889v-.485l.858-.566l1.356-.323.929.323l1.713.324-.427.484h-.929l.929.97.713-.808.217-.355c0,0,2.738,2.454,4.303,5.138c1.565,2.685,2.299,5.85,2.299,6.493Z" clip-rule="evenodd" fill="url(#ePh6F9Y37y139-fill)"/></g></g><g clip-rule="evenodd"><g clip-rule="evenodd"><path d="M25.53,9.104l-.072.485.501.323.855-.565-.427-.485-.572.323-.285-.081" clip-rule="evenodd" fill="url(#ePh6F9Y37y142-fill)"/></g></g><g clip-rule="evenodd"><g clip-rule="evenodd"><path d="M26.315,5.791l-1.857-.728-2.141.242-2.643.728-.5.485l1.643,1.131v.647l-.643.646.857,1.699.57-.324.716-1.132c1.103-.341,2.092-.727,3.141-1.212l.857-2.182" clip-rule="evenodd" fill="url(#ePh6F9Y37y145-fill)"/></g></g><g clip-rule="evenodd"><g clip-rule="evenodd"><path d="M28.244,12.581l-.286-.729-.501.163.144.888.643-.322" clip-rule="evenodd" fill="url(#ePh6F9Y37y148-fill)"/></g></g><g clip-rule="evenodd"><g clip-rule="evenodd"><path d="M28.529,12.418l-.143.97.785-.162.571-.565-.5-.485c-.167-.447-.36-.865-.57-1.293h-.428v.484l.285.323v.728" clip-rule="evenodd" fill="url(#ePh6F9Y37y151-fill)"/></g></g><g clip-rule="evenodd"><g clip-rule="evenodd"><path d="M17.96,27.775l-.571-1.132-1.071-.242-.572-1.535-1.428.161-1.213-.888-1.286,1.131v.178c-.389-.112-.867-.127-1.214-.34l-.286-.808v-.889l-.856.08c.071-.566.142-1.131.214-1.697h-.5l-.5.647-.5.241-.714-.402-.072-.89.143-.97l1.072-.808h.856l.143-.485l1.071.242.786.971.143-1.618l1.357-1.131.499-1.212l1-.404.571-.808l1.285-.244.644-.969h-1.929l1.214-.566h.857l1.214-.405.143-.483-.429-.405-.5-.162.143-.485-.357-.727-.857.323.143-.646-1-.566-.785,1.373.071.485-.785.324-.5,1.051-.214-.97-1.357-.566-.215-.727L13.604,9.75l.785-.727.072-.889-.428-.242-.572-.081-.356.889c0,0-.598.117-.751.155-1.961,1.807-5.923,5.708-6.844,13.071.037.171.668,1.161.668,1.161l1.499.889l1.5.404.643.809.999.727.571-.08.429.193v.13l-.571,1.535-.429.647.143.324-.357,1.211l1.285,2.345l1.285,1.132.572.807-.072,1.698.429.969-.429,1.86c0,0-.033-.012.021.174.056.186,2.288,1.426,2.43,1.32.142-.107.263-.201.263-.201l-.143-.403.571-.566.215-.566.928-.325.714-1.778-.214-.484.499-.727l1.072-.243.571-1.294-.143-1.615.857-1.213.143-1.212c-1.172-.582-2.335-1.18-3.499-1.779" clip-rule="evenodd" fill="url(#ePh6F9Y37y154-fill)"/></g></g><g clip-rule="evenodd"><g clip-rule="evenodd"><path d="M16.389,9.427l.714.485h.572v-.565l-.714-.324-.572.404" clip-rule="evenodd" fill="url(#ePh6F9Y37y157-fill)"/></g></g><g clip-rule="evenodd"><g clip-rule="evenodd"><path d="M14.533,8.781l-.358.889h.715l.357-.808c.308-.218.615-.437.928-.647l.715.243c.475.323.951.646,1.427.969l.715-.646-.786-.323-.357-.728-1.357-.162-.071-.404-.643.162-.286.566-.357-.728-.142.323.071.809-.571.485" clip-rule="evenodd" fill="url(#ePh6F9Y37y160-fill)"/></g></g><g clip-rule="evenodd"><g clip-rule="evenodd"><path d="M17.103,6.76l.357-.323.715-.162c.489-.238.98-.398,1.499-.566l-.285-.485-.922.133-.435.434-.719.104-.638.3-.31.15-.19.254.928.161" clip-rule="evenodd" fill="url(#ePh6F9Y37y163-fill)"/></g></g><g clip-rule="evenodd"><g clip-rule="evenodd"><path d="M18.317,14.439l.429-.647-.643-.484.214,1.131" clip-rule="evenodd" fill="url(#ePh6F9Y37y166-fill)"/></g></g></g><path d="M42.975,23.486c0,10.165-8.241,18.406-18.406,18.406s-18.406-8.241-18.406-18.406C6.163,13.32,14.404,5.08,24.569,5.08s18.406,8.24,18.406,18.406Z" clip-rule="evenodd" fill="none" stroke="url(#ePh6F9Y37y167-stroke)"/><g id="ePh6F9Y37y168_tr" transform="translate(42.866,34.63) rotate(55)"><g id="ePh6F9Y37y168_ts" transform="scale(0,0)"><g id="ePh6F9Y37y168" transform="translate(-42.865995,-34.63)" opacity="0" clip-rule="evenodd"><path d="M42.866,30.51c-.255-.62-.524-1.651-1.244-2.713-2.315-3.415-5.205-6.117-8.867-8.559-2.876-1.919-8.444-3.877-8.444-3.877L23.275,18.24c0,0,5.686,2.152,7.753,3.531c3.414,2.277,5.984,4.69,8.061,7.753.365.539.908,1.86,1.305,2.956.396,1.096.656,1.794.805,2.15" clip-rule="evenodd" fill="#fff" stroke="#000" stroke-width="0.88" stroke-linecap="round" stroke-linejoin="round"/><path d="M27.842,20.14c-.028.658.04,1.532.224,2.193v-.016l-8.18-6.936h10.724c-.565.375-1.385,1.273-1.787,1.789" clip-rule="evenodd" fill="#fff" fill-rule="evenodd" stroke="#000" stroke-width="0.88" stroke-linecap="round" stroke-linejoin="round"/></g></g></g></svg>
