<?xml version="1.0" encoding="UTF-8" standalone="no"?>
<!-- Created with Inkscape (http://www.inkscape.org/) -->

<svg
   version="1.0"
   width="300"
   height="300"
   id="svg2"
   inkscape:version="1.2.2 (b0a8486541, 2022-12-01)"
   sodipodi:docname="airwayjet.svg"
   xmlns:inkscape="http://www.inkscape.org/namespaces/inkscape"
   xmlns:sodipodi="http://sodipodi.sourceforge.net/DTD/sodipodi-0.dtd"
   xmlns="http://www.w3.org/2000/svg"
   xmlns:svg="http://www.w3.org/2000/svg"
   xmlns:rdf="http://www.w3.org/1999/02/22-rdf-syntax-ns#"
   xmlns:cc="http://creativecommons.org/ns#"
   xmlns:dc="http://purl.org/dc/elements/1.1/">
  <metadata
     id="metadata17">
    <rdf:RDF>
      <cc:Work
         rdf:about="">
        <dc:format>image/svg+xml</dc:format>
        <dc:type
           rdf:resource="http://purl.org/dc/dcmitype/StillImage" />
        <dc:title />
      </cc:Work>
    </rdf:RDF>
  </metadata>
  <sodipodi:namedview
     pagecolor="#ffffff"
     bordercolor="#666666"
     borderopacity="1"
     objecttolerance="10"
     gridtolerance="10"
     guidetolerance="10"
     inkscape:pageopacity="0"
     inkscape:pageshadow="2"
     inkscape:window-width="1876"
     inkscape:window-height="1056"
     id="namedview15"
     showgrid="true"
     inkscape:zoom="1.5733333"
     inkscape:cx="-54.978827"
     inkscape:cy="102.05082"
     inkscape:window-x="44"
     inkscape:window-y="24"
     inkscape:window-maximized="1"
     inkscape:current-layer="svg2"
     showguides="false"
     inkscape:snap-grids="true"
     fit-margin-top="0"
     fit-margin-left="0"
     fit-margin-right="0"
     fit-margin-bottom="0"
     inkscape:snap-global="false"
     inkscape:showpageshadow="2"
     inkscape:pagecheckerboard="0"
     inkscape:deskcolor="#d1d1d1">
    <inkscape:grid
       type="xygrid"
       id="grid8410"
       originx="1.0778451"
       originy="-1090.1976" />
  </sodipodi:namedview>
  <defs
     id="defs4" />
  <path
     style="fill:none;fill-rule:evenodd;stroke:#494aa5;stroke-width:15;stroke-linecap:butt;stroke-linejoin:miter;stroke-miterlimit:4;stroke-dasharray:none;stroke-opacity:1"
     d="m 21.077845,150.1976 180.000005,60 86.52542,-83.98305"
     id="path12697"
     inkscape:connector-curvature="0"
     sodipodi:nodetypes="ccc" />
  <path
     style="fill:none;fill-rule:evenodd;stroke:#494aa5;stroke-width:15;stroke-linecap:butt;stroke-linejoin:miter;stroke-miterlimit:4;stroke-dasharray:none;stroke-opacity:1"
     d="m 21.077845,20.1976 180.000005,190 81.90678,-198.898305"
     id="path12691"
     inkscape:connector-curvature="0"
     sodipodi:nodetypes="ccc" />
  <path
     style="fill:none;fill-rule:evenodd;stroke:#494aa5;stroke-width:15;stroke-linecap:butt;stroke-linejoin:miter;stroke-miterlimit:4;stroke-dasharray:none;stroke-opacity:1"
     d="M 286.67107,289.09591 201.07785,210.1976 10.908353,287.18913"
     id="path12693"
     inkscape:connector-curvature="0"
     sodipodi:nodetypes="ccc" />
  <path
     style="fill:none;fill-rule:evenodd;stroke:#494aa5;stroke-width:15;stroke-linecap:butt;stroke-linejoin:miter;stroke-miterlimit:4;stroke-dasharray:none;stroke-opacity:1"
     d="M 201.07785,210.1976 10.27276,232.73997"
     id="path12695"
     inkscape:connector-curvature="0"
     sodipodi:nodetypes="cc" />
  <rect
     style="opacity:1;fill:#dedede;fill-opacity:1;fill-rule:evenodd;stroke:none;stroke-width:53.04660416;stroke-linecap:round;stroke-linejoin:miter;stroke-miterlimit:4;stroke-dasharray:none;stroke-dashoffset:0;stroke-opacity:1"
     id="rect843"
     width="183.81357"
     height="176.35593"
     x="2.1795259"
     y="5.1128588" />
  <g
     aria-label="H"
     id="text17213"
     style="font-weight:bold;font-size:244.276px;line-height:125%;font-family:'Courier New';-inkscape-font-specification:'Courier New Bold';letter-spacing:0px;word-spacing:0px;stroke-width:1px">
    <path
       d="M 110.17803,108.09092 H 57.935411 v 35.42479 h 3.816812 q 8.826379,0 12.523916,3.45898 3.816813,3.33972 3.816813,8.82638 0,5.3674 -3.816813,8.82638 -3.697537,3.33971 -12.523916,3.33971 H 31.8141 q -8.826379,0 -12.643191,-3.33971 -3.697537,-3.45898 -3.697537,-8.94565 0,-6.67942 5.844494,-10.37696 2.862609,-1.90841 12.16609,-1.78913 V 47.856844 q -6.440871,-0.596377 -9.780582,-3.936088 -3.220436,-3.339711 -3.220436,-8.349277 0,-5.486668 3.697537,-8.826379 3.816813,-3.458986 12.643192,-3.458986 l 24.928556,0.119275 q 8.826379,0 12.523916,3.339711 3.816813,3.339711 3.816813,8.826379 0,5.486668 -3.816813,8.945654 -3.697537,3.339711 -12.523916,3.339711 H 57.935411 V 83.639462 H 110.17803 V 47.856844 h -3.81681 q -8.826379,0 -12.643192,-3.339711 -3.697537,-3.458986 -3.697537,-8.945654 0,-5.486668 3.697537,-8.826379 3.816813,-3.458986 12.643192,-3.458986 l 24.92856,0.119275 q 8.82638,0 12.52391,3.339711 3.81681,3.339711 3.81681,8.826379 0,5.009566 -3.33971,8.349277 -3.22043,3.339711 -9.6613,3.936088 v 95.658866 q 9.42275,0 12.16609,1.78913 5.84449,3.69754 5.84449,10.49623 0,5.3674 -3.81681,8.82638 -3.69754,3.33971 -12.52392,3.33971 h -29.93812 q -8.826379,0 -12.643192,-3.33971 -3.697537,-3.45898 -3.697537,-8.94565 0,-5.36739 3.816813,-8.70711 3.816812,-3.45898 12.523916,-3.45898 h 3.81681 z"
       id="path693" />
  </g>
</svg>
