<?xml version="1.0" encoding="UTF-8" standalone="no"?>
<!-- Created with Inkscape (http://www.inkscape.org/) -->

<svg
   xmlns:dc="http://purl.org/dc/elements/1.1/"
   xmlns:cc="http://creativecommons.org/ns#"
   xmlns:rdf="http://www.w3.org/1999/02/22-rdf-syntax-ns#"
   xmlns:svg="http://www.w3.org/2000/svg"
   xmlns="http://www.w3.org/2000/svg"
   xmlns:sodipodi="http://sodipodi.sourceforge.net/DTD/sodipodi-0.dtd"
   xmlns:inkscape="http://www.inkscape.org/namespaces/inkscape"
   version="1.0"
   width="300"
   height="300"
   id="svg2"
   inkscape:version="0.91 r13725"
   sodipodi:docname="approachselect.svg">
  <metadata
     id="metadata17">
    <rdf:RDF>
      <cc:Work
         rdf:about="">
        <dc:format>image/svg+xml</dc:format>
        <dc:type
           rdf:resource="http://purl.org/dc/dcmitype/StillImage" />
        <dc:title />
      </cc:Work>
    </rdf:RDF>
  </metadata>
  <sodipodi:namedview
     pagecolor="#ffffff"
     bordercolor="#666666"
     borderopacity="1"
     objecttolerance="10"
     gridtolerance="10"
     guidetolerance="10"
     inkscape:pageopacity="0"
     inkscape:pageshadow="2"
     inkscape:window-width="1812"
     inkscape:window-height="1056"
     id="namedview15"
     showgrid="true"
     inkscape:zoom="1.5733333"
     inkscape:cx="-8.5584855"
     inkscape:cy="86.764814"
     inkscape:window-x="38"
     inkscape:window-y="24"
     inkscape:window-maximized="1"
     inkscape:current-layer="g3338"
     showguides="false"
     inkscape:snap-grids="true"
     fit-margin-top="0"
     fit-margin-left="0"
     fit-margin-right="0"
     fit-margin-bottom="0">
    <inkscape:grid
       type="xygrid"
       id="grid8410"
       originx="1.0778451"
       originy="-1090.1976" />
  </sodipodi:namedview>
  <defs
     id="defs4">
    <marker
       inkscape:stockid="Arrow2Lend"
       orient="auto"
       refY="0.0"
       refX="0.0"
       id="Arrow2Lend"
       style="overflow:visible;"
       inkscape:isstock="true">
      <path
         id="path4632"
         style="fill-rule:evenodd;stroke-width:0.625;stroke-linejoin:round;stroke:#000000;stroke-opacity:1;fill:#000000;fill-opacity:1"
         d="M 8.7185878,4.0337352 L -2.2072895,0.016013256 L 8.7185884,-4.0017078 C 6.9730900,-1.6296469 6.9831476,1.6157441 8.7185878,4.0337352 z "
         transform="scale(1.1) rotate(180) translate(1,0)" />
    </marker>
    <marker
       inkscape:stockid="Arrow1Lend"
       orient="auto"
       refY="0.0"
       refX="0.0"
       id="marker10332"
       style="overflow:visible;"
       inkscape:isstock="true">
      <path
         id="path10334"
         d="M 0.0,0.0 L 5.0,-5.0 L -12.5,0.0 L 5.0,5.0 L 0.0,0.0 z "
         style="fill-rule:evenodd;stroke:#000000;stroke-width:1pt;stroke-opacity:1;fill:#000000;fill-opacity:1"
         transform="scale(0.8) rotate(180) translate(12.5,0)" />
    </marker>
    <marker
       inkscape:stockid="Arrow1Lend"
       orient="auto"
       refY="0.0"
       refX="0.0"
       id="Arrow1Lend"
       style="overflow:visible;"
       inkscape:isstock="true">
      <path
         id="path4614"
         d="M 0.0,0.0 L 5.0,-5.0 L -12.5,0.0 L 5.0,5.0 L 0.0,0.0 z "
         style="fill-rule:evenodd;stroke:#000000;stroke-width:1pt;stroke-opacity:1;fill:#000000;fill-opacity:1"
         transform="scale(0.8) rotate(180) translate(12.5,0)" />
    </marker>
    <marker
       inkscape:stockid="Arrow1Lstart"
       orient="auto"
       refY="0.0"
       refX="0.0"
       id="marker4987"
       style="overflow:visible"
       inkscape:isstock="true">
      <path
         id="path4989"
         d="M 0.0,0.0 L 5.0,-5.0 L -12.5,0.0 L 5.0,5.0 L 0.0,0.0 z "
         style="fill-rule:evenodd;stroke:#000000;stroke-width:1pt;stroke-opacity:1;fill:#000000;fill-opacity:1"
         transform="scale(0.8) translate(12.5,0)" />
    </marker>
    <marker
       inkscape:stockid="Arrow1Lstart"
       orient="auto"
       refY="0.0"
       refX="0.0"
       id="Arrow1Lstart"
       style="overflow:visible"
       inkscape:isstock="true">
      <path
         id="path4611"
         d="M 0.0,0.0 L 5.0,-5.0 L -12.5,0.0 L 5.0,5.0 L 0.0,0.0 z "
         style="fill-rule:evenodd;stroke:#000000;stroke-width:1pt;stroke-opacity:1;fill:#000000;fill-opacity:1"
         transform="scale(0.8) translate(12.5,0)" />
    </marker>
    <marker
       inkscape:stockid="Arrow1Lend"
       orient="auto"
       refY="0"
       refX="0"
       id="Arrow1Lend-3"
       style="overflow:visible"
       inkscape:isstock="true">
      <path
         inkscape:connector-curvature="0"
         id="path4614-5"
         d="M 0,0 5,-5 -12.5,0 5,5 0,0 Z"
         style="fill:#000000;fill-opacity:1;fill-rule:evenodd;stroke:#000000;stroke-width:1pt;stroke-opacity:1"
         transform="matrix(-0.8,0,0,-0.8,-10,0)" />
    </marker>
    <marker
       inkscape:stockid="Arrow2Lend"
       orient="auto"
       refY="0"
       refX="0"
       id="Arrow2Lend-2"
       style="overflow:visible"
       inkscape:isstock="true">
      <path
         inkscape:connector-curvature="0"
         id="path4632-9"
         style="fill:#000000;fill-opacity:1;fill-rule:evenodd;stroke:#000000;stroke-width:0.625;stroke-linejoin:round;stroke-opacity:1"
         d="M 8.7185878,4.0337352 -2.2072895,0.01601326 8.7185884,-4.0017078 c -1.7454984,2.3720609 -1.7354408,5.6174519 -6e-7,8.035443 z"
         transform="matrix(-1.1,0,0,-1.1,-1.1,0)" />
    </marker>
    <marker
       inkscape:stockid="Arrow2Lend"
       orient="auto"
       refY="0"
       refX="0"
       id="Arrow2Lend-27"
       style="overflow:visible"
       inkscape:isstock="true">
      <path
         inkscape:connector-curvature="0"
         id="path4632-0"
         style="fill:#919295;fill-opacity:1;fill-rule:evenodd;stroke:#919295;stroke-width:0.625;stroke-linejoin:round;stroke-opacity:1"
         d="M 8.7185878,4.0337352 -2.2072895,0.01601326 8.7185884,-4.0017078 c -1.7454984,2.3720609 -1.7354408,5.6174519 -6e-7,8.035443 z"
         transform="matrix(-1.1,0,0,-1.1,-1.1,0)" />
    </marker>
    <marker
       inkscape:stockid="Arrow2Lend"
       orient="auto"
       refY="0"
       refX="0"
       id="Arrow2Lend-2-9"
       style="overflow:visible"
       inkscape:isstock="true">
      <path
         inkscape:connector-curvature="0"
         id="path4632-9-3"
         style="fill:#919295;fill-opacity:1;fill-rule:evenodd;stroke:#919295;stroke-width:0.625;stroke-linejoin:round;stroke-opacity:1"
         d="M 8.7185878,4.0337352 -2.2072895,0.01601326 8.7185884,-4.0017078 c -1.7454984,2.3720609 -1.7354408,5.6174519 -6e-7,8.035443 z"
         transform="matrix(-1.1,0,0,-1.1,-1.1,0)" />
    </marker>
    <marker
       inkscape:stockid="Arrow2Lend"
       orient="auto"
       refY="0"
       refX="0"
       id="Arrow2Lend-3"
       style="overflow:visible"
       inkscape:isstock="true">
      <path
         inkscape:connector-curvature="0"
         id="path4632-6"
         style="fill:#000000;fill-opacity:1;fill-rule:evenodd;stroke:#000000;stroke-width:0.625;stroke-linejoin:round;stroke-opacity:1"
         d="M 8.7185878,4.0337352 -2.2072895,0.01601326 8.7185884,-4.0017078 c -1.7454984,2.3720609 -1.7354408,5.6174519 -6e-7,8.035443 z"
         transform="matrix(-1.1,0,0,-1.1,-1.1,0)" />
    </marker>
    <linearGradient
       id="linearGradient3253"
       y2="30.318001"
       gradientUnits="userSpaceOnUse"
       x2="17.49"
       y1="-7.9937003e-08"
       x1="17.49">
      <stop
         id="stop3257"
         style="stop-color:#eef87e"
         offset="0" />
      <stop
         id="stop3259"
         style="stop-color:#cde34f"
         offset=".31738" />
      <stop
         id="stop3261"
         style="stop-color:#93b723"
         offset=".79345" />
      <stop
         id="stop3263"
         style="stop-color:#5a7e0d"
         offset="1" />
    </linearGradient>
    <linearGradient
       id="linearGradient3390"
       gradientUnits="userSpaceOnUse"
       x2="10"
       y1="29.485001"
       x1="10">
      <stop
         id="stop2492"
         style="stop-color:#455f0e"
         offset="0" />
      <stop
         id="stop2494"
         style="stop-color:#84a718"
         offset="1" />
    </linearGradient>
    <linearGradient
       id="linearGradient3236"
       y2="19.167999"
       gradientUnits="userSpaceOnUse"
       x2="14"
       x1="14">
      <stop
         id="stop4224"
         style="stop-color:#fff"
         offset="0" />
      <stop
         id="stop4226"
         style="stop-color:#fff;stop-opacity:0"
         offset="1" />
    </linearGradient>
  </defs>
  <g
     id="g3338"
     transform="translate(1.303346,15.110008)">
    <g
       id="g4246"
       transform="translate(383.26272,-18.432203)">
      <path
         sodipodi:nodetypes="ccccc"
         inkscape:connector-curvature="0"
         id="path4199-5-3"
         d="m -187.38098,236.88712 -140.59759,57.25622 70.29879,-137.4149 15.04275,59.00299 z"
         style="fill:#919191;fill-opacity:1;fill-rule:evenodd;stroke:#919191;stroke-width:1.15830946px;stroke-linecap:butt;stroke-linejoin:miter;stroke-opacity:1" />
      <path
         sodipodi:nodetypes="ccccc"
         inkscape:connector-curvature="0"
         id="path4199-56"
         d="M -310.85992,77.162611 -170.26233,19.906401 -240.56112,157.3213 -255.60387,98.318298 Z"
         style="fill:#919191;fill-opacity:1;fill-rule:evenodd;stroke:#919191;stroke-width:1.15830946px;stroke-linecap:butt;stroke-linejoin:miter;stroke-opacity:1" />
      <rect
         transform="matrix(0.73496689,-0.678103,0.678103,0.73496689,0,0)"
         ry="50"
         rx="50.000008"
         y="-100.06019"
         x="-321.31427"
         height="100"
         width="180"
         id="rect4156-3-2"
         style="opacity:1;fill:none;fill-opacity:1;stroke:#919191;stroke-width:51;stroke-linecap:round;stroke-linejoin:round;stroke-miterlimit:4;stroke-dasharray:none;stroke-dashoffset:0;stroke-opacity:1" />
      <path
         sodipodi:nodetypes="cc"
         inkscape:connector-curvature="0"
         id="path8098-8-6-7-9"
         d="m -273.57561,244.7034 102.11946,-82.12232"
         style="fill:none;fill-rule:evenodd;stroke:#919191;stroke-width:51;stroke-linecap:round;stroke-linejoin:round;stroke-miterlimit:4;stroke-dasharray:none;stroke-opacity:1" />
    </g>
    <path
       style="fill:#000000;fill-opacity:1;fill-rule:evenodd;stroke:#000000;stroke-width:1.15830946px;stroke-linecap:butt;stroke-linejoin:miter;stroke-opacity:1"
       d="m 164.18683,217.31085 -140.597591,57.25622 70.29879,-137.4149 15.042751,59.00299 z"
       id="path4199-5"
       inkscape:connector-curvature="0"
       sodipodi:nodetypes="ccccc" />
    <path
       style="fill:#000000;fill-opacity:1;fill-rule:evenodd;stroke:#000000;stroke-width:1.15830946px;stroke-linecap:butt;stroke-linejoin:miter;stroke-opacity:1"
       d="M 40.707889,57.586338 181.30548,0.3301287 111.00669,137.74503 95.963939,78.742025 Z"
       id="path4199"
       inkscape:connector-curvature="0"
       sodipodi:nodetypes="ccccc" />
    <rect
       style="opacity:1;fill:none;fill-opacity:1;stroke:#000000;stroke-width:51;stroke-linecap:round;stroke-linejoin:round;stroke-miterlimit:4;stroke-dasharray:none;stroke-dashoffset:0;stroke-opacity:1"
       id="rect4156-3"
       width="180"
       height="100"
       x="-49.64883"
       y="123.95108"
       rx="50.000008"
       ry="50"
       transform="matrix(0.73496689,-0.678103,0.678103,0.73496689,0,0)" />
    <path
       style="fill:none;fill-rule:evenodd;stroke:#000000;stroke-width:51;stroke-linecap:round;stroke-linejoin:round;stroke-miterlimit:4;stroke-dasharray:none;stroke-opacity:1"
       d="M 77.992199,225.12713 180.11166,143.00481"
       id="path8098-8-6-7"
       inkscape:connector-curvature="0"
       sodipodi:nodetypes="cc" />
    <path
       style="fill:none;fill-rule:evenodd;stroke:#ffb400;stroke-width:23;stroke-linecap:round;stroke-linejoin:bevel;stroke-miterlimit:4;stroke-dasharray:none;stroke-opacity:1"
       d="M 57.432799,245.56864 178.66796,141.61292"
       id="path8098-8-5"
       inkscape:connector-curvature="0"
       sodipodi:nodetypes="cc" />
    <rect
       style="opacity:1;fill:none;fill-opacity:1;stroke:#ffb400;stroke-width:23;stroke-linecap:round;stroke-linejoin:round;stroke-miterlimit:4;stroke-dasharray:none;stroke-dashoffset:0;stroke-opacity:1"
       id="rect4156"
       width="180"
       height="100"
       x="-49.903072"
       y="125.17989"
       rx="50.000008"
       ry="50"
       transform="matrix(0.73496689,-0.678103,0.678103,0.73496689,0,0)" />
    <g
       transform="matrix(7.1177548,0,0,7.1177548,122.00486,108.05016)"
       id="layer1"
       style="fill:#0000ff;stroke:#000000;fill-opacity:1;stroke-opacity:1">
      <path
         inkscape:connector-curvature="0"
         id="path1542"
         style="fill:#0000ff;stroke:#000000;stroke-width:1.00279999;stroke-linecap:round;stroke-linejoin:round;fill-opacity:1;stroke-opacity:1"
         d="M 19.197,0.5061 C 18.833,0.46983 18.471,0.64483 18.284,0.98081 l -7.97,14.312 -5.1239,-3.999 c -0.4564,-0.245 -1.0259,-0.087 -1.2753,0.36 l -2.2979,2.896 c -0.2494,0.448 -0.0816,1.007 0.3748,1.251 0,0 9.3563,7.584 9.3673,7.59 0.107,0.057 0.219,0.086 0.333,0.1 0.371,0.046 0.752,-0.125 0.943,-0.468 l 10.748,-19.301 c 0.249,-0.4481 0.082,-1.0068 -0.375,-1.2516 L 19.559,0.61281 C 19.445,0.55157 19.319,0.51799 19.197,0.50591 Z" />
      <path
         inkscape:connector-curvature="0"
         id="path3231"
         style="opacity:0.4;fill:#0000ff;stroke:#000000;stroke-width:1.00279999;stroke-linecap:round;stroke-linejoin:round;fill-opacity:1;stroke-opacity:1"
         d="m 19.125,1.5312 c -2.646,4.75 -5.292,9.4998 -7.937,14.25 -0.478,0.871 -1.4902,0.458 -2.0247,-0.099 -1.4711,-1.154 -2.9422,-2.309 -4.4133,-3.463 -0.7445,0.903 -1.4558,1.835 -2.1875,2.75 3.0766,2.494 6.1664,4.975 9.2185,7.5 3.552,-6.386 7.104,-12.771 10.657,-19.156 C 21.333,2.719 20.229,2.1252 19.125,1.5314 Z" />
    </g>
  </g>
</svg>
