<?xml version="1.0" encoding="UTF-8" standalone="no"?>
<!-- Created with Inkscape (http://www.inkscape.org/) -->

<svg
   version="1.0"
   width="128"
   height="128"
   id="svg1655"
   inkscape:version="1.2.2 (b0a8486541, 2022-12-01)"
   sodipodi:docname="boatai.svg"
   xmlns:inkscape="http://www.inkscape.org/namespaces/inkscape"
   xmlns:sodipodi="http://sodipodi.sourceforge.net/DTD/sodipodi-0.dtd"
   xmlns="http://www.w3.org/2000/svg"
   xmlns:svg="http://www.w3.org/2000/svg"
   xmlns:rdf="http://www.w3.org/1999/02/22-rdf-syntax-ns#"
   xmlns:cc="http://creativecommons.org/ns#"
   xmlns:dc="http://purl.org/dc/elements/1.1/">
  <metadata
     id="metadata10">
    <rdf:RDF>
      <cc:Work
         rdf:about="">
        <dc:format>image/svg+xml</dc:format>
        <dc:type
           rdf:resource="http://purl.org/dc/dcmitype/StillImage" />
        <dc:title />
      </cc:Work>
    </rdf:RDF>
  </metadata>
  <sodipodi:namedview
     pagecolor="#ffffff"
     bordercolor="#666666"
     borderopacity="1"
     objecttolerance="10"
     gridtolerance="10"
     guidetolerance="10"
     inkscape:pageopacity="0"
     inkscape:pageshadow="2"
     inkscape:window-width="1812"
     inkscape:window-height="1056"
     id="namedview8"
     showgrid="false"
     inkscape:zoom="1.84375"
     inkscape:cx="-28.780599"
     inkscape:cy="64"
     inkscape:window-x="38"
     inkscape:window-y="24"
     inkscape:window-maximized="1"
     inkscape:current-layer="svg1655"
     inkscape:showpageshadow="2"
     inkscape:pagecheckerboard="0"
     inkscape:deskcolor="#d1d1d1" />
  <defs
     id="defs1658" />
  <path
     style="fill:#cbcacc;fill-opacity:1;fill-rule:evenodd;stroke:#cbcacc;stroke-width:5.0999999;stroke-linecap:butt;stroke-linejoin:miter;stroke-miterlimit:4;stroke-dasharray:none;stroke-opacity:1"
     d="M 72.850399,28.530875 C 51.570796,37.837085 14.081888,83.572386 14.081888,83.572386 l 35.770655,41.283484 c 0,0 48.837806,-33.485602 60.783577,-53.408489 8.62777,-14.389183 17.35768,-42.718896 12.32269,-48.510006 -4.21407,-4.84691 -34.875281,-1.0684 -50.108411,5.5935 z"
     id="path4137-6"
     inkscape:connector-curvature="0"
     sodipodi:nodetypes="sccsss" />
  <g
     id="layer4" />
  <g
     style="display:inline"
     id="layer2" />
  <path
     style="fill:#ff7f00;fill-opacity:1;fill-rule:evenodd;stroke:#000000;stroke-width:8;stroke-linecap:butt;stroke-linejoin:miter;stroke-miterlimit:4;stroke-dasharray:none;stroke-opacity:1"
     d="M 64.635274,18.978405 C 43.355666,28.284611 5.8667577,74.019916 5.8667577,74.019916 L 41.637413,115.3034 c 0,0 48.837809,-33.485602 60.783577,-53.408489 8.62776,-14.389183 17.35768,-42.718898 12.32269,-48.510006 -4.21407,-4.8469138 -34.875278,-1.0684 -50.108406,5.5935 z"
     id="path4137"
     inkscape:connector-curvature="0"
     sodipodi:nodetypes="sccsss" />
  <rect
     style="opacity:1;fill:none;fill-opacity:1;stroke:#000000;stroke-width:5.0999999;stroke-linecap:square;stroke-linejoin:round;stroke-miterlimit:4;stroke-dasharray:none;stroke-dashoffset:0;stroke-opacity:1"
     id="rect4183"
     width="35.946373"
     height="20.640173"
     x="67.632286"
     y="-37.895"
     ry="7.6530972"
     rx="0"
     transform="matrix(0.65790351,0.75310223,-0.75310223,0.65790351,0,0)" />
  <rect
     style="opacity:1;fill:none;fill-opacity:1;stroke:#000000;stroke-width:5.0999999;stroke-linecap:square;stroke-linejoin:round;stroke-miterlimit:4;stroke-dasharray:none;stroke-dashoffset:0;stroke-opacity:1"
     id="rect4183-7"
     width="35.946373"
     height="20.640173"
     x="67.980156"
     y="11.560735"
     ry="0"
     rx="0"
     transform="matrix(0.65790351,0.75310223,-0.75310223,0.65790351,0,0)" />
  <ellipse
     style="opacity:1;fill:none;fill-opacity:1;stroke:#000000;stroke-width:5.0999999;stroke-linecap:square;stroke-linejoin:round;stroke-miterlimit:4;stroke-dasharray:none;stroke-dashoffset:0;stroke-opacity:1"
     id="path3316"
     cx="85.721428"
     cy="-2.7890654"
     rx="6.4223628"
     ry="6.1727357"
     transform="matrix(0.65790351,0.75310223,-0.75310223,0.65790351,0,0)" />
  <rect
     style="opacity:1;fill:#c6c9c9;fill-opacity:1;stroke:#7d7d7d;stroke-width:0.08700486;stroke-linecap:square;stroke-linejoin:bevel;stroke-miterlimit:4;stroke-dasharray:none;stroke-opacity:1"
     id="rect4186"
     width="59.959511"
     height="61.546532"
     x="63.441055"
     y="61.074009" />
  <g
     aria-label="A"
     id="text17209"
     style="font-weight:bold;line-height:0%;font-family:'Courier New';-inkscape-font-specification:'Courier New Bold';letter-spacing:0px;word-spacing:0px;stroke-width:1px">
    <path
       d="M 101.70805,101.8447 H 84.198439 l -1.757993,4.39498 h 1.757993 q 2.60183,0 3.691786,1.01964 1.125116,0.98448 1.125116,2.60183 0,1.58219 -1.125116,2.60183 -1.089956,0.98448 -3.691786,0.98448 h -9.704122 q -2.60183,0 -3.691786,-0.98448 -1.125115,-1.01964 -1.125115,-2.63699 0,-1.61735 1.160275,-2.63699 1.160276,-1.01964 3.832425,-0.94932 L 85.991592,78.041474 h -4.711421 q -2.60183,0 -3.726946,-0.984476 -1.089956,-1.019636 -1.089956,-2.63699 0,-1.617354 1.089956,-2.60183 1.125116,-1.019636 3.726946,-1.019636 l 15.575819,0.03516 14.34522,35.405978 q 2.53151,0 3.34019,0.56256 1.61736,1.16028 1.61736,3.05891 0,1.58219 -1.08996,2.60183 -1.08996,0.98448 -3.69179,0.98448 h -9.70412 q -2.601829,0 -3.726944,-0.98448 -1.089956,-1.01964 -1.089956,-2.63699 0,-1.58219 1.089956,-2.56667 1.125115,-1.01964 3.726944,-1.01964 h 1.75799 z M 98.719463,94.636929 92.918085,80.362025 87.081548,94.636929 Z"
       style="font-size:72.0074px;line-height:1.25"
       id="path247" />
  </g>
</svg>
