<?xml version="1.0" encoding="UTF-8" standalone="no"?>
<!-- Uploaded to: SVG Repo, www.svgrepo.com, Generator: SVG Repo Mixer Tools -->

<svg
   version="1.1"
   id="Layer_1"
   viewBox="0 0 16.000001 16.000001"
   xml:space="preserve"
   sodipodi:docname="bulb.svg"
   inkscape:version="1.2.2 (b0a8486541, 2022-12-01)"
   width="16"
   height="16"
   xmlns:inkscape="http://www.inkscape.org/namespaces/inkscape"
   xmlns:sodipodi="http://sodipodi.sourceforge.net/DTD/sodipodi-0.dtd"
   xmlns="http://www.w3.org/2000/svg"
   xmlns:svg="http://www.w3.org/2000/svg"><defs
   id="defs323">
	
	
	
	

	
	
	
	
	
		
	
		
	
		
	
		
</defs><sodipodi:namedview
   id="namedview321"
   pagecolor="#ffffff"
   bordercolor="#666666"
   borderopacity="1.0"
   inkscape:showpageshadow="2"
   inkscape:pageopacity="0.0"
   inkscape:pagecheckerboard="0"
   inkscape:deskcolor="#d1d1d1"
   showgrid="false"
   inkscape:current-layer="Layer_1" />



<g
   id="g321"
   transform="matrix(0.69312959,0,0,0.68682591,-0.45542551,0.07825146)"
   style="stroke-width:1.44934"><path
     style="fill:#fcff00;fill-opacity:1;stroke-width:0.0680299"
     d="M 11.661861,3.6785831 C 8.9780675,3.9753399 6.8142811,6.1323878 6.5099999,8.8153545 6.3043206,10.628846 6.9277252,12.299706 8.0494725,13.49897 c 1.2556561,1.342434 1.9070084,3.141084 1.9070084,4.979215 v 0.142425 h 4.7462911 v -0.14197 c 0,-1.888363 0.749333,-3.676511 2.004948,-5.087036 0.920864,-1.034474 1.480436,-2.397372 1.480436,-3.8914512 4.1e-5,-3.4555763 -2.991754,-6.2123809 -6.526295,-5.8215697 z"
     id="path288" /><rect
     x="12.089881"
     style="fill:#fcff00;fill-opacity:1;stroke:#ffff00;stroke-width:1.3606;stroke-dasharray:none;stroke-opacity:1"
     width="0.47944963"
     height="1.6414707"
     id="rect290"
     y="0.86343831" /><rect
     x="19.406681"
     y="9.3416395"
     style="fill:#fcff00;fill-opacity:1;stroke:#ffff00;stroke-width:1.59582;stroke-dasharray:none;stroke-opacity:1"
     width="2.2054126"
     height="0.31715041"
     id="rect292" /><rect
     x="2.6283865"
     y="9.3580332"
     style="fill:#fcff00;fill-opacity:1;stroke:#ffff00;stroke-width:1.64334;stroke-dasharray:none;stroke-opacity:1"
     width="2.6083698"
     height="0.28436294"
     id="rect294" /><rect
     x="-10.055948"
     y="-15.675738"
     transform="rotate(135)"
     style="fill:#fcff00;fill-opacity:1;stroke:#ffff00;stroke-width:1.3606;stroke-dasharray:none;stroke-opacity:1"
     width="1.0604678"
     height="0.4794451"
     id="rect296" /><rect
     x="4.9939671"
     y="-15.67472"
     transform="rotate(135)"
     style="fill:#fcff00;fill-opacity:1;stroke:#ffff00;stroke-width:1.3606;stroke-dasharray:none;stroke-opacity:1"
     width="1.0604678"
     height="0.4794451"
     id="rect298" /><rect
     x="-2.2454286"
     y="-23.492044"
     transform="rotate(135.0081)"
     style="fill:#fcff00;fill-opacity:1;stroke:#ffff00;stroke-width:1.3606;stroke-dasharray:none;stroke-opacity:1"
     width="0.47944504"
     height="1.0604677"
     id="rect300" /><rect
     x="-2.2405546"
     y="-8.4406567"
     transform="rotate(135)"
     style="fill:#fcff00;fill-opacity:1;stroke:#ffff00;stroke-width:1.3606;stroke-dasharray:none;stroke-opacity:1"
     width="0.4794451"
     height="1.0604678"
     id="rect302" /><path
     style="fill:#64798a;stroke-width:0.0680299"
     d="M 14.702771,18.620611 H 9.9564804 v 3.723588 c 0,0.106273 0.060237,0.192438 0.1345286,0.192438 h 4.477275 c 0.07429,0 0.134529,-0.08616 0.134529,-0.192438 v -3.723588 z"
     id="path306" /><g
     id="g557"
     transform="matrix(0.04211013,0,0,0.04693859,8.0666337,2.0596344)"
     style="stroke-width:1.53018"><path
       style="fill:#2f4859;stroke-width:1.53018"
       d="m 156.92144,357.41182 -113.252,12.399 c -3.863,0.424 -6.652,3.898 -6.228,7.76 0.423,3.862 3.897,6.651 7.759,6.228 l 113.253,-12.401 c 3.863,-0.422 6.651,-3.898 6.228,-7.76 -0.424,-3.861 -3.898,-6.65 -7.76,-6.226 z"
       id="path308" /><path
       style="fill:#2f4859;stroke-width:1.53018"
       d="m 156.92144,381.72782 -113.253,12.401 c -3.863,0.423 -6.652,3.898 -6.228,7.76 0.423,3.862 3.897,6.651 7.759,6.228 l 113.253,-12.4 c 3.863,-0.423 6.651,-3.898 6.228,-7.76 -0.423,-3.864 -3.897,-6.651 -7.759,-6.229 z"
       id="path310" /><path
       style="fill:#2f4859;stroke-width:1.53018"
       d="m 156.92144,406.04482 -113.252,12.4 c -3.863,0.423 -6.652,3.898 -6.228,7.76 0.423,3.863 3.897,6.651 7.759,6.228 l 113.253,-12.401 c 3.863,-0.422 6.651,-3.898 6.228,-7.76 -0.424,-3.861 -3.898,-6.65 -7.76,-6.227 z"
       id="path312" /></g><path
     style="fill:#2f4859;stroke-width:0.0680299"
     d="m 10.965509,22.506318 c 0,0.258819 0.548431,0.468729 1.225004,0.468729 0.67662,0 1.225097,-0.209863 1.225097,-0.468729 z"
     id="path314" /></g>
</svg>
