<?xml version="1.0" encoding="UTF-8" standalone="no"?>
<!-- Uploaded to: SVG Repo, www.svgrepo.com, Generator: SVG Repo Mixer Tools -->

<svg
   version="1.1"
   id="Layer_1"
   viewBox="0 0 16 20"
   xml:space="preserve"
   sodipodi:docname="bulb.svg"
   inkscape:version="1.2.2 (b0a8486541, 2022-12-01)"
   width="16"
   height="20"
   xmlns:inkscape="http://www.inkscape.org/namespaces/inkscape"
   xmlns:sodipodi="http://sodipodi.sourceforge.net/DTD/sodipodi-0.dtd"
   xmlns="http://www.w3.org/2000/svg"
   xmlns:svg="http://www.w3.org/2000/svg"><defs
   id="defs323">
	
	
	
	

	
	
	
	
	
		
	
		
	
		
	
		
</defs><sodipodi:namedview
   id="namedview321"
   pagecolor="#ffffff"
   bordercolor="#666666"
   borderopacity="1.0"
   inkscape:showpageshadow="2"
   inkscape:pageopacity="0.0"
   inkscape:pagecheckerboard="0"
   inkscape:deskcolor="#d1d1d1"
   showgrid="false"
   inkscape:current-layer="Layer_1" />



<rect
   style="fill:#000000;fill-opacity:0.18181819;fill-rule:evenodd;stroke:none;stroke-width:0;stroke-linecap:round;stroke-linejoin:round;stroke-dasharray:none;stroke-opacity:0.509091"
   id="rect388"
   width="15.767695"
   height="19.758385"
   x="0.12666281"
   y="0.05153938"
   ry="2.3536794"
   rx="2.3536794" /><path
   style="fill:#fcff00;fill-opacity:1;stroke-width:0.0469386"
   d="M 7.6462181,3.4949935 C 5.6694235,3.7350603 4.0756492,5.4800429 3.8515256,7.6504769 3.7000288,9.1175334 4.1592083,10.469206 4.9854508,11.439372 c 0.9248753,1.085985 1.40464,2.541036 1.40464,4.028025 v 0.115216 h 3.495963 v -0.114851 c 0,-1.527624 0.5519342,-2.974179 1.4767792,-4.115248 0.678279,-0.836857 1.090441,-1.9393974 1.090441,-3.1480595 3e-5,-2.7954505 -2.203629,-5.025617 -4.8070559,-4.7094634 z"
   id="path288" /><rect
   x="7.961484"
   style="fill:#fcff00;fill-opacity:1;stroke:#ffff00;stroke-width:0.938773;stroke-dasharray:none;stroke-opacity:1"
   width="0.35314694"
   height="1.7558388"
   id="rect290"
   y="0.78968984" /><rect
   x="13.3508"
   y="8.0762243"
   style="fill:#fcff00;fill-opacity:1;stroke:#ffff00;stroke-width:1.10107;stroke-dasharray:none;stroke-opacity:1"
   width="1.6244348"
   height="0.25656453"
   id="rect292" /><rect
   x="0.9924559"
   y="8.0894861"
   style="fill:#fcff00;fill-opacity:1;stroke:#ffff00;stroke-width:1.13386;stroke-dasharray:none;stroke-opacity:1"
   width="1.92124"
   height="0.23004051"
   id="rect294" /><rect
   x="-6.7276573"
   y="-11.777299"
   transform="matrix(-0.67324406,0.73942034,-0.67324406,-0.73942034,0,0)"
   style="fill:#fcff00;fill-opacity:1;stroke:#ffff00;stroke-width:0.940836;stroke-dasharray:none;stroke-opacity:1"
   width="0.82039392"
   height="0.37090594"
   id="rect296" /><rect
   x="-0.68155074"
   y="-6.180131"
   transform="matrix(-0.67324406,0.73942034,-0.67324406,-0.73942034,0,0)"
   style="fill:#fcff00;fill-opacity:1;stroke:#ffff00;stroke-width:0.940836;stroke-dasharray:none;stroke-opacity:1"
   width="0.37090594"
   height="0.82039392"
   id="rect302" /><path
   style="fill:#939293;fill-opacity:1;stroke-width:0.0469386"
   d="M 10.421274,12.775092 H 5.8482107 v 5.68182 c 0,0.162158 0.058038,0.293644 0.1296184,0.293644 h 4.3138669 c 0.07158,0 0.129619,-0.131486 0.129619,-0.293644 v -5.68182 z"
   id="path306" /><g
   id="g557"
   transform="matrix(0.0401066,0,0,0.07642097,4.0961804,-14.469736)"
   style="fill:#000000;fill-opacity:1;stroke-width:0.84785"><path
     style="fill:#000000;fill-opacity:1;stroke-width:0.84785"
     d="m 156.92144,357.41182 -113.252,12.399 c -3.863,0.424 -6.652,3.898 -6.228,7.76 0.423,3.862 3.897,6.651 7.759,6.228 l 113.253,-12.401 c 3.863,-0.422 6.651,-3.898 6.228,-7.76 -0.424,-3.861 -3.898,-6.65 -7.76,-6.226 z"
     id="path308" /><path
     style="fill:#000000;fill-opacity:1;stroke-width:0.84785"
     d="m 156.92144,381.72782 -113.253,12.401 c -3.863,0.423 -6.652,3.898 -6.228,7.76 0.423,3.862 3.897,6.651 7.759,6.228 l 113.253,-12.4 c 3.863,-0.423 6.651,-3.898 6.228,-7.76 -0.423,-3.864 -3.897,-6.651 -7.759,-6.229 z"
     id="path310" /><path
     style="fill:#000000;fill-opacity:1;stroke-width:0.84785"
     d="m 156.92144,406.04482 -113.252,12.4 c -3.863,0.423 -6.652,3.898 -6.228,7.76 0.423,3.863 3.897,6.651 7.759,6.228 l 113.253,-12.401 c 3.863,-0.422 6.651,-3.898 6.228,-7.76 -0.424,-3.861 -3.898,-6.65 -7.76,-6.227 z"
     id="path312" /></g><path
   style="fill:#000000;stroke-width:0.0469386;fill-opacity:1"
   d="m 7.1333079,18.726028 c 0,0.209375 0.4039564,0.379186 0.902298,0.379186 0.4983762,0 0.9023664,-0.169772 0.9023664,-0.379186 z"
   id="path314" />
</svg>
