<?xml version="1.0" encoding="UTF-8"?>
<svg width="300" height="304" enable-background="new" version="1.0" xmlns="http://www.w3.org/2000/svg" xmlns:xlink="http://www.w3.org/1999/xlink"><defs><filter id="ae" x="-.211" y="-.423" width="1.42" height="1.85" color-interpolation-filters="sRGB"><feGaussianBlur stdDeviation="3.5211268"/></filter><filter id="ab" x="-.325" y="-.651" width="1.65" height="2.3" color-interpolation-filters="sRGB"><feGaussianBlur stdDeviation="5.4225352"/></filter><linearGradient id="b"><stop offset="0"/><stop stop-opacity="0" offset="1"/></linearGradient><filter id="ac" x="-.366" y="-.732" width="1.73" height="2.46" color-interpolation-filters="sRGB"><feGaussianBlur stdDeviation="6.0969372"/></filter><filter id="ad" x="-.649" y="-1.3" width="2.3" height="3.6" color-interpolation-filters="sRGB"><feGaussianBlur stdDeviation="10.812478"/></filter><filter id="ah" color-interpolation-filters="sRGB"><feGaussianBlur stdDeviation="2.0322581"/></filter><filter id="ag" color-interpolation-filters="sRGB"><feGaussianBlur stdDeviation="1.6733871"/></filter><clipPath id="z"><path d="m-572 146-119 118c-14 16 4 34 20 24l135-107-36-35z" color="#000000" enable-background="accumulate" fill="none" stroke="#0e0d0b" stroke-width="4.17"/></clipPath><filter id="aa" color-interpolation-filters="sRGB"><feGaussianBlur stdDeviation="1.5245587"/></filter><filter id="ai" color-interpolation-filters="sRGB"><feGaussianBlur stdDeviation="2.1612349"/></filter><filter id="af" color-interpolation-filters="sRGB"><feGaussianBlur stdDeviation="1.2789445"/></filter><linearGradient id="y" x1="-580" x2="-601" y1="199" y2="175" gradientUnits="userSpaceOnUse"><stop stop-color="#302c26" offset="0"/><stop stop-color="#897862" offset="1"/></linearGradient><radialGradient id="a" cx="-474" cy="233" r="64" gradientTransform="matrix(-.728 -.686 1.78 -1.89 -1235 351)" gradientUnits="userSpaceOnUse"><stop stop-color="#ece9e4" offset="0"/><stop stop-color="#ece9e4" stop-opacity="0" offset="1"/></radialGradient><radialGradient id="o" cx="-353" cy="131" r="44" gradientTransform="matrix(1.87 0 0 1.66 123 -34.1)" gradientUnits="userSpaceOnUse"><stop stop-color="#fcaf3e" offset="0"/><stop stop-color="#fcaf3e" stop-opacity="0" offset="1"/></radialGradient><radialGradient id="n" cx="-411" cy="301" r="5.06" gradientTransform="matrix(1 0 0 2.6 0 -479)" gradientUnits="userSpaceOnUse"><stop stop-color="#fff" offset="0"/><stop stop-color="#fff" stop-opacity="0" offset="1"/></radialGradient><linearGradient id="x" x1="-613" x2="-634" y1="221" y2="194" gradientUnits="userSpaceOnUse"><stop stop-color="#0e0d0b" offset="0"/><stop stop-color="#0e0d0b" stop-opacity="0" offset="1"/></linearGradient><radialGradient id="m" cx="254" cy="266" r="33.5" gradientTransform="matrix(1 0 0 .625 0 98.2)" gradientUnits="userSpaceOnUse"><stop offset="0"/><stop stop-opacity="0" offset="1"/></radialGradient><radialGradient id="l" cx="261" cy="264" r="32.3" gradientTransform="matrix(.747 0 0 .396 65.9 159)" gradientUnits="userSpaceOnUse" xlink:href="#b"/><radialGradient id="k" cx="273" cy="260" r="32.3" fx="252" fy="261" gradientTransform="matrix(.976 0 0 .885 4.59 29.3)" gradientUnits="userSpaceOnUse" xlink:href="#b"/><radialGradient id="j" cx="-350" cy="-29.5" r="91.5" gradientTransform="matrix(1.21 .69 -.698 1.19 503 335)" gradientUnits="userSpaceOnUse"><stop stop-color="#321700" offset="0"/><stop stop-color="#502400" stop-opacity="0" offset="1"/></radialGradient><radialGradient id="i" cx="-230" cy="102" r="88.5" gradientTransform="matrix(.652 .36 -.377 .623 315 202)" gradientUnits="userSpaceOnUse"><stop stop-color="#fcba58" offset="0"/><stop stop-color="#fcba58" stop-opacity="0" offset="1"/></radialGradient><radialGradient id="h" cx="-423" cy="144" r="100" gradientTransform="matrix(1.36 .786 -.786 1.36 779 208)" gradientUnits="userSpaceOnUse"><stop stop-color="#fcaf3e" offset="0"/><stop stop-color="#321600" offset="1"/></radialGradient><radialGradient id="g" cx="-627" cy="71" r="29" gradientTransform="matrix(1 0 0 .586 0 29.4)" gradientUnits="userSpaceOnUse"><stop stop-color="#fff" offset="0"/><stop stop-color="#fff" stop-opacity="0" offset="1"/></radialGradient><radialGradient id="f" cx="-194" cy="129" r="83" gradientUnits="userSpaceOnUse"><stop stop-color="#ece9e4" stop-opacity="0" offset="0"/><stop stop-color="#d3d0cc" stop-opacity=".188" offset=".556"/><stop stop-color="#363636" stop-opacity=".944" offset="1"/></radialGradient><radialGradient id="e" cx="-184" cy="105" r="108" gradientTransform="matrix(1.55 0 0 1.55 101 -57.4)" gradientUnits="userSpaceOnUse"><stop stop-color="#fee6c4" offset="0"/><stop stop-color="#fcaf3e" stop-opacity="0" offset="1"/></radialGradient><radialGradient id="d" cx="-184" cy="105" r="108" gradientUnits="userSpaceOnUse"><stop stop-color="#fee7c4" offset="0"/><stop stop-color="#fcaf3e" stop-opacity="0" offset="1"/></radialGradient><radialGradient id="c" cx="38" cy="69" r="20" fx="28.6" gradientTransform="matrix(1 0 0 .45 0 38)" gradientUnits="userSpaceOnUse"><stop offset="0"/><stop stop-opacity="0" offset="1"/></radialGradient><linearGradient id="w" x1="28" x2="26" y1="16" y2="8" gradientTransform="translate(-2)" gradientUnits="userSpaceOnUse"><stop stop-color="#c17d11" offset="0"/><stop stop-color="#e9b96e" offset="1"/></linearGradient><linearGradient id="q" x1="30.3" x2="34" y1="9.24" y2="18" gradientTransform="translate(-2)" gradientUnits="userSpaceOnUse"><stop stop-color="#8f5902" offset="0"/><stop stop-color="#73521e" offset="1"/></linearGradient><linearGradient id="r" x1="28" x2="33.4" y1="8" y2="16.7" gradientUnits="userSpaceOnUse"><stop stop-color="#fff" offset="0"/><stop stop-color="#fff" stop-opacity=".134" offset="1"/></linearGradient><linearGradient id="v" x1="20.9" x2="30.2" y1="25.1" y2="30.7" gradientTransform="translate(-2)" gradientUnits="userSpaceOnUse"><stop stop-color="#fdef72" offset="0"/><stop stop-color="#e2cb0b" offset="1"/></linearGradient><linearGradient id="s" x1="17" x2="29.5" y1="27.4" y2="37.8" gradientTransform="translate(-2)" gradientUnits="userSpaceOnUse"><stop stop-color="#d7c20f" offset="0"/><stop stop-color="#b6970d" offset="1"/></linearGradient><linearGradient id="u" x1="22.3" x2="19" y1="42" y2="37" gradientTransform="translate(-2)" gradientUnits="userSpaceOnUse"><stop stop-color="#fff" offset="0"/><stop stop-color="#fff" stop-opacity=".694" offset="1"/></linearGradient><linearGradient id="p" x1="27.4" x2="23.5" y1="36.2" y2="34.7" gradientTransform="translate(-2)" gradientUnits="userSpaceOnUse"><stop stop-color="#c4a000" offset="0"/><stop stop-color="#c4a000" stop-opacity="0" offset="1"/></linearGradient><linearGradient id="t" x1="27.7" x2="21.6" y1="23.1" y2="20.6" gradientTransform="matrix(.977 0 0 1 -1.37 0)" gradientUnits="userSpaceOnUse"><stop stop-color="#919191" offset="0"/><stop stop-color="#cecece" offset="1"/></linearGradient></defs><g transform="translate(6.19 -3.28)" display="none"><rect x="296" y="50" width="48" height="48" display="inline" enable-background="accumulate" fill="#eeeeec"/><rect x="303" y="126" width="32" height="32" display="inline" enable-background="accumulate" fill="#eeeeec"/><rect x="302" y="176" width="24" height="24" display="inline" enable-background="accumulate" fill="#fff"/><rect x="303" y="177" width="22" height="22" display="inline" enable-background="accumulate" fill="#eeeeec"/><rect x="303" y="219" width="16" height="16" display="inline" enable-background="accumulate" fill="#eeeeec"/><text x="20.970737" y="21.513618" display="inline" enable-background="new" fill="#000000" font-family="'Bitstream Vera Sans'" font-size="18.3px" xml:space="preserve"><tspan x="20.970737" y="21.513618">actions</tspan></text><text x="191.97073" y="21.513618" display="inline" enable-background="new" fill="#000000" font-family="'Droid Sans'" font-size="18.3px" font-weight="bold" style="line-height:125%" xml:space="preserve"><tspan x="191.97073" y="21.513618">system-search</tspan></text><rect x="20" y="30" width="256" height="256" display="inline" enable-background="new" fill="#eeeeec"/></g><g transform="translate(6.19 -3.28)"><g fill-rule="evenodd"><ellipse transform="matrix(.364 0 0 .369 164 165)" cx="245" cy="262" rx="20" ry="10" color="#000000" enable-background="accumulate" filter="url(#ae)" opacity=".608"/><ellipse transform="matrix(.68 0 0 .6 80.9 103)" cx="245" cy="262" rx="20" ry="10" color="#000000" enable-background="accumulate" fill="url(#m)" filter="url(#ab)" opacity=".901"/><ellipse transform="matrix(1.73 0 0 .716 -199 74.1)" cx="245" cy="262" rx="20" ry="10" color="#000000" enable-background="accumulate" fill="url(#l)" filter="url(#ac)" opacity=".598"/><ellipse transform="matrix(2.39 0 0 .716 -402 73.4)" cx="245" cy="262" rx="20" ry="18" color="#000000" enable-background="accumulate" fill="url(#k)" filter="url(#ad)" opacity=".507"/></g><g transform="matrix(-.719 0 0 .719 -238 56)"><path d="m-572 146-119 118c-14 16 4 34 20 24l135-107-36-35z" color="#000000" enable-background="accumulate" fill="url(#y)"/><path transform="translate(-97,-72)" d="m-475 222-117 116-2 8 120-119 8 5-9-10z" color="#000000" enable-background="accumulate" fill="url(#a)" filter="url(#ah)" opacity=".27"/><path transform="translate(-97,-72)" d="m-475 222-117 115c-3.54 2.83-2 8.71-2 8.71l5.78-10.2 112-110 10.4 6.43-9-10z" color="#000000" enable-background="accumulate" fill="url(#a)" opacity=".416"/><path transform="matrix(1.54 0 0 1.54 289 -96.4)" d="m-550 171 10.7 9.7-88 67 77.3-76.7z" color="#000000" enable-background="accumulate" fill="url(#o)" filter="url(#ag)" opacity=".307"/><path transform="translate(-281,-24)" d="m-405 288c-8.15 8.38-9.4 16.5 1.75 24.2" color="#000000" enable-background="accumulate" fill="none" stroke="url(#n)" stroke-opacity=".124" stroke-width="1.38"/><path d="m-572 146-119 118c-14 16 4 34 20 24l135-107-36-35z" clip-path="url(#z)" color="#000000" enable-background="accumulate" fill="none" filter="url(#aa)" stroke="url(#x)" stroke-width="4.17"/></g><path d="m148 51.3c-37.3-21.5-85.1-8.74-107 28.6-21.5 37.3-8.74 85.1 28.6 107 37.3 21.5 85.1 8.74 107-28.6s8.74-85.1-28.6-107zm-9.5 16.5c28.2 16.3 37.9 52.4 21.6 80.6s-52.4 37.9-80.6 21.6c-28.2-16.3-37.9-52.4-21.6-80.6 16.3-28.2 52.4-37.9 80.6-21.6z" color="#000000" enable-background="accumulate" fill="url(#h)"/><path d="m75.1 180c31.9 17.6 72.6 7.13 91-23.3 18.4-30.4 7.47-69.4-24.4-86.9-0.747-0.412-1.51-0.787-2.26-1.17 27.5 16.7 36.5 51.4 20.1 78.6-16.9 28-54.4 37.6-83.8 21.4-28.5-15.7-38.8-50-23.8-77.7-0.455 0.691-0.916 1.38-1.35 2.09-18.4 30.4-7.47 69.4 24.4 86.9z" color="#000000" enable-background="accumulate" fill="url(#i)"/><path d="m143 58.3c-31.5-18-74.6-8.35-92.7 22.8s-7.37 70.9 24.1 88.9c0.738 0.421 1.49 0.805 2.23 1.19-27.1-17.1-36.1-52.5-19.8-80.4 16.7-28.6 53.8-38.4 82.7-21.9 28.1 16.1 38.3 51.2 23.5 79.4 0.45-0.707 0.904-1.41 1.33-2.14 18.2-31.1 16.2-63.9-21.3-87.8z" color="#000000" enable-background="accumulate" fill="url(#j)"/><circle transform="matrix(.566 .333 -.327 .576 240 55.8)" cx="-126" cy="184" r="107" color="#000000" enable-background="accumulate" fill="none" filter="url(#ai)" stroke="url(#d)" stroke-width="1.51"/><circle transform="matrix(.573 .333 -.331 .576 243 55.4)" cx="-126" cy="184" r="107" color="#000000" enable-background="accumulate" fill="none" stroke="url(#e)" stroke-width="1.5"/><circle transform="matrix(.675 .39 -.39 .675 285 117)" cx="-194" cy="116" r="83" color="#000000" enable-background="accumulate" fill="url(#f)" opacity=".5"/><ellipse transform="matrix(.93 .218 -.218 .93 713 155)" cx="-627" cy="71" rx="29" ry="17" color="#000000" enable-background="accumulate" fill="url(#g)"/><ellipse transform="matrix(.458 .107 -.107 .458 409 119)" cx="-627" cy="71" rx="29" ry="17" color="#000000" enable-background="accumulate" fill="#fff" filter="url(#af)"/><g transform="matrix(4.82 0 0 4.82 46.5 2.38)"><path transform="matrix(1 0 0 .667 -14 -5)" d="m58 69a20 9 0 1 1-40 0 20 9 0 1 1 40 0z" fill="url(#c)" opacity=".25"/><path d="m34.6 2.47c-8.2 0.106-9.4 16.2-11.8 19.2l4 1.44c2.63-4.37 15.8-18.9 8.56-20.6-0.279-0.031-0.548-0.0347-0.812-0.0312zm-1.03 2.06c0.194-0.0187 0.368 0.00572 0.531 0.0938 0.653 0.352 0.724 1.49 0.156 2.53-0.567 1.04-1.57 1.6-2.22 1.25-0.654-0.352-0.724-1.49-0.157-2.53 0.426-0.777 1.11-1.29 1.69-1.34z" fill="url(#w)" fill-rule="evenodd" stroke="url(#q)" stroke-width="1px"/><path transform="translate(-2)" d="m36.6 3.47c-1.72 0.0222-3.01 0.856-4.19 2.28-1.18 1.43-2.15 3.44-2.94 5.59-0.789 2.15-1.42 4.43-2 6.38-0.4 1.35-0.77 2.41-1.22 3.34l2.19 0.781c1.62-2.5 5.04-6.59 7.53-10.6 1.33-2.15 2.28-4.18 2.5-5.56 0.108-0.692 0.045-1.17-0.125-1.47-0.165-0.286-0.464-0.525-1.12-0.688-0.2-0.0188-0.401-0.0341-0.625-0.0312z" fill="none" opacity=".267" stroke="url(#r)" stroke-width="1px"/><g fill-rule="evenodd"><path d="m20.5 16.5c0.71 2-0.541 3.74-1 5-5.19 1.55-8.79 9.7-14.1 14 0.668 0.697 1.45 1.44 2.13 2.05l4.06-3.53-3.07 4.52c2.21 1.79 4.51 3.01 6.01 3.51l2.75-3.66-1.75 4.16c1.45 0.589 4.99 1.48 7 1.5l2-3.4-0.513 3.46c0.83 0.158 2.44 0.374 3.51 0.406 3.36-5.5 4-14.5 2-18.5-0.5-2 1.5-4.5 3-5.5-2.5-2-8.21-4.3-12-4z" fill="url(#v)" stroke="url(#s)" stroke-miterlimit="20"/><path d="m9 38.5c4.82-5.01 4.46-7.2 10.1-11.5-2.98 4.83-3.47 7.34-7.12 13.5l-3-2z" fill="#c4a000" opacity=".267"/><path d="m16.2 42.2 4.35-9.84c1.66-2.98 2.86-5.97 4.53-8.35-1.6 5.42-4.89 12.1-7.53 18.6l-1.34-0.438z" fill="#c4a000" opacity=".416"/></g><path d="m21.6 17.5c0.0967 1.92-0.923 3.53-1.22 4.34-0.104 0.285-0.335 0.504-0.625 0.594-5.45 2.23-7.63 8.57-13 13.1 0.202 0.2 0.492 0.417 0.695 0.608l9.02-7.63-6.58 9.81c1.27 1.03 2.72 1.88 4.23 2.49l6.99-9.3-4.27 10.4c1.6 0.525 3.1 0.827 4.94 1.09l4.62-7.69-1.37 7.91 1.88 0.226c1.43-2.54 2.13-5.67 2.53-8.79 0.424-3.32-5e-3 -6.54-0.844-8.22-0.0272-0.0602-0.0481-0.123-0.0625-0.188-0.347-1.39 0.169-2.75 0.875-3.88 0.427-0.683 0.93-1.29 1.46-1.8-1.17-0.781-2.59-1.46-4.37-2.1-1.76-0.637-3.5-0.95-4.91-0.969z" fill="none" opacity=".478" stroke="url(#u)" stroke-width="1px"/><path d="m19 43c2.18-5.75 6.4-10.1 8.02-15.9 0.0515 3.66 0.25 10.2-1.89 16.7-0.32 0.0018-0.174-0.111-0.47-0.119l0.801-5.72-3.28 5.55c-2.19-0.157-1.29 0.032-3.17-0.493z" fill="url(#p)" fill-rule="evenodd" opacity=".247"/><g fill="#c4a000" fill-rule="evenodd"><path d="m21 22.6c-1.25 0.616-2.06 1.53-2.98 2.36 1.23-0.709 2.38-1.45 4-1.99l-1.02-0.376z" opacity=".482"/><path d="m23 23.1-1.02 1.99 2.98-1.59-1.96-0.4z" opacity=".482"/><path d="m22.9 18-0.895 1.71 1.57 0.502-0.671-2.21z" opacity=".482"/><path d="m29.9 19.9-2.46 1.84 1.57 0.502 0.895-2.34z" opacity=".482"/><path d="m26 17.9-1.51 2.52 1.57 0.502-0.0518-3.03z" opacity=".482"/></g><path d="m19 22c-0.567-2.97 9.33 2.15 11 2.99-0.0065 1.08 0 2-0.977 2-2.57-1.39-6.54-3.61-10.1-4.99z" fill-rule="evenodd" opacity=".2"/><path d="m18.6 21.5c-0.488-1 0-2 0.977-2 3.99 0.975 7.32 2.21 10.7 4 0.488 1 0 2-0.977 2-3.53-1.86-6.87-3.07-10.7-4z" fill="url(#t)" fill-rule="evenodd" stroke="#464646" stroke-linejoin="round" stroke-width="1px"/></g></g></svg>
