<?xml version="1.0" encoding="UTF-8" standalone="no"?>
<!-- Created with Inkscape (http://www.inkscape.org/) -->

<svg
   xmlns:dc="http://purl.org/dc/elements/1.1/"
   xmlns:cc="http://creativecommons.org/ns#"
   xmlns:rdf="http://www.w3.org/1999/02/22-rdf-syntax-ns#"
   xmlns:svg="http://www.w3.org/2000/svg"
   xmlns="http://www.w3.org/2000/svg"
   xmlns:xlink="http://www.w3.org/1999/xlink"
   xmlns:sodipodi="http://sodipodi.sourceforge.net/DTD/sodipodi-0.dtd"
   xmlns:inkscape="http://www.inkscape.org/namespaces/inkscape"
   height="304.07739"
   id="svg11300"
   inkscape:export-filename="/home/jimmac/Desktop/wi-fi.png"
   inkscape:export-xdpi="90.000000"
   inkscape:export-ydpi="90.000000"
   inkscape:output_extension="org.inkscape.output.svg.inkscape"
   inkscape:version="0.91 r13725"
   sodipodi:docname="clearselection.svg"
   sodipodi:version="0.32"
   style="display:inline;enable-background:new"
   version="1.0"
   width="299.5217">
  <title
     id="title8836">Optical Drive</title>
  <metadata
     id="metadata154">
    <rdf:RDF>
      <cc:Work
         rdf:about="">
        <dc:format>image/svg+xml</dc:format>
        <dc:type
           rdf:resource="http://purl.org/dc/dcmitype/StillImage" />
        <dc:title>Optical Drive</dc:title>
        <dc:creator>
          <cc:Agent>
            <dc:title />
          </cc:Agent>
        </dc:creator>
        <dc:contributor>
          <cc:Agent>
            <dc:title />
          </cc:Agent>
        </dc:contributor>
        <dc:source />
        <cc:license
           rdf:resource="" />
        <dc:subject>
          <rdf:Bag />
        </dc:subject>
      </cc:Work>
    </rdf:RDF>
  </metadata>
  <sodipodi:namedview
     bordercolor="#666666"
     borderopacity="0.25490196"
     fill="#f57900"
     gridtolerance="12"
     guidetolerance="13"
     height="300px"
     id="base"
     inkscape:current-layer="layer4"
     inkscape:cx="37.55127"
     inkscape:cy="156.10121"
     inkscape:document-units="px"
     inkscape:grid-bbox="true"
     inkscape:guide-bbox="true"
     inkscape:pageopacity="0.0"
     inkscape:pageshadow="2"
     inkscape:showpageshadow="false"
     inkscape:snap-bbox="true"
     inkscape:snap-nodes="true"
     inkscape:window-height="1056"
     inkscape:window-width="1812"
     inkscape:window-x="38"
     inkscape:window-y="24"
     inkscape:zoom="1"
     objecttolerance="7"
     pagecolor="#ffffff"
     showgrid="false"
     showguides="true"
     stroke="#ef2929"
     width="400px"
     inkscape:window-maximized="1"
     fit-margin-top="0"
     fit-margin-left="0"
     fit-margin-right="0"
     fit-margin-bottom="0">
    <inkscape:grid
       empspacing="2"
       enabled="true"
       id="grid5883"
       spacingx="0.5px"
       spacingy="0.5px"
       type="xygrid"
       visible="true"
       snapvisiblegridlinesonly="true"
       originx="6.1913594"
       originy="7.3536131" />
  </sodipodi:namedview>
  <defs
     id="defs3">
    <linearGradient
       inkscape:collect="always"
       id="linearGradient4091">
      <stop
         style="stop-color:#fcba58;stop-opacity:1"
         offset="0"
         id="stop4093" />
      <stop
         style="stop-color:#fcba58;stop-opacity:0"
         offset="1"
         id="stop4095" />
    </linearGradient>
    <clipPath
       clipPathUnits="userSpaceOnUse"
       id="clipPath8806-8">
      <path
         style="color:#000000;display:inline;overflow:visible;visibility:visible;fill:none;stroke:#0e0d0b;stroke-width:4.17166424;stroke-miterlimit:4;stroke-dasharray:none;stroke-opacity:1;marker:none;enable-background:accumulate"
         d="m -572,146 -119,118 c -14,16 4,34 20,24 l 135,-107 -36,-35 z"
         id="path8808-9"
         sodipodi:nodetypes="ccccc"
         inkscape:connector-curvature="0" />
    </clipPath>
    <linearGradient
       id="linearGradient10651-5-9-3"
       inkscape:collect="always">
      <stop
         id="stop10653-8-4-9"
         offset="0"
         style="stop-color:#ffffff;stop-opacity:1;" />
      <stop
         id="stop10655-9-4-7"
         offset="1"
         style="stop-color:#ffffff;stop-opacity:0;" />
    </linearGradient>
    <filter
       id="filter10685-9-1-1"
       inkscape:collect="always"
       style="color-interpolation-filters:sRGB">
      <feGaussianBlur
         id="feGaussianBlur10687-8-8-6"
         stdDeviation="1.2789445"
         inkscape:collect="always" />
    </filter>
    <radialGradient
       inkscape:collect="always"
       xlink:href="#linearGradient4091"
       id="radialGradient3271"
       gradientUnits="userSpaceOnUse"
       gradientTransform="matrix(0.65214665,0.35956873,-0.37651708,0.62279134,314.63963,201.87833)"
       cx="-229.49994"
       cy="101.5"
       fx="-229.49994"
       fy="101.5"
       r="88.499931" />
    <radialGradient
       inkscape:collect="always"
       xlink:href="#linearGradient10651-5-9-3"
       id="radialGradient3276"
       gradientUnits="userSpaceOnUse"
       gradientTransform="matrix(1,0,0,0.5862069,0,29.37931)"
       cx="-627"
       cy="71"
       fx="-627"
       fy="71"
       r="29" />
    <radialGradient
       id="radialGradient6025"
       fx="28.603001"
       gradientUnits="userSpaceOnUse"
       cy="69"
       cx="38"
       gradientTransform="matrix(1,0,0,0.45,0,37.95)"
       r="20">
      <stop
         id="stop6021"
         offset="0" />
      <stop
         id="stop6023"
         style="stop-opacity:0"
         offset="1" />
    </radialGradient>
    <linearGradient
       id="linearGradient5964"
       y2="8"
       gradientUnits="userSpaceOnUse"
       x2="26"
       gradientTransform="translate(-2,0)"
       y1="16"
       x1="28">
      <stop
         id="stop5960"
         style="stop-color:#c17d11"
         offset="0" />
      <stop
         id="stop5962"
         style="stop-color:#e9b96e"
         offset="1" />
    </linearGradient>
    <linearGradient
       id="linearGradient6002"
       y2="18"
       gradientUnits="userSpaceOnUse"
       x2="34"
       gradientTransform="translate(-2,0)"
       y1="9.2407999"
       x1="30.325001">
      <stop
         id="stop5998"
         style="stop-color:#8f5902"
         offset="0" />
      <stop
         id="stop6000"
         style="stop-color:#73521e"
         offset="1" />
    </linearGradient>
    <linearGradient
       id="linearGradient5994"
       y2="16.686001"
       gradientUnits="userSpaceOnUse"
       x2="33.446999"
       y1="8"
       x1="28">
      <stop
         id="stop5986"
         style="stop-color:#fff"
         offset="0" />
      <stop
         id="stop5988"
         style="stop-color:#fff;stop-opacity:.13439"
         offset="1" />
    </linearGradient>
    <linearGradient
       id="linearGradient5972"
       y2="30.743"
       gradientUnits="userSpaceOnUse"
       x2="30.208"
       gradientTransform="translate(-2,0)"
       y1="25.061001"
       x1="20.934">
      <stop
         id="stop5968"
         style="stop-color:#fdef72"
         offset="0" />
      <stop
         id="stop5970"
         style="stop-color:#e2cb0b"
         offset="1" />
    </linearGradient>
    <linearGradient
       id="linearGradient5993"
       y2="37.846001"
       gradientUnits="userSpaceOnUse"
       x2="29.493999"
       gradientTransform="translate(-2,0)"
       y1="27.447001"
       x1="17.032">
      <stop
         id="stop5989"
         style="stop-color:#d7c20f"
         offset="0" />
      <stop
         id="stop5991"
         style="stop-color:#b6970d"
         offset="1" />
    </linearGradient>
    <linearGradient
       id="linearGradient5973"
       y2="37.028999"
       gradientUnits="userSpaceOnUse"
       x2="18.986"
       gradientTransform="translate(-2,0)"
       y1="41.956001"
       x1="22.32">
      <stop
         id="stop5983"
         style="stop-color:#fff"
         offset="0" />
      <stop
         id="stop5985"
         style="stop-color:#fff;stop-opacity:.69412"
         offset="1" />
    </linearGradient>
    <linearGradient
       id="linearGradient6005"
       y2="34.728001"
       gradientUnits="userSpaceOnUse"
       x2="23.489"
       gradientTransform="translate(-2,0)"
       y1="36.217999"
       x1="27.355">
      <stop
         id="stop6001"
         style="stop-color:#c4a000"
         offset="0" />
      <stop
         id="stop6003"
         style="stop-color:#c4a000;stop-opacity:0"
         offset="1" />
    </linearGradient>
    <linearGradient
       id="linearGradient5980-761"
       y2="20.618999"
       gradientUnits="userSpaceOnUse"
       x2="21.591"
       gradientTransform="matrix(0.97682,0,0,1,-1.3747,0)"
       y1="23.146"
       x1="27.652">
      <stop
         id="stop2473"
         style="stop-color:#919191"
         offset="0" />
      <stop
         id="stop2475"
         style="stop-color:#cecece"
         offset="1" />
    </linearGradient>
  </defs>
  <g
     id="layer6"
     inkscape:groupmode="layer"
     inkscape:label="baseplate"
     style="display:none"
     transform="translate(6.1913594,-3.2762312)">
    <rect
       height="48"
       id="rect6284"
       inkscape:label="48x48"
       style="display:inline;overflow:visible;visibility:visible;fill:#eeeeec;fill-opacity:1;fill-rule:nonzero;stroke:none;stroke-width:2;marker:none;enable-background:accumulate"
       width="48"
       x="296"
       y="50" />
    <rect
       height="32"
       id="rect6592"
       inkscape:label="32x32"
       style="display:inline;overflow:visible;visibility:visible;fill:#eeeeec;fill-opacity:1;fill-rule:nonzero;stroke:none;stroke-width:2;marker:none;enable-background:accumulate"
       width="32"
       x="303"
       y="126" />
    <rect
       height="24"
       id="rect6749-5"
       inkscape:label="24x24"
       style="display:inline;overflow:visible;visibility:visible;fill:#ffffff;fill-opacity:1;fill-rule:nonzero;stroke:none;stroke-width:2;marker:none;enable-background:accumulate"
       width="24"
       x="302"
       y="176" />
    <rect
       height="22"
       id="rect6749"
       inkscape:label="22x22"
       style="display:inline;overflow:visible;visibility:visible;fill:#eeeeec;fill-opacity:1;fill-rule:nonzero;stroke:none;stroke-width:2;marker:none;enable-background:accumulate"
       width="22"
       x="303"
       y="177" />
    <rect
       height="16"
       id="rect6833"
       inkscape:label="16x16"
       style="display:inline;overflow:visible;visibility:visible;fill:#eeeeec;fill-opacity:1;fill-rule:nonzero;stroke:none;stroke-width:2;marker:none;enable-background:accumulate"
       width="16"
       x="303"
       y="219" />
    <text
       id="context"
       inkscape:label="context"
       style="font-style:normal;font-weight:normal;font-size:18.30070686px;font-family:'Bitstream Vera Sans';display:inline;fill:#000000;fill-opacity:1;stroke:none;enable-background:new"
       x="20.970737"
       xml:space="preserve"
       y="21.513618"><tspan
         id="tspan2716"
         sodipodi:role="line"
         x="20.970737"
         y="21.513618">actions</tspan></text>
    <text
       id="icon-name"
       inkscape:label="icon-name"
       sodipodi:linespacing="125%"
       style="font-style:normal;font-variant:normal;font-weight:bold;font-stretch:normal;font-size:18.30070686px;line-height:125%;font-family:'Droid Sans';-inkscape-font-specification:'Droid Sans Bold';text-align:start;writing-mode:lr-tb;text-anchor:start;display:inline;fill:#000000;fill-opacity:1;stroke:none;enable-background:new"
       x="191.97073"
       xml:space="preserve"
       y="21.513618"><tspan
         id="tspan3023"
         sodipodi:role="line"
         x="191.97073"
         y="21.513618">system-search</tspan></text>
    <rect
       id="rect11612"
       x="20"
       y="30"
       inkscape:label="256x256"
       height="256"
       width="256"
       style="display:inline;visibility:visible;fill:#eeeeec;fill-opacity:1;fill-rule:nonzero;stroke:none;enable-background:new" />
  </g>
  <g
     id="layer2"
     inkscape:groupmode="layer"
     inkscape:label="small sizes"
     style="display:inline"
     transform="translate(6.1913594,-3.2762312)" />
  <g
     id="layer4"
     inkscape:groupmode="layer"
     inkscape:label="hires"
     style="display:inline"
     transform="translate(6.1913594,-3.2762312)">
    <rect
       style="opacity:1;fill:#898eff;fill-opacity:1;stroke:#000000;stroke-width:18.75951004;stroke-linecap:square;stroke-linejoin:round;stroke-miterlimit:4;stroke-dasharray:none;stroke-dashoffset:0;stroke-opacity:1"
       id="rect4307"
       width="257.74548"
       height="76.745491"
       x="11.935911"
       y="173.48088" />
    <path
       style="color:#000000;display:inline;overflow:visible;visibility:visible;fill:url(#radialGradient3271);fill-opacity:1;stroke:none;stroke-width:2;marker:none;enable-background:accumulate"
       d="m 75.114239,180.25488 c 31.858671,17.56565 72.643131,7.1294 91.036741,-23.2952 18.39361,-30.42461 7.46545,-69.373218 -24.39322,-86.938869 -0.74683,-0.411778 -1.50562,-0.787246 -2.26184,-1.168382 27.47057,16.747321 36.54375,51.384541 20.0864,78.606391 C 142.6602,175.44946 105.1385,185.0508 75.828524,168.8904 47.323554,153.17386 37.046231,118.84477 52.068126,91.224164 51.612718,91.915295 51.152281,92.602841 50.721099,93.316056 32.32749,123.74066 43.255654,162.68927 75.11432,180.25492 Z"
       id="path10447"
       inkscape:connector-curvature="0" />
    <ellipse
       style="color:#000000;display:inline;overflow:visible;visibility:visible;fill:url(#radialGradient3276);fill-opacity:1;fill-rule:nonzero;stroke:none;stroke-width:2;marker:none;enable-background:accumulate"
       id="path10647"
       transform="matrix(0.9296361,0.21764243,-0.21764243,0.9296361,713.02985,154.7123)"
       cx="-627"
       cy="71"
       rx="29"
       ry="17" />
    <ellipse
       transform="matrix(0.45779427,0.10717684,-0.10717684,0.45779427,409.34197,118.95114)"
       id="path10659"
       style="color:#000000;display:inline;overflow:visible;visibility:visible;fill:#ffffff;fill-opacity:1;fill-rule:nonzero;stroke:none;stroke-width:2;marker:none;filter:url(#filter10685-9-1-1);enable-background:accumulate"
       cx="-627"
       cy="71"
       rx="29"
       ry="17" />
    <g
       transform="matrix(4.8190023,0,0,4.8190023,46.532631,2.3782293)"
       id="layer1">
      <path
         inkscape:connector-curvature="0"
         id="path6017"
         style="opacity:0.25;fill:url(#radialGradient6025)"
         d="m 58,69 a 20,9 0 1 1 -40,0 20,9 0 1 1 40,0 z"
         transform="matrix(1,0,0,0.66667,-14,-5)" />
      <path
         inkscape:connector-curvature="0"
         id="path5371"
         style="fill:url(#linearGradient5964);fill-rule:evenodd;stroke:url(#linearGradient6002);stroke-width:1px"
         d="m 34.594,2.4688 c -8.2032,0.10565 -9.3968,16.248 -11.75,19.156 l 4,1.4375 C 29.476,18.6903 42.6,4.1543 35.406,2.5003 35.127,2.4693 34.858,2.4656 34.594,2.4691 Z m -1.0312,2.0625 c 0.19356,-0.018739 0.36799,0.00572 0.53125,0.09375 0.65306,0.35212 0.72366,1.4949 0.15625,2.5312 -0.5674,1.0364 -1.5657,1.6021 -2.2188,1.25 -0.654,-0.3522 -0.724,-1.4949 -0.157,-2.5313 0.426,-0.7773 1.107,-1.2875 1.687,-1.3438 z" />
      <path
         inkscape:connector-curvature="0"
         id="path5992"
         style="opacity:0.26667002;fill:none;stroke:url(#linearGradient5994);stroke-width:1px"
         d="m 36.594,3.4688 c -1.7216,0.022173 -3.0079,0.85587 -4.1875,2.2812 -1.1796,1.4254 -2.1483,3.4416 -2.9375,5.5938 -0.78917,2.1521 -1.424,4.4343 -2,6.375 -0.39989,1.3475 -0.76986,2.4064 -1.2188,3.3438 l 2.1875,0.78125 c 1.6186,-2.4956 5.0388,-6.5912 7.5312,-10.625 1.3258,-2.1458 2.2837,-4.178 2.5,-5.5625 0.108,-0.692 0.045,-1.1727 -0.125,-1.4685 -0.165,-0.2865 -0.464,-0.5246 -1.125,-0.6875 -0.2,-0.0188 -0.401,-0.0341 -0.625,-0.0312 z"
         transform="translate(-2,0)" />
      <path
         inkscape:connector-curvature="0"
         id="path5367"
         style="fill:url(#linearGradient5972);fill-rule:evenodd;stroke:url(#linearGradient5993);stroke-miterlimit:20"
         d="m 20.5,16.5 c 0.70951,2.003 -0.54139,3.7378 -1,5 -5.192,1.546 -8.787,9.704 -14.133,13.954 0.6682,0.697 1.4526,1.444 2.133,2.046 l 4.0625,-3.5312 -3.0676,4.5246 c 2.2091,1.791 4.5051,3.007 6.0051,3.507 l 2.75,-3.656 -1.75,4.156 c 1.452,0.58888 4.9853,1.482 7,1.5 l 2.0039,-3.4025 -0.51317,3.465 c 0.82956,0.15836 2.4382,0.37422 3.5093,0.40625 3.3622,-5.5 4,-14.469 2,-18.469 -0.5,-2 1.5,-4.5 3,-5.5 -2.5,-2 -8.2056,-4.3037 -12,-4 z" />
      <path
         inkscape:connector-curvature="0"
         id="path5975"
         style="opacity:0.26667002;fill:#c4a000;fill-rule:evenodd"
         d="M 9,38.5 C 13.816,33.489 13.465,31.296 19.116,26.972 16.134,31.801 15.65,34.312 12,40.5 l -3,-2 z" />
      <path
         inkscape:connector-curvature="0"
         id="path5979"
         style="opacity:0.41569004;fill:#c4a000;fill-rule:evenodd"
         d="m 16.15,42.202 4.346,-9.8401 c 1.6645,-2.9837 2.8597,-5.9701 4.529,-8.3474 -1.602,5.418 -4.8907,12.122 -7.5312,18.625 L 16.15,42.202 Z" />
      <path
         inkscape:connector-curvature="0"
         id="path6014"
         style="opacity:0.47843;fill:none;stroke:url(#linearGradient5973);stroke-width:1px"
         d="m 21.625,17.5 c 0.09674,1.9151 -0.92294,3.5296 -1.2188,4.3438 -0.1041,0.28471 -0.33533,0.50437 -0.625,0.59375 -5.4534,2.2346 -7.6298,8.574 -12.995,13.086 0.20164,0.19985 0.49203,0.4173 0.69453,0.60823 l 9.019,-7.632 -6.5766,9.81 c 1.27,1.0276 2.7222,1.8845 4.2267,2.4892 l 6.994,-9.299 -4.274,10.412 c 1.595,0.525 3.098,0.827 4.945,1.088 l 4.6187,-7.6875 -1.3707,7.9068 1.875,0.226 c 1.4332,-2.5355 2.1324,-5.6665 2.5312,-8.7891 0.42394,-3.3188 -0.005,-6.5412 -0.84375,-8.2188 -0.02716,-0.06021 -0.0481,-0.12304 -0.0625,-0.1875 -0.34686,-1.3874 0.16914,-2.7456 0.875,-3.875 0.42689,-0.68303 0.93037,-1.2908 1.465,-1.8018 -1.172,-0.781 -2.587,-1.459 -4.372,-2.103 -1.762,-0.637 -3.498,-0.95 -4.906,-0.969 z" />
      <path
         inkscape:connector-curvature="0"
         id="path5977"
         style="opacity:0.24706002;fill:url(#linearGradient6005);fill-rule:evenodd"
         d="m 18.969,43 c 2.1776,-5.7519 6.3959,-10.069 8.0169,-15.935 0.05154,3.6621 0.24972,10.204 -1.8919,16.717 -0.31977,0.0018 -0.17393,-0.11081 -0.46988,-0.11855 l 0.80079,-5.7245 -3.2815,5.5544 c -2.191,-0.157 -1.294,0.032 -3.174,-0.493 z" />
      <path
         inkscape:connector-curvature="0"
         id="path5995"
         style="opacity:0.48235001;fill:#c4a000;fill-rule:evenodd"
         d="m 21.003,22.61 c -1.252,0.61638 -2.0622,1.5273 -2.9831,2.3644 1.2265,-0.70864 2.379,-1.449 3.9996,-1.9887 L 21.003,22.61005 Z" />
      <path
         inkscape:connector-curvature="0"
         id="path5997"
         style="opacity:0.48235001;fill:#c4a000;fill-rule:evenodd"
         d="m 23.009,23.061 -1.0165,1.9887 2.9807,-1.5882 -1.9642,-0.40049 z" />
      <path
         inkscape:connector-curvature="0"
         id="path6007"
         style="opacity:0.48235001;fill:#c4a000;fill-rule:evenodd"
         d="m 22.94,17.961 -0.89519,1.707 1.5657,0.50208 -0.67053,-2.2091 z" />
      <path
         inkscape:connector-curvature="0"
         id="path6009"
         style="opacity:0.48235001;fill:#c4a000;fill-rule:evenodd"
         d="m 29.923,19.885 -2.4602,1.8354 1.5657,0.50208 0.89452,-2.3375 z" />
      <path
         inkscape:connector-curvature="0"
         id="path6011"
         style="opacity:0.48235001;fill:#c4a000;fill-rule:evenodd"
         d="m 26.013,17.939 -1.5139,2.5246 1.5657,0.50208 -0.05182,-3.0267 z" />
      <path
         inkscape:connector-curvature="0"
         id="path6013"
         style="opacity:0.2;fill-rule:evenodd"
         d="m 18.968,22.025 c -0.56678,-2.9655 9.3328,2.1529 11.037,2.9944 -0.0065,1.0791 0,2 -0.97682,2 -2.5675,-1.393 -6.5353,-3.6051 -10.06,-4.9944 z" />
      <path
         inkscape:connector-curvature="0"
         id="path5373"
         style="fill:url(#linearGradient5980-761);fill-rule:evenodd;stroke:#464646;stroke-width:1px;stroke-linejoin:round"
         d="m 18.65,21.5 c -0.48841,-1 0,-2 0.97682,-2 3.9914,0.97542 7.3249,2.2062 10.745,4 0.48841,1 0,2 -0.97682,2 -3.5339,-1.8644 -6.8667,-3.0748 -10.745,-4 z" />
    </g>
  </g>
</svg>
