<?xml version="1.0" encoding="UTF-8"?>
<svg width="22" height="22" version="1.0" xmlns="http://www.w3.org/2000/svg" xmlns:xlink="http://www.w3.org/1999/xlink"><defs><radialGradient id="b" cx="606" cy="487" r="117" gradientTransform="matrix(-2.77 0 0 1.97 113 -873)" gradientUnits="userSpaceOnUse" xlink:href="#a"/><linearGradient id="a"><stop offset="0"/><stop stop-opacity="0" offset="1"/></linearGradient><radialGradient id="c" cx="606" cy="487" r="117" gradientTransform="matrix(2.77 0 0 1.97 -1892 -873)" gradientUnits="userSpaceOnUse" xlink:href="#a"/><linearGradient id="j" x1="303" x2="303" y1="367" y2="610" gradientTransform="matrix(2.77 0 0 1.97 -1892 -873)" gradientUnits="userSpaceOnUse"><stop stop-opacity="0" offset="0"/><stop offset=".5"/><stop stop-opacity="0" offset="1"/></linearGradient><linearGradient id="g" x1="-51.8" x2="-51.8" y1="50.8" y2="2.91" gradientTransform="matrix(.438 0 0 .458 31.2 -.779)" gradientUnits="userSpaceOnUse"><stop stop-color="#8d8f8a" offset="0"/><stop stop-color="#cbcbcb" offset="1"/></linearGradient><linearGradient id="h" x1="25.1" x2="25.1" y1="6.73" y2="47" gradientTransform="matrix(.543 0 0 .489 -1.03 -.234)" gradientUnits="userSpaceOnUse"><stop stop-color="#f4f4f4" offset="0"/><stop stop-color="#dbdbdb" offset="1"/></linearGradient><linearGradient id="f" x1="17.3" x2="15.2" y1="2.18" y2="5.82" gradientTransform="translate(0,2)" gradientUnits="userSpaceOnUse"><stop stop-color="#cacaca" offset="0"/><stop stop-color="#949492" offset="1"/></linearGradient><linearGradient id="i" x1="32.9" x2="36.4" y1="8.06" y2="5.46" gradientTransform="matrix(.542 0 0 .52 -.94 1.7)" gradientUnits="userSpaceOnUse"><stop stop-color="#fefefe" offset="0"/><stop stop-color="#cbcbcb" offset="1"/></linearGradient><linearGradient id="k" x1="-173" x2="-167" y1="99.7" y2="93.7" gradientTransform="matrix(.137 0 0 .141 42.9 6.04)" gradientUnits="userSpaceOnUse"><stop stop-color="#242424" stop-opacity=".992" offset="0"/><stop stop-color="#656565" offset="1"/></linearGradient><radialGradient id="d" cx="18.2" cy="21.8" r="8.31" gradientUnits="userSpaceOnUse"><stop stop-color="#a1a1a1" stop-opacity=".208" offset="0"/><stop stop-color="#a1a1a1" stop-opacity=".678" offset="1"/></radialGradient><radialGradient id="e" cx="15.4" cy="13.1" r="6.66" gradientTransform="matrix(1.04 0 0 .835 -3.35 .217)" gradientUnits="userSpaceOnUse"><stop stop-color="#fff" offset="0"/><stop stop-color="#fff" stop-opacity=".248" offset="1"/></radialGradient><linearGradient id="l" x1="41.5" x2="41.5" y1="68.3" y2="4.54" gradientTransform="matrix(.137 0 0 .141 8 8.7)" gradientUnits="userSpaceOnUse"><stop stop-color="#333" offset="0"/><stop stop-color="#333" stop-opacity=".612" offset="1"/></linearGradient><linearGradient id="m" x1="173" x2="173" y1="75.3" y2="11.9" gradientTransform="matrix(.137 0 0 .141 -9.72 7.64)" gradientUnits="userSpaceOnUse"><stop stop-color="#343435" stop-opacity=".976" offset="0"/><stop stop-color="#919295" offset="1"/></linearGradient></defs><g transform="translate(-2,-2)"><g transform="matrix(.48 0 0 .517 1.56 -.578)" stroke-width="1.88"><g transform="matrix(.0217 0 0 .0149 43 42.7)" stroke-width="105"><rect x="-1559" y="-151" width="1340" height="478" fill="url(#j)" opacity=".402"/><path d="m-220-151v478c143 0.9 345-107 345-239s-159-239-345-239z" fill="url(#c)" opacity=".402"/><path d="m-1559-151v478c-143 0.9-345-107-345-239s159-239 345-239z" fill="url(#b)" opacity=".402"/></g></g><g stroke-linejoin="round"><path d="m4.5 2.5h11.1c0.764 0.237 4.87 2.94 5.94 4.81v15.2h-17c-1e-3 -7.33-1e-3 -12.7-1e-3 -20z" fill="url(#h)" stroke="url(#g)" stroke-width=".999"/><path d="m15.5 2.5v5h6c0-0.837-4.82-4.99-6-5z" fill="url(#i)" fill-rule="evenodd" stroke="url(#f)"/><path d="m17.5 16.6 6.11 5.88-0.846 1.19-6.08-6.36 0.824-0.707z" fill="url(#k)" fill-rule="evenodd" stroke="#333" stroke-linecap="round" stroke-width=".772"/></g><path transform="matrix(.135 -.156 .151 .14 -26.4 45.6)" d="m248 110a5.31 2.66 0 1 1-10.6 0 5.31 2.66 0 1 1 10.6 0z" fill="#3e3e3e"/><path transform="matrix(.504 0 0 .508 5.28 4.22)" d="m25.9 18.5a8.31 8.31 0 1 1-16.6 0 8.31 8.31 0 1 1 16.6 0z" fill="url(#d)" fill-rule="evenodd"/><path d="m14 9.98c-2.09 0-3.78 1.56-3.78 3.49 0 0.557 0.168 1.07 0.42 1.54 0.502 0.171 1.03 0.287 1.6 0.287 2.47 0 4.45-1.8 4.6-4.05-0.693-0.758-1.69-1.26-2.84-1.26z" fill="url(#e)" fill-rule="evenodd" opacity=".834"/><path d="m14 9.4c-2.57 0-4.66 1.99-4.66 4.44 0 2.45 2.09 4.44 4.66 4.44s4.66-1.99 4.66-4.44c0-2.45-2.09-4.44-4.66-4.44zm0.0555 0.291c2.3 0 4.17 1.78 4.17 3.97s-1.87 3.97-4.17 3.97c-2.3 0-4.17-1.78-4.17-3.97s1.87-3.97 4.17-3.97z" fill="url(#m)" stroke="url(#l)" stroke-linecap="round" stroke-linejoin="round" stroke-width=".772"/></g></svg>
