<?xml version="1.0" encoding="UTF-8" standalone="no"?>
<!-- Created with Inkscape (http://www.inkscape.org/) -->

<svg
   xmlns:dc="http://purl.org/dc/elements/1.1/"
   xmlns:cc="http://creativecommons.org/ns#"
   xmlns:rdf="http://www.w3.org/1999/02/22-rdf-syntax-ns#"
   xmlns:svg="http://www.w3.org/2000/svg"
   xmlns="http://www.w3.org/2000/svg"
   xmlns:xlink="http://www.w3.org/1999/xlink"
   xmlns:sodipodi="http://sodipodi.sourceforge.net/DTD/sodipodi-0.dtd"
   xmlns:inkscape="http://www.inkscape.org/namespaces/inkscape"
   id="svg2704"
   height="24"
   width="24"
   version="1.0"
   inkscape:version="0.91 r13725"
   sodipodi:docname="filesaveclean.svg">
  <metadata
     id="metadata87">
    <rdf:RDF>
      <cc:Work
         rdf:about="">
        <dc:format>image/svg+xml</dc:format>
        <dc:type
           rdf:resource="http://purl.org/dc/dcmitype/StillImage" />
        <dc:title></dc:title>
      </cc:Work>
    </rdf:RDF>
  </metadata>
  <sodipodi:namedview
     pagecolor="#ffffff"
     bordercolor="#666666"
     borderopacity="1"
     objecttolerance="10"
     gridtolerance="10"
     guidetolerance="10"
     inkscape:pageopacity="0"
     inkscape:pageshadow="2"
     inkscape:window-width="1272"
     inkscape:window-height="858"
     id="namedview85"
     showgrid="false"
     inkscape:zoom="13.906433"
     inkscape:cx="8.2671179"
     inkscape:cy="2.9118645"
     inkscape:window-x="48"
     inkscape:window-y="24"
     inkscape:window-maximized="0"
     inkscape:current-layer="svg2704" />
  <defs
     id="defs2706">
    <linearGradient
       id="linearGradient2883"
       y2="609.51"
       gradientUnits="userSpaceOnUse"
       x2="302.86"
       gradientTransform="matrix(.037768 0 0 .010860 -1.6503 17.381)"
       y1="366.65"
       x1="302.86">
      <stop
         id="stop5050"
         style="stop-opacity:0"
         offset="0" />
      <stop
         id="stop5056"
         offset=".5" />
      <stop
         id="stop5052"
         style="stop-opacity:0"
         offset="1" />
    </linearGradient>
    <radialGradient
       id="radialGradient2880"
       xlink:href="#linearGradient5060"
       gradientUnits="userSpaceOnUse"
       cy="486.65"
       cx="605.71"
       gradientTransform="matrix(.022183 0 0 .010860 7.7407 17.381)"
       r="117.14" />
    <linearGradient
       id="linearGradient5060">
      <stop
         id="stop5062"
         offset="0" />
      <stop
         id="stop5064"
         style="stop-opacity:0"
         offset="1" />
    </linearGradient>
    <radialGradient
       id="radialGradient2877"
       xlink:href="#linearGradient5060"
       gradientUnits="userSpaceOnUse"
       cy="486.65"
       cx="605.71"
       gradientTransform="matrix(-.022183 0 0 .010860 16.259 17.381)"
       r="117.14" />
    <linearGradient
       id="linearGradient2872"
       y2="104.28"
       gradientUnits="userSpaceOnUse"
       x2="53.991"
       gradientTransform="matrix(.19046 0 0 .24853 .090799 -3.4847)"
       y1="87.896"
       x1="53.991">
      <stop
         id="stop2223-6"
         style="stop-color:#7a7a7a"
         offset="0" />
      <stop
         id="stop2219-1"
         style="stop-color:#474747"
         offset="1" />
    </linearGradient>
    <linearGradient
       id="linearGradient8490"
       y2="35.281"
       gradientUnits="userSpaceOnUse"
       x2="24.688"
       gradientTransform="matrix(.73759 0 0 .53933 -2.2092 1.4719)"
       y1="35.281"
       x1="7.0625">
      <stop
         id="stop6311"
         offset="0" />
      <stop
         id="stop6313"
         style="stop-color:#bbb;stop-opacity:0"
         offset="1" />
    </linearGradient>
    <linearGradient
       id="linearGradient8487"
       y2="33.759"
       gradientUnits="userSpaceOnUse"
       x2="12.222"
       gradientTransform="matrix(.73759 0 0 .53933 -2.796 2.187)"
       y1="37.206"
       x1="12.277">
      <stop
         id="stop4238-4"
         style="stop-color:#eee"
         offset="0" />
      <stop
         id="stop4240-3"
         style="stop-color:#eee;stop-opacity:0"
         offset="1" />
    </linearGradient>
    <linearGradient
       id="linearGradient2869"
       y2="8.3495"
       gradientUnits="userSpaceOnUse"
       x2="4.459"
       gradientTransform="matrix(.98925 0 0 1.4696 .12903 -10.339)"
       y1="13.499"
       x1="9.599">
      <stop
         id="stop3486-2"
         style="stop-color:#969696"
         offset="0" />
      <stop
         id="stop3488-0"
         style="stop-color:#b4b4b4"
         offset="1" />
    </linearGradient>
    <radialGradient
       id="radialGradient4072"
       gradientUnits="userSpaceOnUse"
       cy="4.2333"
       cx="7.2203"
       gradientTransform="matrix(1.5194 .0037157 -.0030247 1.2368 -3.7373 .067833)"
       r="12">
      <stop
         id="stop7064-4"
         style="stop-color:#e6e6e6"
         offset="0" />
      <stop
         id="stop7060-2"
         style="stop-color:#c8c8c8"
         offset="1" />
    </radialGradient>
    <radialGradient
       id="radialGradient3248"
       gradientUnits="userSpaceOnUse"
       cy="42"
       cx="24"
       gradientTransform="matrix(.52381 0 1.4569e-8 .21429 -.57143 11.5)"
       r="21">
      <stop
         id="stop6312-6"
         style="stop-color:#fff"
         offset="0" />
      <stop
         id="stop6314-6"
         style="stop-color:#fff;stop-opacity:0"
         offset="1" />
    </radialGradient>
    <radialGradient
       id="radialGradient8471"
       xlink:href="#linearGradient4035"
       gradientUnits="userSpaceOnUse"
       cy="206.43"
       cx="141.75"
       gradientTransform="matrix(.18615 -.0031402 .0013777 .18068 -15.013 -20.636)"
       r="78.728" />
    <radialGradient
       id="radialGradient8464"
       gradientUnits="userSpaceOnUse"
       cy="191.85"
       cx="142.62"
       gradientTransform="matrix(.092476 0 0 -.087162 -1.5556 24.366)"
       r="78.728">
      <stop
         id="stop7611-3"
         style="stop-color:#fff"
         offset="0" />
      <stop
         id="stop7677-2"
         style="stop-color:#e7e7e7"
         offset=".47026" />
      <stop
         id="stop7613-4"
         style="stop-color:#8c8c8c"
         offset=".67184" />
      <stop
         id="stop7617-3"
         style="stop-color:#ddd"
         offset=".83543" />
      <stop
         id="stop7615-6"
         style="stop-color:#a8a8a8"
         offset="1" />
    </radialGradient>
    <linearGradient
       id="linearGradient4035">
      <stop
         id="stop4037"
         style="stop-color:#f5f5f5"
         offset="0" />
      <stop
         id="stop4039"
         style="stop-color:#e7e7e7"
         offset=".47026" />
      <stop
         id="stop4041"
         style="stop-color:#8c8c8c"
         offset=".69349" />
      <stop
         id="stop4043"
         style="stop-color:#ddd"
         offset=".83543" />
      <stop
         id="stop4045"
         style="stop-color:#a8a8a8"
         offset="1" />
    </linearGradient>
    <radialGradient
       id="radialGradient8475"
       xlink:href="#linearGradient4035"
       gradientUnits="userSpaceOnUse"
       cy="143.83"
       cx="127.32"
       gradientTransform="matrix(.10006 -.023376 .0082168 .059717 -5.2741 -.91135)"
       r="78.728" />
    <radialGradient
       id="radialGradient8498"
       fx="113.67"
       fy="98"
       xlink:href="#radialGradient4241"
       gradientUnits="userSpaceOnUse"
       cy="97.588"
       cx="113.07"
       gradientTransform="matrix(2.4957 0 0 2.4957 -223.98 -53.226)"
       r="2.5631" />
    <radialGradient
       id="radialGradient4241"
       fx="113.67"
       fy="98"
       gradientUnits="userSpaceOnUse"
       cy="97.588"
       cx="113.07"
       r="2.5631">
      <stop
         id="stop4243"
         style="stop-color:#eee"
         offset="0" />
      <stop
         id="stop4245"
         style="stop-color:#cecece"
         offset=".16" />
      <stop
         id="stop4247"
         style="stop-color:#888"
         offset=".4675" />
      <stop
         id="stop4249"
         style="stop-color:#555"
         offset="1" />
    </radialGradient>
    <linearGradient
       id="linearGradient2831"
       y2="33.332"
       gradientUnits="userSpaceOnUse"
       x2="57.411"
       gradientTransform="matrix(0 .39055 -.38724 0 22.223 -1.7244)"
       y1="33.332"
       x1="8.5273">
      <stop
         id="stop4224"
         style="stop-color:#fff"
         offset="0" />
      <stop
         id="stop4226"
         style="stop-color:#fff;stop-opacity:0"
         offset="1" />
    </linearGradient>
    <linearGradient
       id="linearGradient2834"
       y2="23.891"
       gradientUnits="userSpaceOnUse"
       x2="1.31"
       gradientTransform="matrix(0 -.33674 -.33543 0 20.014 15.582)"
       y1="23.891"
       x1="28.671">
      <stop
         id="stop2266"
         style="stop-color:#d7e866"
         offset="0" />
      <stop
         id="stop2268"
         style="stop-color:#8cab2a"
         offset="1" />
    </linearGradient>
    <linearGradient
       id="linearGradient5605"
       y2="6.5747"
       gradientUnits="userSpaceOnUse"
       x2="21.478"
       gradientTransform="matrix(.47644 0 0 .40577 -36.625 -.80551)"
       y1="1.6845"
       x1="21.478">
      <stop
         id="stop6453"
         style="stop-color:#eeeeec"
         offset="0" />
      <stop
         id="stop6455"
         style="stop-color:#fff"
         offset="1" />
    </linearGradient>
    <radialGradient
       id="radialGradient6025"
       fx="28.603001"
       gradientUnits="userSpaceOnUse"
       cy="69"
       cx="38"
       gradientTransform="matrix(1,0,0,0.45,0,37.95)"
       r="20">
      <stop
         id="stop6021"
         offset="0" />
      <stop
         id="stop6023"
         style="stop-opacity:0"
         offset="1" />
    </radialGradient>
    <linearGradient
       id="linearGradient5964"
       y2="8"
       gradientUnits="userSpaceOnUse"
       x2="26"
       gradientTransform="translate(-2,0)"
       y1="16"
       x1="28">
      <stop
         id="stop5960"
         style="stop-color:#c17d11"
         offset="0" />
      <stop
         id="stop5962"
         style="stop-color:#e9b96e"
         offset="1" />
    </linearGradient>
    <linearGradient
       id="linearGradient6002"
       y2="18"
       gradientUnits="userSpaceOnUse"
       x2="34"
       gradientTransform="translate(-2,0)"
       y1="9.2407999"
       x1="30.325001">
      <stop
         id="stop5998"
         style="stop-color:#8f5902"
         offset="0" />
      <stop
         id="stop6000"
         style="stop-color:#73521e"
         offset="1" />
    </linearGradient>
    <linearGradient
       id="linearGradient5994"
       y2="16.686001"
       gradientUnits="userSpaceOnUse"
       x2="33.446999"
       y1="8"
       x1="28">
      <stop
         id="stop5986"
         style="stop-color:#fff"
         offset="0" />
      <stop
         id="stop5988"
         style="stop-color:#fff;stop-opacity:.13439"
         offset="1" />
    </linearGradient>
    <linearGradient
       id="linearGradient5972"
       y2="30.743"
       gradientUnits="userSpaceOnUse"
       x2="30.208"
       gradientTransform="translate(-2,0)"
       y1="25.061001"
       x1="20.934">
      <stop
         id="stop5968"
         style="stop-color:#fdef72"
         offset="0" />
      <stop
         id="stop5970"
         style="stop-color:#e2cb0b"
         offset="1" />
    </linearGradient>
    <linearGradient
       id="linearGradient5993"
       y2="37.846001"
       gradientUnits="userSpaceOnUse"
       x2="29.493999"
       gradientTransform="translate(-2,0)"
       y1="27.447001"
       x1="17.032">
      <stop
         id="stop5989"
         style="stop-color:#d7c20f"
         offset="0" />
      <stop
         id="stop5991"
         style="stop-color:#b6970d"
         offset="1" />
    </linearGradient>
    <linearGradient
       id="linearGradient5973"
       y2="37.028999"
       gradientUnits="userSpaceOnUse"
       x2="18.986"
       gradientTransform="translate(-2,0)"
       y1="41.956001"
       x1="22.32">
      <stop
         id="stop5983"
         style="stop-color:#fff"
         offset="0" />
      <stop
         id="stop5985"
         style="stop-color:#fff;stop-opacity:.69412"
         offset="1" />
    </linearGradient>
    <linearGradient
       id="linearGradient6005"
       y2="34.728001"
       gradientUnits="userSpaceOnUse"
       x2="23.489"
       gradientTransform="translate(-2,0)"
       y1="36.217999"
       x1="27.355">
      <stop
         id="stop6001"
         style="stop-color:#c4a000"
         offset="0" />
      <stop
         id="stop6003"
         style="stop-color:#c4a000;stop-opacity:0"
         offset="1" />
    </linearGradient>
    <linearGradient
       id="linearGradient5980-761"
       y2="20.618999"
       gradientUnits="userSpaceOnUse"
       x2="21.591"
       gradientTransform="matrix(0.97682,0,0,1,-1.3747,0)"
       y1="23.146"
       x1="27.652">
      <stop
         id="stop2473"
         style="stop-color:#919191"
         offset="0" />
      <stop
         id="stop2475"
         style="stop-color:#cecece"
         offset="1" />
    </linearGradient>
  </defs>
  <g
     id="layer1">
    <rect
       id="rect2723"
       style="opacity:.40206;fill:url(#linearGradient2883)"
       height="2.6374"
       width="18.236"
       y="21.363"
       x="2.8818" />
    <path
       id="path2725"
       style="opacity:.40206;fill:url(#radialGradient2880)"
       d="m21.109 21.363v2.6373c1.1423 0.005 2.7616-0.59088 2.7616-1.3188 0-0.72793-1.2748-1.3185-2.7616-1.3185z" />
    <path
       id="path2727"
       style="opacity:.40206;fill:url(#radialGradient2877)"
       d="m2.8907 21.363v2.6373c-1.1424 0.005-2.7616-0.59088-2.7616-1.3188 0-0.72793 1.2748-1.3185 2.7616-1.3185z" />
    <path
       id="rect2992"
       style="stroke-linejoin:round;stroke:#353537;fill:url(#linearGradient2872)"
       d="m23.5 18.5c-0.46639 3.38-0.35138 3.9815-1.1959 3.9815-0.33079 0.04823-13.337 0-20.654 0-0.91714 0-0.68541 0.06576-1.1498-3.9786l23-0.0029v-0.000049z" />
    <path
       id="rect9146"
       style="fill-rule:evenodd;fill:url(#linearGradient8490)"
       d="m2.7 19h13.3v3h-13l-0.3-3z" />
    <path
       id="path9148"
       style="opacity:.81143;fill:url(#linearGradient8487);fill-rule:evenodd"
       d="m3 22s-0.2-2.1635-0.2-2.1635c1.3539 1.7146 6.3194 2.1635 9.7426 2.1635h-9.5426z" />
    <path
       id="rect2990"
       style="stroke-linejoin:round;stroke:url(#linearGradient2869);stroke-linecap:round;fill:url(#radialGradient4072)"
       d="m2.5 2-1.9774 16.483c-0.014949 0-0.022616 0.0044-0.022616 0.01667h23c0-0.01232-0.0077-0.01667-0.02261-0.01667l-1.977-16.483c-0.099-0.8274-1.167-1.5-2-1.5h-15c-0.8333 0-1.9007 0.6726-2 1.5z" />
    <path
       id="path2215"
       style="opacity:.6;stroke-linejoin:round;stroke:#fff;stroke-linecap:round;fill:none"
       d="m1.4991 18.5h21.002" />
    <rect
       id="rect6300-3"
       style="opacity:.2;fill:url(#radialGradient3248)"
       height="3"
       width="22"
       y="19"
       x="1" />
    <path
       id="path8469"
       style="fill:url(#radialGradient8471)"
       d="m14.531 1.8125c-0.27749 0-0.52468 0.080669-0.71875 0.21875s-0.33544 0.35016-0.34375 0.59375c-0.02564 0.74969-0.40816 1.2893-1.125 1.7812-0.71102 0.48797-1.7547 0.89986-3 1.2812-0.010197 0.00312-0.021024-0.00312-0.03125 0-0.471 0.098904-1.245 0.37608-2 0.65625-0.7654 0.2842-1.4645 0.5582-1.781 0.7813-1.5978 1.0054-2.5829 2.3417-2.7187 3.813-0.12364 1.3391 0.47939 2.6794 1.6562 3.75 1.7217 1.5662 4.5353 2.5 7.5312 2.5s5.8094-0.93383 7.5312-2.5c1.075-0.97766 1.6562-2.1551 1.6562-3.375 0-0.09948 0.0114-0.24227 0-0.375-0.12-1.2916-0.916-2.4839-2.188-3.438-0.036-0.5044-0.344-4.875-0.344-4.875-0.017-0.2437-0.176-0.4572-0.375-0.5938-0.199-0.1365-0.442-0.2187-0.719-0.2187h-3.0312zm0 0.53125h3.0312c0.06724 0 0.12597 0.018412 0.15625 0.03125l0.375 5.125c-0.0035 0.020687-0.0035 0.041813 0 0.0625 0.0091 0.011612 0.01964 0.022101 0.03125 0.03125 0.01556 0.025516 0.03698 0.046944 0.0625 0.0625 1.232 0.84283 1.959 2.1272 2.0625 3.25 0.12887 1.3951-0.69926 2.5486-2.1875 3.4062-1.4882 0.85766-3.6257 1.375-6.0625 1.375s-4.5743-0.51734-6.0625-1.375c-1.4877-0.857-2.3158-2.011-2.187-3.406 0.1109-1.2003 0.9556-2.5362 2.3438-3.406 0.0116-0.0091 0.0221-0.0196 0.0312-0.0312 0.0046-0.0041 0.0687-0.0477 0.1562-0.0938 0.0876-0.0461 0.2082-0.0951 0.3438-0.1562 0.2712-0.1224 0.601-0.2644 0.9688-0.4063 0.7355-0.2837 1.5683-0.5498 1.9687-0.625 0.010399 0.0008695 0.020851 0.0008695 0.03125 0 1.2093-0.36821 2.3581-0.8066 3.25-1.4062 0.87385-0.5875 1.5033-1.369 1.5625-2.4062 0.02028-0.00976 0.06108-0.03125 0.125-0.03125z" />
    <path
       id="path9156"
       style="fill:url(#radialGradient8464)"
       d="m12 13c-1.6825 0-2.9723-0.84474-2.9995-1.9652-0.0003-0.013-0.0005-0.024-0.0005-0.036 0-0.406 0.1691-0.791 0.4903-1.1177 0.5437-0.5519 1.4817-0.8813 2.5097-0.8813s1.9662 0.32942 2.5096 0.8813c0.33072 0.33567 0.50019 0.73466 0.48986 1.1533-0.028 1.12-1.318 1.965-3 1.965v-0.000063 0.000003zm0.05026-2.746c-1.5809 0-2.4365 0.21014-2.4175 0.97447 0.01833 0.75242 1.0782 1.3536 2.3673 1.3536 1.2892 0 2.349-0.60139 2.3673-1.3536 0.01876-0.76453-0.73621-0.97447-2.3171-0.97447z" />
    <path
       id="path8473"
       style="fill:url(#radialGradient8475)"
       d="m4.9688 1.75c-0.0673 0.0181-0.1239 0.0634-0.1563 0.125-0.0133 0.0193-0.0238 0.0403-0.0313 0.0625l-0.0624 0.2187-0.8438 3.25-0.125 0.5313c-0.0059 0.031-0.0059 0.0628 0 0.0937 0.0041 0.0331 0.0147 0.0649 0.0312 0.0938 0.0325 0.0616 0.0891 0.1069 0.1563 0.125 0.040995 0.010584 0.084005 0.010584 0.125 0l0.40625-0.125 6.875-2.0312h0.03125c0.01041 0.0006516 0.02084 0.0006516 0.03125 0 0.01041 0.0006516 0.02084 0.0006516 0.03125 0 0.022-0.0075 0.043-0.018 0.062-0.0313 0.46-0.2538 0.695-0.7426 0.75-1.1875 0.028-0.2282 0.008-0.4565-0.062-0.6562-0.041-0.1136-0.127-0.2213-0.219-0.3126-0.093-0.0912-0.212-0.161-0.375-0.1562h-0.03125-6.375-0.15625c-0.0211-0.0026-0.0421-0.0026-0.0628 0zm0.5 0.6875h5.9062c-0.015 0.0778-0.035 0.1306-0.063 0.2187-0.049 0.1619-0.145 0.2934-0.124 0.2813l-6.2505 1.8125 0.5313-2.3125z" />
    <g
       id="g9158"
       transform="matrix(-.097811 0 0 .10767 8.1622 -3.8183)">
      <path
         id="path9160"
         style="fill:#e6e6e6"
         d="m48.3 190.28c0.31446 4.2476 5.0238 7.7116 10.514 7.7116 5.4879 0 9.6432-3.464 9.2763-7.7116-0.36437-4.2251-5.0712-7.6367-10.507-7.6367-5.438 0.002-9.5933 3.4116-9.2838 7.6367z" />
      <path
         id="path9162"
         style="fill:url(#radialGradient8498)"
         d="m51.851 187.29c-0.50163 0.53906-1.0756 1.4026-1.0756 2.5506 0 0.0824 0.005 0.16471 0.01 0.25206 0.21713 2.9274 3.8932 5.4006 8.026 5.4006 2.3534 0 4.5046-0.81109 5.7525-2.1737 0.53656-0.58149 1.148-1.5448 1.0382-2.8276-0.25206-2.9024-3.9232-5.3557-8.021-5.3557-2.3359 0.002-4.4797 0.8061-5.73 2.1538h-0.00002z" />
    </g>
    <g
       id="g9190"
       transform="matrix(.097811 0 0 .10767 15.777 -3.8183)">
      <path
         id="path9192"
         style="fill:#e6e6e6"
         d="m48.3 190.28c0.31446 4.2476 5.0238 7.7116 10.514 7.7116 5.4879 0 9.6432-3.464 9.2763-7.7116-0.36437-4.2251-5.0712-7.6367-10.507-7.6367-5.438 0.002-9.5933 3.4116-9.2838 7.6367z" />
      <path
         id="path9194"
         style="fill:url(#radialGradient8498)"
         d="m51.851 187.29c-0.50163 0.53906-1.0756 1.4026-1.0756 2.5506 0 0.0824 0.005 0.16471 0.01 0.25206 0.21713 2.9274 3.8932 5.4006 8.026 5.4006 2.3534 0 4.5046-0.81109 5.7525-2.1737 0.53656-0.58149 1.148-1.5448 1.0382-2.8276-0.25206-2.9024-3.9232-5.3557-8.021-5.3557-2.3359 0.002-4.4797 0.8061-5.73 2.1538h-0.00002z" />
    </g>
    <path
       id="path4348"
       style="stroke-linejoin:round;stroke:#548820;stroke-linecap:round;stroke-width:.98046;fill:url(#linearGradient2834)"
       d="m18.611 7.5098-6.6112 7-6.6112-7h3.1112v-6h7v6h3.1112z" />
    <path
       id="path4360"
       style="opacity:0.354;stroke:url(#linearGradient2831);stroke-width:.98046;fill:none"
       d="m16.394 8.5098-4.3945 4.5863-4.348-4.5863h1.848v-6h5v6h1.8945z" />
  </g>
  <g
     id="g5600"
     transform="translate(36.952 1.0738)">
    <rect
       id="rect5480"
       style="stroke:#548820;stroke-width:.94229;fill:url(#linearGradient5605)"
       rx="1.0142"
       ry=".86373"
       height="4.0577"
       width="19.058"
       y="-.60262"
       x="-34.481" />
    <rect
       id="rect6467"
       style="fill:#c8cdc3"
       height="1"
       width="6"
       y=".92623"
       x="-32.952" />
    <rect
       id="rect6469"
       style="fill:#969696"
       height="2"
       width="1"
       y=".42623"
       x="-25.952" />
  </g>
  <g
     style="display:inline;enable-background:new"
     transform="matrix(0.49007062,0,0,0.49007062,4.9982517,0.08422785)"
     id="layer1-3">
    <path
       inkscape:connector-curvature="0"
       id="path6017"
       style="opacity:0.25;fill:url(#radialGradient6025)"
       d="m 58,69 a 20,9 0 1 1 -40,0 20,9 0 1 1 40,0 z"
       transform="matrix(1,0,0,0.66667,-14,-5)" />
    <path
       inkscape:connector-curvature="0"
       id="path5371"
       style="fill:url(#linearGradient5964);fill-rule:evenodd;stroke:url(#linearGradient6002);stroke-width:1px"
       d="m 34.594,2.4688 c -8.2032,0.10565 -9.3968,16.248 -11.75,19.156 l 4,1.4375 C 29.476,18.6903 42.6,4.1543 35.406,2.5003 35.127,2.4693 34.858,2.4656 34.594,2.4691 Z m -1.0312,2.0625 c 0.19356,-0.018739 0.36799,0.00572 0.53125,0.09375 0.65306,0.35212 0.72366,1.4949 0.15625,2.5312 -0.5674,1.0364 -1.5657,1.6021 -2.2188,1.25 -0.654,-0.3522 -0.724,-1.4949 -0.157,-2.5313 0.426,-0.7773 1.107,-1.2875 1.687,-1.3438 z" />
    <path
       inkscape:connector-curvature="0"
       id="path5992"
       style="opacity:0.26667002;fill:none;stroke:url(#linearGradient5994);stroke-width:1px"
       d="m 36.594,3.4688 c -1.7216,0.022173 -3.0079,0.85587 -4.1875,2.2812 -1.1796,1.4254 -2.1483,3.4416 -2.9375,5.5938 -0.78917,2.1521 -1.424,4.4343 -2,6.375 -0.39989,1.3475 -0.76986,2.4064 -1.2188,3.3438 l 2.1875,0.78125 c 1.6186,-2.4956 5.0388,-6.5912 7.5312,-10.625 1.3258,-2.1458 2.2837,-4.178 2.5,-5.5625 0.108,-0.692 0.045,-1.1727 -0.125,-1.4685 -0.165,-0.2865 -0.464,-0.5246 -1.125,-0.6875 -0.2,-0.0188 -0.401,-0.0341 -0.625,-0.0312 z"
       transform="translate(-2,0)" />
    <path
       inkscape:connector-curvature="0"
       id="path5367"
       style="fill:url(#linearGradient5972);fill-rule:evenodd;stroke:url(#linearGradient5993);stroke-miterlimit:20"
       d="m 20.5,16.5 c 0.70951,2.003 -0.54139,3.7378 -1,5 -5.192,1.546 -8.787,9.704 -14.133,13.954 0.6682,0.697 1.4526,1.444 2.133,2.046 l 4.0625,-3.5312 -3.0676,4.5246 c 2.2091,1.791 4.5051,3.007 6.0051,3.507 l 2.75,-3.656 -1.75,4.156 c 1.452,0.58888 4.9853,1.482 7,1.5 l 2.0039,-3.4025 -0.51317,3.465 c 0.82956,0.15836 2.4382,0.37422 3.5093,0.40625 3.3622,-5.5 4,-14.469 2,-18.469 -0.5,-2 1.5,-4.5 3,-5.5 -2.5,-2 -8.2056,-4.3037 -12,-4 z" />
    <path
       inkscape:connector-curvature="0"
       id="path5975"
       style="opacity:0.26667002;fill:#c4a000;fill-rule:evenodd"
       d="M 9,38.5 C 13.816,33.489 13.465,31.296 19.116,26.972 16.134,31.801 15.65,34.312 12,40.5 l -3,-2 z" />
    <path
       inkscape:connector-curvature="0"
       id="path5979"
       style="opacity:0.41569004;fill:#c4a000;fill-rule:evenodd"
       d="m 16.15,42.202 4.346,-9.8401 c 1.6645,-2.9837 2.8597,-5.9701 4.529,-8.3474 -1.602,5.418 -4.8907,12.122 -7.5312,18.625 L 16.15,42.202 Z" />
    <path
       inkscape:connector-curvature="0"
       id="path6014"
       style="opacity:0.47843;fill:none;stroke:url(#linearGradient5973);stroke-width:1px"
       d="m 21.625,17.5 c 0.09674,1.9151 -0.92294,3.5296 -1.2188,4.3438 -0.1041,0.28471 -0.33533,0.50437 -0.625,0.59375 -5.4534,2.2346 -7.6298,8.574 -12.995,13.086 0.20164,0.19985 0.49203,0.4173 0.69453,0.60823 l 9.019,-7.632 -6.5766,9.81 c 1.27,1.0276 2.7222,1.8845 4.2267,2.4892 l 6.994,-9.299 -4.274,10.412 c 1.595,0.525 3.098,0.827 4.945,1.088 l 4.6187,-7.6875 -1.3707,7.9068 1.875,0.226 c 1.4332,-2.5355 2.1324,-5.6665 2.5312,-8.7891 0.42394,-3.3188 -0.005,-6.5412 -0.84375,-8.2188 -0.02716,-0.06021 -0.0481,-0.12304 -0.0625,-0.1875 -0.34686,-1.3874 0.16914,-2.7456 0.875,-3.875 0.42689,-0.68303 0.93037,-1.2908 1.465,-1.8018 -1.172,-0.781 -2.587,-1.459 -4.372,-2.103 -1.762,-0.637 -3.498,-0.95 -4.906,-0.969 z" />
    <path
       inkscape:connector-curvature="0"
       id="path5977"
       style="opacity:0.24706002;fill:url(#linearGradient6005);fill-rule:evenodd"
       d="m 18.969,43 c 2.1776,-5.7519 6.3959,-10.069 8.0169,-15.935 0.05154,3.6621 0.24972,10.204 -1.8919,16.717 -0.31977,0.0018 -0.17393,-0.11081 -0.46988,-0.11855 l 0.80079,-5.7245 -3.2815,5.5544 c -2.191,-0.157 -1.294,0.032 -3.174,-0.493 z" />
    <path
       inkscape:connector-curvature="0"
       id="path5995"
       style="opacity:0.48235001;fill:#c4a000;fill-rule:evenodd"
       d="m 21.003,22.61 c -1.252,0.61638 -2.0622,1.5273 -2.9831,2.3644 1.2265,-0.70864 2.379,-1.449 3.9996,-1.9887 L 21.003,22.61005 Z" />
    <path
       inkscape:connector-curvature="0"
       id="path5997"
       style="opacity:0.48235001;fill:#c4a000;fill-rule:evenodd"
       d="m 23.009,23.061 -1.0165,1.9887 2.9807,-1.5882 -1.9642,-0.40049 z" />
    <path
       inkscape:connector-curvature="0"
       id="path6007"
       style="opacity:0.48235001;fill:#c4a000;fill-rule:evenodd"
       d="m 22.94,17.961 -0.89519,1.707 1.5657,0.50208 -0.67053,-2.2091 z" />
    <path
       inkscape:connector-curvature="0"
       id="path6009"
       style="opacity:0.48235001;fill:#c4a000;fill-rule:evenodd"
       d="m 29.923,19.885 -2.4602,1.8354 1.5657,0.50208 0.89452,-2.3375 z" />
    <path
       inkscape:connector-curvature="0"
       id="path6011"
       style="opacity:0.48235001;fill:#c4a000;fill-rule:evenodd"
       d="m 26.013,17.939 -1.5139,2.5246 1.5657,0.50208 -0.05182,-3.0267 z" />
    <path
       inkscape:connector-curvature="0"
       id="path6013"
       style="opacity:0.2;fill-rule:evenodd"
       d="m 18.968,22.025 c -0.56678,-2.9655 9.3328,2.1529 11.037,2.9944 -0.0065,1.0791 0,2 -0.97682,2 -2.5675,-1.393 -6.5353,-3.6051 -10.06,-4.9944 z" />
    <path
       inkscape:connector-curvature="0"
       id="path5373"
       style="fill:url(#linearGradient5980-761);fill-rule:evenodd;stroke:#464646;stroke-width:1px;stroke-linejoin:round"
       d="m 18.65,21.5 c -0.48841,-1 0,-2 0.97682,-2 3.9914,0.97542 7.3249,2.2062 10.745,4 0.48841,1 0,2 -0.97682,2 -3.5339,-1.8644 -6.8667,-3.0748 -10.745,-4 z" />
  </g>
</svg>
