<?xml version="1.0" encoding="UTF-8" standalone="no"?>
<!-- Created with Inkscape (http://www.inkscape.org/) -->

<svg
   xmlns:dc="http://purl.org/dc/elements/1.1/"
   xmlns:cc="http://creativecommons.org/ns#"
   xmlns:rdf="http://www.w3.org/1999/02/22-rdf-syntax-ns#"
   xmlns:svg="http://www.w3.org/2000/svg"
   xmlns="http://www.w3.org/2000/svg"
   xmlns:xlink="http://www.w3.org/1999/xlink"
   xmlns:sodipodi="http://sodipodi.sourceforge.net/DTD/sodipodi-0.dtd"
   xmlns:inkscape="http://www.inkscape.org/namespaces/inkscape"
   id="svg3287"
   height="24"
   width="24"
   version="1.0"
   inkscape:version="0.91 r13725"
   sodipodi:docname="kmlfileopen.svg">
  <metadata
     id="metadata63">
    <rdf:RDF>
      <cc:Work
         rdf:about="">
        <dc:format>image/svg+xml</dc:format>
        <dc:type
           rdf:resource="http://purl.org/dc/dcmitype/StillImage" />
        <dc:title></dc:title>
      </cc:Work>
    </rdf:RDF>
  </metadata>
  <sodipodi:namedview
     pagecolor="#ffffff"
     bordercolor="#666666"
     borderopacity="1"
     objecttolerance="10"
     gridtolerance="10"
     guidetolerance="10"
     inkscape:pageopacity="0"
     inkscape:pageshadow="2"
     inkscape:window-width="1277"
     inkscape:window-height="789"
     id="namedview61"
     showgrid="false"
     inkscape:zoom="9.8333333"
     inkscape:cx="-0.10169492"
     inkscape:cy="12"
     inkscape:window-x="209"
     inkscape:window-y="94"
     inkscape:window-maximized="0"
     inkscape:current-layer="svg3287" />
  <defs
     id="defs3289">
    <linearGradient
       id="linearGradient3001-8-3"
       y2="24.628"
       gradientUnits="userSpaceOnUse"
       x2="20.055"
       gradientTransform="matrix(.44503 0 0 .30102 2.8555 8.5638)"
       y1="16.408"
       x1="18.031">
      <stop
         id="stop2687-4-1"
         style="stop-color:#fff;stop-opacity:.27451"
         offset="0" />
      <stop
         id="stop2689-2-2"
         style="stop-color:#fff;stop-opacity:.078431"
         offset="1" />
    </linearGradient>
    <radialGradient
       id="radialGradient3004-5-2"
       gradientUnits="userSpaceOnUse"
       cy="5.5927"
       cx="4.02"
       gradientTransform="matrix(-.016802 1.0431 -1.7966 -.016197 14.189 7.2971)"
       r="10.273">
      <stop
         id="stop3754-7-5"
         style="stop-color:#fff"
         offset="0" />
      <stop
         id="stop3760-0-0"
         style="stop-color:#fff"
         offset=".84754" />
      <stop
         id="stop3756-4-9"
         style="stop-color:#fff;stop-opacity:0"
         offset="1" />
    </radialGradient>
    <linearGradient
       id="linearGradient3295"
       y2="4.303"
       gradientUnits="userSpaceOnUse"
       x2="9.7046"
       gradientTransform="matrix(.99458 0 0 .74406 -.30296 6.9688)"
       y1="20.882"
       x1="9.7046">
      <stop
         id="stop3624"
         style="stop-color:#bb2b12"
         offset="0" />
      <stop
         id="stop3626"
         style="stop-color:#cd7233"
         offset="1" />
    </linearGradient>
    <radialGradient
       id="radialGradient3293"
       gradientUnits="userSpaceOnUse"
       cy="8.5609"
       cx="7.8186"
       gradientTransform="matrix(1.69 0 0 .78074 -5.4127 6.4032)"
       r="11.268">
      <stop
         id="stop3618"
         style="stop-color:#f0c178"
         offset="0" />
      <stop
         id="stop3270"
         style="stop-color:#e18941"
         offset=".5" />
      <stop
         id="stop3620"
         style="stop-color:#ec4f18"
         offset="1" />
    </radialGradient>
    <linearGradient
       id="linearGradient3259"
       y2="5.8215"
       gradientUnits="userSpaceOnUse"
       x2="15.18"
       gradientTransform="matrix(.68443 0 0 .68201 -.21315 .15692)"
       y1="2.1849"
       x1="17.289">
      <stop
         id="stop4561"
         style="stop-color:#c0c0c0"
         offset="0" />
      <stop
         id="stop4563"
         style="stop-color:#949492"
         offset="1" />
    </linearGradient>
    <linearGradient
       id="linearGradient3257"
       y2="5.4565"
       gradientUnits="userSpaceOnUse"
       x2="36.358"
       gradientTransform="matrix(.37071 0 0 .35485 -.85666 -.048951)"
       y1="8.059"
       x1="32.892">
      <stop
         id="stop8591"
         style="stop-color:#fefefe"
         offset="0" />
      <stop
         id="stop8593"
         style="stop-color:#cbcbcb"
         offset="1" />
    </linearGradient>
    <linearGradient
       id="linearGradient3255"
       y2="2.9062"
       gradientUnits="userSpaceOnUse"
       x2="-51.786"
       gradientTransform="matrix(.30004 0 0 .31205 21.157 -.37413)"
       y1="50.786"
       x1="-51.786">
      <stop
         id="stop3933"
         style="stop-color:#8d8f8a"
         offset="0" />
      <stop
         id="stop3935"
         style="stop-color:#c1c1c1"
         offset="1" />
    </linearGradient>
    <linearGradient
       id="linearGradient3253"
       y2="47.013"
       gradientUnits="userSpaceOnUse"
       x2="25.132"
       gradientTransform="matrix(.37156 0 0 .33344 -.91752 -.0025171)"
       y1="6.7287"
       x1="25.132">
      <stop
         id="stop3602"
         style="stop-color:#f4f4f4"
         offset="0" />
      <stop
         id="stop3604"
         style="stop-color:#dbdbdb"
         offset="1" />
    </linearGradient>
    <linearGradient
       id="linearGradient3021"
       y2="23.062"
       gradientUnits="userSpaceOnUse"
       x2="9.8764"
       gradientTransform="translate(.036304 2.9e-7)"
       y1="2.6015"
       x1="9.8764">
      <stop
         id="stop5159"
         style="stop-color:#c1c1c1"
         offset="0" />
      <stop
         id="stop5161"
         style="stop-color:#909090"
         offset="1" />
    </linearGradient>
    <linearGradient
       id="linearGradient3019"
       y2="37.503"
       gradientUnits="userSpaceOnUse"
       x2="-28.531"
       gradientTransform="translate(34.414 -14.501)"
       y1="17.956"
       x1="-28.531">
      <stop
         id="stop11113"
         style="stop-color:#fff"
         offset="0" />
      <stop
         id="stop11115"
         style="stop-color:#cdcdcd"
         offset=".91014" />
      <stop
         id="stop11117"
         style="stop-color:#a1a1a1"
         offset="1" />
    </linearGradient>
    <radialGradient
       id="radialGradient2621"
       xlink:href="#linearGradient5060"
       gradientUnits="userSpaceOnUse"
       cy="486.65"
       cx="605.71"
       gradientTransform="matrix(-2.7744 0 0 1.9697 112.76 -872.89)"
       r="117.14" />
    <linearGradient
       id="linearGradient5060">
      <stop
         id="stop5062"
         offset="0" />
      <stop
         id="stop5064"
         style="stop-opacity:0"
         offset="1" />
    </linearGradient>
    <radialGradient
       id="radialGradient2619"
       xlink:href="#linearGradient5060"
       gradientUnits="userSpaceOnUse"
       cy="486.65"
       cx="605.71"
       gradientTransform="matrix(2.7744 0 0 1.9697 -1891.6 -872.89)"
       r="117.14" />
    <linearGradient
       id="linearGradient2617"
       y2="609.51"
       gradientUnits="userSpaceOnUse"
       x2="302.86"
       gradientTransform="matrix(2.7744 0 0 1.9697 -1892.2 -872.89)"
       y1="366.65"
       x1="302.86">
      <stop
         id="stop5050"
         style="stop-opacity:0"
         offset="0" />
      <stop
         id="stop5056"
         offset=".5" />
      <stop
         id="stop5052"
         style="stop-opacity:0"
         offset="1" />
    </linearGradient>
    <radialGradient
       cx="15.115514"
       cy="63.965389"
       r="12.289036"
       fx="15.115514"
       fy="63.965389"
       id="radialGradient4120"
       xlink:href="#linearGradient5060"
       gradientUnits="userSpaceOnUse"
       gradientTransform="matrix(0.61044625,0,0,0.28080441,7.1562821,3.1541431)" />
    <radialGradient
       cx="18.247644"
       cy="15.716079"
       r="29.993349"
       fx="18.247644"
       fy="15.716079"
       id="radialGradient3968"
       xlink:href="#linearGradient3962"
       gradientUnits="userSpaceOnUse"
       gradientTransform="matrix(0.37131583,0,0,0.37132364,7.1562818,6.9684902)" />
    <linearGradient
       id="linearGradient3962">
      <stop
         id="stop3964"
         style="stop-color:#d3e9ff;stop-opacity:1"
         offset="0" />
      <stop
         id="stop4134"
         style="stop-color:#d3e9ff;stop-opacity:1"
         offset="0.15517241" />
      <stop
         id="stop4346"
         style="stop-color:#4074ae;stop-opacity:1"
         offset="0.75" />
      <stop
         id="stop3966"
         style="stop-color:#36486c;stop-opacity:1"
         offset="1" />
    </linearGradient>
    <radialGradient
       cx="11.826907"
       cy="10.476453"
       r="32.664848"
       fx="11.826907"
       fy="10.476453"
       id="radialGradient4356"
       xlink:href="#linearGradient4350"
       gradientUnits="userSpaceOnUse"
       gradientTransform="matrix(0.36612974,0,0,0.3148017,10.827474,6.9684905)" />
    <linearGradient
       id="linearGradient4350">
      <stop
         id="stop4352"
         style="stop-color:#ffffff;stop-opacity:1"
         offset="0" />
      <stop
         id="stop4354"
         style="stop-color:#ffffff;stop-opacity:0"
         offset="1" />
    </linearGradient>
    <radialGradient
       cx="18.63378"
       cy="17.486208"
       r="40.692665"
       fx="18.934305"
       fy="17.810213"
       id="radialGradient1460"
       xlink:href="#linearGradient4750"
       gradientUnits="userSpaceOnUse"
       gradientTransform="scale(1.03682,0.964486)" />
    <linearGradient
       id="linearGradient4750">
      <stop
         id="stop4752"
         style="stop-color:#ffffff;stop-opacity:1"
         offset="0" />
      <stop
         id="stop4758"
         style="stop-color:#fefefe;stop-opacity:1"
         offset="0.37931034" />
      <stop
         id="stop4754"
         style="stop-color:#1d1d1d;stop-opacity:1"
         offset="1" />
    </linearGradient>
    <radialGradient
       cx="18.63378"
       cy="17.486208"
       r="40.692665"
       fx="18.934305"
       fy="17.810213"
       id="radialGradient1462"
       xlink:href="#linearGradient4750"
       gradientUnits="userSpaceOnUse"
       gradientTransform="scale(1.03682,0.964486)" />
    <radialGradient
       cx="18.63378"
       cy="17.486208"
       r="40.692665"
       fx="18.934305"
       fy="17.810213"
       id="radialGradient1466"
       xlink:href="#linearGradient4750"
       gradientUnits="userSpaceOnUse"
       gradientTransform="scale(1.03682,0.964486)" />
    <radialGradient
       cx="18.63378"
       cy="17.486208"
       r="40.692665"
       fx="18.934305"
       fy="17.810213"
       id="radialGradient1468"
       xlink:href="#linearGradient4750"
       gradientUnits="userSpaceOnUse"
       gradientTransform="scale(1.03682,0.964486)" />
    <radialGradient
       cx="18.63378"
       cy="17.486208"
       r="40.692665"
       fx="18.934305"
       fy="17.810213"
       id="radialGradient1470"
       xlink:href="#linearGradient4750"
       gradientUnits="userSpaceOnUse"
       gradientTransform="scale(1.03682,0.964486)" />
    <radialGradient
       cx="18.63378"
       cy="17.486208"
       r="40.692665"
       fx="18.934305"
       fy="17.810213"
       id="radialGradient1474"
       xlink:href="#linearGradient4750"
       gradientUnits="userSpaceOnUse"
       gradientTransform="scale(1.03682,0.964486)" />
    <radialGradient
       cx="18.63378"
       cy="17.486208"
       r="40.692665"
       fx="18.934305"
       fy="17.810213"
       id="radialGradient1476"
       xlink:href="#linearGradient4750"
       gradientUnits="userSpaceOnUse"
       gradientTransform="scale(1.03682,0.964486)" />
    <radialGradient
       cx="18.63378"
       cy="17.486208"
       r="40.692665"
       fx="18.934305"
       fy="17.810213"
       id="radialGradient1478"
       xlink:href="#linearGradient4750"
       gradientUnits="userSpaceOnUse"
       gradientTransform="scale(1.03682,0.964486)" />
    <radialGradient
       cx="18.63378"
       cy="17.486208"
       r="40.692665"
       fx="18.934305"
       fy="17.810213"
       id="radialGradient1482"
       xlink:href="#linearGradient4750"
       gradientUnits="userSpaceOnUse"
       gradientTransform="scale(1.03682,0.964486)" />
    <radialGradient
       cx="18.63378"
       cy="17.486208"
       r="40.692665"
       fx="18.934305"
       fy="17.810213"
       id="radialGradient1484"
       xlink:href="#linearGradient4750"
       gradientUnits="userSpaceOnUse"
       gradientTransform="scale(1.03682,0.964486)" />
    <radialGradient
       cx="18.63378"
       cy="17.486208"
       r="40.692665"
       fx="18.934305"
       fy="17.810213"
       id="radialGradient1486"
       xlink:href="#linearGradient4750"
       gradientUnits="userSpaceOnUse"
       gradientTransform="scale(1.03682,0.964486)" />
    <radialGradient
       cx="18.63378"
       cy="17.486208"
       r="40.692665"
       fx="18.934305"
       fy="17.810213"
       id="radialGradient1490"
       xlink:href="#linearGradient4750"
       gradientUnits="userSpaceOnUse"
       gradientTransform="scale(1.03682,0.964486)" />
    <radialGradient
       cx="18.63378"
       cy="17.486208"
       r="40.692665"
       fx="18.934305"
       fy="17.810213"
       id="radialGradient1492"
       xlink:href="#linearGradient4750"
       gradientUnits="userSpaceOnUse"
       gradientTransform="scale(1.03682,0.964486)" />
    <radialGradient
       cx="18.63378"
       cy="17.486208"
       r="40.692665"
       fx="18.934305"
       fy="17.810213"
       id="radialGradient1494"
       xlink:href="#linearGradient4750"
       gradientUnits="userSpaceOnUse"
       gradientTransform="scale(1.03682,0.964486)" />
    <radialGradient
       cx="18.63378"
       cy="17.486208"
       r="40.692665"
       fx="18.934305"
       fy="17.810213"
       id="radialGradient1498"
       xlink:href="#linearGradient4750"
       gradientUnits="userSpaceOnUse"
       gradientTransform="scale(1.03682,0.964486)" />
    <radialGradient
       cx="18.63378"
       cy="17.486208"
       r="40.692665"
       fx="18.934305"
       fy="17.810213"
       id="radialGradient1500"
       xlink:href="#linearGradient4750"
       gradientUnits="userSpaceOnUse"
       gradientTransform="scale(1.03682,0.964486)" />
    <radialGradient
       cx="18.63378"
       cy="17.486208"
       r="40.692665"
       fx="18.934305"
       fy="17.810213"
       id="radialGradient1502"
       xlink:href="#linearGradient4750"
       gradientUnits="userSpaceOnUse"
       gradientTransform="scale(1.03682,0.964486)" />
    <radialGradient
       cx="18.63378"
       cy="17.486208"
       r="40.692665"
       fx="18.934305"
       fy="17.810213"
       id="radialGradient1506"
       xlink:href="#linearGradient4750"
       gradientUnits="userSpaceOnUse"
       gradientTransform="scale(1.03682,0.964486)" />
    <radialGradient
       cx="18.63378"
       cy="17.486208"
       r="40.692665"
       fx="18.934305"
       fy="17.810213"
       id="radialGradient1508"
       xlink:href="#linearGradient4750"
       gradientUnits="userSpaceOnUse"
       gradientTransform="scale(1.03682,0.964486)" />
    <radialGradient
       cx="18.63378"
       cy="17.486208"
       r="40.692665"
       fx="18.934305"
       fy="17.810213"
       id="radialGradient1510"
       xlink:href="#linearGradient4750"
       gradientUnits="userSpaceOnUse"
       gradientTransform="scale(1.03682,0.964486)" />
    <radialGradient
       cx="18.63378"
       cy="17.486208"
       r="40.692665"
       fx="18.934305"
       fy="17.810213"
       id="radialGradient1514"
       xlink:href="#linearGradient4750"
       gradientUnits="userSpaceOnUse"
       gradientTransform="scale(1.03682,0.964486)" />
    <radialGradient
       cx="18.63378"
       cy="17.486208"
       r="40.692665"
       fx="18.934305"
       fy="17.810213"
       id="radialGradient1516"
       xlink:href="#linearGradient4750"
       gradientUnits="userSpaceOnUse"
       gradientTransform="scale(1.03682,0.964486)" />
    <radialGradient
       cx="18.63378"
       cy="17.486208"
       r="40.692665"
       fx="18.934305"
       fy="17.810213"
       id="radialGradient1518"
       xlink:href="#linearGradient4750"
       gradientUnits="userSpaceOnUse"
       gradientTransform="scale(1.03682,0.964486)" />
    <radialGradient
       cx="18.63378"
       cy="17.486208"
       r="40.692665"
       fx="18.934305"
       fy="17.810213"
       id="radialGradient1522"
       xlink:href="#linearGradient4750"
       gradientUnits="userSpaceOnUse"
       gradientTransform="scale(1.03682,0.964486)" />
    <radialGradient
       cx="18.63378"
       cy="17.486208"
       r="40.692665"
       fx="18.934305"
       fy="17.810213"
       id="radialGradient1524"
       xlink:href="#linearGradient4750"
       gradientUnits="userSpaceOnUse"
       gradientTransform="scale(1.03682,0.964486)" />
    <radialGradient
       cx="18.63378"
       cy="17.486208"
       r="40.692665"
       fx="18.934305"
       fy="17.810213"
       id="radialGradient1526"
       xlink:href="#linearGradient4750"
       gradientUnits="userSpaceOnUse"
       gradientTransform="scale(1.03682,0.964486)" />
    <radialGradient
       cx="18.63378"
       cy="17.486208"
       r="40.692665"
       fx="18.934305"
       fy="17.810213"
       id="radialGradient1528"
       xlink:href="#linearGradient4750"
       gradientUnits="userSpaceOnUse"
       gradientTransform="scale(1.03682,0.964486)" />
    <radialGradient
       cx="18.63378"
       cy="17.486208"
       r="40.692665"
       fx="18.934305"
       fy="17.810213"
       id="radialGradient1530"
       xlink:href="#linearGradient4750"
       gradientUnits="userSpaceOnUse"
       gradientTransform="scale(1.03682,0.964486)" />
    <radialGradient
       cx="18.63378"
       cy="17.486208"
       r="40.692665"
       fx="18.934305"
       fy="17.810213"
       id="radialGradient1532"
       xlink:href="#linearGradient4750"
       gradientUnits="userSpaceOnUse"
       gradientTransform="scale(1.03682,0.964486)" />
    <radialGradient
       cx="18.63378"
       cy="17.486208"
       r="40.692665"
       fx="18.934305"
       fy="17.810213"
       id="radialGradient1534"
       xlink:href="#linearGradient4750"
       gradientUnits="userSpaceOnUse"
       gradientTransform="scale(1.03682,0.964486)" />
    <radialGradient
       cx="18.63378"
       cy="17.486208"
       r="40.692665"
       fx="18.934305"
       fy="17.810213"
       id="radialGradient1536"
       xlink:href="#linearGradient4750"
       gradientUnits="userSpaceOnUse"
       gradientTransform="scale(1.03682,0.964486)" />
    <radialGradient
       cx="18.63378"
       cy="17.486208"
       r="40.692665"
       fx="18.934305"
       fy="17.810213"
       id="radialGradient1538"
       xlink:href="#linearGradient4750"
       gradientUnits="userSpaceOnUse"
       gradientTransform="scale(1.03682,0.964486)" />
    <radialGradient
       cx="18.63378"
       cy="17.486208"
       r="40.692665"
       fx="18.934305"
       fy="17.810213"
       id="radialGradient1540"
       xlink:href="#linearGradient4750"
       gradientUnits="userSpaceOnUse"
       gradientTransform="scale(1.03682,0.964486)" />
    <radialGradient
       cx="18.63378"
       cy="17.486208"
       r="40.692665"
       fx="18.934305"
       fy="17.810213"
       id="radialGradient1542"
       xlink:href="#linearGradient4750"
       gradientUnits="userSpaceOnUse"
       gradientTransform="scale(1.03682,0.964486)" />
    <radialGradient
       cx="18.63378"
       cy="17.486208"
       r="40.692665"
       fx="18.934305"
       fy="17.810213"
       id="radialGradient1544"
       xlink:href="#linearGradient4750"
       gradientUnits="userSpaceOnUse"
       gradientTransform="scale(1.03682,0.964486)" />
    <radialGradient
       cx="18.63378"
       cy="17.486208"
       r="40.692665"
       fx="18.934305"
       fy="17.810213"
       id="radialGradient1546"
       xlink:href="#linearGradient4750"
       gradientUnits="userSpaceOnUse"
       gradientTransform="scale(1.03682,0.964486)" />
    <radialGradient
       cx="18.63378"
       cy="17.486208"
       r="40.692665"
       fx="18.934305"
       fy="17.810213"
       id="radialGradient1550"
       xlink:href="#linearGradient4750"
       gradientUnits="userSpaceOnUse"
       gradientTransform="scale(1.03682,0.964486)" />
    <radialGradient
       cx="18.63378"
       cy="17.486208"
       r="40.692665"
       fx="18.934305"
       fy="17.810213"
       id="radialGradient1552"
       xlink:href="#linearGradient4750"
       gradientUnits="userSpaceOnUse"
       gradientTransform="scale(1.03682,0.964486)" />
    <radialGradient
       cx="18.63378"
       cy="17.486208"
       r="40.692665"
       fx="18.934305"
       fy="17.810213"
       id="radialGradient1554"
       xlink:href="#linearGradient4750"
       gradientUnits="userSpaceOnUse"
       gradientTransform="scale(1.03682,0.964486)" />
    <radialGradient
       cx="18.63378"
       cy="17.486208"
       r="40.692665"
       fx="18.934305"
       fy="17.810213"
       id="radialGradient1558"
       xlink:href="#linearGradient4750"
       gradientUnits="userSpaceOnUse"
       gradientTransform="scale(1.03682,0.964486)" />
    <radialGradient
       cx="18.63378"
       cy="17.486208"
       r="40.692665"
       fx="18.934305"
       fy="17.810213"
       id="radialGradient4756"
       xlink:href="#linearGradient4750"
       gradientUnits="userSpaceOnUse"
       gradientTransform="scale(1.03682,0.964486)" />
    <radialGradient
       cx="15.601279"
       cy="12.142302"
       r="43.526714"
       fx="15.601279"
       fy="12.142302"
       id="radialGradient4132"
       xlink:href="#linearGradient4350"
       gradientUnits="userSpaceOnUse"
       gradientTransform="matrix(0.37131583,0,0,0.37132364,7.1562818,6.9684902)" />
  </defs>
  <g
     id="layer1">
    <g
       id="g3350">
      <g
         id="g3490"
         style="stroke-width:1.8826"
         transform="matrix(.54593 0 0 .51685 -.96573 -.57818)">
        <g
           id="g5022"
           style="stroke-width:104.96"
           transform="matrix(.021652 0 0 .014857 43.008 42.685)">
          <rect
             id="rect2527"
             style="opacity:.40206;fill:url(#linearGradient2617)"
             height="478.36"
             width="1339.6"
             y="-150.7"
             x="-1559.3" />
          <path
             id="path2529"
             style="opacity:.40206;fill:url(#radialGradient2619)"
             d="m-219.62-150.68v478.33c142.88 0.9 345.4-107.17 345.4-239.2 0-132.02-159.44-239.13-345.4-239.13z" />
          <path
             id="path2531"
             style="opacity:.40206;fill:url(#radialGradient2621)"
             d="m-1559.3-150.68v478.33c-142.8 0.9-345.4-107.17-345.4-239.2 0-132.02 159.5-239.13 345.4-239.13z" />
        </g>
      </g>
      <path
         id="path3496"
         style="stroke-linejoin:round;stroke:url(#linearGradient3021);stroke-linecap:round;stroke-width:1.0111;fill:url(#linearGradient3019)"
         d="m0.71358 2.5695c-0.08553 0-0.15886 0.0927-0.15886 0.1885 0 5.8692-0.04308 12.244-0.04915 18.225 0.02909 0.895 0.53723 1.505 0.88963 1.508 1.0128 0.009 0.5393-0.004 1.0486 0 6.4703-0.016 13.579-0.078 20.049-0.094 0.054 0.007-1.477-0.108-1.462-1.446 0-4.673-0.502-11.187-0.502-15.86 0-0.1865-0.015-0.2905-0.031-0.3767-0.013-0.0666-0.029-0.0989-0.064-0.1257-0.028-0.0244-0.054-0.057-0.095-0.0628h-8.82c-0.816 0-1.002-1.992-2.2141-1.992l-8.5913 0.0357h-0.00002z" />
      <rect
         id="rect2545"
         style="display:block;fill:#edbd74"
         rx=".53846"
         ry=".5"
         height="1"
         width="7"
         y="4"
         x="2" />
      <g
         id="layer1-9"
         transform="translate(4 1)">
        <path
           id="rect2594"
           style="stroke-linejoin:round;stroke:url(#linearGradient3255);stroke-width:.99525;fill:url(#linearGradient3253)"
           d="m1.4976 0.49763h7.9177c0.5228 0.16184 4.3537 2.6136 5.0867 3.8903v11.114h-13.004c-0.0004-5.001-0.0004-10.003-0.0004-15.004v-0.00037z" />
        <path
           id="path12038"
           style="stroke-linejoin:round;fill-rule:evenodd;stroke:url(#linearGradient3259);stroke-width:.99525;fill:url(#linearGradient3257)"
           d="m9.5 0.49792v4.0021h5.002c0-1.9018-3.006-4.0021-5.002-4.0021v0.00002z" />
      </g>
      <path
         id="path3498"
         style="stroke-linejoin:round;stroke:url(#linearGradient3295);stroke-linecap:round;fill:url(#radialGradient3293)"
         d="m3.5357 10.582c10.57 0 13.03 0 19.993-0.021 0 1.175 0.258 12-0.484 12-0.714 0-14.046-0.07-21.009-0.05 1.472 0 1.4997-0.465 1.4997-11.929z" />
      <path
         id="path3211"
         style="opacity:.4;stroke:url(#radialGradient3004-5-2);stroke-width:.98119;fill:none"
         d="m22.975 11.376s-16.832 0.07-18.397-0.069c-0.0826 10.346-0.5006 10.802-0.5006 10.802" />
      <path
         id="path2608"
         style="fill:url(#linearGradient3001-8-3);fill-rule:evenodd"
         d="m4.288 10.172c-0.6849 0-1.2517 0.384-1.2517 0.847v4.816c0.0026 0.086 0.0661 0.185 0.1669 0.245s0.2297 0.085 0.3755 0.075h0.0139l20.026-2.145c0.232-0.024 0.414-0.16 0.417-0.319v-2.672c0-0.463-0.566-0.847-1.251-0.847h-18.497z" />
    </g>
  </g>
  <path
     inkscape:connector-curvature="0"
     style="fill:url(#radialGradient4120);fill-opacity:1;stroke:none;stroke-opacity:1"
     id="path4112"
     d="m 23.885286,21.115914 a 7.5017956,3.4508169 0 1 1 -15.0035901,0 7.5017956,3.4508169 0 1 1 15.0035901,0 z" />
  <path
     inkscape:connector-curvature="0"
     style="fill:url(#radialGradient3968);fill-opacity:1;fill-rule:nonzero;stroke:#39396c;stroke-width:0.37131992;stroke-miterlimit:4;stroke-opacity:1"
     id="path3214"
     d="m 23.479452,15.689124 c 0,3.976733 -3.223838,7.200534 -7.200022,7.200534 -3.976549,0 -7.2002051,-3.223838 -7.2002051,-7.200534 0,-3.976549 3.2236561,-7.2000219 7.2002051,-7.2000219 3.976184,0 7.200022,3.2234729 7.200022,7.2000219 l 0,0 z" />
  <g
     style="fill:#000000;fill-opacity:0.71344999;fill-rule:nonzero;stroke:none;stroke-miterlimit:4"
     id="g4136"
     transform="matrix(0.36477394,0,0,0.36477394,7.2012408,7.0549766)">
    <g
       id="g4138">
      <g
         id="g4142">
        <path
           inkscape:connector-curvature="0"
           id="path4144"
           d="m 44.0713,20.7144 c 0,0.2627 0,0 0,0 l -0.5449,0.6172 c -0.334,-0.3936 -0.709,-0.7246 -1.0898,-1.0703 l -0.8359,0.123 -0.7637,-0.8633 0,1.0684 0.6543,0.4951 0.4355,0.4932 0.582,-0.6582 c 0.1465,0.2744 0.291,0.5488 0.4365,0.8232 l 0,0.8223 -0.6553,0.7402 -1.1992,0.8232 -0.9082,0.9063 -0.582,-0.6602 0.291,-0.7402 -0.5811,-0.6582 -0.9814,-2.0977 -0.8359,-0.9453 -0.2188,0.2461 0.3281,1.1934 0.6172,0.6992 c 0.3525,1.0176 0.7012,1.9902 1.1641,2.9629 0.7178,0 1.3945,-0.0762 2.1074,-0.166 l 0,0.5762 -0.8721,2.1392 -0.7998,0.9043 -0.6543,1.4004 c 0,0.7676 0,1.5352 0,2.3027 l 0.2188,0.9063 -0.3633,0.4102 -0.8008,0.4941 -0.8359,0.6992 0.6914,0.7813 -0.9453,0.8242 0.1816,0.5332 -1.418,1.6055 -0.9443,0 -0.7998,0.4941 -0.5098,0 0,-0.6582 -0.2168,-1.3184 c -0.2813,-0.8262 -0.5742,-1.6465 -0.8721,-2.4668 0,-0.6055 0.0361,-1.2051 0.0723,-1.8105 l 0.3643,-0.8223 -0.5098,-0.9883 0.0371,-1.3574 -0.6914,-0.7813 0.3457,-1.1309 -0.5625,-0.6382 -0.9824,0 -0.3271,-0.3701 -0.9814,0.6177 -0.3994,-0.4536 -0.9092,0.7817 c -0.6172,-0.6997 -1.2354,-1.3989 -1.8535,-2.0981 l -0.7266,-1.7285 0.6543,-0.9863 -0.3633,-0.4111 0.7988,-1.8936 c 0.6563,-0.8164 1.3418,-1.5996 2.0352,-2.3857 l 1.2363,-0.3291 1.3809,-0.1641 0.9453,0.2471 1.3447,1.3564 0.4727,-0.5342 0.6533,-0.082 1.2363,0.4111 0.9453,0 0.6543,-0.5762 0.291,-0.4111 -0.6553,-0.4111 -1.0908,-0.082 c -0.3027,-0.4199 -0.584,-0.8613 -0.9434,-1.2344 l -0.3643,0.1641 -0.1455,1.0703 -0.6543,-0.7402 -0.1445,-0.8242 -0.7266,-0.5742 -0.292,0 0.7275,0.8223 -0.291,0.7402 -0.5811,0.1641 0.3633,-0.7402 -0.6553,-0.3281 -0.5801,-0.6582 -1.0918,0.2461 -0.1445,0.3281 -0.6543,0.4121 -0.3633,0.9053 -0.9082,0.4521 -0.4004,-0.4521 -0.4355,0 0,-1.4814 0.9453,-0.4941 0.7266,0 -0.1465,-0.5752 -0.5801,-0.5762 0.9805,-0.2061 0.5449,-0.6162 0.4355,-0.7412 0.8008,0 -0.2188,-0.5752 0.5098,-0.3291 0,0.6582 1.0898,0.2461 1.0898,-0.9043 0.0732,-0.4121 0.9443,-0.6577 c -0.3418,0.0425 -0.6836,0.0737 -1.0176,0.1646 l 0,-0.7411 0.3633,-0.8228 -0.3633,0 -0.7984,0.7402 -0.2188,0.4116 0.2188,0.5767 -0.3643,0.9863 -0.5811,-0.3291 -0.5078,-0.5752 -0.8008,0.5752 -0.291,-1.3159 1.3809,-0.9048 0,-0.4941 0.873,-0.5757 1.3809,-0.3296 0.9453,0.3296 1.7441,0.3291 -0.4355,0.4932 -0.9453,0 0.9453,0.9873 0.7266,-0.8223 0.2207,-0.3618 c 0,0 2.7871,2.498 4.3799,5.2305 1.5928,2.7334 2.3408,5.9551 2.3408,6.6094 z" />
      </g>
    </g>
    <g
       id="g4146">
      <g
         id="g4150">
        <path
           inkscape:connector-curvature="0"
           id="path4152"
           d="m 26.0703,9.2363 -0.0732,0.4932 0.5098,0.3291 0.8711,-0.5757 -0.4355,-0.4937 -0.582,0.3296 -0.29,-0.0825" />
      </g>
    </g>
    <g
       id="g4154">
      <g
         id="g4158">
        <path
           inkscape:connector-curvature="0"
           id="path4160"
           d="m 26.8701,5.8633 -1.8906,-0.7407 -2.1797,0.2466 -2.6904,0.7402 -0.5088,0.4941 1.6719,1.1514 0,0.6582 -0.6543,0.6582 0.873,1.729 0.5801,-0.3301 0.7285,-1.1514 c 1.123,-0.3472 2.1299,-0.7407 3.1973,-1.2344 l 0.873,-2.2212" />
      </g>
    </g>
    <g
       id="g4162">
      <g
         id="g4166">
        <path
           inkscape:connector-curvature="0"
           id="path4168"
           d="m 28.833,12.7749 -0.291,-0.7412 -0.5098,0.165 0.1465,0.9043 0.6543,-0.3281" />
      </g>
    </g>
    <g
       id="g4170">
      <g
         id="g4174">
        <path
           inkscape:connector-curvature="0"
           id="path4176"
           d="m 29.123,12.6089 -0.1455,0.9883 0.7998,-0.165 0.5811,-0.5752 -0.5088,-0.4941 C 29.6787,11.9078 29.4824,11.483 29.2685,11.0465 l -0.4355,0 0,0.4932 0.29,0.3291 0,0.7402" />
      </g>
    </g>
    <g
       id="g4178">
      <g
         id="g4182">
        <path
           inkscape:connector-curvature="0"
           id="path4184"
           d="m 18.3652,28.2422 -0.582,-1.1523 -1.0903,-0.2466 -0.5815,-1.5625 -1.4536,0.1641 -1.2354,-0.9043 -1.3091,1.1514 0,0.1816 c -0.396,-0.1143 -0.8828,-0.1299 -1.2354,-0.3467 l -0.291,-0.8223 0,-0.9053 -0.8721,0.082 c 0.0728,-0.5762 0.145,-1.1514 0.2183,-1.7275 l -0.5093,0 -0.5083,0.6582 -0.5093,0.2461 -0.7271,-0.4102 -0.0728,-0.9053 0.1455,-0.9873 1.0908,-0.8223 0.8721,0 0.145,-0.4941 1.0903,0.2461 0.7998,0.9883 0.1455,-1.6465 1.3813,-1.1514 0.5088,-1.2344 1.0176,-0.4111 0.5815,-0.8223 1.3081,-0.248 0.6548,-0.9863 c -0.6543,0 -1.3086,0 -1.9629,0 l 1.2358,-0.5762 0.8716,0 1.2363,-0.4121 0.1455,-0.4922 -0.4365,-0.4121 -0.5088,-0.165 0.1455,-0.4932 -0.3633,-0.7402 -0.8726,0.3281 0.1455,-0.6577 -1.0176,-0.5762 -0.7993,1.3979 0.0723,0.4941 -0.7993,0.3301 -0.5093,1.0693 -0.2178,-0.9873 -1.3813,-0.5762 -0.2183,-0.7402 1.8174,-1.0703 0.7998,-0.7402 0.0728,-0.9048 -0.436,-0.2471 -0.5815,-0.0825 -0.3633,0.9053 c 0,0 -0.6079,0.1191 -0.7642,0.1577 -1.9961,1.8394 -6.0293,5.8101 -6.9663,13.3062 0.0371,0.1738 0.6792,1.1816 0.6792,1.1816 l 1.5264,0.9043 1.5264,0.4121 0.6548,0.8232 1.0171,0.7402 0.5815,-0.082 0.436,0.1963 0,0.1328 -0.5811,1.563 -0.4365,0.6582 0.1455,0.3301 -0.3633,1.2324 1.3086,2.3867 1.3081,1.1523 0.582,0.8223 -0.0732,1.7285 0.4365,0.9863 -0.4365,1.8926 c 0,0 -0.0342,-0.0117 0.0215,0.1777 0.0562,0.1895 2.3291,1.4512 2.4736,1.3438 0.144,-0.1094 0.2671,-0.2051 0.2671,-0.2051 l -0.145,-0.4102 0.5811,-0.5762 0.2183,-0.5762 0.9453,-0.3301 0.7266,-1.8105 -0.2178,-0.4922 0.5078,-0.7402 1.0908,-0.248 0.582,-1.3164 -0.1455,-1.6445 0.8721,-1.2344 0.1455,-1.2344 C 20.7331,29.4607 19.5495,28.8513 18.365,28.242" />
      </g>
    </g>
    <g
       id="g4186">
      <g
         id="g4190">
        <path
           inkscape:connector-curvature="0"
           id="path4192"
           d="m 16.7656,9.5649 0.7266,0.4937 0.582,0 0,-0.5757 -0.7266,-0.3291 -0.582,0.4111" />
      </g>
    </g>
    <g
       id="g4194">
      <g
         id="g4198">
        <path
           inkscape:connector-curvature="0"
           id="path4200"
           d="m 14.876,8.9072 -0.3638,0.9048 0.7271,0 0.3638,-0.8228 C 15.9166,8.7675 16.2286,8.5444 16.5479,8.331 l 0.7271,0.2471 c 0.4844,0.3291 0.9688,0.6582 1.4536,0.9868 L 19.4561,8.9072 18.6558,8.5781 18.292,7.8374 16.9111,7.6728 16.8383,7.2612 16.184,7.4262 15.8936,8.002 15.5298,7.2613 l -0.145,0.3291 0.0728,0.8228 -0.5816,0.494" />
      </g>
    </g>
    <g
       id="g4202">
      <g
         style="opacity:0.75"
         id="g4204">
        <path
           inkscape:connector-curvature="0"
           id="path4206"
           d="" />
      </g>
      <g
         id="g4208">
        <path
           inkscape:connector-curvature="0"
           id="path4210"
           d="" />
      </g>
    </g>
    <g
       id="g4212">
      <g
         style="opacity:0.75"
         id="g4214">
        <path
           inkscape:connector-curvature="0"
           id="path4216"
           d="" />
      </g>
      <g
         id="g4218">
        <path
           inkscape:connector-curvature="0"
           id="path4220"
           d="" />
      </g>
    </g>
    <g
       id="g4222">
      <g
         id="g4226">
        <path
           inkscape:connector-curvature="0"
           id="path4228"
           d="M 17.4922,6.8496 17.856,6.521 18.5831,6.3564 c 0.498,-0.2422 0.998,-0.4053 1.5264,-0.5762 l -0.29,-0.4937 -0.9385,0.1348 -0.4434,0.4419 -0.731,0.106 -0.6499,0.3052 -0.3159,0.1528 -0.1929,0.2583 0.9443,0.1641" />
      </g>
    </g>
    <g
       id="g4230">
      <g
         id="g4234">
        <path
           inkscape:connector-curvature="0"
           id="path4236"
           d="m 18.7285,14.6665 0.4365,-0.6582 -0.6548,-0.4932 0.2183,1.1514" />
      </g>
    </g>
  </g>
  <path
     inkscape:connector-curvature="0"
     style="fill:none;fill-opacity:1;fill-rule:nonzero;stroke:url(#radialGradient4132);stroke-width:0.37131992;stroke-miterlimit:4;stroke-opacity:1"
     id="path4122"
     d="m 23.113792,15.689137 c 0,3.774772 -3.060115,6.834852 -6.834367,6.834852 -3.774598,0 -6.8345401,-3.060114 -6.8345401,-6.834852 0,-3.774598 3.0599421,-6.8343656 6.8345401,-6.8343656 3.774252,0 6.834367,3.0597676 6.834367,6.8343656 l 0,0 z" />
</svg>
