<?xml version="1.0" encoding="UTF-8" standalone="no"?>
<!-- Created with Inkscape (http://www.inkscape.org/) -->

<svg
   xmlns:dc="http://purl.org/dc/elements/1.1/"
   xmlns:cc="http://creativecommons.org/ns#"
   xmlns:rdf="http://www.w3.org/1999/02/22-rdf-syntax-ns#"
   xmlns:svg="http://www.w3.org/2000/svg"
   xmlns="http://www.w3.org/2000/svg"
   xmlns:xlink="http://www.w3.org/1999/xlink"
   xmlns:sodipodi="http://sodipodi.sourceforge.net/DTD/sodipodi-0.dtd"
   xmlns:inkscape="http://www.inkscape.org/namespaces/inkscape"
   id="svg3082"
   height="48"
   width="48"
   version="1.1"
   inkscape:version="0.92.5 (2060ec1f9f, 2020-04-08)"
   sodipodi:docname="legenddock.svg">
  <metadata
     id="metadata52">
    <rdf:RDF>
      <cc:Work
         rdf:about="">
        <dc:format>image/svg+xml</dc:format>
        <dc:type
           rdf:resource="http://purl.org/dc/dcmitype/StillImage" />
        <dc:title />
      </cc:Work>
    </rdf:RDF>
  </metadata>
  <sodipodi:namedview
     pagecolor="#ffffff"
     bordercolor="#666666"
     borderopacity="1"
     objecttolerance="10"
     gridtolerance="10"
     guidetolerance="10"
     inkscape:pageopacity="0"
     inkscape:pageshadow="2"
     inkscape:window-width="1721"
     inkscape:window-height="1028"
     id="namedview50"
     showgrid="false"
     inkscape:snap-center="true"
     inkscape:snap-object-midpoints="true"
     inkscape:snap-grids="true"
     inkscape:zoom="9.8333333"
     inkscape:cx="-8.9802299"
     inkscape:cy="27.927421"
     inkscape:window-x="40"
     inkscape:window-y="24"
     inkscape:window-maximized="0"
     inkscape:current-layer="svg3082" />
  <defs
     id="defs3084">
    <radialGradient
       id="radialGradient3847"
       xlink:href="#linearGradient5060"
       gradientUnits="userSpaceOnUse"
       cy="486.65"
       cx="605.71"
       gradientTransform="matrix(-2.7744,0,0,1.9697,112.76,-872.89)"
       r="117.14" />
    <linearGradient
       id="linearGradient5060">
      <stop
         id="stop5062"
         offset="0" />
      <stop
         id="stop5064"
         style="stop-opacity:0"
         offset="1" />
    </linearGradient>
    <radialGradient
       id="radialGradient3845"
       xlink:href="#linearGradient5060"
       gradientUnits="userSpaceOnUse"
       cy="486.65"
       cx="605.71"
       gradientTransform="matrix(2.7744,0,0,1.9697,-1891.6,-872.89)"
       r="117.14" />
    <linearGradient
       id="linearGradient3843"
       y2="609.51"
       gradientUnits="userSpaceOnUse"
       x2="302.86"
       gradientTransform="matrix(2.7744,0,0,1.9697,-1892.2,-872.89)"
       y1="366.65"
       x1="302.86">
      <stop
         id="stop5050"
         style="stop-opacity:0"
         offset="0" />
      <stop
         id="stop5056"
         offset=".5" />
      <stop
         id="stop5052"
         style="stop-opacity:0"
         offset="1" />
    </linearGradient>
    <linearGradient
       id="linearGradient2787"
       y2="39.924"
       gradientUnits="userSpaceOnUse"
       x2="21.78"
       gradientTransform="matrix(1.2424,0,0,1.1803,-7.0605,-5.1228)"
       y1="8.5763"
       x1="21.866">
      <stop
         id="stop2783"
         style="stop-color:#505050"
         offset="0" />
      <stop
         id="stop6301"
         style="stop-color:#6e6e6e"
         offset=".13216" />
      <stop
         id="stop2785"
         style="stop-color:#8c8c8c"
         offset="1" />
    </linearGradient>
    <linearGradient
       id="linearGradient3696"
       y2="15.044"
       gradientUnits="userSpaceOnUse"
       x2="16.075"
       gradientTransform="matrix(1.2581,0,0,1.1724,-7.4515,-4.6378)"
       y1="9.0735"
       x1="16.034">
      <stop
         id="stop3692"
         style="stop-color:#fff"
         offset="0" />
      <stop
         id="stop3694"
         style="stop-color:#fff;stop-opacity:.46875"
         offset="1" />
    </linearGradient>
    <linearGradient
       id="linearGradient5220"
       y2="47.273"
       gradientUnits="userSpaceOnUse"
       x2="24.139"
       gradientTransform="matrix(0.53643,0,0,0.5332,-15.688,50.169)"
       y1="-9.8009"
       x1="24.139">
      <stop
         id="stop4224"
         style="stop-color:#fff"
         offset="0" />
      <stop
         id="stop4226"
         style="stop-color:#fff;stop-opacity:0"
         offset="1" />
    </linearGradient>
    <linearGradient
       id="linearGradient5218"
       y2="32.485"
       gradientUnits="userSpaceOnUse"
       x2="24.104"
       gradientTransform="matrix(0.89305,0,0,0.88766,-24.247,42.161)"
       y1="15.169"
       x1="24.104">
      <stop
         id="stop2266"
         style="stop-color:#d7e866"
         offset="0" />
      <stop
         id="stop2268"
         style="stop-color:#8cab2a"
         offset="1" />
    </linearGradient>
    <linearGradient
       id="linearGradient4168">
      <stop
         id="stop4170"
         style="stop-color:#f8cd70"
         offset="0" />
      <stop
         id="stop4172"
         style="stop-color:#cc9110"
         offset="1" />
    </linearGradient>
    <radialGradient
       id="radialGradient6431"
       xlink:href="#linearGradient4168"
       gradientUnits="userSpaceOnUse"
       cy="9.9662"
       cx="40.128"
       gradientTransform="matrix(1.8725422,2.2104462e-6,-2.2597502e-6,1.9141724,-42.641671,-9.5772991)"
       r="1.0607" />
    <radialGradient
       id="radialGradient6439"
       xlink:href="#linearGradient4168"
       gradientUnits="userSpaceOnUse"
       cy="9.9662"
       cx="40.128"
       gradientTransform="matrix(1.8725422,2.2596317e-6,-2.2597502e-6,1.8725315,-38.641671,-9.1620515)"
       r="1.0607" />
    <radialGradient
       id="radialGradient6447"
       xlink:href="#linearGradient4168"
       gradientUnits="userSpaceOnUse"
       cy="9.9662"
       cx="40.128"
       gradientTransform="matrix(1.8725422,-1.5977311e-7,1.5266289e-7,1.7892499,-34.641671,-8.3315563)"
       r="1.0607" />
    <linearGradient
       id="linearGradient6463"
       y2="40"
       gradientUnits="userSpaceOnUse"
       x2="24"
       y1="13"
       x1="24">
      <stop
         id="stop6459"
         style="stop-color:#fff;stop-opacity:.94118"
         offset="0" />
      <stop
         id="stop6461"
         style="stop-color:#fff;stop-opacity:.70588"
         offset="1" />
    </linearGradient>
    <linearGradient
       id="linearGradient2649"
       y2="93.653999"
       gradientUnits="userSpaceOnUse"
       x2="-166.64"
       gradientTransform="matrix(0.13233,0,0,0.13755,41.439,5.0887)"
       y1="99.667"
       x1="-172.64999">
      <stop
         id="stop11116"
         style="stop-color:#242424;stop-opacity:.99216"
         offset="0" />
      <stop
         id="stop11118"
         style="stop-color:#656565"
         offset="1" />
    </linearGradient>
    <radialGradient
       id="radialGradient2651"
       gradientUnits="userSpaceOnUse"
       cy="21.818001"
       cx="18.240999"
       r="8.3085003">
      <stop
         id="stop4456"
         style="stop-color:#a1a1a1;stop-opacity:.20784"
         offset="0" />
      <stop
         id="stop4458"
         style="stop-color:#a1a1a1;stop-opacity:.67843"
         offset="1" />
    </radialGradient>
    <radialGradient
       id="radialGradient2653"
       gradientUnits="userSpaceOnUse"
       cy="13.078"
       cx="15.414"
       gradientTransform="matrix(1.0064,0,0,0.81302,-3.3277,-0.58269)"
       r="6.6561999">
      <stop
         id="stop4469"
         style="stop-color:#fff"
         offset="0" />
      <stop
         id="stop4471"
         style="stop-color:#fff;stop-opacity:.24762"
         offset="1" />
    </radialGradient>
    <linearGradient
       id="linearGradient2655"
       y2="11.949"
       gradientUnits="userSpaceOnUse"
       x2="173.10001"
       gradientTransform="matrix(0.13233,0,0,0.13755,-9.4965,6.6474)"
       y1="75.319"
       x1="173.10001">
      <stop
         id="stop2302"
         style="stop-color:#343435;stop-opacity:.97647"
         offset="0" />
      <stop
         id="stop2304"
         style="stop-color:#919295"
         offset="1" />
    </linearGradient>
    <linearGradient
       id="linearGradient2657"
       y2="4.5363002"
       gradientUnits="userSpaceOnUse"
       x2="41.485001"
       gradientTransform="matrix(0.13233,0,0,0.13755,7.6677,7.6826)"
       y1="68.292"
       x1="41.542">
      <stop
         id="stop11106"
         style="stop-color:#333"
         offset="0" />
      <stop
         id="stop11108"
         style="stop-color:#333;stop-opacity:.61224"
         offset="1" />
    </linearGradient>
    <linearGradient
       id="linearGradient2937"
       y2="11.949"
       gradientUnits="userSpaceOnUse"
       x2="173.10001"
       gradientTransform="matrix(0.95235,0,0,0.95235,-117.1,-1.9494)"
       y1="75.319"
       x1="173.10001">
      <stop
         id="stop6211"
         style="stop-color:#96979b"
         offset="0" />
      <stop
         id="stop6213"
         style="stop-opacity:.34118"
         offset="1" />
    </linearGradient>
    <linearGradient
       id="linearGradient2990"
       y2="47.013"
       xlink:href="#linearGradient3600"
       gradientUnits="userSpaceOnUse"
       x2="25.132"
       gradientTransform="matrix(1.2869628,0,0,0.68811997,-13.641069,5.7325218)"
       y1="6.7287002"
       x1="25.132" />
    <linearGradient
       id="linearGradient3600">
      <stop
         id="stop3602"
         style="stop-color:#f4f4f4"
         offset="0" />
      <stop
         id="stop3604"
         style="stop-color:#dbdbdb"
         offset="1" />
    </linearGradient>
    <linearGradient
       id="linearGradient2992"
       y2="-0.10106"
       xlink:href="#linearGradient3931"
       gradientUnits="userSpaceOnUse"
       x2="-47.636002"
       gradientTransform="matrix(1.0392091,0,0,0.64397438,62.818049,4.9656356)"
       y1="17.518"
       x1="-56.333" />
    <linearGradient
       id="linearGradient3931">
      <stop
         id="stop3933"
         style="stop-color:#787a75"
         offset="0" />
      <stop
         id="stop3935"
         style="stop-color:#cbcbcb"
         offset="1" />
    </linearGradient>
    <radialGradient
       cx="62.625"
       cy="4.625"
       r="10.625"
       fx="62.625"
       fy="4.625"
       id="radialGradient2494"
       xlink:href="#linearGradient5060"
       gradientUnits="userSpaceOnUse"
       gradientTransform="matrix(1.5058824,0,0,0.37647,-78.305888,26.258824)" />
    <radialGradient
       cx="23.895569"
       cy="3.9900031"
       r="20.397499"
       fx="23.895569"
       fy="3.9900031"
       id="radialGradient2489"
       xlink:href="#linearGradient3242-187-536"
       gradientUnits="userSpaceOnUse"
       gradientTransform="matrix(0,1.7008781,-2.245129,0,24.958071,-40.236051)" />
    <linearGradient
       id="linearGradient3242-187-536">
      <stop
         id="stop2778"
         style="stop-color:#8badea;stop-opacity:1"
         offset="0" />
      <stop
         id="stop2780"
         style="stop-color:#6396cd;stop-opacity:1"
         offset="0.26238" />
      <stop
         id="stop2782"
         style="stop-color:#3b7caf;stop-opacity:1"
         offset="0.66093999" />
      <stop
         id="stop2784"
         style="stop-color:#194c70;stop-opacity:1"
         offset="1" />
    </linearGradient>
    <linearGradient
       x1="18.379412"
       y1="44.980297"
       x2="18.379412"
       y2="3.0816143"
       id="linearGradient2491"
       xlink:href="#linearGradient2490-182-124"
       gradientUnits="userSpaceOnUse"
       gradientTransform="matrix(0.7126612,0,0,0.7126613,-1.1038706,-1.1038704)" />
    <linearGradient
       id="linearGradient2490-182-124">
      <stop
         id="stop2788"
         style="stop-color:#1f4b6a;stop-opacity:1"
         offset="0" />
      <stop
         id="stop2790"
         style="stop-color:#4083c2;stop-opacity:1"
         offset="1" />
    </linearGradient>
    <linearGradient
       x1="63.397362"
       y1="-12.489107"
       x2="63.397362"
       y2="5.4675598"
       id="linearGradient2486"
       xlink:href="#linearGradient4873"
       gradientUnits="userSpaceOnUse"
       gradientTransform="matrix(1.5436509,0,0,1.5436158,-80.015712,21.419381)" />
    <linearGradient
       id="linearGradient4873">
      <stop
         id="stop4875"
         style="stop-color:#ffffff;stop-opacity:1"
         offset="0" />
      <stop
         id="stop4877"
         style="stop-color:#ffffff;stop-opacity:0"
         offset="1" />
    </linearGradient>
  </defs>
  <g
     id="g5022"
     style="opacity:0.58730002"
     transform="matrix(0.02167,0,0,0.012543,43.274,39.39)">
    <rect
       id="rect4173"
       style="opacity:0.40206;fill:url(#linearGradient3843)"
       height="478.35999"
       width="1339.6"
       y="-150.7"
       x="-1559.3" />
    <path
       id="path5058"
       style="opacity:0.40206;fill:url(#radialGradient3845)"
       d="m -219.62,-150.68 0,478.33 c 142.87,0.90045 345.4,-107.17 345.4,-239.2 0,-132.03 -159.44,-239.13 -345.4,-239.13 z"
       inkscape:connector-curvature="0" />
    <path
       id="path5018"
       style="opacity:0.40206;fill:url(#radialGradient3847)"
       d="m -1559.3,-150.68 0,478.33 c -142.87,0.90045 -345.4,-107.17 -345.4,-239.2 0,-132.03 159.44,-239.13 345.4,-239.13 z"
       inkscape:connector-curvature="0" />
  </g>
  <rect
     id="rect1887"
     style="fill:url(#linearGradient2787);stroke:#565853;stroke-width:1.00010002"
     rx="2"
     ry="2"
     height="36"
     width="41"
     y="5.5001001"
     x="3.5000999" />
  <rect
     id="rect2779"
     style="opacity:0.2;fill:none;stroke:url(#linearGradient3696);stroke-width:1.00010002"
     rx="1"
     ry="1"
     height="34"
     width="39"
     y="6.5001001"
     x="4.5001001" />
  <rect
     id="rect6287"
     style="fill:url(#linearGradient6463)"
     rx="1"
     ry="1"
     height="27"
     width="38"
     y="13"
     x="5" />
  <path
     id="path6289"
     style="fill:url(#radialGradient6447)"
     d="m 41.999484,9.4998596 a 1.5000419,1.4999404 0 1 1 -2.999943,0 1.5000419,1.4999404 0 1 1 2.999943,0 z"
     inkscape:connector-curvature="0" />
  <path
     id="path6291"
     style="fill:url(#radialGradient6439)"
     d="m 37.999484,9.4998596 a 1.5000419,1.4999404 0 1 1 -2.999943,0 1.5000419,1.4999404 0 1 1 2.999943,0 z"
     inkscape:connector-curvature="0" />
  <path
     id="path6293"
     style="fill:url(#radialGradient6431)"
     d="m 33.999484,9.4998596 a 1.5000419,1.4999404 0 1 1 -2.999943,0 1.5000419,1.4999404 0 1 1 2.999943,0 z"
     inkscape:connector-curvature="0" />
  <g
     transform="matrix(0.22511039,0,0,0.22511039,9.313995,11.863369)"
     id="layer4" />
  <g
     transform="matrix(0.22511039,0,0,0.22511039,9.313995,11.863369)"
     style="display:inline"
     id="layer2" />
  <path
     id="rect2594"
     style="fill:url(#linearGradient2990);stroke:url(#linearGradient2992);stroke-width:1.91917551;stroke-linejoin:round"
     d="m 7.2367505,15.612113 32.5300255,0 0,22.117034 -32.5300255,0 0,-22.117034 z"
     inkscape:connector-curvature="0" />
  <path
     id="path3696"
     style="opacity:0.421;fill:#000000;stroke:#000000;stroke-width:1.7755276px;stroke-linecap:square;fill-opacity:1;stroke-opacity:1"
     d="m 17.570613,33.181847 14.140677,0 m -14.140677,-4.681705 16.160775,0 m -16.160775,-4.681701 10.100485,0 m -10.100485,-4.681704 18.180872,0"
     inkscape:connector-curvature="0"
     sodipodi:nodetypes="cccccccc" />
  <path
     style="fill:none;fill-rule:evenodd;stroke:#000000;stroke-width:2.10428143;stroke-linecap:butt;stroke-linejoin:miter;stroke-miterlimit:4;stroke-dasharray:none;stroke-opacity:1"
     d="m 9.8644076,18.915254 4.1694914,0"
     id="path3322"
     inkscape:connector-curvature="0" />
  <path
     style="fill:none;fill-rule:evenodd;stroke:#005f00;stroke-width:2.10428143;stroke-linecap:butt;stroke-linejoin:miter;stroke-miterlimit:4;stroke-dasharray:none;stroke-opacity:1"
     d="m 9.9152547,24 4.1694913,0"
     id="path3322-3"
     inkscape:connector-curvature="0" />
  <path
     style="fill:none;fill-rule:evenodd;stroke:#000090;stroke-width:2.10428143;stroke-linecap:butt;stroke-linejoin:miter;stroke-miterlimit:4;stroke-dasharray:none;stroke-opacity:1"
     d="m 10.016949,28.372881 4.169491,0"
     id="path3322-3-6"
     inkscape:connector-curvature="0" />
  <path
     style="fill:none;fill-rule:evenodd;stroke:#930000;stroke-width:2.10428143;stroke-linecap:butt;stroke-linejoin:miter;stroke-miterlimit:4;stroke-dasharray:none;stroke-opacity:1"
     d="m 9.9152546,33.152543 4.1694914,0"
     id="path3322-3-6-7"
     inkscape:connector-curvature="0" />
  <g
     transform="matrix(0.85699153,0,0,0.85699153,20.000002,19.541318)"
     id="layer1">
    <path
       inkscape:connector-curvature="0"
       d="m 31.999998,28 c 0,2.209139 -7.163445,4 -16.000001,4 C 7.1634417,32 -3.2e-6,30.209139 -3.2e-6,28 c 0,-2.209139 7.1634449,-4 16.0000002,-4 8.836556,0 16.000001,1.790861 16.000001,4 z"
       id="path8836"
       style="display:inline;overflow:visible;visibility:visible;opacity:0.3;fill:url(#radialGradient2494);fill-opacity:1;fill-rule:evenodd;stroke:none;stroke-width:0.99999988;stroke-linecap:butt;stroke-linejoin:round;stroke-miterlimit:4;stroke-dasharray:none;stroke-dashoffset:0;stroke-opacity:1;marker:none;marker-start:none;marker-mid:none;marker-end:none" />
    <path
       inkscape:connector-curvature="0"
       d="m 16.000001,1.5017975 c -7.9996072,0 -14.4982032,6.4985937 -14.4982032,14.4982015 0,7.999609 6.498596,14.498206 14.4982032,14.498203 7.999605,0 14.498209,-6.498594 14.498201,-14.498203 0,-7.9996078 -6.498596,-14.4982015 -14.498201,-14.4982015 z"
       id="path2555"
       style="fill:url(#radialGradient2489);fill-opacity:1;stroke:url(#linearGradient2491);stroke-width:1.00365412;stroke-linecap:round;stroke-linejoin:round;stroke-miterlimit:4;stroke-dasharray:none;stroke-dashoffset:0;stroke-opacity:1" />
    <path
       inkscape:connector-curvature="0"
       d="M 29.5,15.999522 C 29.5,23.455607 23.455399,29.5 16.000172,29.5 8.5442598,29.5 2.5,23.455539 2.5,15.999522 2.5,8.5437822 8.5442598,2.5000011 16.000172,2.5000011 23.455399,2.5000011 29.5,8.5437822 29.5,15.999522 Z"
       id="path8655"
       style="opacity:0.4;fill:none;fill-opacity:1;fill-rule:nonzero;stroke:url(#linearGradient2486);stroke-width:1;stroke-miterlimit:4;stroke-dasharray:none;stroke-opacity:1" />
    <path
       inkscape:connector-curvature="0"
       d="m 16.682829,19.122662 c -0.04956,-1.769072 0.34678,-3.486463 2.018151,-4.702957 1.765395,-1.375776 3.465611,-3.097059 3.285935,-5.1260626 -0.03923,-1.9567912 -2.319181,-3.4901498 -4.77566,-3.7106197 -2.763139,-0.3827896 -6.106521,0.563802 -7.032431,2.7217069 -0.4695998,1.0495309 -0.03413,2.9325134 1.541846,2.9325134 0.92179,0 1.345172,-0.595451 1.414728,-1.14015 0.05262,-0.4121352 -0.116577,-0.7801678 -0.2165,-1.1205947 -0.113858,-0.3878941 0.372191,-1.1396747 0.901563,-1.4459783 0.442351,-0.2559555 0.905165,-0.3417811 0.973385,-0.3581768 1.588609,-0.3817838 3.172223,0.4615245 3.832935,1.487935 0.660712,1.0264095 -0.06653,2.5832738 -1.112141,4.0972648 -1.045611,1.51399 -2.167737,3.233575 -2.163254,5.060055 0,0.695342 -0.06195,0.931566 -0.01793,1.212884 0.03517,0.224765 0.779419,0.197603 1.349377,0.09218 z m -0.724992,2.381075 c -1.51896,-0.08246 -2.570293,1.639498 -1.657776,2.736619 0.81492,1.21133 3.099769,0.912304 3.491392,-0.459406 0.407146,-1.066681 -0.572657,-2.295019 -1.833615,-2.277214 z"
       id="path9053"
       style="font-style:normal;font-weight:bold;font-size:72px;font-family:'Standard Symbols L';opacity:0.2;fill:#000000;fill-opacity:1;stroke:none;stroke-width:0.75;stroke-linecap:round;stroke-linejoin:round;stroke-miterlimit:4;stroke-dasharray:none;stroke-opacity:1" />
    <path
       inkscape:connector-curvature="0"
       d="m 16.682829,20.122661 c -0.04956,-1.769071 0.34678,-3.486462 2.018151,-4.702956 1.765395,-1.375776 3.465611,-3.097059 3.285935,-5.126062 -0.03923,-1.9567923 -2.319181,-3.4901508 -4.77566,-3.7106209 -2.763139,-0.3827895 -6.106521,0.5638021 -7.032431,2.721707 -0.4695998,1.0495319 -0.03413,2.9325139 1.541846,2.9325139 0.92179,0 1.345172,-0.595451 1.414728,-1.140149 0.05262,-0.412136 -0.116577,-0.780169 -0.2165,-1.1205958 -0.113858,-0.3878945 0.372191,-1.1396748 0.901563,-1.4459788 0.442351,-0.2559554 0.905165,-0.3417809 0.973385,-0.3581767 1.588609,-0.3817838 3.172223,0.4615244 3.832935,1.487935 0.660712,1.0264103 -0.06653,2.5832743 -1.112141,4.0972653 -1.045611,1.51399 -2.167737,3.233575 -2.163254,5.060055 0,0.695342 -0.06195,0.931566 -0.01793,1.212884 0.03517,0.224765 0.779419,0.197603 1.349377,0.09218 z m -0.724992,2.381076 c -1.51896,-0.08246 -2.570293,1.639498 -1.657776,2.736619 0.81492,1.21133 3.099769,0.912304 3.491392,-0.459406 0.407146,-1.066681 -0.572657,-2.295019 -1.833615,-2.277214 z"
       id="path3298"
       style="font-style:normal;font-weight:bold;font-size:72px;font-family:'Standard Symbols L';fill:#ffffff;fill-opacity:1;stroke:none;stroke-width:0.75;stroke-linecap:round;stroke-linejoin:round;stroke-miterlimit:4;stroke-dasharray:none;stroke-opacity:1" />
  </g>
</svg>
