<?xml version="1.0" encoding="UTF-8"?>
<svg width="24" height="24" version="1.1" xmlns="http://www.w3.org/2000/svg" xmlns:xlink="http://www.w3.org/1999/xlink"><defs><linearGradient id="a"><stop stop-color="#bb2b12" offset="0"/><stop stop-color="#cd7233" offset="1"/></linearGradient><linearGradient id="d" x1="-55.2" x2="-31.5" y1="192" y2="182" gradientTransform="matrix(.93 0 0 .996 51.3 -182)" gradientUnits="userSpaceOnUse" xlink:href="#a"/><linearGradient id="c" x1="-31.5" x2="-55.2" y1="182" y2="192" gradientTransform="matrix(.93 0 0 .996 51.3 -182)" gradientUnits="userSpaceOnUse"><stop stop-color="#f0c178" offset="0"/><stop stop-color="#e18941" offset=".5"/><stop stop-color="#ec4f18" offset="1"/></linearGradient><linearGradient id="b" x1="22" x2="0" y1="-8.88e-16" y2="9" gradientUnits="userSpaceOnUse"><stop stop-color="#f6daae" offset="0"/><stop stop-color="#f0c178" stop-opacity="0" offset="1"/></linearGradient><linearGradient id="e" x1="-86.6" x2="-83.4" y1="185" y2="197" gradientTransform="matrix(0,-1,1,0,-272,102)" gradientUnits="userSpaceOnUse"><stop stop-color="#eeeeec" offset="0"/><stop stop-color="#babdb6" offset="1"/></linearGradient><linearGradient id="g" x1="-88" x2="-82" y1="159" y2="181" gradientTransform="matrix(0 -1 1 0 -273 80)" gradientUnits="userSpaceOnUse"><stop stop-color="#f0c178" offset="0"/><stop stop-color="#e18941" offset=".5"/><stop stop-color="#ec4f18" offset="1"/></linearGradient><linearGradient id="h" x1="-51.6" x2="-73.6" y1="162" y2="168" gradientUnits="userSpaceOnUse" xlink:href="#a"/><linearGradient id="f" x1="-33.6" x2="-55.6" y1="162" y2="167" gradientUnits="userSpaceOnUse" xlink:href="#a"/></defs><g transform="matrix(0 1 -1 0 177 75.6)" enable-background="new"><g transform="translate(-1)" stroke="url(#f)"><path d="m-53.6 158v14" enable-background="new" fill="none" stroke="url(#h)" stroke-linecap="round" stroke-width="4"/></g></g><g transform="matrix(0,-1,1,0,7,22)" fill="none" stroke-linecap="round" stroke-linejoin="round"><path d="m7.65-0.525-5.15 5.52 5.15 5.53" enable-background="new" stroke="url(#d)" stroke-width="5"/><path d="m18 5-11.5-1e-4" enable-background="new" stroke="url(#d)" stroke-width="6"/><path d="m7.75-0.625-5.25 5.63 5.25 5.63" enable-background="new" stroke="url(#c)" stroke-width="3"/><path d="m18 5-11.5-1e-4" enable-background="new" stroke="url(#c)" stroke-width="4"/><path d="m8.28 9.64-1.78-1.64c-1.04-0.959 0-1.5 1.5-1.5h9.4c3 0 2.5-3 0-3h-8.9c-1.5 0-3 0-2-1.5l1.64-1.23c1.5-2-0.5-2.5-1.5-1.5l-4.64 4.73c-0.5 0.5-0.528 1.33 0 2l4.78 5.14c1 1 3.06-0.0614 1.5-1.5z" enable-background="new" opacity=".4" stroke="url(#b)"/><path d="m6.5 2 1.85-1.51c1.5-2-0.5-2.5-1.5-1.5l-4.85 5.01m0 2 4.71 5.28c1 1 2.97 0.0292 1.5-1.5l-1.71-1.78" enable-background="new" opacity=".4" stroke="url(#b)"/><path d="m8.73-0.0934-2.42 2.46" enable-background="new" opacity=".51" stroke="#f6daae"/></g><g transform="matrix(0 1 -1 0 177 115)" enable-background="new" stroke="url(#e)"><path d="m-93.6 158v14" enable-background="new" fill="none" stroke="url(#g)" stroke-linecap="round" stroke-width="2"/></g><path d="m14.2 20.5h4.8m-14.5 0.406c0.0437-0.229 0.267-0.41 0.5-0.406l4.63 4e-6" color="#000000" enable-background="new" fill="none" opacity=".4" stroke="#f6daae" stroke-linecap="round" style="block-progression:tb;text-indent:0;text-transform:none"/></svg>
