<?xml version="1.0" encoding="UTF-8"?>
<svg width="22" height="22" version="1.1" xmlns="http://www.w3.org/2000/svg"><style type="text/css">.ColorScheme-NeutralText {
            color:#f67400;
        }
        .ColorScheme-Text {
            color:#232629;
        }</style><rect class="ColorScheme-NeutralText" width="22" height="22" rx="2" fill="currentColor"/><path class="ColorScheme-Text" d="M2 0C.892 0 0 .892 0 2v18c0 1.108.892 2 2 2h18c1.108 0 2-.892 2-2V2c0-1.108-.892-2-2-2zm0 1h18c.554 0 1 .446 1 1v18c0 .554-.446 1-1 1H2c-.554 0-1-.446-1-1V2c0-.554.446-1 1-1z" fill="currentColor" fill-opacity=".6"/><path d="m11 3c-2.22 0-4 1.78-4 4v4h-2v8h12v-8h-2v-4c0-2.22-1.78-4-4-4m0 2c1.66 0 2 0.061 2 2v4h-4v-4c0-1.94 0.338-2 2-2" fill="#fff" stroke-width=".2"/></svg>
