<?xml version="1.0" encoding="UTF-8" standalone="no"?>
<!-- Created with Inkscape (http://www.inkscape.org/) -->

<svg
   xmlns:osb="http://www.openswatchbook.org/uri/2009/osb"
   xmlns:dc="http://purl.org/dc/elements/1.1/"
   xmlns:cc="http://creativecommons.org/ns#"
   xmlns:rdf="http://www.w3.org/1999/02/22-rdf-syntax-ns#"
   xmlns:svg="http://www.w3.org/2000/svg"
   xmlns="http://www.w3.org/2000/svg"
   xmlns:xlink="http://www.w3.org/1999/xlink"
   xmlns:sodipodi="http://sodipodi.sourceforge.net/DTD/sodipodi-0.dtd"
   xmlns:inkscape="http://www.inkscape.org/namespaces/inkscape"
   id="svg3509"
   height="128"
   width="128"
   version="1.0"
   inkscape:version="0.91 r13725"
   sodipodi:docname="logbook.svg">
  <sodipodi:namedview
     pagecolor="#ffffff"
     bordercolor="#666666"
     borderopacity="1"
     objecttolerance="10"
     gridtolerance="10"
     guidetolerance="10"
     inkscape:pageopacity="0"
     inkscape:pageshadow="2"
     inkscape:window-width="1267"
     inkscape:window-height="1028"
     id="namedview81"
     showgrid="false"
     inkscape:zoom="2.6074563"
     inkscape:cx="80.378644"
     inkscape:cy="63.37907"
     inkscape:window-x="412"
     inkscape:window-y="24"
     inkscape:window-maximized="0"
     inkscape:current-layer="svg3509" />
  <metadata
     id="metadata82">
    <rdf:RDF>
      <cc:Work
         rdf:about="">
        <dc:format>image/svg+xml</dc:format>
        <dc:type
           rdf:resource="http://purl.org/dc/dcmitype/StillImage" />
        <dc:title></dc:title>
      </cc:Work>
    </rdf:RDF>
  </metadata>
  <defs
     id="defs3511">
    <linearGradient
       id="linearGradient10814"
       osb:paint="solid">
      <stop
         style="stop-color:#555a59;stop-opacity:1;"
         offset="0"
         id="stop10816" />
    </linearGradient>
    <radialGradient
       id="radialGradient3450"
       xlink:href="#linearGradient5060"
       gradientUnits="userSpaceOnUse"
       cy="486.65"
       cx="605.71"
       gradientTransform="matrix(0.024097,0,0,0.015375,26.478,38.629)"
       r="117.14" />
    <linearGradient
       id="linearGradient5060">
      <stop
         id="stop5062"
         offset="0" />
      <stop
         id="stop5064"
         style="stop-opacity:0"
         offset="1" />
    </linearGradient>
    <radialGradient
       id="radialGradient3448"
       xlink:href="#linearGradient5060"
       gradientUnits="userSpaceOnUse"
       cy="486.65"
       cx="605.71"
       gradientTransform="matrix(-0.024097,0,0,0.015375,21.522,38.629)"
       r="117.14" />
    <linearGradient
       id="linearGradient3446"
       y2="609.51"
       gradientUnits="userSpaceOnUse"
       x2="302.86"
       gradientTransform="matrix(0.070414,0,0,0.015375,-1.4497,38.629)"
       y1="366.65"
       x1="302.86">
      <stop
         id="stop5050"
         style="stop-opacity:0"
         offset="0" />
      <stop
         id="stop5056"
         offset=".5" />
      <stop
         id="stop5052"
         style="stop-opacity:0"
         offset="1" />
    </linearGradient>
    <linearGradient
       id="linearGradient3296"
       y2="61.22"
       gradientUnits="userSpaceOnUse"
       x2="53.453"
       gradientTransform="matrix(1.8969,0,0,2.0142,3.7992,-0.42029)"
       y1="11.03"
       x1="22.334">
      <stop
         id="stop3321"
         style="stop-color:#af9b7f"
         offset="0" />
      <stop
         id="stop3323"
         style="stop-color:#736148"
         offset="1" />
    </linearGradient>
    <linearGradient
       id="linearGradient3294"
       y2="46"
       gradientUnits="userSpaceOnUse"
       x2="38.491"
       gradientTransform="matrix(2.6365,0,0,2.7995,3.7134,-5.8879)"
       y1="9.8889"
       x1="16.102">
      <stop
         id="stop8969"
         style="stop-color:#ddcfbd"
         offset="0" />
      <stop
         id="stop8971"
         style="stop-color:#856f50"
         offset="1" />
    </linearGradient>
    <linearGradient
       id="linearGradient3291"
       y2="25.019"
       gradientUnits="userSpaceOnUse"
       x2="8.5001"
       gradientTransform="matrix(2.2857,0,0,2.7619,4.5713,-5.0475)"
       y1="25.019"
       x1="5.4801">
      <stop
         id="stop8980"
         style="stop-color:#4d5459;stop-opacity:.99608"
         offset="0" />
      <stop
         id="stop8982"
         style="stop-color:#141b1f"
         offset="1" />
    </linearGradient>
    <linearGradient
       id="linearGradient3288"
       y2="44.168"
       gradientUnits="userSpaceOnUse"
       x2="13.832"
       gradientTransform="matrix(2,0,0,2,0.33533,31.665)"
       y1="-9.8323"
       x1="13.832">
      <stop
         id="stop3207"
         style="stop-color:#4d4d4d"
         offset="0" />
      <stop
         id="stop3209"
         style="stop-color:#4d4d4d;stop-opacity:.51695"
         offset="1" />
    </linearGradient>
    <linearGradient
       id="linearGradient3285"
       y2="24.62"
       gradientUnits="userSpaceOnUse"
       x2="40.978"
       gradientTransform="matrix(2.7465,0,0,2.7368,-1.7008,-1.8799)"
       y1="4.0341"
       x1="28.252">
      <stop
         id="stop3200"
         style="stop-color:#fff"
         offset="0" />
      <stop
         id="stop3202"
         style="stop-color:#fff;stop-opacity:0"
         offset="1" />
    </linearGradient>
    <linearGradient
       id="linearGradient3282"
       y2=".065302"
       gradientUnits="userSpaceOnUse"
       x2="55.495"
       gradientTransform="matrix(1.9474,0,0,1.9539,4.3175,0.043271)"
       y1="5.2438"
       x1="5.7542">
      <stop
         id="stop3454"
         style="stop-color:#4e555a"
         offset="0" />
      <stop
         id="stop3456"
         style="stop-color:#151c20"
         offset=".16792" />
      <stop
         id="stop3458"
         style="stop-color:#9b876c"
         offset=".17283" />
      <stop
         id="stop3460"
         style="stop-color:#9b876c"
         offset=".75216" />
      <stop
         id="stop3462"
         style="stop-color:#9b876c"
         offset=".93860" />
      <stop
         id="stop3464"
         style="stop-color:#afafaf"
         offset=".94891" />
      <stop
         id="stop3466"
         style="stop-color:#aaa"
         offset="1" />
    </linearGradient>
    <linearGradient
       id="linearGradient3280"
       y2="2.8307"
       gradientUnits="userSpaceOnUse"
       x2="21.598"
       gradientTransform="matrix(2.7297,0,0,4.0222,1.7867,-10.387)"
       y1="5.0699"
       x1="21.598">
      <stop
         id="stop2348"
         style="stop-color:#eee"
         offset="0" />
      <stop
         id="stop2350"
         style="stop-color:#d9d9da"
         offset="1" />
    </linearGradient>
    <linearGradient
       id="linearGradient3474"
       y2="94.125"
       gradientUnits="userSpaceOnUse"
       x2="76.848"
       y1="32"
       x1="76.848">
      <stop
         id="stop3470"
         style="stop-color:#685d4c"
         offset="0" />
      <stop
         id="stop3472"
         style="stop-color:#726856"
         offset="1" />
    </linearGradient>
    <linearGradient
       id="linearGradient3493"
       y2="85.309"
       xlink:href="#linearGradient5060"
       gradientUnits="userSpaceOnUse"
       x2="74.143"
       gradientTransform="translate(0,1.0001)"
       y1="30.5"
       x1="74.143" />
    <radialGradient
       id="radialGradient3416"
       gradientUnits="userSpaceOnUse"
       cy="114.83"
       cx="64.389"
       gradientTransform="matrix(1.3333,0,0,0.081997,-20.852,-3.9241)"
       r="52.5">
      <stop
         id="stop3289"
         offset="0" />
      <stop
         id="stop3291"
         style="stop-opacity:0"
         offset="1" />
    </radialGradient>
    <linearGradient
       id="linearGradient3497"
       y2="71.33"
       xlink:href="#linearGradient5060"
       gradientUnits="userSpaceOnUse"
       x2="74.143"
       gradientTransform="translate(0,1.0001)"
       y1="46.618"
       x1="74.143" />
    <linearGradient
       id="linearGradient3501"
       y2="78.078"
       xlink:href="#linearGradient5060"
       gradientUnits="userSpaceOnUse"
       x2="72.067"
       gradientTransform="translate(0,1.0001)"
       y1="87.509"
       x1="72.067" />
    <linearGradient
       id="linearGradient3505"
       y2="52.027"
       xlink:href="#linearGradient5060"
       gradientUnits="userSpaceOnUse"
       x2="70.435"
       gradientTransform="translate(0,1.0001)"
       y1="72.309"
       x1="70.435" />
    <linearGradient
       id="linearGradient2862"
       y2="37.738"
       gradientUnits="userSpaceOnUse"
       x2="22.369"
       gradientTransform="matrix(1.6555 0 0 1.6456 60.967 61.9)"
       y1="8.5685"
       x1="22.369">
      <stop
         id="stop3945"
         style="stop-color:#fff"
         offset="0" />
      <stop
         id="stop3947"
         style="stop-color:#fff;stop-opacity:0"
         offset="1" />
    </linearGradient>
    <radialGradient
       id="radialGradient3117"
       gradientUnits="userSpaceOnUse"
       cx="69.448"
       cy="51.695"
       r="31"
       gradientTransform="matrix(0 1.749 -1.9048 0 190.55 -40.287)">
      <stop
         id="stop3244-5"
         style="stop-color:#eef87e"
         offset="0" />
      <stop
         id="stop3246-9"
         style="stop-color:#cde34f"
         offset=".26238" />
      <stop
         id="stop3248-7"
         style="stop-color:#93b723"
         offset=".66094" />
      <stop
         id="stop3250-8"
         style="stop-color:#5a7e0d"
         offset="1" />
    </radialGradient>
    <linearGradient
       id="linearGradient3119"
       y2="53.868"
       gradientUnits="userSpaceOnUse"
       y1="122.13"
       gradientTransform="matrix(.72729 0 0 .73247 33.998 35.543)"
       x2="72.422"
       x1="72.422">
      <stop
         id="stop2492-3"
         style="stop-color:#365f0e"
         offset="0" />
      <stop
         id="stop2494-8"
         style="stop-color:#84a718"
         offset="1" />
    </linearGradient>
    <symbol
       id="DepartingFlights">
      <title
         id="title7504">Departing Flights</title>
      <g
         style="stroke:none"
         id="g7506">
        <path
           d="M 56,11 42,25 12,17 7,22 32,35 22,45 l -8,-1 -4,4 9,5 5,9 4,-4 -1,-8 10,-10 13,25 5,-5 -8,-30 14,-14 a 3.54,3.54 0 0 0 -5,-5 z"
           id="path7508" />
      </g>
    </symbol>
  </defs>
  <g
     transform="matrix(2.55,0,0,2.4104,2.8,9.3024)"
     id="g2877">
    <rect
       x="7"
       y="44.265999"
       width="34"
       height="3.7339001"
       style="opacity:0.40206;fill:url(#linearGradient3446)"
       id="rect2879" />
    <path
       inkscape:connector-curvature="0"
       d="M 7,44.266 7,48 C 5.7591,48.007 4,47.163 4,46.133 4,45.102 5.3848,44.266 7,44.266 Z"
       style="opacity:0.40206;fill:url(#radialGradient3448)"
       id="path2881" />
    <path
       inkscape:connector-curvature="0"
       d="M 41,44.266 41,48 c 1.241,0.007 3,-0.837 3,-1.867 0,-1.031 -1.385,-1.867 -3,-1.867 z"
       style="opacity:0.40206;fill:url(#radialGradient3450)"
       id="path2883" />
  </g>
  <rect
     x="18.51"
     y="9.5094995"
     width="91.981003"
     height="111.98"
     ry="0.33013001"
     rx="0.30969"
     style="fill:url(#linearGradient3294);stroke:url(#linearGradient3296);stroke-width:1.01900005;stroke-linecap:round;stroke-linejoin:round;stroke-miterlimit:0"
     id="rect2719" />
  <path
     inkscape:connector-curvature="0"
     d="m 16,6.0001 c 6.604,4.0529 12.515,2.3722 16,2.7904 l 0,113.21 -12.734,0 c 0,0 -3.266,0 -3.266,-3.25 l 0,-112.75 0,1e-4 z"
     style="fill:url(#linearGradient3291)"
     id="path2721" />
  <rect
     x="26"
     y="12"
     width="4"
     height="108"
     ry="0.79861999"
     rx="0.64036"
     style="fill:url(#linearGradient3288)"
     id="rect2725" />
  <path
     inkscape:connector-curvature="0"
     d="m 32.483,10.574 77.037,-0.091 0,110.04"
     style="opacity:0.4;fill:none;stroke:url(#linearGradient3285);stroke-width:0.96683002;stroke-linecap:square;stroke-linejoin:round"
     id="path4743" />
  <path
     inkscape:connector-curvature="0"
     d="m 109.49,8.5916 c -0.8,-2.5922 -0.3,-4.6107 -0.74,-7.0829 l -82.219,0 c -4.269,0 -8.487,0.6023 -9.677,3.053 -0.067,0.138 -0.141,0.2772 -0.183,0.4274 -1.092,2.5263 3.431,4.5022 10.345,4.5022 l 5.021,0"
     style="fill:url(#linearGradient3280);stroke:url(#linearGradient3282);stroke-width:1.01740003;stroke-linejoin:round;stroke-miterlimit:0"
     id="path2723" />
  <path
     inkscape:connector-curvature="0"
     d="m 110,9.5 -78,0"
     style="fill:#a18d72;fill-rule:evenodd;stroke:#a18d72;stroke-width:1px"
     id="path4494" />
  <path
     inkscape:connector-curvature="0"
     d="m 17.5,3.5 92,0 m -92,2 92,0 m -92,2 92,0"
     style="opacity:0.1;fill:none;stroke:url(#radialGradient3416);stroke-width:1px"
     id="path3262" />
  <g
     transform="matrix(0.16613626,0,0,0.16613626,35.400942,33.391602)"
     id="g3"
     style="opacity:0.496;fill:#000000;fill-opacity:1;stroke:none;stroke-opacity:1;stroke-width:0;stroke-miterlimit:4;stroke-dasharray:none">
    <path
       inkscape:connector-curvature="0"
       d="M 396.31,49.545 C 402.398,31.274 401.259,17.191 392.878,7.29 382.981,-1.086 368.895,-2.224 350.62,3.856 332.347,9.947 315.977,20.224 301.509,34.689 L 255.83,80.372 65.973,34.978 C 62.927,34.025 60.072,34.786 57.409,37.26 L 20.862,73.805 c -2.091,2.096 -2.95,4.665 -2.568,7.71 0.571,3.049 2.19,5.33 4.854,6.854 L 168.186,168.025 94.238,241.973 38.85,226.845 c -0.38,-0.192 -1.139,-0.288 -2.282,-0.288 -2.666,0 -4.853,0.855 -6.567,2.57 L 2.594,256.819 c -1.903,2.279 -2.758,4.66 -2.568,7.132 0.378,3.045 1.615,5.235 3.711,6.57 l 71.946,53.957 53.959,71.944 c 1.714,2.098 3.999,3.329 6.854,3.716 l 0.571,0 c 2.666,0 4.853,-0.855 6.567,-2.566 l 27.406,-27.404 c 2.474,-2.669 3.236,-5.619 2.286,-8.854 l -15.133,-55.388 73.947,-73.953 79.66,145.046 c 1.14,2.475 3.138,3.997 5.995,4.569 0.568,0.191 1.235,0.284 1.999,0.284 2.279,0 4.09,-0.572 5.421,-1.712 l 36.552,-27.407 c 3.23,-2.663 4.373,-5.801 3.426,-9.418 L 319.513,144.624 365.48,98.659 c 14.462,-14.471 24.739,-30.843 30.83,-49.114 z"
       id="path5"
       style="fill:#000000;fill-opacity:1;stroke:none;stroke-opacity:1;stroke-width:0;stroke-miterlimit:4;stroke-dasharray:none" />
  </g>
</svg>
