<?xml version="1.0" encoding="UTF-8" standalone="no"?>
<!-- Created with Inkscape (http://www.inkscape.org/) -->

<svg
   xmlns:dc="http://purl.org/dc/elements/1.1/"
   xmlns:cc="http://creativecommons.org/ns#"
   xmlns:rdf="http://www.w3.org/1999/02/22-rdf-syntax-ns#"
   xmlns:svg="http://www.w3.org/2000/svg"
   xmlns="http://www.w3.org/2000/svg"
   xmlns:xlink="http://www.w3.org/1999/xlink"
   xmlns:sodipodi="http://sodipodi.sourceforge.net/DTD/sodipodi-0.dtd"
   xmlns:inkscape="http://www.inkscape.org/namespaces/inkscape"
   version="1.0"
   width="149.92134"
   height="140.26547"
   id="svg2"
   inkscape:version="0.92.3 (2405546, 2018-03-11)"
   sodipodi:docname="mapshadow.svg">
  <metadata
     id="metadata17">
    <rdf:RDF>
      <cc:Work
         rdf:about="">
        <dc:format>image/svg+xml</dc:format>
        <dc:type
           rdf:resource="http://purl.org/dc/dcmitype/StillImage" />
        <dc:title />
      </cc:Work>
    </rdf:RDF>
  </metadata>
  <sodipodi:namedview
     pagecolor="#ffffff"
     bordercolor="#666666"
     borderopacity="1"
     objecttolerance="10"
     gridtolerance="10"
     guidetolerance="10"
     inkscape:pageopacity="0"
     inkscape:pageshadow="2"
     inkscape:window-width="1876"
     inkscape:window-height="1056"
     id="namedview15"
     showgrid="true"
     inkscape:zoom="4.4500586"
     inkscape:cx="122.27056"
     inkscape:cy="78.113105"
     inkscape:window-x="44"
     inkscape:window-y="24"
     inkscape:window-maximized="1"
     inkscape:current-layer="g3338"
     showguides="false"
     inkscape:snap-grids="true"
     fit-margin-top="0"
     fit-margin-left="0"
     fit-margin-right="0"
     fit-margin-bottom="0"
     inkscape:snap-global="false">
    <inkscape:grid
       type="xygrid"
       id="grid8410"
       originx="1.0778451"
       originy="-1090.1976" />
  </sodipodi:namedview>
  <defs
     id="defs4">
    <linearGradient
       inkscape:collect="always"
       id="linearGradient878">
      <stop
         style="stop-color:#000009;stop-opacity:1;"
         offset="0"
         id="stop874" />
      <stop
         style="stop-color:#000009;stop-opacity:0;"
         offset="1"
         id="stop876" />
    </linearGradient>
    <linearGradient
       inkscape:collect="always"
       xlink:href="#linearGradient878"
       id="linearGradient880"
       x1="220.37646"
       y1="242.77797"
       x2="153.4458"
       y2="174.95308"
       gradientUnits="userSpaceOnUse"
       gradientTransform="matrix(1.0807547,0,0,1.0783377,-115.12759,-3.9938767)" />
  </defs>
  <g
     id="g3338"
     transform="translate(1.303346,-144.62452)">
    <ellipse
       style="opacity:1;fill:#0f4682;fill-opacity:1;stroke:#0f4682;stroke-width:10.16345024;stroke-linecap:round;stroke-linejoin:round;stroke-miterlimit:4;stroke-dasharray:none;stroke-opacity:1"
       id="path21948"
       cx="75.201889"
       cy="212.0022"
       rx="61.21941"
       ry="57.371113" />
    <path
       inkscape:connector-curvature="0"
       style="fill:#000000;fill-opacity:1;stroke:#ffffff;stroke-width:2;stroke-miterlimit:4;stroke-dasharray:none;stroke-opacity:1"
       id="parallel_-40.0_front"
       d="m 102.97847,264.93134 c -8.073126,3.64305 -17.878575,5.61195 -27.954453,5.61195 -10.075892,0 -19.881328,-1.9689 -27.954472,-5.61195 -0.719061,-0.32397 -1.431085,-0.66107 -2.136682,-1.0101 8.483947,4.20031 19.118039,6.49616 30.091154,6.49616 10.973115,0 21.607207,-2.29585 30.091153,-6.49616 -0.70561,0.34903 -1.41762,0.68613 -2.1367,1.0101 z" />
    <path
       inkscape:connector-curvature="0"
       style="fill:#000000;fill-opacity:1;stroke:#ffffff;stroke-width:2;stroke-miterlimit:4;stroke-dasharray:none;stroke-opacity:1"
       id="parallel_-30.0_front"
       d="m 119.49391,254.20563 c -6.47608,5.80943 -15.96749,10.19112 -27.018138,12.47146 -11.30638,2.33344 -23.597785,2.33344 -34.903511,0 -11.050666,-2.28034 -20.542072,-6.66203 -27.018139,-12.47146 -0.418494,-0.37528 -0.83187,-0.75654 -1.239459,-1.14256 6.457486,6.11731 16.182172,10.76212 27.607744,13.18504 11.708212,2.4832 24.495648,2.4832 36.20386,0 11.424933,-2.42292 21.149613,-7.06773 27.607103,-13.18504 -0.4076,0.38602 -0.82096,0.76668 -1.23946,1.14256 z" />
    <path
       inkscape:connector-curvature="0"
       style="fill:#000000;fill-opacity:1;stroke:#ffffff;stroke-width:2;stroke-miterlimit:4;stroke-dasharray:none;stroke-opacity:1"
       id="parallel_-10.0_front"
       d="m 135.99653,229.61829 c -2.76924,7.96508 -10.10986,15.15514 -20.83239,20.40074 -11.22306,5.49084 -25.443514,8.50385 -40.140123,8.50385 -14.69597,5.3e-4 -28.916424,-3.01301 -40.13948,-8.50324 -10.722534,-5.24562 -18.063794,-12.43627 -20.833029,-20.40135 -0.147412,-0.42302 -0.292236,-0.85617 -0.434516,-1.29887 2.597484,8.09574 9.906701,15.43734 20.717022,20.80407 11.323681,5.6215 25.75882,8.71386 40.690003,8.71386 14.930529,0 29.365683,-3.09236 40.689353,-8.71327 10.81097,-5.36673 18.12019,-12.70892 20.71767,-20.80466 -0.13648,0.4254 -0.28135,0.85914 -0.43451,1.29887 z" />
    <path
       inkscape:connector-curvature="0"
       style="fill:#000000;fill-opacity:1;stroke:#ffffff;stroke-width:2;stroke-miterlimit:4;stroke-dasharray:none;stroke-opacity:1"
       id="parallel_10.0_front"
       d="m 138.55106,203.36932 c 1.37596,9.62194 -4.29901,19.14722 -15.73227,26.38978 -12.09466,7.66079 -29.502192,12.05321 -47.794773,12.05321 -18.291942,0 -35.699484,-4.39242 -47.794131,-12.05321 -11.433903,-7.24256 -17.108894,-16.76784 -15.732914,-26.38978 0.06085,-0.4254 0.127523,-0.85855 0.201236,-1.29888 -1.613099,9.65058 3.92665,19.25283 15.339413,26.56937 12.075426,7.74194 29.577807,12.19044 47.986396,12.19044 18.408574,0 35.910973,-4.4485 47.986393,-12.19044 11.41275,-7.31654 16.9525,-16.91879 15.33941,-26.56937 0.0711,0.42421 0.13847,0.85738 0.20124,1.29888 z" />
    <path
       inkscape:connector-curvature="0"
       style="fill:#000000;fill-opacity:1;stroke:#ffffff;stroke-width:2;stroke-miterlimit:4;stroke-dasharray:none;stroke-opacity:1"
       id="parallel_30.0_front"
       d="m 128.68667,178.62567 c 5.10395,7.27715 4.9181,15.32338 -0.52104,22.53013 -5.68972,7.53968 -16.68013,13.56748 -30.582705,16.76904 -14.406947,3.31789 -30.710244,3.31789 -45.117176,0 -13.903211,-3.20156 -24.893627,-9.22936 -30.584001,-16.76904 -5.438484,-7.20675 -5.624337,-15.25357 -0.520384,-22.53013 0.274295,-0.3914 0.54859,-0.77205 0.821605,-1.14256 -5.320572,7.2169 -5.326983,15.25239 -0.01933,22.47166 5.548719,7.54744 16.460305,13.59971 30.328272,16.81736 14.378741,3.33698 30.684611,3.33698 45.063338,5.2e-4 13.867961,-3.21824 24.780191,-9.27051 30.328921,-16.81795 5.30775,-7.21928 5.30134,-15.25476 -0.0192,-22.47166 0.28454,0.38542 0.5582,0.76607 0.8216,1.14255 z" />
    <path
       inkscape:connector-curvature="0"
       style="fill:#000000;fill-opacity:1;stroke:#ffffff;stroke-width:2;stroke-miterlimit:4;stroke-dasharray:none;stroke-opacity:1"
       id="parallel_50.0_front"
       d="m 104.71846,158.3705 c 8.33591,4.05771 13.27451,9.65832 13.75389,15.59306 0.48258,5.97948 -3.59853,11.81695 -11.35637,16.23504 -8.237199,4.69075 -19.882602,7.36367 -32.091323,7.36367 -12.208736,0 -23.854765,-2.67292 -32.091969,-7.36367 -7.757834,-4.41809 -11.839601,-10.25556 -11.357005,-16.23504 0.479369,-5.93474 5.417984,-11.53535 13.753879,-15.59306 0.598575,-0.29176 1.202923,-0.57397 1.811122,-0.84782 -8.611469,3.87395 -13.882695,9.3785 -14.641492,15.28399 -0.761369,5.92997 3.088383,11.77162 10.689196,16.21297 8.085968,4.72416 19.670481,7.42751 31.834989,7.42751 12.165133,0 23.750301,-2.70335 31.836253,-7.42751 7.60081,-4.44075 11.45121,-10.283 10.68921,-16.21297 -0.7588,-5.90549 -6.03002,-11.41004 -14.64151,-15.28399 0.6082,0.27385 1.21191,0.55606 1.81113,0.84782 z" />
    <path
       inkscape:connector-curvature="0"
       style="fill:#000000;fill-opacity:1;stroke:#ffffff;stroke-width:2;stroke-miterlimit:4;stroke-dasharray:none;stroke-opacity:1"
       id="parallel_70.0_front"
       d="m 76.027622,152.77346 c 7.336143,0.1581 14.113432,2.03869 18.347714,5.08871 4.074701,2.93484 5.362226,6.64054 3.515847,10.10639 -1.853416,3.48018 -6.672171,6.35656 -13.136723,7.8374 -6.843282,1.56856 -14.744036,1.39434 -21.294456,-0.46955 -6.17742,-1.75769 -10.484761,-4.82736 -11.747294,-8.36841 -1.254201,-3.51536 0.622289,-7.13455 5.127027,-9.87788 4.725835,-2.87938 11.819087,-4.47537 19.187885,-4.31666 z m -0.04549,0.22076 c -7.029789,-0.15156 -13.796827,1.37046 -18.303485,4.11618 -4.284908,2.61029 -6.073596,6.05226 -4.886042,9.39701 1.194591,3.36322 5.274425,6.28256 11.133322,7.9621 6.243441,1.79051 13.78979,1.9677 20.332505,0.47849 6.187684,-1.40865 10.801364,-4.15557 12.571472,-7.48061 1.756644,-3.29938 0.530648,-6.8261 -3.34667,-9.62014 -4.036899,-2.9086 -10.502063,-4.70208 -17.501102,-4.85303 z" />
    <path
       inkscape:connector-curvature="0"
       style="fill:#000000;fill-opacity:1;stroke:#ffffff;stroke-width:2;stroke-miterlimit:4;stroke-dasharray:none;stroke-opacity:1"
       id="meridian_80.0_front"
       d="m 75.941754,151.58556 c -0.77931,-0.0101 -1.801511,10.34505 -2.710918,27.5013 -1.036929,19.5571 -1.752152,44.60684 -1.832276,64.18602 -0.07052,17.17237 0.359537,27.56037 1.137554,27.58901 0.373001,0.013 0.747906,0.0238 1.124106,0.031 -0.740855,-0.0144 -1.134996,-10.40115 -1.044635,-27.58067 0.103781,-19.58155 0.819046,-44.63905 1.832916,-64.20094 0.889546,-17.16638 1.876504,-27.52336 2.617345,-27.5013 -0.374906,-0.0115 -0.749186,-0.0191 -1.124092,-0.0244 z" />
    <path
       inkscape:connector-curvature="0"
       style="fill:#000000;fill-opacity:1;stroke:#ffffff;stroke-width:2;stroke-miterlimit:4;stroke-dasharray:none;stroke-opacity:1"
       id="path3990"
       d="m 88.118446,152.8385 c -4.709828,-0.91524 -10.650115,3.42646 -16.689122,12.21072 -6.892641,10.02467 -13.321936,24.97039 -17.7158,41.19171 -4.393209,16.22131 -6.344692,32.2177 -5.382087,44.08657 0.843399,10.39935 3.861936,16.8442 8.474337,18.11743 0.376839,0.10445 0.755583,0.20525 1.134356,0.30309 -4.626504,-1.19148 -7.65785,-7.59398 -8.507675,-17.99155 -0.970922,-11.88258 0.990171,-27.95056 5.405829,-44.25183 4.415003,-16.30067 10.87185,-31.3132 17.778595,-41.34683 6.044124,-8.77948 11.974161,-13.07883 16.654503,-12.08544 -0.38325,-0.0811 -0.767767,-0.1593 -1.152936,-0.23387 z" />
    <path
       inkscape:connector-curvature="0"
       style="fill:#000000;fill-opacity:1;stroke:#ffffff;stroke-width:2;stroke-miterlimit:4;stroke-dasharray:none;stroke-opacity:1"
       id="path3994"
       d="m 102.00626,157.12532 c -7.82255,-3.38055 -18.165045,-1.71891 -28.991402,4.66389 -11.542845,6.80582 -22.711438,18.43365 -31.021061,32.30183 -8.309624,13.86819 -13.069422,28.82406 -13.225165,41.54252 -0.146118,11.92854 3.769002,20.99381 10.967983,25.41428 0.36467,0.22375 0.738296,0.44868 1.121532,0.673 -7.332275,-4.30114 -11.356351,-13.34254 -11.262778,-25.32299 0.100654,-12.7835 4.880284,-27.8736 13.26554,-41.8659 8.385241,-13.99169 19.666614,-25.70303 31.297915,-32.49573 10.896857,-6.36371 21.270743,-7.92391 29.051656,-4.37632 -0.39223,-0.17899 -0.79342,-0.35738 -1.20422,-0.53458 z" />
    <path
       inkscape:connector-curvature="0"
       style="fill:#000000;fill-opacity:1;stroke:#ffffff;stroke-width:2;stroke-miterlimit:4;stroke-dasharray:none;stroke-opacity:1"
       id="path3998"
       d="m 118.76523,167.63744 c -8.16287,-7.09757 -20.249185,-10.19531 -33.93066,-8.6924 -14.183902,1.55782 -29.024085,7.94362 -41.459049,17.84298 -12.43495,9.89939 -21.514273,22.5558 -25.369797,35.35841 -3.718377,12.34974 -2.307793,23.94595 3.956135,32.5554 0.297382,0.4087 0.599868,0.8138 0.908127,1.21534 -6.559377,-8.55157 -8.177608,-20.22355 -4.530997,-32.71887 3.78373,-12.96191 12.942524,-25.81821 25.547959,-35.85301 12.606075,-10.03541 27.669913,-16.46356 42.012132,-17.93068 13.825019,-1.41403 25.9594,1.88595 34.01524,9.24605 -0.37875,-0.34545 -0.76136,-0.68673 -1.14909,-1.02322 z" />
    <path
       inkscape:connector-curvature="0"
       style="fill:#000000;fill-opacity:1;stroke:#ffffff;stroke-width:2;stroke-miterlimit:4;stroke-dasharray:none;stroke-opacity:1"
       id="path4002"
       d="m 135.10057,190.46589 c -4.27209,-10.70483 -13.7699,-19.4891 -26.72397,-24.70906 -13.260409,-5.34405 -29.204823,-6.57611 -44.721118,-3.45212 -15.51567,3.12398 -29.488727,10.37906 -39.192272,20.34645 -9.479862,9.7371 -14.230064,21.38938 -13.368709,32.78153 0.04293,0.568 0.09482,1.136 0.155088,1.7028 -1.229848,-11.53416 3.342818,-23.43106 12.842554,-33.40144 9.728524,-10.21022 23.91308,-17.65503 39.701766,-20.8339 15.78931,-3.17887 32.009938,-1.85553 45.401091,3.69974 13.07584,5.4258 22.52046,14.50002 26.52018,25.47632 -0.19676,-0.53935 -0.40183,-1.07633 -0.61461,-1.61032 z" />
    <path
       inkscape:connector-curvature="0"
       style="fill:#000000;fill-opacity:1;stroke:#ffffff;stroke-width:2;stroke-miterlimit:4;stroke-dasharray:none;stroke-opacity:1"
       id="path4006"
       d="m 137.67882,223.78976 c 2.54943,-11.03298 -0.45502,-23.07546 -8.45189,-33.86561 -8.19748,-11.06043 -21.0567,-20.01474 -36.0462,-25.09628 -14.990139,-5.08214 -31.022354,-5.92338 -44.940293,-2.36087 -13.577011,3.47598 -24.19636,10.89992 -29.864926,20.87506 -0.279427,0.49164 -0.551148,0.98625 -0.815193,1.48443 5.443616,-10.26272 16.048863,-17.96647 29.768779,-21.61908 14.069217,-3.74626 30.378272,-2.95693 45.620287,2.21114 15.242636,5.16746 28.277456,14.327 36.464676,25.61832 7.98341,11.0109 10.78406,23.25983 7.86358,34.37812 0.1416,-0.53996 0.27557,-1.0817 0.40118,-1.62523 z" />
    <path
       inkscape:connector-curvature="0"
       style="fill:#000000;fill-opacity:1;stroke:#ffffff;stroke-width:2;stroke-miterlimit:4;stroke-dasharray:none;stroke-opacity:1"
       id="path4010"
       d="m 123.80701,249.93671 c 6.91829,-7.55998 9.33888,-18.62875 6.78691,-31.06024 -2.66029,-12.95713 -10.52001,-26.41065 -21.93406,-37.53432 C 97.241983,170.2137 83.158037,162.28502 69.3689,159.21891 c -13.228363,-2.94202 -25.22048,-1.19447 -33.648655,4.89837 -0.401832,0.28997 -0.797906,0.58351 -1.188834,0.88004 8.345506,-6.33328 20.388263,-8.25444 33.744788,-5.37807 13.930777,2.99988 28.208267,10.98644 39.768411,22.24913 11.56018,11.26269 19.48143,24.90295 22.06801,37.99493 2.47956,12.55201 -0.1288,23.66493 -7.30408,31.13839 0.33581,-0.34964 0.66907,-0.70464 0.99847,-1.06499 z" />
    <path
       inkscape:connector-curvature="0"
       style="fill:#000000;fill-opacity:1;stroke:#ffffff;stroke-width:2;stroke-miterlimit:4;stroke-dasharray:none;stroke-opacity:1"
       id="path4014"
       d="m 105.88935,263.53104 c 6.81509,-3.48613 10.76931,-11.86111 11.07566,-23.4782 0.33069,-12.52277 -3.60175,-27.79365 -10.90903,-42.34619 -7.300244,-14.53641 -17.34729,-27.12183 -27.86411,-34.90912 -9.761847,-7.22705 -19.191098,-9.77469 -26.433013,-7.14768 -0.392221,0.14196 -0.789561,0.29055 -1.193312,0.44567 7.209871,-2.77136 16.664754,-0.30309 26.482999,6.92038 10.590518,7.79206 20.728565,20.47294 28.084566,35.13346 7.35665,14.66112 11.29612,30.03761 10.918,42.59917 -0.34991,11.64571 -4.38489,19.98011 -11.29484,23.34872 0.37299,-0.18198 0.75111,-0.37051 1.13308,-0.56621 z" />
    <path
       inkscape:connector-curvature="0"
       style="fill:#000000;fill-opacity:1;stroke:#ffffff;stroke-width:2;stroke-miterlimit:4;stroke-dasharray:none;stroke-opacity:1"
       id="path4018"
       d="m 89.220103,269.42459 c 3.655582,-0.77323 6.107574,-6.70974 6.891362,-16.71055 0.915179,-11.67735 -0.522957,-27.87002 -3.956774,-44.52807 -3.435751,-16.66404 -8.541624,-32.20699 -14.037159,-42.74057 -4.704681,-9.01636 -9.342075,-13.68384 -13.045083,-13.1421 -0.381317,0.0554 -0.761995,0.11455 -1.142033,0.17721 3.685693,-0.6032 8.323072,4.0613 13.036738,13.12836 3.768177,7.24873 7.356941,16.87096 10.349433,27.59906 1.359049,4.87218 2.59511,9.97246 3.669145,15.18207 3.43895,16.68073 4.889894,32.89252 3.992017,44.57344 -0.772259,10.04792 -3.22553,15.98028 -6.888789,16.69026 0.377479,-0.0734 0.754944,-0.14975 1.131143,-0.22911 z"
       sodipodi:nodetypes="cscccccssscc" />
    <ellipse
       style="opacity:1;fill:url(#linearGradient880);fill-opacity:1;stroke:none;stroke-width:10.97190762;stroke-linecap:round;stroke-linejoin:round;stroke-miterlimit:4;stroke-dasharray:none;stroke-opacity:1"
       id="path21948-3"
       cx="75.315697"
       cy="211.83293"
       rx="66.163162"
       ry="61.865437" />
  </g>
</svg>
