<?xml version="1.0" encoding="UTF-8" standalone="no"?>
<svg
   width="48"
   height="48"
   version="1.1"
   id="svg46"
   sodipodi:docname="minaltitude.svg"
   inkscape:version="1.2.2 (b0a8486541, 2022-12-01)"
   xmlns:inkscape="http://www.inkscape.org/namespaces/inkscape"
   xmlns:sodipodi="http://sodipodi.sourceforge.net/DTD/sodipodi-0.dtd"
   xmlns:xlink="http://www.w3.org/1999/xlink"
   xmlns="http://www.w3.org/2000/svg"
   xmlns:svg="http://www.w3.org/2000/svg"
   xmlns:rdf="http://www.w3.org/1999/02/22-rdf-syntax-ns#"
   xmlns:cc="http://creativecommons.org/ns#"
   xmlns:dc="http://purl.org/dc/elements/1.1/">
  <sodipodi:namedview
     pagecolor="#ffffff"
     bordercolor="#666666"
     borderopacity="1"
     objecttolerance="10"
     gridtolerance="10"
     guidetolerance="10"
     inkscape:pageopacity="0"
     inkscape:pageshadow="2"
     inkscape:window-width="640"
     inkscape:window-height="480"
     id="namedview48"
     showgrid="false"
     inkscape:zoom="11.313709"
     inkscape:cx="31.959886"
     inkscape:cy="20.83801"
     inkscape:current-layer="svg46"
     inkscape:showpageshadow="2"
     inkscape:pagecheckerboard="0"
     inkscape:deskcolor="#d1d1d1" />
  <defs
     id="defs20">
    <linearGradient
       id="linearGradient1019">
      <stop
         id="stop1015"
         stop-color="#faffa5"
         style="stop-color:#bec1c1;stop-opacity:1" />
      <stop
         id="stop1017"
         stop-color="#edf573"
         offset="1"
         style="stop-color:#444644;stop-opacity:1" />
    </linearGradient>
    <linearGradient
       id="0">
      <stop
         stop-color="#eff1f1"
         id="stop2" />
      <stop
         offset="1"
         stop-color="#b0b8b8"
         id="stop4" />
    </linearGradient>
    <linearGradient
       xlink:href="#linearGradient1019"
       id="1"
       y1="523.4776"
       x2="422.05237"
       y2="535.61682"
       gradientUnits="userSpaceOnUse"
       gradientTransform="matrix(1.4344597,0,0,1.4344597,-568.89041,-721.20564)"
       x1="414.03506" />
    <linearGradient
       xlink:href="#3"
       id="2"
       y1="502.798"
       x2="0"
       y2="582.79797"
       gradientUnits="userSpaceOnUse"
       gradientTransform="matrix(0.9333343,0,0,0.9333343,25.904354,32.25266)" />
    <linearGradient
       id="3">
      <stop
         stop-color="#f0ff01"
         id="stop9" />
      <stop
         offset="1"
         stop-color="#ff9701"
         id="stop11" />
    </linearGradient>
    <linearGradient
       xlink:href="#5"
       id="4"
       y1="507.798"
       x2="0"
       y2="547.79797"
       gradientUnits="userSpaceOnUse"
       gradientTransform="matrix(0.86274226,0,0,0.86274226,54.74625,69.22864)" />
    <linearGradient
       id="5">
      <stop
         stop-color="#faffa5"
         id="stop15" />
      <stop
         offset="1"
         stop-color="#edf573"
         id="stop17" />
    </linearGradient>
  </defs>
  <metadata
     id="metadata22">
    <rdf:RDF>
      <cc:Work
         rdf:about="">
        <dc:format>image/svg+xml</dc:format>
        <dc:type
           rdf:resource="http://purl.org/dc/dcmitype/StillImage" />
        <dc:title />
      </cc:Work>
    </rdf:RDF>
  </metadata>
  <rect
     style="opacity:1;fill:#dedede;fill-opacity:1;fill-rule:evenodd;stroke:none;stroke-width:10.01286125;stroke-linecap:round;stroke-linejoin:miter;stroke-miterlimit:4;stroke-dasharray:none;stroke-dashoffset:0;stroke-opacity:1"
     id="rect843"
     width="35.916023"
     height="32.157372"
     x="6.6369333"
     y="8.586607" />
  <path
     style="fill:none;fill-rule:evenodd;stroke:#434342;stroke-width:6.44021273;stroke-linecap:butt;stroke-linejoin:miter;stroke-miterlimit:4;stroke-dasharray:none;stroke-opacity:1"
     d="m -64.199857,8.4055446 6.260693,17.1090134"
     id="path8108-9"
     inkscape:connector-curvature="0" />
  <path
     style="fill:none;fill-rule:evenodd;stroke:#454143;stroke-width:9.87867928;stroke-linecap:butt;stroke-linejoin:miter;stroke-miterlimit:4;stroke-dasharray:none;stroke-opacity:1"
     d="M -49.159647,5.4540808 -38.185666,28.420768"
     id="path8108"
     inkscape:connector-curvature="0" />
  <path
     style="fill:none;fill-rule:evenodd;stroke:#878a82;stroke-width:2.99792695;stroke-linecap:butt;stroke-linejoin:miter;stroke-miterlimit:4;stroke-dasharray:none;stroke-opacity:1"
     d="m -76.359345,5.6766927 11.658604,-19.9861797 6.66206,14.98963371 -2.194811,-4.78482701 12.1879,-15.2013497 13.324121,24.9827227"
     id="path7306"
     inkscape:connector-curvature="0"
     sodipodi:nodetypes="cccccc" />
  <g
     aria-label="6"
     id="text901"
     style="font-size:25.8408px;line-height:125%;letter-spacing:0px;word-spacing:0px;stroke-width:0.646019px">
    <path
       d="m 15.879135,31.753025 q -2.661603,0 -4.031165,-1.602129 -1.369562,-1.60213 -1.369562,-4.573822 0,-2.015582 0.490975,-3.979483 0.490975,-1.989741 1.395403,-3.695234 0.930269,-1.705493 2.196468,-2.868329 1.266199,-1.136995 2.842488,-1.705492 1.576289,-0.568498 3.695234,-0.568498 0.801065,0 1.550448,0.103363 0.775224,0.103363 1.266199,0.232567 l -0.64602,3.100896 q -0.465134,-0.129204 -1.136995,-0.206726 -0.64602,-0.103363 -1.266199,-0.103363 -2.58408,0 -4.082846,1.447084 -1.498767,1.421244 -2.273991,4.263732 h 0.103364 q 0.64602,-0.904428 1.602129,-1.498766 0.95611,-0.594338 2.325672,-0.594338 1.912219,0 3.023374,1.188676 1.111154,1.188677 1.111154,3.488508 0,1.085314 -0.33593,2.403195 -0.31009,1.29204 -1.085314,2.480716 -0.775224,1.162836 -2.093105,1.93806 -1.29204,0.749383 -3.281781,0.749383 z m 0.180885,-3.126736 q 0.95611,0 1.576289,-0.620179 0.620179,-0.62018 0.930269,-1.576289 0.310089,-0.95611 0.310089,-1.963901 0,-0.904428 -0.439293,-1.421244 -0.413453,-0.542657 -1.266199,-0.542657 -0.723543,0 -1.343722,0.387612 -0.620179,0.387612 -1.033632,0.95611 -0.387612,0.568497 -0.490975,1.162836 -0.05168,0.284249 -0.07752,0.594338 -0.02584,0.284249 -0.02584,0.568498 0,1.059473 0.490975,1.757174 0.490975,0.697702 1.369562,0.697702 z"
       style="font-style:italic;font-weight:bold;-inkscape-font-specification:'sans-serif Bold Italic'"
       id="path317" />
  </g>
  <g
     aria-label="5"
     id="text839"
     style="font-size:15.9569px;line-height:125%;letter-spacing:0px;word-spacing:0px;stroke-width:0.398922px">
    <path
       d="m 28.722357,37.010918 q -0.9255,0 -1.707388,-0.175526 -0.765931,-0.191483 -1.260595,-0.46275 v -2.090354 q 0.574448,0.319138 1.276552,0.542535 0.702103,0.223396 1.468035,0.223396 0.957414,0 1.515905,-0.303181 0.558492,-0.319138 0.797845,-0.781888 0.239354,-0.478707 0.239354,-0.973371 0,-0.606362 -0.382966,-1.037198 -0.367009,-0.430837 -1.356337,-0.430837 -0.478707,0 -0.9255,0.09574 -0.446793,0.07978 -0.734017,0.159569 l -0.813802,-0.606362 1.611647,-5.71257 h 5.888096 l -0.430836,2.042483 h -3.813699 l -0.686147,2.281836 q 0.191483,-0.03191 0.430836,-0.06383 0.255311,-0.04787 0.558492,-0.04787 0.861672,0 1.563776,0.335095 0.702103,0.319138 1.101026,0.989328 0.414879,0.670189 0.414879,1.707388 0,1.180811 -0.510621,2.170138 -0.494663,0.973371 -1.547819,1.563776 -1.037198,0.574449 -2.696716,0.574449 z"
       style="font-style:italic;font-weight:bold;-inkscape-font-specification:'sans-serif Bold Italic'"
       id="path320" />
  </g>
  <rect
     style="opacity:1;fill:none;fill-opacity:0.99206346;fill-rule:evenodd;stroke:#a1a39f;stroke-width:2.4059999;stroke-linecap:round;stroke-linejoin:miter;stroke-miterlimit:4;stroke-dasharray:none;stroke-dashoffset:0;stroke-opacity:1"
     id="rect1048"
     width="35.916023"
     height="32.157372"
     x="6.6369333"
     y="8.586607" />
  <path
     style="fill:none;fill-rule:evenodd;stroke:#a1a39f;stroke-width:2;stroke-linecap:butt;stroke-linejoin:miter;stroke-miterlimit:4;stroke-dasharray:none;stroke-opacity:1"
     d="m 42.552956,40.74398 h 5.441915 z"
     id="path1050"
     inkscape:connector-curvature="0"
     sodipodi:nodetypes="ccc" />
  <path
     style="fill:none;fill-rule:evenodd;stroke:#a1a39f;stroke-width:2;stroke-linecap:butt;stroke-linejoin:miter;stroke-miterlimit:4;stroke-dasharray:none;stroke-opacity:1"
     d="m 42.552956,40.74398 0,7.609573"
     id="path1052"
     inkscape:connector-curvature="0"
     sodipodi:nodetypes="cc" />
  <path
     style="fill:none;fill-rule:evenodd;stroke:#a1a39f;stroke-width:2;stroke-linecap:butt;stroke-linejoin:miter;stroke-miterlimit:4;stroke-dasharray:none;stroke-opacity:1"
     d="m 6.6369335,48.088388 0,-7.344408 H -3.0948605e-8"
     id="path1054"
     inkscape:connector-curvature="0"
     sodipodi:nodetypes="ccc" />
  <path
     style="fill:none;fill-rule:evenodd;stroke:#a1a39f;stroke-width:2;stroke-linecap:butt;stroke-linejoin:miter;stroke-miterlimit:4;stroke-dasharray:none;stroke-opacity:1"
     d="M 48.171648,8.6749949 42.552956,8.5866066 42.376179,0.09351769"
     id="path1056"
     inkscape:connector-curvature="0"
     sodipodi:nodetypes="ccc" />
  <path
     style="fill:none;fill-rule:evenodd;stroke:#a1a39f;stroke-width:2;stroke-linecap:butt;stroke-linejoin:miter;stroke-miterlimit:4;stroke-dasharray:none;stroke-opacity:1"
     d="M 6.6369335,8.5866066 6.4601568,0.09351765"
     id="path1058"
     inkscape:connector-curvature="0"
     sodipodi:nodetypes="cc" />
  <path
     style="fill:none;fill-rule:evenodd;stroke:#a1a39f;stroke-width:2;stroke-linecap:butt;stroke-linejoin:miter;stroke-miterlimit:4;stroke-dasharray:none;stroke-opacity:1"
     d="M 6.6369335,8.5866066 H -3.0948605e-8"
     id="path1060"
     inkscape:connector-curvature="0"
     sodipodi:nodetypes="cc" />
</svg>
