<?xml version="1.0" encoding="UTF-8" standalone="no"?>
<!-- Created with Inkscape (http://www.inkscape.org/) -->

<svg
   xmlns:dc="http://purl.org/dc/elements/1.1/"
   xmlns:cc="http://creativecommons.org/ns#"
   xmlns:rdf="http://www.w3.org/1999/02/22-rdf-syntax-ns#"
   xmlns:svg="http://www.w3.org/2000/svg"
   xmlns="http://www.w3.org/2000/svg"
   xmlns:xlink="http://www.w3.org/1999/xlink"
   xmlns:sodipodi="http://sodipodi.sourceforge.net/DTD/sodipodi-0.dtd"
   xmlns:inkscape="http://www.inkscape.org/namespaces/inkscape"
   id="svg2696"
   height="64"
   width="64"
   version="1.0"
   inkscape:version="0.91 r13725"
   sodipodi:docname="network.svg">
  <metadata
     id="metadata135">
    <rdf:RDF>
      <cc:Work
         rdf:about="">
        <dc:format>image/svg+xml</dc:format>
        <dc:type
           rdf:resource="http://purl.org/dc/dcmitype/StillImage" />
      </cc:Work>
    </rdf:RDF>
  </metadata>
  <sodipodi:namedview
     pagecolor="#ffffff"
     bordercolor="#666666"
     borderopacity="1"
     objecttolerance="10"
     gridtolerance="10"
     guidetolerance="10"
     inkscape:pageopacity="0"
     inkscape:pageshadow="2"
     inkscape:window-width="1536"
     inkscape:window-height="987"
     id="namedview133"
     showgrid="false"
     inkscape:zoom="3.6875"
     inkscape:cx="-0.27118644"
     inkscape:cy="32"
     inkscape:window-x="44"
     inkscape:window-y="24"
     inkscape:window-maximized="0"
     inkscape:current-layer="svg2696" />
  <defs
     id="defs2698">
    <radialGradient
       id="radialGradient2788"
       gradientUnits="userSpaceOnUse"
       cy="5.0172"
       cx="3"
       gradientTransform="matrix(-1.7093859e-8,2.280019,-2.8951894,-1.9418e-8,16.800997,2.289837)"
       r="21">
      <stop
         id="stop3486"
         style="stop-color:#bdbdbd"
         offset="0" />
      <stop
         id="stop3488"
         style="stop-color:#d0d0d0"
         offset="1" />
    </radialGradient>
    <linearGradient
       id="linearGradient2786"
       y2="16.19"
       gradientUnits="userSpaceOnUse"
       x2="62.989"
       gradientTransform="matrix(1.3408,0,0,1.33,-68.675003,-1.5099996)"
       y1="13.183"
       x1="62.989">
      <stop
         id="stop6406"
         style="stop-color:#f9f9f9"
         offset="0" />
      <stop
         id="stop6408"
         style="stop-color:#c9c9c9"
         offset="1" />
    </linearGradient>
    <radialGradient
       id="radialGradient7600-312"
       gradientUnits="userSpaceOnUse"
       cy="486.65"
       cx="605.71"
       gradientTransform="matrix(-0.03213,0,0,0.037059,23.363,25.412)"
       r="117.14">
      <stop
         id="stop2681"
         offset="0" />
      <stop
         id="stop2683"
         style="stop-opacity:0"
         offset="1" />
    </radialGradient>
    <radialGradient
       id="radialGradient7598-526"
       gradientUnits="userSpaceOnUse"
       cy="486.65"
       cx="605.71"
       gradientTransform="matrix(0.03213,0,0,0.037059,25.337,25.412)"
       r="117.14">
      <stop
         id="stop2675"
         offset="0" />
      <stop
         id="stop2677"
         style="stop-opacity:0"
         offset="1" />
    </radialGradient>
    <linearGradient
       id="linearGradient7596-975"
       y2="609.51"
       gradientUnits="userSpaceOnUse"
       x2="302.86"
       gradientTransform="matrix(0.084291,0,0,0.037059,-6.1149,25.412)"
       y1="366.65"
       x1="302.86">
      <stop
         id="stop2667"
         style="stop-opacity:0"
         offset="0" />
      <stop
         id="stop2669"
         offset=".5" />
      <stop
         id="stop2671"
         style="stop-opacity:0"
         offset="1" />
    </linearGradient>
    <linearGradient
       id="linearGradient2779"
       y2="15.944"
       gradientUnits="userSpaceOnUse"
       x2="65.34"
       gradientTransform="matrix(1.3408,0,0,1.3264622,-72.464104,-1.6032193)"
       y1="45.114"
       x1="82.453">
      <stop
         id="stop3624-5"
         style="stop-color:#bb2b12"
         offset="0" />
      <stop
         id="stop3626-7"
         style="stop-color:#cd7233"
         offset="1" />
    </linearGradient>
    <radialGradient
       id="radialGradient2777"
       gradientUnits="userSpaceOnUse"
       cy="14.113"
       cx="63.969"
       gradientTransform="matrix(2.0979498,-1.262037e-7,8.2826579e-8,1.347556,-115.97038,9.353733)"
       r="23.097">
      <stop
         id="stop3618-2"
         style="stop-color:#edb763"
         offset="0" />
      <stop
         id="stop3270"
         style="stop-color:#de7f32"
         offset=".5" />
      <stop
         id="stop3620-1"
         style="stop-color:#d24413"
         offset="1" />
    </radialGradient>
    <linearGradient
       id="linearGradient2774"
       y2="36.658"
       gradientUnits="userSpaceOnUse"
       x2="22.809"
       gradientTransform="matrix(1.5348138,0,0,1.3270075,-5.0206569,-0.048569)"
       y1="49.629"
       x1="22.935">
      <stop
         id="stop2661"
         style="stop-color:#0a0a0a;stop-opacity:.498"
         offset="0" />
      <stop
         id="stop2663"
         style="stop-color:#0a0a0a;stop-opacity:0"
         offset="1" />
    </linearGradient>
    <radialGradient
       id="radialGradient2771"
       gradientUnits="userSpaceOnUse"
       cy="8.3021"
       cx="7.2647"
       gradientTransform="matrix(0,2.532528,-3.473717,0,26.542208,-21.670468)"
       r="20.98">
      <stop
         id="stop2693"
         style="stop-color:#fff;stop-opacity:0.4"
         offset="0" />
      <stop
         id="stop2695"
         style="stop-color:#fff;stop-opacity:0"
         offset="1" />
    </radialGradient>
    <linearGradient
       id="linearGradient2768"
       y2="33.955"
       gradientUnits="userSpaceOnUse"
       x2="15.215"
       gradientTransform="matrix(1.3408,0,0,1.33,-0.37331,-1.3099809)"
       y1="22.292"
       x1="11.566">
      <stop
         id="stop2687"
         style="stop-color:#fff;stop-opacity:.27451"
         offset="0" />
      <stop
         id="stop2689"
         style="stop-color:#fff;stop-opacity:.078431"
         offset="1" />
    </linearGradient>
    <radialGradient
       id="radialGradient3041"
       gradientUnits="userSpaceOnUse"
       cy="34.786"
       cx="14.363"
       gradientTransform="matrix(1,0,0,0.68844,0,10.838)"
       r="8.7946">
      <stop
         id="stop7824"
         offset="0" />
      <stop
         id="stop7826"
         style="stop-opacity:0"
         offset="1" />
    </radialGradient>
    <linearGradient
       id="linearGradient3043"
       y2="-6.5684"
       gradientUnits="userSpaceOnUse"
       x2="-11.006"
       gradientTransform="matrix(1.1875,0,0,1.2,-17.281,21.9)"
       y1="25.357"
       x1="-7.9751">
      <stop
         id="stop6993"
         style="stop-color:#d3d7cf"
         offset="0" />
      <stop
         id="stop6995"
         style="stop-color:#fff"
         offset="1" />
    </linearGradient>
    <linearGradient
       id="linearGradient3045"
       y2="18.938"
       gradientUnits="userSpaceOnUse"
       x2="-5.5099"
       gradientTransform="matrix(-1.2384,0,0,1.2671,16.951,21.363)"
       y1="3.7546"
       x1="-7.8517">
      <stop
         id="stop7440"
         style="stop-color:#fff"
         offset="0" />
      <stop
         id="stop7442"
         style="stop-color:#fff;stop-opacity:0"
         offset="1" />
    </linearGradient>
    <linearGradient
       id="linearGradient3047"
       y2="54.416"
       gradientUnits="userSpaceOnUse"
       x2=".82207"
       gradientTransform="matrix(1.0512,0,0,1,0.11211,0)"
       y1="55.219"
       x1="1.6256">
      <stop
         id="stop7265"
         style="stop-color:#adb0a8"
         offset="0" />
      <stop
         id="stop7267"
         style="stop-color:#fff"
         offset="1" />
    </linearGradient>
    <linearGradient
       id="linearGradient3049"
       y2="54.708"
       xlink:href="#linearGradient7269"
       gradientUnits="userSpaceOnUse"
       x2="-4.2209"
       gradientTransform="matrix(0.96429,0,0,0.97222,-0.25,1.6944)"
       y1="59.879"
       x1="-4.2209" />
    <linearGradient
       id="linearGradient7269">
      <stop
         id="stop7271"
         style="stop-color:#fff"
         offset="0" />
      <stop
         id="stop7273"
         style="stop-color:#d3d7cf"
         offset="1" />
    </linearGradient>
    <linearGradient
       id="linearGradient3051"
       y2="54"
       gradientUnits="userSpaceOnUse"
       x2="-3.3588"
       gradientTransform="matrix(-0.52481,0,0,0.52481,-21.861,10)"
       y1="51.138"
       x1="-1.9887">
      <stop
         id="stop7259"
         offset="0" />
      <stop
         id="stop7261"
         style="stop-opacity:0"
         offset="1" />
    </linearGradient>
    <linearGradient
       id="linearGradient3053"
       y2="50.563"
       gradientUnits="userSpaceOnUse"
       x2=".88388"
       gradientTransform="matrix(-0.52481,0,0,0.52481,-21.861,10)"
       y1="52.64"
       x1="-4.6846">
      <stop
         id="stop7239"
         style="stop-color:#eeeeec"
         offset="0" />
      <stop
         id="stop7241"
         style="stop-color:#babdb6"
         offset="1" />
    </linearGradient>
    <linearGradient
       id="linearGradient3055"
       y2="49.458"
       gradientUnits="userSpaceOnUse"
       x2=".26517"
       gradientTransform="matrix(-0.52481,0,0,0.52481,-21.861,10)"
       y1="50.519"
       x1="-5.0823">
      <stop
         id="stop7247"
         style="stop-color:#eeeeec"
         offset="0" />
      <stop
         id="stop7249"
         style="stop-color:#fff"
         offset="1" />
    </linearGradient>
    <linearGradient
       id="linearGradient3057"
       y2="51.812"
       gradientUnits="userSpaceOnUse"
       x2="-5.9688"
       gradientTransform="matrix(-0.52481,0,0,0.52481,-21.861,10)"
       y1="52.875"
       x1="-5.9688">
      <stop
         id="stop7188"
         style="stop-color:#888a85"
         offset="0" />
      <stop
         id="stop7190"
         style="stop-color:#fff"
         offset="1" />
    </linearGradient>
    <linearGradient
       id="linearGradient3059"
       y2="59.445"
       gradientUnits="userSpaceOnUse"
       x2="-3.5355"
       gradientTransform="matrix(-0.52481,0,0,0.5398,-21.861,9.4006)"
       y1="55.867"
       x1="-3.5355">
      <stop
         id="stop7279"
         style="stop-color:#555753"
         offset="0" />
      <stop
         id="stop7281"
         style="stop-color:#d3d7cf"
         offset="1" />
    </linearGradient>
    <linearGradient
       id="linearGradient3061"
       y2="26.205"
       gradientUnits="userSpaceOnUse"
       x2="32.812"
       gradientTransform="matrix(-0.60402,0,0,0.6034,42.825,17.573)"
       y1="21"
       x1="32.812">
      <stop
         id="stop7342"
         style="stop-color:#2e3436"
         offset="0" />
      <stop
         id="stop7344"
         style="stop-color:#555753"
         offset="1" />
    </linearGradient>
    <linearGradient
       id="linearGradient3063"
       y2="16"
       gradientUnits="userSpaceOnUse"
       x2="29"
       gradientTransform="matrix(-0.52481,0,0,0.52481,39.675,19.379)"
       y1="29"
       x1="28.875">
      <stop
         id="stop7432"
         style="stop-color:#fff"
         offset="0" />
      <stop
         id="stop7434"
         style="stop-color:#fff;stop-opacity:0"
         offset="1" />
    </linearGradient>
    <linearGradient
       id="linearGradient3073"
       y2="24.688"
       xlink:href="#linearGradient7422"
       gradientUnits="userSpaceOnUse"
       x2="30.312"
       y1="27.313"
       x1="30.312" />
    <linearGradient
       id="linearGradient7422">
      <stop
         id="stop7424"
         style="stop-color:#edd400"
         offset="0" />
      <stop
         id="stop7426"
         style="stop-color:#edd400;stop-opacity:0"
         offset="1" />
    </linearGradient>
    <linearGradient
       id="linearGradient3065"
       y2="24.688"
       xlink:href="#linearGradient7422"
       gradientUnits="userSpaceOnUse"
       x2="30.312"
       gradientTransform="translate(-0.418,0.69761)"
       y1="27.313"
       x1="30.312" />
    <linearGradient
       id="linearGradient3067"
       y2="24.688"
       xlink:href="#linearGradient7422"
       gradientUnits="userSpaceOnUse"
       x2="30.312"
       gradientTransform="translate(0,0.69761)"
       y1="27.313"
       x1="30.312" />
    <linearGradient
       id="linearGradient3071"
       y2="24.688"
       xlink:href="#linearGradient7422"
       gradientUnits="userSpaceOnUse"
       x2="30.312"
       gradientTransform="translate(0.41828,0.69761)"
       y1="27.313"
       x1="30.312" />
    <linearGradient
       id="linearGradient3075"
       y2="45.062"
       gradientUnits="userSpaceOnUse"
       x2="38.875"
       gradientTransform="matrix(-0.52481,0,0,0.52481,-13.464,22.596)"
       y1="40.312"
       x1="37.625">
      <stop
         id="stop3225"
         style="stop-color:#dbdbdb"
         offset="0" />
      <stop
         id="stop3227"
         style="stop-color:#a0a0a0;stop-opacity:0"
         offset="1" />
    </linearGradient>
    <linearGradient
       id="linearGradient3077"
       y2="46.562"
       gradientUnits="userSpaceOnUse"
       x2="40.125"
       gradientTransform="matrix(-0.52481,0,0,0.52481,-13.464,22.596)"
       y1="40.625"
       x1="38.75">
      <stop
         id="stop3231"
         style="stop-color:#787878"
         offset="0" />
      <stop
         id="stop3233"
         style="stop-color:#6c6c6c;stop-opacity:0"
         offset="1" />
    </linearGradient>
    <linearGradient
       id="linearGradient3079"
       y2="42.938"
       gradientUnits="userSpaceOnUse"
       x2="42.124"
       gradientTransform="matrix(-0.52481,0,0,0.52481,-13.464,22.596)"
       y1="38.312"
       x1="41.188">
      <stop
         id="stop7662"
         style="stop-color:#fff"
         offset="0" />
      <stop
         id="stop7664"
         style="stop-color:#fff;stop-opacity:0"
         offset="1" />
    </linearGradient>
    <linearGradient
       id="linearGradient3081"
       y2="55"
       xlink:href="#linearGradient7269"
       gradientUnits="userSpaceOnUse"
       x2="-4.1098"
       gradientTransform="matrix(-0.59041,0,0,0.61227,-21.796,4.6812)"
       y1="58.808"
       x1="-4.1098" />
    <linearGradient
       id="linearGradient3115"
       y2="34.562"
       gradientUnits="userSpaceOnUse"
       x2="-7.7812"
       gradientTransform="matrix(-0.52481,0,0,0.52481,-23.96,22.596)"
       y1="32.438"
       x1="-6.4062">
      <stop
         id="stop7814"
         offset="0" />
      <stop
         id="stop7816"
         style="stop-opacity:0"
         offset="1" />
    </linearGradient>
    <linearGradient
       inkscape:collect="always"
       xlink:href="#linearGradient7422"
       id="linearGradient4273"
       gradientUnits="userSpaceOnUse"
       gradientTransform="translate(0,0.69761)"
       x1="30.312"
       y1="27.313"
       x2="30.312"
       y2="24.688" />
  </defs>
  <path
     inkscape:connector-curvature="0"
     d="m 69.513227,-2.3123533 -93.930391,0 c 0.511086,16.4478043 1.645552,34.2855643 2.468233,51.4283463"
     style="fill:none;stroke:url(#radialGradient2771);stroke-width:1.58421898;stroke-linecap:round;stroke-linejoin:round"
     id="path2435" />
  <g
     id="g2977"
     transform="matrix(2.1175862,0,0,2.0964635,88.506395,-40.67505)">
    <path
       id="path7013"
       style="fill:#ffffff;fill-rule:evenodd"
       d="m -16.088,28.893 -1.5744,0 -1.0496,0 1.5744,0 1.0496,0 z"
       inkscape:connector-curvature="0" />
    <path
       id="path7820"
       style="opacity:0.45896002;fill:url(#radialGradient3041);fill-rule:evenodd"
       d="m 23.158,34.786 a 8.7946,6.0546 0 1 1 -17.589,0 8.7946,6.0546 0 1 1 17.589,0 z"
       transform="matrix(-0.60667,0,0,0.5861,-12.683,19.545)"
       inkscape:connector-curvature="0" />
    <g
       id="g2540"
       transform="matrix(0.99239,0,0,1,-54.549,-0.45703)">
      <rect
         id="rect5925"
         style="fill:url(#linearGradient3043);fill-rule:evenodd;stroke:#999999;stroke-width:0.75187999;stroke-linecap:round;stroke-linejoin:round;stroke-dashoffset:0.69999999;stroke-opacity:0.99237001"
         transform="scale(-1,1)"
         rx="2.2851"
         ry="2.3001001"
         height="18"
         width="19"
         y="22.5"
         x="-34.5" />
      <path
         id="path6964"
         style="fill:none;stroke:url(#linearGradient3045);stroke-width:0.75345999;stroke-linecap:round;stroke-linejoin:round;stroke-dashoffset:0.69999999;stroke-opacity:0.99237001"
         d="m 32.431,23.263 c 0.70952,0 1.2384,0.54112 1.2384,1.2671 l 0,13.938 c 0,0.72599 -0.52884,1.2671 -1.2384,1.2671 l -14.86,0 c -0.70952,0 -1.2384,-0.54111 -1.2384,-1.2671 l 0,-13.938 c 0,-0.72599 0.52884,-1.2671 1.2384,-1.2671 l 14.86,0 z"
         inkscape:connector-curvature="0" />
    </g>
    <g
       id="g7162"
       transform="matrix(-0.61227,0,0,0.62977,-21.949,3.5977)">
      <path
         id="rect6100"
         style="fill:url(#linearGradient3047);fill-rule:evenodd"
         d="m -2.3516,51 c -0.21525,0 -0.40066,0.10124 -0.52559,0.25 l -4.2211,4 c -0.0368,0.1318 -0.10419,0.27134 -0.14782,0.40625 l 0,5.5208 c 0,0.36356 0.31169,0.65625 0.68984,0.65625 l 7.0298,0 c 0.18907,0 0.36937,-0.06888 0.49274,-0.1875 l 4.2047,-4 c 0.12337,-0.11862 0.1971,-0.28697 0.1971,-0.46875 l 0,-5.5208 c 0,-0.18178 -0.073723,-0.35013 -0.1971,-0.46875 -0.1252,-0.118 -0.3037,-0.187 -0.4927,-0.187 l -7.0298,0 z"
         inkscape:connector-curvature="0" />
      <path
         id="path6105"
         style="fill:url(#linearGradient3049);fill-rule:evenodd"
         d="m -6.3739,55.167 6.462,0 c 0.34688,0 0.62614,0.28456 0.62614,0.63802 l 0,5.3906 c 0,0.35346 -0.27926,0.63802 -0.62614,0.63802 l -6.462,0 C -6.7207,61.83264 -7,61.54864 -7,61.19464 l 0,-5.3906 c 0,-0.35346 0.27926,-0.63802 0.62614,-0.63802 z"
         inkscape:connector-curvature="0" />
    </g>
    <path
       id="path7253"
       style="opacity:0.12312999;fill:url(#linearGradient3051);fill-rule:evenodd"
       d="m -21.336,35.716 2.624,2.624 -2.0992,0 -2.624,-2.624 2.0992,0"
       inkscape:connector-curvature="0" />
    <path
       id="path6126"
       style="fill:#babdb6;fill-rule:evenodd"
       d="m -23.436,35.716 4.9857,2.0992 -1.8368,0 -2.624,-1.5744 -0.5248,-0.5248"
       inkscape:connector-curvature="0" />
    <path
       id="path7235"
       style="opacity:0.53357999;fill:none;stroke:#ffffff;stroke-width:0.75187999;stroke-linecap:round;stroke-linejoin:round;stroke-dashoffset:0.69999999"
       d="m -20.516,35.978 c 0.01251,0 0.02866,0.0034 0.082,0.0656 0.01575,0.01188 0.03218,0.02283 0.0492,0.0328 0.01043,0.01143 0.02137,0.02237 0.0328,0.0328 0.01043,0.01143 0.02137,0.02237 0.0328,0.0328 l 0.0164,0 c 0.01043,0.01143 0.02137,0.02237 0.0328,0.0328 l 0.0984,0.0984 c 0.05607,0.05266 0.12336,0.09192 0.1968,0.1148 l 2.2304,0.63961 c 0.21018,0.10935 0.28026,0.18333 0.3116,0.246 4.66e-4,9.32e-4 -0.01785,0.07062 0,0.0492 -0.04295,0.05154 -0.18913,0.13238 -0.4428,0.1804 -0.17838,0.03614 -0.32384,0.16488 -0.38139,0.33754 -0.05756,0.17267 -0.01843,0.36292 0.10259,0.49887 l 0.1804,0.1968 c 0.0104,0.04595 0.02826,0.08926 0.0492,0.164 0.0039,0.01396 -0.0043,0.01849 0,0.0328 l 0,3.4112 c 0,0.02844 -1.98e-4,0.06064 -0.0328,0.0984 -0.01653,0.01914 -0.05419,0.0328 -0.082,0.0328 l -4.1164,0 c -0.04858,0 -0.0884,-0.0054 -0.1148,-0.0328 8.9e-5,-0.0055 8.9e-5,-0.01093 0,-0.0164 l -2.4436,-2.5256 c -0.02739,-0.02847 -0.0328,-0.04154 -0.0328,-0.0984 l 0,-3.4768 c 0,-0.05686 0.0054,-0.08633 0.0328,-0.1148 0.01933,-0.0198 0.08133,-0.0328 0.0984,-0.0328 l 4.1,0 z"
       inkscape:connector-curvature="0" />
    <path
       id="path7229"
       style="fill:none;stroke:#787878;stroke-width:0.75187999;stroke-linecap:round;stroke-linejoin:round;stroke-dashoffset:0.69999999"
       d="m -20.562,35.479 c 0.21406,0 0.38186,0.11437 0.50031,0.24539 l 0.01724,-0.01634 0.01724,0.03274 0.18977,0.16359 2.3463,0.63801 c 0.01783,0.0037 0.03516,0.0092 0.05177,0.01634 0.30304,0.14368 0.49798,0.29004 0.60382,0.49078 0.10584,0.20073 0.06433,0.45357 -0.06902,0.60529 -0.18112,0.2061 -0.47346,0.28917 -0.77635,0.34354 l 0.22428,0.22903 c 0.03108,0.02692 0.05476,0.0606 0.06902,0.09816 0.01729,0.06352 0.0386,0.16532 0.06902,0.26175 0.0091,0.02095 0.0147,0.04296 0.01724,0.06542 l 0,3.4845 c 0,0.15646 -0.06249,0.3045 -0.17252,0.42534 -0.11001,0.12084 -0.28203,0.21267 -0.48306,0.21267 l -4.3303,0 c -0.17867,0 -0.36265,-0.0606 -0.50031,-0.19631 l -2.5706,-2.5193 c -0.1247,-0.12292 -0.18977,-0.2825 -0.18977,-0.45806 l 0,-3.4682 c 0,-0.17556 0.06507,-0.33514 0.18977,-0.45806 0.12347,-0.11994 0.30439,-0.19631 0.48306,-0.19631 l 4.313,0 z"
       inkscape:connector-curvature="0" />
    <path
       id="path7184"
       style="fill:url(#linearGradient3053);fill-rule:evenodd"
       d="m -23.436,35.716 5.7729,1.312 -1.0496,0.78721 -1.5744,0 -2.624,-1.5744 -0.5248,-0.5248"
       inkscape:connector-curvature="0" />
    <path
       id="path7171"
       style="fill:url(#linearGradient3055);fill-rule:evenodd"
       d="m -21.336,35.716 3.6736,1.0496 -2.0992,0 -3.6736,-1.0496 2.0992,0"
       inkscape:connector-curvature="0" />
    <path
       id="rect7173"
       style="fill:url(#linearGradient3057);fill-rule:evenodd"
       d="m -17.663,36.765 -1.9487,0 -0.15053,0 c 1.0496,0.52481 0.2624,1.0496 -0.52481,1.0496 l 2.0992,0 c 0.78721,0 1.5744,-0.5248 0.5248,-1.0496 z"
       inkscape:connector-curvature="0" />
    <path
       id="path7275"
       style="fill:url(#linearGradient3059);fill-rule:evenodd"
       d="m -18.925,39.389 -2.1981,0 c -0.11799,0 -0.21298,0.1024 -0.21298,0.2296 l 0,1.64 c 0,0.1272 0.09499,0.2296 0.21298,0.2296 l 2.1981,0 c 0.11799,0 0.21298,-0.1024 0.21298,-0.2296 l 0,-1.64 c 0,-0.1272 -0.09499,-0.2296 -0.21298,-0.2296 z"
       inkscape:connector-curvature="0" />
    <g
       id="g2531"
       transform="translate(-54.665,-0.45703)">
      <path
         id="rect7327"
         style="fill:url(#linearGradient3061);fill-rule:evenodd"
         d="m 25.573,28.132 c 0.35493,0 0.64177,0.28655 0.64177,0.64111 l 0,0.15985 c 0,0.16286 0.12736,0.3017 0.30201,0.3017 l 0.86828,0 c 0.35493,0 0.64177,0.39069 0.64177,0.74525 l 0,3.5797 c 0,0.35456 -0.28685,0.64111 -0.64177,0.64111 l -4.7567,0 c -0.35493,0 -0.64177,-0.28655 -0.64177,-0.64111 l 0,-3.5797 c 0,-0.35456 0.28684,-0.74525 0.64177,-0.74525 l 0.86828,0 c 0.1454,0.0098 0.30201,-0.10347 0.30201,-0.29227 l 0,-0.16927 c 0,-0.35456 0.28685,-0.64111 0.64177,-0.64111 l 1.1325,0 z"
         inkscape:connector-curvature="0" />
      <path
         id="path2709"
         style="fill:none;stroke:url(#linearGradient3063);stroke-width:0.73174;stroke-linecap:round;stroke-dashoffset:0.69999999"
         d="m 23.688,27.781 c -0.62654,0 -1.0852,0.48426 -1.2188,1.0625 l -0.34375,0 c -0.72412,0 -1.3438,0.58092 -1.3438,1.3125 l 0,3.0938 c 0,0.73158 0.61217,1.3438 1.3438,1.3438 l 4.125,0 c 0.73158,0 1.3437,-0.61217 1.3438,-1.3438 l 0,-3.0938 c 0,-0.73158 -0.61962,-1.3125 -1.3438,-1.3125 l -0.3125,0 c -0.13932,-0.5824 -0.62346,-1.0625 -1.25,-1.0625 l -1,0 z"
         transform="matrix(1.0275,0,0,1.0275,0.14679,-1.0459)"
         inkscape:connector-curvature="0" />
      <g
         id="g7393"
         style="stroke:url(#linearGradient3073);stroke-width:1.85440004"
         transform="matrix(-0.53925,0,0,0.53925,40.914,18.327)">
        <path
           id="path7352"
           style="fill:none;stroke:url(#linearGradient3065);stroke-width:1.39429998;stroke-linecap:round"
           d="m 26.082,27.198 0,-2"
           inkscape:connector-curvature="0" />
        <path
           id="path7362"
           style="fill:none;stroke:url(#linearGradient4273);stroke-width:1.39429998;stroke-linecap:round"
           d="m 28.5,27.198 0,-2"
           inkscape:connector-curvature="0" />
        <path
           id="path7364"
           style="fill:none;stroke:url(#linearGradient3067);stroke-width:1.39429998;stroke-linecap:round"
           d="m 30.5,27.198 0,-2"
           inkscape:connector-curvature="0" />
        <path
           id="path7366"
           style="fill:none;stroke:url(#linearGradient3071);stroke-width:1.39429998;stroke-linecap:round"
           d="m 32.918,27.198 0,-2"
           inkscape:connector-curvature="0" />
      </g>
    </g>
    <path
       id="path7506"
       style="fill:url(#linearGradient3075);fill-rule:evenodd;stroke:url(#linearGradient3077);stroke-width:0.5;stroke-linejoin:round"
       d="m -21.172,38.635 c 0,0 2.1986,1.7149 4.2476,3.4112 1.0245,0.84817 1.9408,1.6904 2.4764,2.5092 0.26783,0.4094 0.51804,0.85188 0.3444,1.4596 -0.08682,0.30387 -0.32086,0.58842 -0.57401,0.73801 -0.25315,0.14959 -0.50284,0.21319 -0.78721,0.246 -1.1146,0.12861 -2.4828,-0.20656 -4.1164,-0.67241 -1.6336,-0.46585 -3.5001,-1.0928 -5.3793,-1.7056 -1.8792,-0.61278 -3.7767,-1.2102 -5.4285,-1.5744 -1.6518,-0.36418 -3.0623,-0.46444 -3.8704,-0.2624 -0.38255,0.09564 -0.39127,0.15787 -0.3936,0.164 -0.0023,0.0061 -0.03389,0.17604 0.1148,0.492 0.29738,0.63194 1.1975,1.6154 2.1976,2.5912 1.4919,1.4556 1.9071,1.8254 1.9071,1.8254 l -2.2855,0.18557 c 0,0 -0.27598,-0.29638 -0.70409,-0.86292 -0.89239,-1.1809 -2.0358,-2.0424 -2.5256,-3.0832 -0.24491,-0.52044 -0.40767,-1.109 -0.1804,-1.7056 0.22727,-0.59658 0.80895,-0.98125 1.476,-1.148 1.2911,-0.32277 2.8572,-0.10732 4.6084,0.2788 1.7513,0.38612 3.6832,0.97359 5.5761,1.5908 1.8928,0.61723 3.741,1.2572 5.3137,1.7056 1.5284,0.43585 2.7804,0.64031 3.3948,0.59041 -0.32534,-0.49731 -1.2049,-1.3402 -2.1812,-2.1484 -1.9526,-1.6165 -4.182,-3.3456 -4.182,-3.3456 l 0.95121,-1.2792 z"
       inkscape:connector-curvature="0" />
    <path
       id="path7502"
       style="opacity:0.6;fill:none;stroke:url(#linearGradient3079);stroke-width:0.5"
       d="m -21.689,39.006 c 0,0 9.6761,6.6585 6.2649,7.0521 -3.4112,0.3936 -14.695,-5.2481 -18.893,-4.1984 -4.1984,1.0496 6.2977,8.3969 6.2977,8.3969"
       inkscape:connector-curvature="0" />
    <path
       id="path7512"
       style="fill:url(#linearGradient3081);fill-rule:evenodd"
       d="m -18.759,38.356 -0.16662,1.0496 -2.1976,0 c -0.11799,0 -0.2132,0.1024 -0.2132,0.2296 l 0,1.64 -1.0496,-0.164 0,-2.3452 c 0,-0.2226 0.16482,-0.41 0.3772,-0.41 l 3.2498,0 z"
       inkscape:connector-curvature="0" />
    <path
       id="path7810"
       style="opacity:0.35448004;fill:url(#linearGradient3115);fill-rule:evenodd"
       d="m -18.925,39.389 -2.1981,0 c -0.11799,0 -0.21298,0.1024 -0.21298,0.2296 l 0,1.64 c 0,0.1272 0.09499,0.2296 0.21298,0.2296 l 2.1981,0 c 0.11799,0 0.21298,-0.1024 0.21298,-0.2296 l 0,-1.64 c 0,-0.1272 -0.09499,-0.2296 -0.21298,-0.2296 z"
       inkscape:connector-curvature="0" />
  </g>
</svg>
