<?xml version="1.0" encoding="UTF-8" standalone="no"?>
<!-- Created with Inkscape (http://www.inkscape.org/) -->

<svg
   xmlns:dc="http://purl.org/dc/elements/1.1/"
   xmlns:cc="http://creativecommons.org/ns#"
   xmlns:rdf="http://www.w3.org/1999/02/22-rdf-syntax-ns#"
   xmlns:svg="http://www.w3.org/2000/svg"
   xmlns="http://www.w3.org/2000/svg"
   xmlns:xlink="http://www.w3.org/1999/xlink"
   xmlns:sodipodi="http://sodipodi.sourceforge.net/DTD/sodipodi-0.dtd"
   xmlns:inkscape="http://www.inkscape.org/namespaces/inkscape"
   id="svg3710"
   height="48"
   width="48"
   version="1.1"
   inkscape:version="0.91 r13725"
   sodipodi:docname="next.svg">
  <metadata
     id="metadata23">
    <rdf:RDF>
      <cc:Work
         rdf:about="">
        <dc:format>image/svg+xml</dc:format>
        <dc:type
           rdf:resource="http://purl.org/dc/dcmitype/StillImage" />
      </cc:Work>
    </rdf:RDF>
  </metadata>
  <sodipodi:namedview
     pagecolor="#ffffff"
     bordercolor="#666666"
     borderopacity="1"
     objecttolerance="10"
     gridtolerance="10"
     guidetolerance="10"
     inkscape:pageopacity="0"
     inkscape:pageshadow="2"
     inkscape:window-width="1186"
     inkscape:window-height="692"
     id="namedview21"
     showgrid="false"
     inkscape:zoom="4.9166667"
     inkscape:cx="-0.20338983"
     inkscape:cy="24"
     inkscape:window-x="40"
     inkscape:window-y="24"
     inkscape:window-maximized="0"
     inkscape:current-layer="svg3710" />
  <defs
     id="defs3712">
    <linearGradient
       id="linearGradient2888"
       y2="41.87"
       gradientUnits="userSpaceOnUse"
       x2="28.622"
       gradientTransform="matrix(1.3107 0 0 1.2884 -8.8539 -9.8895)"
       y1="10.042"
       x1="28.622">
      <stop
         id="stop4224"
         style="stop-color:#fff"
         offset="0" />
      <stop
         id="stop4226"
         style="stop-color:#fff;stop-opacity:0"
         offset="1" />
    </linearGradient>
    <linearGradient
       id="linearGradient2891"
       y2="44.051"
       gradientUnits="userSpaceOnUse"
       x2="22.182"
       gradientTransform="matrix(-1.1301 0 0 1.1161 49.537 -3.1095)"
       y1="14.5"
       x1="22.182">
      <stop
         id="stop3618"
         style="stop-color:#f0c178"
         offset="0" />
      <stop
         id="stop3270"
         style="stop-color:#e18941"
         offset=".5" />
      <stop
         id="stop3620"
         style="stop-color:#ec4f18"
         offset="1" />
    </linearGradient>
    <linearGradient
       id="linearGradient3674"
       y2="1.0474"
       gradientUnits="userSpaceOnUse"
       x2="16.632"
       y1="46.054"
       x1="16.632">
      <stop
         id="stop3624"
         style="stop-color:#bb2b12"
         offset="0" />
      <stop
         id="stop3626"
         style="stop-color:#cd7233"
         offset="1" />
    </linearGradient>
    <radialGradient
       id="radialGradient3708"
       gradientUnits="userSpaceOnUse"
       cy="19.031"
       cx="11.25"
       gradientTransform="matrix(2.9695 0 0 .81662 -9.4362 25.375)"
       r="8.0625">
      <stop
         id="stop2487"
         style="stop-color:#0d0d0d"
         offset="0" />
      <stop
         id="stop2489"
         style="stop-color:#0d0d0d;stop-opacity:0"
         offset="1" />
    </radialGradient>
    <radialGradient
       cx="15.601279"
       cy="12.142302"
       r="43.526714"
       fx="15.601279"
       fy="12.142302"
       id="radialGradient4132"
       xlink:href="#linearGradient4350"
       gradientUnits="userSpaceOnUse"
       gradientTransform="matrix(0.53384174,0,0,0.53385298,23.548372,21.575402)" />
    <linearGradient
       id="linearGradient4350">
      <stop
         id="stop4352"
         style="stop-color:#ffffff;stop-opacity:1"
         offset="0" />
      <stop
         id="stop4354"
         style="stop-color:#ffffff;stop-opacity:0"
         offset="1" />
    </linearGradient>
    <radialGradient
       cx="18.247644"
       cy="15.716079"
       r="29.993349"
       fx="18.247644"
       fy="15.716079"
       id="radialGradient3968-8"
       xlink:href="#linearGradient3962"
       gradientUnits="userSpaceOnUse"
       gradientTransform="matrix(0.53384174,0,0,0.53385298,23.548372,21.575402)" />
    <linearGradient
       id="linearGradient3962">
      <stop
         id="stop3964"
         style="stop-color:#d3e9ff;stop-opacity:1"
         offset="0" />
      <stop
         id="stop4134"
         style="stop-color:#d3e9ff;stop-opacity:1"
         offset="0.15517241" />
      <stop
         id="stop4346"
         style="stop-color:#4074ae;stop-opacity:1"
         offset="0.75" />
      <stop
         id="stop3966"
         style="stop-color:#36486c;stop-opacity:1"
         offset="1" />
    </linearGradient>
    <radialGradient
       cx="15.115514"
       cy="63.965389"
       r="12.289036"
       fx="15.115514"
       fy="63.965389"
       id="radialGradient4120"
       xlink:href="#linearGradient5060"
       gradientUnits="userSpaceOnUse"
       gradientTransform="matrix(0.87764018,0,0,0.40371322,23.548371,16.091505)" />
    <linearGradient
       id="linearGradient5060">
      <stop
         id="stop5062"
         offset="0" />
      <stop
         id="stop5064"
         style="stop-opacity:0"
         offset="1" />
    </linearGradient>
    <radialGradient
       id="radialGradient2453"
       xlink:href="#linearGradient5060"
       gradientUnits="userSpaceOnUse"
       cy="486.64999"
       cx="605.71002"
       gradientTransform="matrix(0.01906091,0,0,0.01216125,31.400023,39.15944)"
       r="117.14" />
  </defs>
  <g
     id="layer1">
    <path
       id="path2621"
       style="opacity:.16292;fill:url(#radialGradient3708)"
       d="m47.913 40.916a23.942 6.584 0 0 1 -47.883 0 23.942 6.584 0 1 1 47.883 0z" />
    <path
       id="path2624"
       style="stroke-linejoin:round;stroke:url(#linearGradient3674);stroke-linecap:round;stroke-width:1.0055;fill:url(#linearGradient2891)"
       d="m21.471 1.5572 25.997 22.053-25.997 21.942v-10.997h-19.997v-22h19.997v-10.997z" />
    <path
       id="path2626"
       style="opacity:.4;stroke-linejoin:round;stroke:url(#linearGradient2888);stroke-width:1.0055;fill:none"
       d="m22.471 3.5544 23.5 20.081-23.5 19.919v-10h-20v-20h20v-10z" />
  </g>
  <path
     inkscape:connector-curvature="0"
     id="path2883"
     style="opacity:0.3;fill:url(#radialGradient2453)"
     d="m 42.887034,43.618568 0,2.953449 c 0.982001,0.0058 2.373514,-0.661838 2.373514,-1.476725 0,-0.815714 -1.09617,-1.476724 -2.373514,-1.476724 z" />
  <path
     inkscape:connector-curvature="0"
     style="fill:url(#radialGradient4120);fill-opacity:1;stroke:none;stroke-opacity:1"
     id="path4112"
     d="m 47.599705,41.915189 a 10.785351,4.9612484 0 1 1 -21.570701,0 10.785351,4.9612484 0 1 1 21.570701,0 z" />
  <path
     inkscape:connector-curvature="0"
     style="fill:url(#radialGradient3968-8);fill-opacity:1;fill-rule:nonzero;stroke:#39396c;stroke-width:0.53384763;stroke-miterlimit:4;stroke-opacity:1"
     id="path3214-0"
     d="m 47.016238,34.11308 c 0,5.717359 -4.634921,10.352225 -10.351492,10.352225 -5.717095,0 -10.351754,-4.634919 -10.351754,-10.352225 0,-5.717096 4.634659,-10.351491 10.351754,-10.351491 5.716571,0 10.351492,4.634395 10.351492,10.351491 l 0,0 z" />
  <g
     style="fill:#000000;fill-opacity:0.71344999;fill-rule:nonzero;stroke:none;stroke-miterlimit:4"
     id="g4136"
     transform="matrix(0.52443644,0,0,0.52443644,23.613008,21.699744)">
    <g
       id="g4138">
      <g
         id="g4142">
        <path
           inkscape:connector-curvature="0"
           id="path4144"
           d="m 44.0713,20.7144 c 0,0.2627 0,0 0,0 l -0.5449,0.6172 c -0.334,-0.3936 -0.709,-0.7246 -1.0898,-1.0703 l -0.8359,0.123 -0.7637,-0.8633 0,1.0684 0.6543,0.4951 0.4355,0.4932 0.582,-0.6582 c 0.1465,0.2744 0.291,0.5488 0.4365,0.8232 l 0,0.8223 -0.6553,0.7402 -1.1992,0.8232 -0.9082,0.9063 -0.582,-0.6602 0.291,-0.7402 -0.5811,-0.6582 -0.9814,-2.0977 -0.8359,-0.9453 -0.2188,0.2461 0.3281,1.1934 0.6172,0.6992 c 0.3525,1.0176 0.7012,1.9902 1.1641,2.9629 0.7178,0 1.3945,-0.0762 2.1074,-0.166 l 0,0.5762 -0.8721,2.1392 -0.7998,0.9043 -0.6543,1.4004 c 0,0.7676 0,1.5352 0,2.3027 l 0.2188,0.9063 -0.3633,0.4102 -0.8008,0.4941 -0.8359,0.6992 0.6914,0.7813 -0.9453,0.8242 0.1816,0.5332 -1.418,1.6055 -0.9443,0 -0.7998,0.4941 -0.5098,0 0,-0.6582 -0.2168,-1.3184 c -0.2813,-0.8262 -0.5742,-1.6465 -0.8721,-2.4668 0,-0.6055 0.0361,-1.2051 0.0723,-1.8105 l 0.3643,-0.8223 -0.5098,-0.9883 0.0371,-1.3574 -0.6914,-0.7813 0.3457,-1.1309 -0.5625,-0.6382 -0.9824,0 -0.3271,-0.3701 -0.9814,0.6177 -0.3994,-0.4536 -0.9092,0.7817 c -0.6172,-0.6997 -1.2354,-1.3989 -1.8535,-2.0981 l -0.7266,-1.7285 0.6543,-0.9863 -0.3633,-0.4111 0.7988,-1.8936 c 0.6563,-0.8164 1.3418,-1.5996 2.0352,-2.3857 l 1.2363,-0.3291 1.3809,-0.1641 0.9453,0.2471 1.3447,1.3564 0.4727,-0.5342 0.6533,-0.082 1.2363,0.4111 0.9453,0 0.6543,-0.5762 0.291,-0.4111 -0.6553,-0.4111 -1.0908,-0.082 c -0.3027,-0.4199 -0.584,-0.8613 -0.9434,-1.2344 l -0.3643,0.1641 -0.1455,1.0703 -0.6543,-0.7402 -0.1445,-0.8242 -0.7266,-0.5742 -0.292,0 0.7275,0.8223 -0.291,0.7402 -0.5811,0.1641 0.3633,-0.7402 -0.6553,-0.3281 -0.5801,-0.6582 -1.0918,0.2461 -0.1445,0.3281 -0.6543,0.4121 -0.3633,0.9053 -0.9082,0.4521 -0.4004,-0.4521 -0.4355,0 0,-1.4814 0.9453,-0.4941 0.7266,0 -0.1465,-0.5752 -0.5801,-0.5762 0.9805,-0.2061 0.5449,-0.6162 0.4355,-0.7412 0.8008,0 -0.2188,-0.5752 0.5098,-0.3291 0,0.6582 1.0898,0.2461 1.0898,-0.9043 0.0732,-0.4121 0.9443,-0.6577 c -0.3418,0.0425 -0.6836,0.0737 -1.0176,0.1646 l 0,-0.7411 0.3633,-0.8228 -0.3633,0 -0.7984,0.7402 -0.2188,0.4116 0.2188,0.5767 -0.3643,0.9863 -0.5811,-0.3291 -0.5078,-0.5752 -0.8008,0.5752 -0.291,-1.3159 1.3809,-0.9048 0,-0.4941 0.873,-0.5757 1.3809,-0.3296 0.9453,0.3296 1.7441,0.3291 -0.4355,0.4932 -0.9453,0 0.9453,0.9873 0.7266,-0.8223 0.2207,-0.3618 c 0,0 2.7871,2.498 4.3799,5.2305 1.5928,2.7334 2.3408,5.9551 2.3408,6.6094 z" />
      </g>
    </g>
    <g
       id="g4146">
      <g
         id="g4150">
        <path
           inkscape:connector-curvature="0"
           id="path4152"
           d="m 26.0703,9.2363 -0.0732,0.4932 0.5098,0.3291 0.8711,-0.5757 -0.4355,-0.4937 -0.582,0.3296 -0.29,-0.0825" />
      </g>
    </g>
    <g
       id="g4154">
      <g
         id="g4158">
        <path
           inkscape:connector-curvature="0"
           id="path4160-4"
           d="m 26.8701,5.8633 -1.8906,-0.7407 -2.1797,0.2466 -2.6904,0.7402 -0.5088,0.4941 1.6719,1.1514 0,0.6582 -0.6543,0.6582 0.873,1.729 0.5801,-0.3301 0.7285,-1.1514 c 1.123,-0.3472 2.1299,-0.7407 3.1973,-1.2344 l 0.873,-2.2212" />
      </g>
    </g>
    <g
       id="g4162">
      <g
         id="g4166">
        <path
           inkscape:connector-curvature="0"
           id="path4168"
           d="m 28.833,12.7749 -0.291,-0.7412 -0.5098,0.165 0.1465,0.9043 0.6543,-0.3281" />
      </g>
    </g>
    <g
       id="g4170">
      <g
         id="g4174">
        <path
           inkscape:connector-curvature="0"
           id="path4176"
           d="m 29.123,12.6089 -0.1455,0.9883 0.7998,-0.165 0.5811,-0.5752 -0.5088,-0.4941 C 29.6787,11.9078 29.4824,11.483 29.2685,11.0465 l -0.4355,0 0,0.4932 0.29,0.3291 0,0.7402" />
      </g>
    </g>
    <g
       id="g4178">
      <g
         id="g4182">
        <path
           inkscape:connector-curvature="0"
           id="path4184"
           d="m 18.3652,28.2422 -0.582,-1.1523 -1.0903,-0.2466 -0.5815,-1.5625 -1.4536,0.1641 -1.2354,-0.9043 -1.3091,1.1514 0,0.1816 c -0.396,-0.1143 -0.8828,-0.1299 -1.2354,-0.3467 l -0.291,-0.8223 0,-0.9053 -0.8721,0.082 c 0.0728,-0.5762 0.145,-1.1514 0.2183,-1.7275 l -0.5093,0 -0.5083,0.6582 -0.5093,0.2461 -0.7271,-0.4102 -0.0728,-0.9053 0.1455,-0.9873 1.0908,-0.8223 0.8721,0 0.145,-0.4941 1.0903,0.2461 0.7998,0.9883 0.1455,-1.6465 1.3813,-1.1514 0.5088,-1.2344 1.0176,-0.4111 0.5815,-0.8223 1.3081,-0.248 0.6548,-0.9863 c -0.6543,0 -1.3086,0 -1.9629,0 l 1.2358,-0.5762 0.8716,0 1.2363,-0.4121 0.1455,-0.4922 -0.4365,-0.4121 -0.5088,-0.165 0.1455,-0.4932 -0.3633,-0.7402 -0.8726,0.3281 0.1455,-0.6577 -1.0176,-0.5762 -0.7993,1.3979 0.0723,0.4941 -0.7993,0.3301 -0.5093,1.0693 -0.2178,-0.9873 -1.3813,-0.5762 -0.2183,-0.7402 1.8174,-1.0703 0.7998,-0.7402 0.0728,-0.9048 -0.436,-0.2471 -0.5815,-0.0825 -0.3633,0.9053 c 0,0 -0.6079,0.1191 -0.7642,0.1577 -1.9961,1.8394 -6.0293,5.8101 -6.9663,13.3062 0.0371,0.1738 0.6792,1.1816 0.6792,1.1816 l 1.5264,0.9043 1.5264,0.4121 0.6548,0.8232 1.0171,0.7402 0.5815,-0.082 0.436,0.1963 0,0.1328 -0.5811,1.563 -0.4365,0.6582 0.1455,0.3301 -0.3633,1.2324 1.3086,2.3867 1.3081,1.1523 0.582,0.8223 -0.0732,1.7285 0.4365,0.9863 -0.4365,1.8926 c 0,0 -0.0342,-0.0117 0.0215,0.1777 0.0562,0.1895 2.3291,1.4512 2.4736,1.3438 0.144,-0.1094 0.2671,-0.2051 0.2671,-0.2051 l -0.145,-0.4102 0.5811,-0.5762 0.2183,-0.5762 0.9453,-0.3301 0.7266,-1.8105 -0.2178,-0.4922 0.5078,-0.7402 1.0908,-0.248 0.582,-1.3164 -0.1455,-1.6445 0.8721,-1.2344 0.1455,-1.2344 C 20.7331,29.4607 19.5495,28.8513 18.365,28.242" />
      </g>
    </g>
    <g
       id="g4186">
      <g
         id="g4190">
        <path
           inkscape:connector-curvature="0"
           id="path4192"
           d="m 16.7656,9.5649 0.7266,0.4937 0.582,0 0,-0.5757 -0.7266,-0.3291 -0.582,0.4111" />
      </g>
    </g>
    <g
       id="g4194">
      <g
         id="g4198">
        <path
           inkscape:connector-curvature="0"
           id="path4200"
           d="m 14.876,8.9072 -0.3638,0.9048 0.7271,0 0.3638,-0.8228 C 15.9166,8.7675 16.2286,8.5444 16.5479,8.331 l 0.7271,0.2471 c 0.4844,0.3291 0.9688,0.6582 1.4536,0.9868 L 19.4561,8.9072 18.6558,8.5781 18.292,7.8374 16.9111,7.6728 16.8383,7.2612 16.184,7.4262 15.8936,8.002 15.5298,7.2613 l -0.145,0.3291 0.0728,0.8228 -0.5816,0.494" />
      </g>
    </g>
    <g
       id="g4202">
      <g
         style="opacity:0.75"
         id="g4204">
        <path
           inkscape:connector-curvature="0"
           id="path4206"
           d="" />
      </g>
      <g
         id="g4208">
        <path
           inkscape:connector-curvature="0"
           id="path4210"
           d="" />
      </g>
    </g>
    <g
       id="g4212">
      <g
         style="opacity:0.75"
         id="g4214">
        <path
           inkscape:connector-curvature="0"
           id="path4216"
           d="" />
      </g>
      <g
         id="g4218">
        <path
           inkscape:connector-curvature="0"
           id="path4220"
           d="" />
      </g>
    </g>
    <g
       id="g4222">
      <g
         id="g4226">
        <path
           inkscape:connector-curvature="0"
           id="path4228"
           d="M 17.4922,6.8496 17.856,6.521 18.5831,6.3564 c 0.498,-0.2422 0.998,-0.4053 1.5264,-0.5762 l -0.29,-0.4937 -0.9385,0.1348 -0.4434,0.4419 -0.731,0.106 -0.6499,0.3052 -0.3159,0.1528 -0.1929,0.2583 0.9443,0.1641" />
      </g>
    </g>
    <g
       id="g4230">
      <g
         id="g4234">
        <path
           inkscape:connector-curvature="0"
           id="path4236"
           d="m 18.7285,14.6665 0.4365,-0.6582 -0.6548,-0.4932 0.2183,1.1514" />
      </g>
    </g>
  </g>
  <path
     inkscape:connector-curvature="0"
     style="fill:none;fill-opacity:1;fill-rule:nonzero;stroke:url(#radialGradient4132);stroke-width:0.53384763;stroke-miterlimit:4;stroke-opacity:1"
     id="path4122"
     d="m 46.490527,34.113097 c 0,5.427 -4.399535,9.826486 -9.825789,9.826486 -5.42675,0 -9.826036,-4.399535 -9.826036,-9.826486 0,-5.426749 4.399286,-9.825785 9.826036,-9.825785 5.426254,0 9.825789,4.399036 9.825789,9.825785 l 0,0 z" />
</svg>
