<?xml version="1.0" encoding="UTF-8" standalone="no"?>
<!-- Created with Inkscape (http://www.inkscape.org/) -->

<svg
   xmlns:dc="http://purl.org/dc/elements/1.1/"
   xmlns:cc="http://creativecommons.org/ns#"
   xmlns:rdf="http://www.w3.org/1999/02/22-rdf-syntax-ns#"
   xmlns:svg="http://www.w3.org/2000/svg"
   xmlns="http://www.w3.org/2000/svg"
   xmlns:sodipodi="http://sodipodi.sourceforge.net/DTD/sodipodi-0.dtd"
   xmlns:inkscape="http://www.inkscape.org/namespaces/inkscape"
   id="svg3745"
   height="24"
   width="24"
   version="1.1"
   inkscape:version="0.91 r13725"
   sodipodi:docname="offline.svg">
  <metadata
     id="metadata10">
    <rdf:RDF>
      <cc:Work
         rdf:about="">
        <dc:format>image/svg+xml</dc:format>
        <dc:type
           rdf:resource="http://purl.org/dc/dcmitype/StillImage" />
      </cc:Work>
    </rdf:RDF>
  </metadata>
  <defs
     id="defs8" />
  <sodipodi:namedview
     pagecolor="#ffffff"
     bordercolor="#666666"
     borderopacity="1"
     objecttolerance="10"
     gridtolerance="10"
     guidetolerance="10"
     inkscape:pageopacity="0"
     inkscape:pageshadow="2"
     inkscape:window-width="1165"
     inkscape:window-height="759"
     id="namedview6"
     showgrid="false"
     inkscape:zoom="9.8333333"
     inkscape:cx="-0.10169492"
     inkscape:cy="12"
     inkscape:window-x="349"
     inkscape:window-y="117"
     inkscape:window-maximized="0"
     inkscape:current-layer="svg3745" />
  <path
     inkscape:connector-curvature="0"
     d="m 13.452593,19.560339 c -1.568499,1.555999 -4.1012,1.544999 -5.6569,-0.023 -1.5557,-1.5685 -1.5454,-4.1012 0.023,-5.6569 0.0594,-0.059 0.1207,-0.1161 0.1838,-0.1712 l 2.633101,3.0111 2.816999,2.84 z m -4.817,0.16 -1,-1 -3,2.999999 1,1 3,-2.999999 z"
     style="opacity:1;fill:#7c767a;fill-opacity:1;stroke:#7a7579;stroke-width:2.5;stroke-miterlimit:4;stroke-dasharray:none;stroke-opacity:1"
     id="path3765-3" />
  <path
     inkscape:connector-curvature="0"
     d="m 12.683,8.6092525 c 1.5684,-1.5557 4.1011,-1.5454 5.6568,0.02299 1.5557,1.5683875 1.5454,4.1011005 -0.02299,5.6568005 -0.05945,0.05897 -0.12073,0.11605 -0.18376,0.17117 l -2.633,-3.0111 -2.817,-2.8399005 z m 8.817,-2.1601 -1,-1 -3,3 1,1 3,-3 z"
     style="opacity:1;fill:#7c767a;fill-opacity:1;stroke:#7a7579;stroke-width:2.5;stroke-miterlimit:4;stroke-dasharray:none;stroke-opacity:1"
     id="path3767-8" />
  <path
     inkscape:connector-curvature="0"
     d="m 12.342424,17.314576 c -1.5685,1.556 -4.1012003,1.545 -5.6569003,-0.023 -1.5557,-1.5685 -1.5454,-4.1012 0.023,-5.6569 0.0594,-0.059 0.1207,-0.1161 0.1838,-0.1712 l 2.6331,3.0111 2.8170003,2.84 z m -4.8170003,0.16 -1,-1 -3,3 1,1 3,-3 z"
     style="opacity:1;fill:#a1a3a3;fill-opacity:1;stroke:#000000;stroke-width:1.5;stroke-miterlimit:4;stroke-dasharray:none;stroke-opacity:1"
     id="path3765" />
  <path
     inkscape:connector-curvature="0"
     d="m 12.183,6.1601 c 1.5684,-1.5557 4.1011,-1.5454 5.6568,0.022987 1.5557,1.568387 1.5454,4.1011 -0.02299,5.6568 -0.05945,0.05897 -0.12073,0.11605 -0.18376,0.17117 l -2.633,-3.0111 -2.817,-2.8399 z M 21,4 20,3 17,6 18,7 21,4 Z"
     style="opacity:1;fill:#a1a3a3;fill-opacity:1;stroke:#000000;stroke-opacity:1;stroke-width:1.5;stroke-miterlimit:4;stroke-dasharray:none"
     id="path3767" />
</svg>
