<?xml version="1.0" encoding="UTF-8" standalone="no"?>
<!-- Created with Inkscape (http://www.inkscape.org/) -->

<svg
   xmlns:dc="http://purl.org/dc/elements/1.1/"
   xmlns:cc="http://creativecommons.org/ns#"
   xmlns:rdf="http://www.w3.org/1999/02/22-rdf-syntax-ns#"
   xmlns:svg="http://www.w3.org/2000/svg"
   xmlns="http://www.w3.org/2000/svg"
   xmlns:xlink="http://www.w3.org/1999/xlink"
   xmlns:sodipodi="http://sodipodi.sourceforge.net/DTD/sodipodi-0.dtd"
   xmlns:inkscape="http://www.inkscape.org/namespaces/inkscape"
   id="svg11300"
   height="48"
   width="48"
   version="1.0"
   inkscape:version="0.91 r13725"
   sodipodi:docname="printmap.svg">
  <metadata
     id="metadata90">
    <rdf:RDF>
      <cc:Work
         rdf:about="">
        <dc:format>image/svg+xml</dc:format>
        <dc:type
           rdf:resource="http://purl.org/dc/dcmitype/StillImage" />
      </cc:Work>
    </rdf:RDF>
  </metadata>
  <sodipodi:namedview
     pagecolor="#ffffff"
     bordercolor="#666666"
     borderopacity="1"
     objecttolerance="10"
     gridtolerance="10"
     guidetolerance="10"
     inkscape:pageopacity="0"
     inkscape:pageshadow="2"
     inkscape:window-width="1219"
     inkscape:window-height="886"
     id="namedview88"
     showgrid="false"
     inkscape:zoom="4.9166667"
     inkscape:cx="-0.20338983"
     inkscape:cy="24"
     inkscape:window-x="38"
     inkscape:window-y="24"
     inkscape:window-maximized="0"
     inkscape:current-layer="svg11300" />
  <defs
     id="defs3">
    <linearGradient
       id="linearGradient6828">
      <stop
         id="stop6830"
         style="stop-color:#6e6e6e"
         offset="0" />
      <stop
         id="stop6832"
         style="stop-color:#1e1e1e"
         offset="1" />
    </linearGradient>
    <linearGradient
       id="linearGradient2366">
      <stop
         id="stop2368"
         style="stop-color:#2e3436"
         offset="0" />
      <stop
         id="stop2370"
         style="stop-color:#555753"
         offset="1" />
    </linearGradient>
    <linearGradient
       id="linearGradient8589">
      <stop
         id="stop8591"
         style="stop-color:#fefefe"
         offset="0" />
      <stop
         id="stop8593"
         style="stop-color:#bebebe"
         offset="1" />
    </linearGradient>
    <linearGradient
       id="linearGradient3104">
      <stop
         id="stop3106"
         style="stop-color:#969696"
         offset="0" />
      <stop
         id="stop3108"
         style="stop-color:#bebebe"
         offset="1" />
    </linearGradient>
    <linearGradient
       id="linearGradient2444"
       y2="38"
       xlink:href="#linearGradient6828"
       gradientUnits="userSpaceOnUse"
       x2="24.875"
       gradientTransform="translate(0,2)"
       y1="41"
       x1="24.875" />
    <linearGradient
       id="linearGradient2447"
       y2="43.38"
       xlink:href="#linearGradient8589"
       gradientUnits="userSpaceOnUse"
       x2="21.062"
       gradientTransform="translate(0,2)"
       y1="38"
       x1="21.062" />
    <radialGradient
       id="radialGradient2450"
       gradientUnits="userSpaceOnUse"
       cy="31.497"
       cx="40.092"
       gradientTransform="matrix(.95852 -.099670 .11357 1.0922 -.88142 3.7206)"
       r=".38913">
      <stop
         id="stop6395"
         style="stop-color:#f7fc66"
         offset="0" />
      <stop
         id="stop6397"
         style="stop-color:#6efb27"
         offset="1" />
    </radialGradient>
    <linearGradient
       id="linearGradient2453"
       y2="31.987"
       xlink:href="#linearGradient3104"
       gradientUnits="userSpaceOnUse"
       x2="39.931"
       gradientTransform="matrix(.56262 0 0 .64302 18.433 14.727)"
       y1="28.417"
       x1="39.948" />
    <radialGradient
       id="radialGradient2456"
       gradientUnits="userSpaceOnUse"
       cy="15.28"
       cx="11.537"
       gradientTransform="matrix(1 0 0 .38462 0 18.615)"
       r="13">
      <stop
         id="stop2465"
         style="stop-color:#fff"
         offset="0" />
      <stop
         id="stop2467"
         style="stop-color:#fff;stop-opacity:0"
         offset="1" />
    </radialGradient>
    <linearGradient
       id="linearGradient2459"
       y2="40.875"
       xlink:href="#linearGradient6828"
       gradientUnits="userSpaceOnUse"
       x2="7.4545"
       gradientTransform="matrix(.97059 0 0 .8 .70588 10.1)"
       y1="31.156"
       x1="7.517" />
    <linearGradient
       id="linearGradient2461"
       y2="33.5"
       xlink:href="#linearGradient2366"
       gradientUnits="userSpaceOnUse"
       x2="9.5"
       gradientTransform="translate(.5 1.5)"
       y1="41.375"
       x1="9.5625" />
    <linearGradient
       id="linearGradient2464"
       y2="33"
       xlink:href="#linearGradient6828"
       gradientUnits="userSpaceOnUse"
       x2="22.008"
       gradientTransform="translate(-2.5e-7 2)"
       y1="21"
       x1="21.919" />
    <linearGradient
       id="linearGradient2466"
       y2="21"
       xlink:href="#linearGradient2366"
       gradientUnits="userSpaceOnUse"
       x2="15.335"
       gradientTransform="translate(-2.5e-7 2)"
       y1="33"
       x1="15.601" />
    <radialGradient
       id="radialGradient2478"
       gradientUnits="userSpaceOnUse"
       cy="11.918"
       cx="3.7591"
       gradientTransform="matrix(.99982 .018764 -.012627 .67282 .15115 16.489)"
       r="21">
      <stop
         id="stop6844"
         style="stop-color:#fff"
         offset="0" />
      <stop
         id="stop6846"
         style="stop-color:#fff;stop-opacity:0"
         offset="1" />
    </radialGradient>
    <linearGradient
       id="linearGradient2481"
       y2="37"
       xlink:href="#linearGradient8589"
       gradientUnits="userSpaceOnUse"
       x2="11.506"
       gradientTransform="translate(-2.5e-7 2)"
       y1="20"
       x1="11.519" />
    <linearGradient
       id="linearGradient2483"
       y2="20"
       gradientUnits="userSpaceOnUse"
       x2="20.279"
       gradientTransform="translate(0,2)"
       y1="37"
       x1="20.562">
      <stop
         id="stop6868"
         style="stop-color:#828282"
         offset="0" />
      <stop
         id="stop6870"
         style="stop-color:#aaa"
         offset="1" />
    </linearGradient>
    <linearGradient
       id="linearGradient2486"
       y2="18.92"
       xlink:href="#linearGradient6828"
       gradientUnits="userSpaceOnUse"
       x2="21.687"
       gradientTransform="matrix(.87891 0 0 1.1284 2.9061 .90641)"
       y1="9.5516"
       x1="21.586" />
    <linearGradient
       id="linearGradient2488"
       y2="8.9372"
       xlink:href="#linearGradient2366"
       gradientUnits="userSpaceOnUse"
       x2="7.4375"
       gradientTransform="matrix(.87891 0 0 1.1284 2.9061 .90641)"
       y1="14.105"
       x1="7.4375" />
    <radialGradient
       id="radialGradient2491"
       gradientUnits="userSpaceOnUse"
       cy="41.875"
       cx="24"
       gradientTransform="matrix(1.2549 0 0 .33987 -6.1176 27.268)"
       r="19.125">
      <stop
         id="stop7614"
         offset="0" />
      <stop
         id="stop7616"
         style="stop-opacity:0"
         offset="1" />
    </radialGradient>
    <filter
       id="filter3212"
       height="1.3287"
       width="1.2969"
       color-interpolation-filters="sRGB"
       y="-.16434"
       x="-.14846">
      <feGaussianBlur
         id="feGaussianBlur3214"
         stdDeviation="0.77391625" />
    </filter>
    <linearGradient
       id="linearGradient5060">
      <stop
         id="stop5062"
         offset="0" />
      <stop
         id="stop5064"
         style="stop-opacity:0"
         offset="1" />
    </linearGradient>
    <linearGradient
       id="linearGradient2612"
       y2="609.51"
       gradientUnits="userSpaceOnUse"
       x2="302.86"
       gradientTransform="matrix(.045769 0 0 .0082353 -.54232 26.981)"
       y1="366.65"
       x1="302.86">
      <stop
         id="stop5050"
         style="stop-opacity:0"
         offset="0" />
      <stop
         id="stop5056"
         offset=".5" />
      <stop
         id="stop5052"
         style="stop-opacity:0"
         offset="1" />
    </linearGradient>
    <radialGradient
       id="radialGradient2614"
       xlink:href="#linearGradient5060"
       gradientUnits="userSpaceOnUse"
       cy="486.65"
       cx="605.71"
       gradientTransform="matrix(-.015663 0 0 .0082353 14.39 26.981)"
       r="117.14" />
    <radialGradient
       id="radialGradient2616"
       xlink:href="#linearGradient5060"
       gradientUnits="userSpaceOnUse"
       cy="486.65"
       cx="605.71"
       gradientTransform="matrix(.015663 0 0 .0082353 17.61 26.981)"
       r="117.14" />
    <linearGradient
       id="linearGradient2618"
       y2="47.013"
       gradientUnits="userSpaceOnUse"
       x2="25.132"
       gradientTransform="matrix(.65714 0 0 .63012 .22855 -.089648)"
       y1=".98521"
       x1="25.132">
      <stop
         id="stop3602"
         style="stop-color:#f4f4f4"
         offset="0" />
      <stop
         id="stop3604"
         style="stop-color:#dbdbdb"
         offset="1" />
    </linearGradient>
    <linearGradient
       id="linearGradient2620"
       y2="2.9062"
       xlink:href="#linearGradient3104"
       gradientUnits="userSpaceOnUse"
       x2="-51.786"
       gradientTransform="matrix(.53064 0 0 .58970 39.27 -.79191)"
       y1="50.786"
       x1="-51.786" />
    <radialGradient
       id="radialGradient2622"
       gradientUnits="userSpaceOnUse"
       cy="112.3"
       cx="102"
       gradientTransform="matrix(.23404 0 0 -.25430 1.0213 32.289)"
       r="139.56">
      <stop
         id="stop41"
         style="stop-color:#b7b8b9"
         offset="0" />
      <stop
         id="stop47"
         style="stop-color:#ececec"
         offset=".18851" />
      <stop
         id="stop49"
         style="stop-color:#fafafa;stop-opacity:0"
         offset=".25718" />
      <stop
         id="stop51"
         style="stop-color:#fff;stop-opacity:0"
         offset=".30111" />
      <stop
         id="stop53"
         style="stop-color:#fafafa;stop-opacity:0"
         offset=".53130" />
      <stop
         id="stop55"
         style="stop-color:#ebecec;stop-opacity:0"
         offset=".84490" />
      <stop
         id="stop57"
         style="stop-color:#e1e2e3;stop-opacity:0"
         offset="1" />
    </radialGradient>
    <linearGradient
       id="linearGradient2624"
       y2="46.017"
       gradientUnits="userSpaceOnUse"
       x2="24"
       gradientTransform="matrix(.63636 0 0 .62791 .72725 .93022)"
       y1="2"
       x1="24">
      <stop
         id="stop3213"
         style="stop-color:#fff"
         offset="0" />
      <stop
         id="stop3215"
         style="stop-color:#fff;stop-opacity:0"
         offset="1" />
    </linearGradient>
    <linearGradient
       id="linearGradient2626"
       y2="5.4565"
       xlink:href="#linearGradient8589"
       gradientUnits="userSpaceOnUse"
       x2="36.358"
       gradientTransform="matrix(.63713 0 0 .64456 .82968 .74452)"
       y1="8.059"
       x1="32.892" />
    <radialGradient
       cx="15.601279"
       cy="12.142302"
       r="43.526714"
       fx="15.601279"
       fy="12.142302"
       id="radialGradient4132"
       xlink:href="#linearGradient4350"
       gradientUnits="userSpaceOnUse"
       gradientTransform="matrix(0.64528475,0,0,0.64529833,17.930758,18.530675)" />
    <linearGradient
       id="linearGradient4350">
      <stop
         id="stop4352"
         style="stop-color:#ffffff;stop-opacity:1"
         offset="0" />
      <stop
         id="stop4354"
         style="stop-color:#ffffff;stop-opacity:0"
         offset="1" />
    </linearGradient>
    <radialGradient
       cx="18.247644"
       cy="15.716079"
       r="29.993349"
       fx="18.247644"
       fy="15.716079"
       id="radialGradient3968-8"
       xlink:href="#linearGradient3962"
       gradientUnits="userSpaceOnUse"
       gradientTransform="matrix(0.64528475,0,0,0.64529833,17.930758,18.530675)" />
    <linearGradient
       id="linearGradient3962">
      <stop
         id="stop3964"
         style="stop-color:#d3e9ff;stop-opacity:1"
         offset="0" />
      <stop
         id="stop4134"
         style="stop-color:#d3e9ff;stop-opacity:1"
         offset="0.15517241" />
      <stop
         id="stop4346"
         style="stop-color:#4074ae;stop-opacity:1"
         offset="0.75" />
      <stop
         id="stop3966"
         style="stop-color:#36486c;stop-opacity:1"
         offset="1" />
    </linearGradient>
    <radialGradient
       cx="15.115514"
       cy="63.965389"
       r="12.289036"
       fx="15.115514"
       fy="63.965389"
       id="radialGradient4120"
       xlink:href="#linearGradient5060"
       gradientUnits="userSpaceOnUse"
       gradientTransform="matrix(1.0608534,0,0,0.48799105,17.930757,11.901978)" />
    <radialGradient
       id="radialGradient2453"
       xlink:href="#linearGradient5060"
       gradientUnits="userSpaceOnUse"
       cy="486.64999"
       cx="605.71002"
       gradientTransform="matrix(0.02304,0,0,0.0147,27.421493,39.785499)"
       r="117.14" />
  </defs>
  <path
     id="path3087"
     style="opacity:.5;fill:url(#radialGradient2491)"
     d="m48 41.5c0 3.59-10.745 6.5-24 6.5s-24-2.91-24-6.5c5e-8 -3.59 10.745-6.5 24-6.5s24 2.9102 24 6.5z" />
  <rect
     id="rect2315"
     style="stroke-linejoin:round;stroke:url(#linearGradient2488);stroke-linecap:round;stroke-width:.99603;fill:url(#linearGradient2486)"
     rx=".56379"
     ry=".72384"
     height="22.004"
     width="29.004"
     y="10.498"
     x="9.4979" />
  <g
     id="layer1"
     transform="translate(8 2)">
    <rect
       id="rect2879"
       style="opacity:.15;fill:url(#linearGradient2612)"
       height="2"
       width="22.1"
       y="30"
       x="4.95" />
    <path
       id="path2881"
       style="opacity:.15;fill:url(#radialGradient2614)"
       d="m4.95 30v1.9999c-0.80662 0.0038-1.95-0.44807-1.95-1.0001 0-0.552 0.90012-0.99982 1.95-0.99982z" />
    <path
       id="path2883"
       style="opacity:.15;fill:url(#radialGradient2616)"
       d="m27.05 30v1.9999c0.80661 0.0038 1.95-0.44807 1.95-1.0001 0-0.552-0.90012-0.99982-1.95-0.99982z" />
    <path
       id="path4160"
       style="stroke-linejoin:round;stroke:url(#linearGradient2620);stroke-width:.99992;fill:url(#linearGradient2618)"
       d="m4.5 1.5h15.811c0.92456 0.3128 5.8916 3.8764 7.1886 6.3439v22.656h-23v-29z" />
    <path
       id="path4191"
       style="fill:url(#radialGradient2622)"
       d="m5.234 30c-0.1289 0-0.234-0.114-0.234-0.254v-27.464c0-0.1407 0.1051-0.2546 0.234-0.2546 4.842 0.0703 10.208-0.1052 15.044 0.0175l6.653 5.7695 0.069 21.932c0 0.14-0.105 0.254-0.234 0.254h-21.532z" />
    <path
       id="path2435"
       style="opacity:.6;stroke:url(#linearGradient2624);fill:none"
       d="m26.5 8.139v21.361h-21v-27h14.551" />
    <path
       id="path2600"
       style="opacity:.4;fill-rule:evenodd;filter:url(#filter3212)"
       d="m28.617 0.92126c4.2825 0 2.1532 8.4832 2.1532 8.4832s10.358-1.8023 10.358 2.8187c0-2.6097-11.302-10.729-12.511-11.302z"
       transform="matrix(.63860 0 0 .61936 .72508 1.4294)" />
    <path
       id="path4474"
       style="fill:url(#linearGradient2626);fill-rule:evenodd"
       d="m19 2c2.0349 0 1.4916 4.7455 1.4916 4.7455s6.4978-0.60763 6.4978 2.2545c0-0.69737 0.05487-1.1968-0.08543-1.4144-1.0079-1.5634-5.3614-5.0716-6.9334-5.5314-0.11764-0.034408-0.3785-0.054215-0.97055-0.054215z" />
  </g>
  <path
     id="rect2313"
     style="stroke-linejoin:round;stroke:url(#linearGradient2483);stroke-linecap:round;fill:url(#linearGradient2481)"
     d="m4.579 22.5h4.921l1 1h27l1-1h4.921c1.1517 0 2.079 0.92722 2.079 2.079v13.921h-43v-13.921c0-1.1517 0.92722-2.079 2.079-2.079z" />
  <path
     id="rect2374"
     style="opacity:.9;stroke:url(#radialGradient2478);stroke-linecap:round;fill:none"
     d="m4.5 23.5h39c0.51882 0 1 0.48118 1 1v13h-41v-13c0-0.51882 0.48118-1 1-1z" />
  <rect
     id="rect2319"
     style="stroke:url(#linearGradient2466);stroke-linecap:round;fill:url(#linearGradient2464)"
     height="11"
     width="27"
     y="23.5"
     x="10.5" />
  <path
     id="rect6333"
     style="stroke:url(#linearGradient2461);stroke-linecap:square;fill:url(#linearGradient2459)"
     d="m3.5 38.5c0.0801 1.037-0.2074 2.152 0.2536 3.112 0.8648 1.219 2.4701 0.818 3.7464 0.888 0.023032 0.7195-0.21346 1.8302 0.77274 1.9833 10.418 0.03903 20.839 0.0056 31.259 0.01673 1.0752 0.03177 1.0035-1.162 0.96875-1.9196 0.35116-0.18661 1.0479-0.02762 1.5329-0.08044 1.1999 0.16309 2.6671-0.65983 2.4671-2.0281v-1.9719h-41v0.000007z" />
  <rect
     id="rect2459"
     style="opacity:.3;stroke:url(#radialGradient2456);stroke-linecap:round;fill:none"
     height="9"
     width="25"
     y="24.5"
     x="11.5" />
  <path
     id="path2726"
     style="stroke-linejoin:round;stroke:url(#linearGradient2453);stroke-linecap:round;stroke-width:.74988;fill:none"
     d="m42.625 34.5c0 0.62148-0.50379 1.1253-1.1252 1.1253-0.62145 0-1.1252-0.50381-1.1252-1.1253 0-0.62148 0.50379-1.1253 1.1252-1.1253 0.62145 0 1.1252 0.50381 1.1252 1.1253z" />
  <path
     id="path2764"
     style="fill:url(#radialGradient2450)"
     d="m42.3 34.5c0.000388 0.4421-0.3579 0.8007-0.8 0.8007s-0.80039-0.3586-0.8-0.8007c-0.000388-0.4421 0.3579-0.8007 0.8-0.8007s0.80039 0.3586 0.8 0.8007z" />
  <path
     id="rect6331"
     style="fill:url(#linearGradient2447)"
     d="m40 40v3.5c0 0.277-0.223 0.5-0.5 0.5h-31c-0.277 0-0.5-0.223-0.5-0.5v-3.5h32z" />
  <rect
     id="rect6329"
     style="fill:url(#linearGradient2444)"
     height="2"
     width="28"
     y="40"
     x="10" />
  <path
     inkscape:connector-curvature="0"
     id="path2883-7"
     style="opacity:0.3;fill:url(#radialGradient2453)"
     d="m 41.306493,45.175499 0,3.57 c 1.187,0.007 2.869,-0.8 2.869,-1.785 0,-0.986 -1.325001,-1.785 -2.869,-1.785 z" />
  <path
     inkscape:connector-curvature="0"
     style="fill:url(#radialGradient4120);fill-opacity:1;stroke:none;stroke-opacity:1"
     id="path4112"
     d="m 47.002966,43.116528 a 13.036865,5.996942 0 1 1 -26.073728,0 13.036865,5.996942 0 1 1 26.073728,0 z" />
  <path
     inkscape:connector-curvature="0"
     style="fill:url(#radialGradient3968-8);fill-opacity:1;fill-rule:nonzero;stroke:#39396c;stroke-width:0.64529186;stroke-miterlimit:4;stroke-opacity:1"
     id="path3214-0"
     d="m 46.297695,33.685676 c 0,6.910896 -5.60249,12.513322 -12.512434,12.513322 -6.910576,0 -12.512751,-5.60249 -12.512751,-12.513322 0,-6.910577 5.602175,-12.512433 12.512751,-12.512433 6.909944,0 12.512434,5.601856 12.512434,12.512433 l 0,0 z" />
  <g
     style="fill:#000000;fill-opacity:0.71344999;fill-rule:nonzero;stroke:none;stroke-miterlimit:4"
     id="g4136"
     transform="matrix(0.63391603,0,0,0.63391603,18.008888,18.680974)">
    <g
       id="g4138">
      <g
         id="g4142">
        <path
           inkscape:connector-curvature="0"
           id="path4144"
           d="m 44.0713,20.7144 c 0,0.2627 0,0 0,0 l -0.5449,0.6172 c -0.334,-0.3936 -0.709,-0.7246 -1.0898,-1.0703 l -0.8359,0.123 -0.7637,-0.8633 0,1.0684 0.6543,0.4951 0.4355,0.4932 0.582,-0.6582 c 0.1465,0.2744 0.291,0.5488 0.4365,0.8232 l 0,0.8223 -0.6553,0.7402 -1.1992,0.8232 -0.9082,0.9063 -0.582,-0.6602 0.291,-0.7402 -0.5811,-0.6582 -0.9814,-2.0977 -0.8359,-0.9453 -0.2188,0.2461 0.3281,1.1934 0.6172,0.6992 c 0.3525,1.0176 0.7012,1.9902 1.1641,2.9629 0.7178,0 1.3945,-0.0762 2.1074,-0.166 l 0,0.5762 -0.8721,2.1392 -0.7998,0.9043 -0.6543,1.4004 c 0,0.7676 0,1.5352 0,2.3027 l 0.2188,0.9063 -0.3633,0.4102 -0.8008,0.4941 -0.8359,0.6992 0.6914,0.7813 -0.9453,0.8242 0.1816,0.5332 -1.418,1.6055 -0.9443,0 -0.7998,0.4941 -0.5098,0 0,-0.6582 -0.2168,-1.3184 c -0.2813,-0.8262 -0.5742,-1.6465 -0.8721,-2.4668 0,-0.6055 0.0361,-1.2051 0.0723,-1.8105 l 0.3643,-0.8223 -0.5098,-0.9883 0.0371,-1.3574 -0.6914,-0.7813 0.3457,-1.1309 -0.5625,-0.6382 -0.9824,0 -0.3271,-0.3701 -0.9814,0.6177 -0.3994,-0.4536 -0.9092,0.7817 c -0.6172,-0.6997 -1.2354,-1.3989 -1.8535,-2.0981 l -0.7266,-1.7285 0.6543,-0.9863 -0.3633,-0.4111 0.7988,-1.8936 c 0.6563,-0.8164 1.3418,-1.5996 2.0352,-2.3857 l 1.2363,-0.3291 1.3809,-0.1641 0.9453,0.2471 1.3447,1.3564 0.4727,-0.5342 0.6533,-0.082 1.2363,0.4111 0.9453,0 0.6543,-0.5762 0.291,-0.4111 -0.6553,-0.4111 -1.0908,-0.082 c -0.3027,-0.4199 -0.584,-0.8613 -0.9434,-1.2344 l -0.3643,0.1641 -0.1455,1.0703 -0.6543,-0.7402 -0.1445,-0.8242 -0.7266,-0.5742 -0.292,0 0.7275,0.8223 -0.291,0.7402 -0.5811,0.1641 0.3633,-0.7402 -0.6553,-0.3281 -0.5801,-0.6582 -1.0918,0.2461 -0.1445,0.3281 -0.6543,0.4121 -0.3633,0.9053 -0.9082,0.4521 -0.4004,-0.4521 -0.4355,0 0,-1.4814 0.9453,-0.4941 0.7266,0 -0.1465,-0.5752 -0.5801,-0.5762 0.9805,-0.2061 0.5449,-0.6162 0.4355,-0.7412 0.8008,0 -0.2188,-0.5752 0.5098,-0.3291 0,0.6582 1.0898,0.2461 1.0898,-0.9043 0.0732,-0.4121 0.9443,-0.6577 c -0.3418,0.0425 -0.6836,0.0737 -1.0176,0.1646 l 0,-0.7411 0.3633,-0.8228 -0.3633,0 -0.7984,0.7402 -0.2188,0.4116 0.2188,0.5767 -0.3643,0.9863 -0.5811,-0.3291 -0.5078,-0.5752 -0.8008,0.5752 -0.291,-1.3159 1.3809,-0.9048 0,-0.4941 0.873,-0.5757 1.3809,-0.3296 0.9453,0.3296 1.7441,0.3291 -0.4355,0.4932 -0.9453,0 0.9453,0.9873 0.7266,-0.8223 0.2207,-0.3618 c 0,0 2.7871,2.498 4.3799,5.2305 1.5928,2.7334 2.3408,5.9551 2.3408,6.6094 z" />
      </g>
    </g>
    <g
       id="g4146">
      <g
         id="g4150">
        <path
           inkscape:connector-curvature="0"
           id="path4152"
           d="m 26.0703,9.2363 -0.0732,0.4932 0.5098,0.3291 0.8711,-0.5757 -0.4355,-0.4937 -0.582,0.3296 -0.29,-0.0825" />
      </g>
    </g>
    <g
       id="g4154">
      <g
         id="g4158">
        <path
           inkscape:connector-curvature="0"
           id="path4160-4"
           d="m 26.8701,5.8633 -1.8906,-0.7407 -2.1797,0.2466 -2.6904,0.7402 -0.5088,0.4941 1.6719,1.1514 0,0.6582 -0.6543,0.6582 0.873,1.729 0.5801,-0.3301 0.7285,-1.1514 c 1.123,-0.3472 2.1299,-0.7407 3.1973,-1.2344 l 0.873,-2.2212" />
      </g>
    </g>
    <g
       id="g4162">
      <g
         id="g4166">
        <path
           inkscape:connector-curvature="0"
           id="path4168"
           d="m 28.833,12.7749 -0.291,-0.7412 -0.5098,0.165 0.1465,0.9043 0.6543,-0.3281" />
      </g>
    </g>
    <g
       id="g4170">
      <g
         id="g4174">
        <path
           inkscape:connector-curvature="0"
           id="path4176"
           d="m 29.123,12.6089 -0.1455,0.9883 0.7998,-0.165 0.5811,-0.5752 -0.5088,-0.4941 C 29.6787,11.9078 29.4824,11.483 29.2685,11.0465 l -0.4355,0 0,0.4932 0.29,0.3291 0,0.7402" />
      </g>
    </g>
    <g
       id="g4178">
      <g
         id="g4182">
        <path
           inkscape:connector-curvature="0"
           id="path4184"
           d="m 18.3652,28.2422 -0.582,-1.1523 -1.0903,-0.2466 -0.5815,-1.5625 -1.4536,0.1641 -1.2354,-0.9043 -1.3091,1.1514 0,0.1816 c -0.396,-0.1143 -0.8828,-0.1299 -1.2354,-0.3467 l -0.291,-0.8223 0,-0.9053 -0.8721,0.082 c 0.0728,-0.5762 0.145,-1.1514 0.2183,-1.7275 l -0.5093,0 -0.5083,0.6582 -0.5093,0.2461 -0.7271,-0.4102 -0.0728,-0.9053 0.1455,-0.9873 1.0908,-0.8223 0.8721,0 0.145,-0.4941 1.0903,0.2461 0.7998,0.9883 0.1455,-1.6465 1.3813,-1.1514 0.5088,-1.2344 1.0176,-0.4111 0.5815,-0.8223 1.3081,-0.248 0.6548,-0.9863 c -0.6543,0 -1.3086,0 -1.9629,0 l 1.2358,-0.5762 0.8716,0 1.2363,-0.4121 0.1455,-0.4922 -0.4365,-0.4121 -0.5088,-0.165 0.1455,-0.4932 -0.3633,-0.7402 -0.8726,0.3281 0.1455,-0.6577 -1.0176,-0.5762 -0.7993,1.3979 0.0723,0.4941 -0.7993,0.3301 -0.5093,1.0693 -0.2178,-0.9873 -1.3813,-0.5762 -0.2183,-0.7402 1.8174,-1.0703 0.7998,-0.7402 0.0728,-0.9048 -0.436,-0.2471 -0.5815,-0.0825 -0.3633,0.9053 c 0,0 -0.6079,0.1191 -0.7642,0.1577 -1.9961,1.8394 -6.0293,5.8101 -6.9663,13.3062 0.0371,0.1738 0.6792,1.1816 0.6792,1.1816 l 1.5264,0.9043 1.5264,0.4121 0.6548,0.8232 1.0171,0.7402 0.5815,-0.082 0.436,0.1963 0,0.1328 -0.5811,1.563 -0.4365,0.6582 0.1455,0.3301 -0.3633,1.2324 1.3086,2.3867 1.3081,1.1523 0.582,0.8223 -0.0732,1.7285 0.4365,0.9863 -0.4365,1.8926 c 0,0 -0.0342,-0.0117 0.0215,0.1777 0.0562,0.1895 2.3291,1.4512 2.4736,1.3438 0.144,-0.1094 0.2671,-0.2051 0.2671,-0.2051 l -0.145,-0.4102 0.5811,-0.5762 0.2183,-0.5762 0.9453,-0.3301 0.7266,-1.8105 -0.2178,-0.4922 0.5078,-0.7402 1.0908,-0.248 0.582,-1.3164 -0.1455,-1.6445 0.8721,-1.2344 0.1455,-1.2344 C 20.7331,29.4607 19.5495,28.8513 18.365,28.242" />
      </g>
    </g>
    <g
       id="g4186">
      <g
         id="g4190">
        <path
           inkscape:connector-curvature="0"
           id="path4192"
           d="m 16.7656,9.5649 0.7266,0.4937 0.582,0 0,-0.5757 -0.7266,-0.3291 -0.582,0.4111" />
      </g>
    </g>
    <g
       id="g4194">
      <g
         id="g4198">
        <path
           inkscape:connector-curvature="0"
           id="path4200"
           d="m 14.876,8.9072 -0.3638,0.9048 0.7271,0 0.3638,-0.8228 C 15.9166,8.7675 16.2286,8.5444 16.5479,8.331 l 0.7271,0.2471 c 0.4844,0.3291 0.9688,0.6582 1.4536,0.9868 L 19.4561,8.9072 18.6558,8.5781 18.292,7.8374 16.9111,7.6728 16.8383,7.2612 16.184,7.4262 15.8936,8.002 15.5298,7.2613 l -0.145,0.3291 0.0728,0.8228 -0.5816,0.494" />
      </g>
    </g>
    <g
       id="g4202">
      <g
         style="opacity:0.75"
         id="g4204">
        <path
           inkscape:connector-curvature="0"
           id="path4206"
           d="" />
      </g>
      <g
         id="g4208">
        <path
           inkscape:connector-curvature="0"
           id="path4210"
           d="" />
      </g>
    </g>
    <g
       id="g4212">
      <g
         style="opacity:0.75"
         id="g4214">
        <path
           inkscape:connector-curvature="0"
           id="path4216"
           d="" />
      </g>
      <g
         id="g4218">
        <path
           inkscape:connector-curvature="0"
           id="path4220"
           d="" />
      </g>
    </g>
    <g
       id="g4222">
      <g
         id="g4226">
        <path
           inkscape:connector-curvature="0"
           id="path4228"
           d="M 17.4922,6.8496 17.856,6.521 18.5831,6.3564 c 0.498,-0.2422 0.998,-0.4053 1.5264,-0.5762 l -0.29,-0.4937 -0.9385,0.1348 -0.4434,0.4419 -0.731,0.106 -0.6499,0.3052 -0.3159,0.1528 -0.1929,0.2583 0.9443,0.1641" />
      </g>
    </g>
    <g
       id="g4230">
      <g
         id="g4234">
        <path
           inkscape:connector-curvature="0"
           id="path4236"
           d="m 18.7285,14.6665 0.4365,-0.6582 -0.6548,-0.4932 0.2183,1.1514" />
      </g>
    </g>
  </g>
  <path
     inkscape:connector-curvature="0"
     style="fill:none;fill-opacity:1;fill-rule:nonzero;stroke:url(#radialGradient4132);stroke-width:0.64529186;stroke-miterlimit:4;stroke-opacity:1"
     id="path4122"
     d="m 45.66224,33.685698 c 0,6.559922 -5.317968,11.877829 -11.876988,11.877829 -6.559619,0 -11.877286,-5.317966 -11.877286,-11.877829 0,-6.559619 5.317667,-11.876984 11.877286,-11.876984 6.55902,0 11.876988,5.317365 11.876988,11.876984 l 0,0 z" />
</svg>
