<?xml version="1.0" encoding="UTF-8" standalone="no"?>
<!-- Created with Inkscape (http://www.inkscape.org/) -->

<svg
   version="1.0"
   width="48"
   height="48"
   id="svg2"
   inkscape:version="1.2.2 (b0a8486541, 2022-12-01)"
   sodipodi:docname="random.svg"
   xmlns:inkscape="http://www.inkscape.org/namespaces/inkscape"
   xmlns:sodipodi="http://sodipodi.sourceforge.net/DTD/sodipodi-0.dtd"
   xmlns="http://www.w3.org/2000/svg"
   xmlns:svg="http://www.w3.org/2000/svg"
   xmlns:rdf="http://www.w3.org/1999/02/22-rdf-syntax-ns#"
   xmlns:cc="http://creativecommons.org/ns#"
   xmlns:dc="http://purl.org/dc/elements/1.1/">
  <metadata
     id="metadata17">
    <rdf:RDF>
      <cc:Work
         rdf:about="">
        <dc:format>image/svg+xml</dc:format>
        <dc:type
           rdf:resource="http://purl.org/dc/dcmitype/StillImage" />
      </cc:Work>
    </rdf:RDF>
  </metadata>
  <sodipodi:namedview
     pagecolor="#ffffff"
     bordercolor="#666666"
     borderopacity="1"
     objecttolerance="10"
     gridtolerance="10"
     guidetolerance="10"
     inkscape:pageopacity="0"
     inkscape:pageshadow="2"
     inkscape:window-width="1876"
     inkscape:window-height="1056"
     id="namedview15"
     showgrid="true"
     inkscape:zoom="4.4500586"
     inkscape:cx="52.820966"
     inkscape:cy="56.930159"
     inkscape:window-x="44"
     inkscape:window-y="24"
     inkscape:window-maximized="1"
     inkscape:current-layer="svg2"
     showguides="false"
     inkscape:snap-grids="true"
     fit-margin-top="0"
     fit-margin-left="0"
     fit-margin-right="0"
     fit-margin-bottom="0"
     inkscape:snap-global="false"
     inkscape:showpageshadow="2"
     inkscape:pagecheckerboard="0"
     inkscape:deskcolor="#d1d1d1">
    <inkscape:grid
       type="xygrid"
       id="grid8410"
       originx="1.0778451"
       originy="-1090.1976" />
  </sodipodi:namedview>
  <defs
     id="defs4">
    <marker
       inkscape:isstock="true"
       style="overflow:visible"
       id="Tail"
       refX="0"
       refY="0"
       orient="auto"
       inkscape:stockid="Tail">
      <g
         style="fill:#000000;fill-opacity:1;stroke:#000000;stroke-opacity:1"
         transform="scale(-1.2)"
         id="g960">
        <path
           style="fill:#000000;fill-opacity:1;fill-rule:evenodd;stroke:#000000;stroke-width:0.80000001;stroke-linecap:round;stroke-opacity:1"
           d="M -3.8048674,-3.9585227 0.54352094,0"
           id="path948"
           inkscape:connector-curvature="0" />
        <path
           style="fill:#000000;fill-opacity:1;fill-rule:evenodd;stroke:#000000;stroke-width:0.80000001;stroke-linecap:round;stroke-opacity:1"
           d="M -1.2866832,-3.9585227 3.0617053,0"
           id="path950"
           inkscape:connector-curvature="0" />
        <path
           style="fill:#000000;fill-opacity:1;fill-rule:evenodd;stroke:#000000;stroke-width:0.80000001;stroke-linecap:round;stroke-opacity:1"
           d="M 1.3053582,-3.9585227 5.6537466,0"
           id="path952"
           inkscape:connector-curvature="0" />
        <path
           style="fill:#000000;fill-opacity:1;fill-rule:evenodd;stroke:#000000;stroke-width:0.80000001;stroke-linecap:round;stroke-opacity:1"
           d="M -3.8048674,4.1775838 0.54352094,0.21974226"
           id="path954"
           inkscape:connector-curvature="0" />
        <path
           style="fill:#000000;fill-opacity:1;fill-rule:evenodd;stroke:#000000;stroke-width:0.80000001;stroke-linecap:round;stroke-opacity:1"
           d="M -1.2866832,4.1775838 3.0617053,0.21974226"
           id="path956"
           inkscape:connector-curvature="0" />
        <path
           style="fill:#000000;fill-opacity:1;fill-rule:evenodd;stroke:#000000;stroke-width:0.80000001;stroke-linecap:round;stroke-opacity:1"
           d="M 1.3053582,4.1775838 5.6537466,0.21974226"
           id="path958"
           inkscape:connector-curvature="0" />
      </g>
    </marker>
    <marker
       inkscape:isstock="true"
       style="overflow:visible"
       id="Arrow2Lend"
       refX="0"
       refY="0"
       orient="auto"
       inkscape:stockid="Arrow2Lend">
      <path
         transform="matrix(-1.1,0,0,-1.1,-1.1,0)"
         d="M 8.7185878,4.0337352 -2.2072895,0.01601326 8.7185884,-4.0017078 c -1.7454984,2.3720609 -1.7354408,5.6174519 -6e-7,8.035443 z"
         style="fill:#000000;fill-opacity:1;fill-rule:evenodd;stroke:#000000;stroke-width:0.625;stroke-linejoin:round;stroke-opacity:1"
         id="path933"
         inkscape:connector-curvature="0" />
    </marker>
    <marker
       inkscape:isstock="true"
       style="overflow:visible"
       id="Arrow2Mend"
       refX="0"
       refY="0"
       orient="auto"
       inkscape:stockid="Arrow2Mend">
      <path
         transform="scale(-0.6)"
         d="M 8.7185878,4.0337352 -2.2072895,0.01601326 8.7185884,-4.0017078 c -1.7454984,2.3720609 -1.7354408,5.6174519 -6e-7,8.035443 z"
         style="fill:#000000;fill-opacity:1;fill-rule:evenodd;stroke:#000000;stroke-width:0.625;stroke-linejoin:round;stroke-opacity:1"
         id="path939"
         inkscape:connector-curvature="0" />
    </marker>
    <marker
       inkscape:isstock="true"
       style="overflow:visible"
       id="Arrow2Mstart"
       refX="0"
       refY="0"
       orient="auto"
       inkscape:stockid="Arrow2Mstart">
      <path
         transform="scale(0.6)"
         d="M 8.7185878,4.0337352 -2.2072895,0.01601326 8.7185884,-4.0017078 c -1.7454984,2.3720609 -1.7354408,5.6174519 -6e-7,8.035443 z"
         style="fill:#000000;fill-opacity:1;fill-rule:evenodd;stroke:#000000;stroke-width:0.625;stroke-linejoin:round;stroke-opacity:1"
         id="path936"
         inkscape:connector-curvature="0" />
    </marker>
    <marker
       inkscape:isstock="true"
       style="overflow:visible"
       id="marker1180"
       refX="0"
       refY="0"
       orient="auto"
       inkscape:stockid="Arrow1Lstart">
      <path
         transform="matrix(0.8,0,0,0.8,10,0)"
         style="fill:#000000;fill-opacity:1;fill-rule:evenodd;stroke:#000000;stroke-width:1.00000003pt;stroke-opacity:1"
         d="M 0,0 5,-5 -12.5,0 5,5 Z"
         id="path1178"
         inkscape:connector-curvature="0" />
    </marker>
    <marker
       inkscape:isstock="true"
       style="overflow:visible"
       id="Arrow1Lend"
       refX="0"
       refY="0"
       orient="auto"
       inkscape:stockid="Arrow1Lend">
      <path
         transform="matrix(-0.8,0,0,-0.8,-10,0)"
         style="fill:#000000;fill-opacity:1;fill-rule:evenodd;stroke:#000000;stroke-width:1.00000003pt;stroke-opacity:1"
         d="M 0,0 5,-5 -12.5,0 5,5 Z"
         id="path915"
         inkscape:connector-curvature="0" />
    </marker>
    <marker
       inkscape:isstock="true"
       style="overflow:visible"
       id="Arrow1Lstart"
       refX="0"
       refY="0"
       orient="auto"
       inkscape:stockid="Arrow1Lstart">
      <path
         transform="matrix(0.8,0,0,0.8,10,0)"
         style="fill:#000000;fill-opacity:1;fill-rule:evenodd;stroke:#000000;stroke-width:1.00000003pt;stroke-opacity:1"
         d="M 0,0 5,-5 -12.5,0 5,5 Z"
         id="path912"
         inkscape:connector-curvature="0" />
    </marker>
    <linearGradient
       x1="31.341"
       y1="235.03"
       x2="31.341"
       gradientUnits="userSpaceOnUse"
       y2="224.67999"
       id="linearGradient4884">
      <stop
         offset="0"
         style="stop-color:#555753"
         id="stop4024-2-8" />
      <stop
         offset="1"
         style="stop-color:#babdb6"
         id="stop4026-8-3" />
    </linearGradient>
    <linearGradient
       x1="34.5"
       y1="225"
       x2="23.5"
       gradientUnits="userSpaceOnUse"
       y2="225"
       id="linearGradient3655">
      <stop
         offset="0"
         style="stop-color:#bb2b12"
         id="stop2605-6" />
      <stop
         offset="1"
         style="stop-color:#cd7233"
         id="stop2607-3" />
    </linearGradient>
    <linearGradient
       x1="24.5"
       y1="229"
       x2="35.5"
       gradientUnits="userSpaceOnUse"
       y2="229"
       id="linearGradient3663">
      <stop
         offset="0"
         style="stop-color:#f0c178"
         id="stop2612-7" />
      <stop
         offset=".5"
         style="stop-color:#e18941"
         id="stop2614-5" />
      <stop
         offset="1"
         style="stop-color:#ec4f18"
         id="stop2616-9" />
    </linearGradient>
    <marker
       inkscape:isstock="true"
       style="overflow:visible"
       id="Arrow2Mstart-3"
       refX="0"
       refY="0"
       orient="auto"
       inkscape:stockid="Arrow2Mstart">
      <path
         transform="scale(0.6)"
         d="M 8.7185878,4.0337352 -2.2072895,0.01601326 8.7185884,-4.0017078 c -1.7454984,2.3720609 -1.7354408,5.6174519 -6e-7,8.035443 z"
         style="fill:#000000;fill-opacity:1;fill-rule:evenodd;stroke:#000000;stroke-width:0.625;stroke-linejoin:round;stroke-opacity:1"
         id="path936-6"
         inkscape:connector-curvature="0" />
    </marker>
    <marker
       inkscape:isstock="true"
       style="overflow:visible"
       id="Arrow2Mend-7"
       refX="0"
       refY="0"
       orient="auto"
       inkscape:stockid="Arrow2Mend">
      <path
         transform="scale(-0.6)"
         d="M 8.7185878,4.0337352 -2.2072895,0.01601326 8.7185884,-4.0017078 c -1.7454984,2.3720609 -1.7354408,5.6174519 -6e-7,8.035443 z"
         style="fill:#000000;fill-opacity:1;fill-rule:evenodd;stroke:#000000;stroke-width:0.625;stroke-linejoin:round;stroke-opacity:1"
         id="path939-5"
         inkscape:connector-curvature="0" />
    </marker>
  </defs>
  <g
     transform="matrix(0.37890595,0,0,0.37890595,-44.405059,9.8764343)"
     id="g1007" />
  <g
     transform="matrix(0.37890595,0,0,0.37890595,-44.405059,9.8764343)"
     id="g1009" />
  <g
     transform="matrix(0.37890595,0,0,0.37890595,-44.405059,9.8764343)"
     id="g1011" />
  <g
     transform="matrix(0.37890595,0,0,0.37890595,-44.405059,9.8764343)"
     id="g1013" />
  <g
     transform="matrix(0.37890595,0,0,0.37890595,-44.405059,9.8764343)"
     id="g1015" />
  <g
     transform="matrix(0.37890595,0,0,0.37890595,-44.405059,9.8764343)"
     id="g1017" />
  <g
     transform="matrix(0.37890595,0,0,0.37890595,-44.405059,9.8764343)"
     id="g1019" />
  <g
     transform="matrix(0.37890595,0,0,0.37890595,-44.405059,9.8764343)"
     id="g1021" />
  <g
     transform="matrix(0.37890595,0,0,0.37890595,-44.405059,9.8764343)"
     id="g1023" />
  <g
     transform="matrix(0.37890595,0,0,0.37890595,-44.405059,9.8764343)"
     id="g1025" />
  <g
     transform="matrix(0.37890595,0,0,0.37890595,-44.405059,9.8764343)"
     id="g1027" />
  <g
     transform="matrix(0.37890595,0,0,0.37890595,-44.405059,9.8764343)"
     id="g1029" />
  <g
     transform="matrix(0.37890595,0,0,0.37890595,-44.405059,9.8764343)"
     id="g1031" />
  <g
     transform="matrix(0.37890595,0,0,0.37890595,-44.405059,9.8764343)"
     id="g1033" />
  <g
     transform="matrix(0.37890595,0,0,0.37890595,-44.405059,9.8764343)"
     id="g1035" />
  <path
     style="fill:#ffffff;fill-opacity:1;fill-rule:evenodd;stroke:none;stroke-width:0;stroke-linecap:butt;stroke-linejoin:miter;stroke-dasharray:none;stroke-opacity:1"
     d="M 22.982777,2.9825429 5.2449203,13.514396 4.9123356,34.245516 23.204501,46.107709 41.607528,35.021547 41.718391,13.514396"
     id="path2028" />
  <path
     class="st0"
     d="M 40.162236,11.049424 26.116886,2.6246378 C 25.245744,2.1018656 24.265775,1.8407847 23.286939,1.8407847 c -0.979968,0 -1.960548,0.2610809 -2.831079,0.7838531 L 6.4104217,11.049424 c -1.6578725,0.994619 -2.6724606,2.785997 -2.6724606,4.719077 v 16.79167 c 0,1.933081 1.0145881,3.724459 2.6724606,4.719077 L 20.45586,45.704035 c 0.870444,0.522162 1.851111,0.783853 2.831079,0.783853 0.978924,0 1.958805,-0.261691 2.829947,-0.783853 l 14.045438,-8.424787 c 1.657959,-0.994618 2.67185,-2.786083 2.67185,-4.719077 v -16.79167 c 0,-1.93308 -1.013978,-3.724458 -2.671938,-4.719077 z M 22.815093,44.807779 c -0.52565,-0.06497 -1.040225,-0.236577 -1.510328,-0.518761 L 7.2592398,35.864232 C 6.0989383,35.167581 5.3882472,33.913625 5.3882472,32.560171 v -16.79167 c 0,-0.525127 0.1076936,-1.034383 0.3067744,-1.502829 L 22.815093,24.534506 Z M 6.1657347,13.448508 C 6.45908,13.059241 6.8278546,12.723168 7.2592398,12.464354 L 21.304677,4.0395673 c 0.609974,-0.3658969 1.294942,-0.5484966 1.982175,-0.5484966 0.6861,0 1.371155,0.1826869 1.981041,0.5484966 l 14.045438,8.4247867 c 0.43095,0.258814 0.800858,0.594801 1.093506,0.984154 L 23.286939,23.717952 Z M 41.184411,32.560171 c 0,1.353454 -0.710691,2.60741 -1.870992,3.304061 L 25.26798,44.289018 c -0.470626,0.282184 -0.984677,0.453796 -1.510327,0.518761 V 24.534594 L 40.877724,14.26576 c 0.198993,0.468358 0.306775,0.977701 0.306775,1.502828 v 16.791583 z"
     id="path752"
     style="fill:#000000;fill-opacity:1;stroke:#000000;stroke-width:1.40631;stroke-dasharray:none;stroke-opacity:1" />
  <path
     class="st0"
     d="m 16.32385,11.51 c -1.38209,-0.950997 -3.659413,-0.974648 -5.086784,-0.05357 -1.425543,0.92199 -1.461403,2.439561 -0.0803,3.390557 1.383074,0.951782 3.660259,0.974648 5.085798,0.05436 1.427654,-0.922773 1.463513,-2.440344 0.08129,-3.391341 z"
     id="path756"
     style="fill:#000000;fill-opacity:1;stroke-width:0.135556" />
  <path
     class="st0"
     d="m 13.343961,21.909942 c -0.577269,-1.575223 -2.421223,-2.911859 -4.118349,-2.986207 -1.6961644,-0.07255 -2.6032716,1.144607 -2.0268057,2.719259 0.5776178,1.576433 2.4219127,2.912348 4.1170917,2.986278 1.69834,0.07312 2.605446,-1.144028 2.028063,-2.71933 z"
     id="path756-5"
     style="fill:#000000;fill-opacity:1;stroke-width:0.135556" />
  <path
     class="st0"
     d="m 20.583046,36.388492 c -0.577269,-1.575223 -2.421223,-2.911859 -4.11835,-2.986207 -1.696164,-0.07255 -2.60327,1.144607 -2.026804,2.719259 0.577617,1.576433 2.421912,2.912348 4.117091,2.986278 1.69834,0.07312 2.605446,-1.144028 2.028063,-2.71933 z"
     id="path756-5-3"
     style="fill:#000000;fill-opacity:1;stroke-width:0.135556" />
  <path
     class="st0"
     d="m 21.345059,26.291825 c -0.577269,-1.575224 -2.421224,-2.911859 -4.11835,-2.986208 -1.696164,-0.07255 -2.603271,1.144608 -2.026805,2.71926 0.577618,1.576433 2.421913,2.912348 4.117091,2.986278 1.69834,0.07312 2.605447,-1.144029 2.028064,-2.71933 z"
     id="path756-5-5"
     style="fill:#000000;fill-opacity:1;stroke-width:0.135556" />
  <path
     class="st0"
     d="m 13.058172,31.911667 c -0.577269,-1.575223 -2.421223,-2.911859 -4.11835,-2.986207 -1.6961638,-0.07255 -2.6032705,1.144607 -2.0268047,2.719259 0.5776179,1.576433 2.4219127,2.912348 4.1170917,2.986278 1.698339,0.07312 2.605446,-1.144028 2.028063,-2.71933 z"
     id="path756-5-6"
     style="fill:#000000;fill-opacity:1;stroke-width:0.135556" />
  <path
     class="st0"
     d="m 25.142197,11.440258 c -1.382089,-0.950997 -3.659412,-0.974648 -5.086783,-0.05358 -1.425543,0.92199 -1.461403,2.43956 -0.0803,3.390557 1.383073,0.951782 3.660258,0.974647 5.085797,0.05436 1.427654,-0.922773 1.463513,-2.440344 0.08129,-3.391341 z"
     id="path756-3"
     style="fill:#000000;fill-opacity:1;stroke-width:0.135556" />
  <path
     class="st0"
     d="m 34.191098,11.630764 c -1.382089,-0.950997 -3.659412,-0.974648 -5.086783,-0.05358 -1.425543,0.92199 -1.461404,2.439561 -0.0803,3.390557 1.383073,0.951782 3.660258,0.974648 5.085797,0.05436 1.427654,-0.922773 1.463513,-2.440344 0.08129,-3.391341 z"
     id="path756-3-6"
     style="fill:#000000;fill-opacity:1;stroke-width:0.135556" />
  <path
     class="st0"
     d="m 32.524879,26.511012 c -1.557242,0.848295 -2.818262,2.79777 -2.818262,4.35379 0,1.556545 1.26102,2.13094 2.818262,1.282646 1.556021,-0.848819 2.818261,-2.798292 2.818261,-4.354924 0,-1.556109 -1.26224,-2.130417 -2.818261,-1.281512 z"
     id="path768"
     style="fill:#000000;fill-opacity:1;stroke-width:0.0872014" />
</svg>
