<?xml version="1.0" encoding="UTF-8" standalone="no"?>
<!-- Created with Inkscape (http://www.inkscape.org/) -->

<svg
   version="1.0"
   width="149.92134"
   height="140.26547"
   id="svg2"
   inkscape:version="1.2.2 (b0a8486541, 2022-12-01)"
   sodipodi:docname="routealt.svg"
   xmlns:inkscape="http://www.inkscape.org/namespaces/inkscape"
   xmlns:sodipodi="http://sodipodi.sourceforge.net/DTD/sodipodi-0.dtd"
   xmlns="http://www.w3.org/2000/svg"
   xmlns:svg="http://www.w3.org/2000/svg"
   xmlns:rdf="http://www.w3.org/1999/02/22-rdf-syntax-ns#"
   xmlns:cc="http://creativecommons.org/ns#"
   xmlns:dc="http://purl.org/dc/elements/1.1/">
  <metadata
     id="metadata17">
    <rdf:RDF>
      <cc:Work
         rdf:about="">
        <dc:format>image/svg+xml</dc:format>
        <dc:type
           rdf:resource="http://purl.org/dc/dcmitype/StillImage" />
        <dc:title />
      </cc:Work>
    </rdf:RDF>
  </metadata>
  <sodipodi:namedview
     pagecolor="#ffffff"
     bordercolor="#666666"
     borderopacity="1"
     objecttolerance="10"
     gridtolerance="10"
     guidetolerance="10"
     inkscape:pageopacity="0"
     inkscape:pageshadow="2"
     inkscape:window-width="1876"
     inkscape:window-height="1056"
     id="namedview15"
     showgrid="true"
     inkscape:zoom="3.1466666"
     inkscape:cx="24.344465"
     inkscape:cy="75.937874"
     inkscape:window-x="44"
     inkscape:window-y="24"
     inkscape:window-maximized="1"
     inkscape:current-layer="text17213"
     showguides="false"
     inkscape:snap-grids="true"
     fit-margin-top="0"
     fit-margin-left="0"
     fit-margin-right="0"
     fit-margin-bottom="0"
     inkscape:showpageshadow="2"
     inkscape:pagecheckerboard="0"
     inkscape:deskcolor="#d1d1d1">
    <inkscape:grid
       type="xygrid"
       id="grid8410"
       originx="1.0778451"
       originy="-1090.1976" />
  </sodipodi:namedview>
  <defs
     id="defs4" />
  <g
     id="g3338"
     transform="translate(1.303346,-144.62452)">
    <path
       style="fill:none;fill-rule:evenodd;stroke:#ffffff;stroke-width:12.15062618;stroke-linecap:round;stroke-linejoin:round;stroke-miterlimit:4;stroke-dasharray:none;stroke-opacity:1"
       d="M 100.14891,192.48593 47.462675,242.96122"
       id="path21952"
       inkscape:connector-curvature="0" />
    <path
       style="fill:none;fill-rule:evenodd;stroke:#000000;stroke-width:0.97205013px;stroke-linecap:butt;stroke-linejoin:miter;stroke-opacity:1"
       d="M 71.082147,215.81616 Z"
       id="path8101"
       inkscape:connector-curvature="0" />
    <path
       style="fill:none;fill-rule:evenodd;stroke:#919295;stroke-width:22.54306412;stroke-linecap:round;stroke-linejoin:round;stroke-miterlimit:4;stroke-dasharray:none;stroke-opacity:1"
       d="m 33.722119,265.87451 9.691496,-45.69558 34.053755,2.61411 30.44193,1.86349 11.41845,-48.465"
       id="path8098-4"
       inkscape:connector-curvature="0"
       sodipodi:nodetypes="ccccc" />
    <path
       style="fill:none;fill-rule:evenodd;stroke:#000000;stroke-width:22.54306412;stroke-linecap:round;stroke-linejoin:round;stroke-miterlimit:4;stroke-dasharray:none;stroke-opacity:1"
       d="m 27.613802,256.94311 9.691492,-45.69559 34.053759,2.61411 30.441927,1.86351 11.41845,-48.46501"
       id="path8098"
       inkscape:connector-curvature="0"
       sodipodi:nodetypes="ccccc" />
    <path
       style="fill:none;fill-rule:evenodd;stroke:#ffff00;stroke-width:10.35298443;stroke-linecap:round;stroke-linejoin:round;stroke-miterlimit:4;stroke-dasharray:none;stroke-opacity:1"
       d="m 28.055596,256.27988 9.691495,-45.0226 31.765713,2.6141 31.585946,1.8635 12.56249,-49.13795"
       id="path8098-8"
       inkscape:connector-curvature="0"
       sodipodi:nodetypes="ccccc" />
    <rect
       style="opacity:1;fill:#c6c9c9;fill-opacity:1;stroke:#7d7d7d;stroke-width:0.09799684;stroke-linecap:square;stroke-linejoin:bevel;stroke-miterlimit:4;stroke-dasharray:none;stroke-opacity:1"
       id="rect4186"
       width="64.048615"
       height="73.095222"
       x="71.12944"
       y="200.63742" />
    <g
       aria-label="A"
       id="text17213"
       style="font-weight:bold;line-height:0%;font-family:'Courier New';-inkscape-font-specification:'Courier New Bold';letter-spacing:0px;word-spacing:0px;stroke-width:1px">
      <path
         d="M 114.00205,250.85552 H 91.305382 l -2.278782,5.69695 h 2.278782 q 3.372597,0 4.785442,1.3217 1.45842,1.27611 1.45842,3.37259 0,2.05091 -1.45842,3.3726 -1.412845,1.27612 -4.785442,1.27612 H 78.726507 q -3.372597,0 -4.785441,-1.27612 -1.458421,-1.32169 -1.458421,-3.41817 0,-2.09648 1.503996,-3.41818 1.503996,-1.32169 4.967744,-1.23054 l 14.675354,-36.55166 h -6.107135 q -3.372596,0 -4.831017,-1.27611 -1.412844,-1.3217 -1.412844,-3.41818 0,-2.09648 1.412844,-3.37259 1.458421,-1.3217 4.831017,-1.3217 l 20.190006,0.0456 18.59486,45.89466 q 3.28144,0 4.32968,0.72921 2.09648,1.504 2.09648,3.96508 0,2.05091 -1.41284,3.3726 -1.41285,1.27612 -4.78544,1.27612 h -12.57888 q -3.37259,0 -4.83102,-1.27612 -1.41284,-1.32169 -1.41284,-3.41817 0,-2.05091 1.41284,-3.32702 1.45843,-1.3217 4.83102,-1.3217 h 2.27878 z m -3.87393,-9.34301 -7.51998,-18.5037 -7.565556,18.5037 z"
         style="font-size:93.3389px;line-height:1.25"
         id="path297" />
    </g>
  </g>
</svg>
