<?xml version="1.0" encoding="UTF-8" standalone="no"?>
<!-- Created with Inkscape (http://www.inkscape.org/) -->

<svg
   xmlns:dc="http://purl.org/dc/elements/1.1/"
   xmlns:cc="http://creativecommons.org/ns#"
   xmlns:rdf="http://www.w3.org/1999/02/22-rdf-syntax-ns#"
   xmlns:svg="http://www.w3.org/2000/svg"
   xmlns="http://www.w3.org/2000/svg"
   xmlns:xlink="http://www.w3.org/1999/xlink"
   xmlns:sodipodi="http://sodipodi.sourceforge.net/DTD/sodipodi-0.dtd"
   xmlns:inkscape="http://www.inkscape.org/namespaces/inkscape"
   id="svg2704"
   height="24"
   width="24"
   version="1.0"
   inkscape:version="0.92.5 (2060ec1f9f, 2020-04-08)"
   sodipodi:docname="saveasfms.svg">
  <metadata
     id="metadata87">
    <rdf:RDF>
      <cc:Work
         rdf:about="">
        <dc:format>image/svg+xml</dc:format>
        <dc:type
           rdf:resource="http://purl.org/dc/dcmitype/StillImage" />
        <dc:title />
      </cc:Work>
    </rdf:RDF>
  </metadata>
  <sodipodi:namedview
     pagecolor="#ffffff"
     bordercolor="#666666"
     borderopacity="1"
     objecttolerance="10"
     gridtolerance="10"
     guidetolerance="10"
     inkscape:pageopacity="0"
     inkscape:pageshadow="2"
     inkscape:window-width="1812"
     inkscape:window-height="1056"
     id="namedview85"
     showgrid="false"
     inkscape:zoom="13.906433"
     inkscape:cx="2.1963072"
     inkscape:cy="9.302439"
     inkscape:window-x="38"
     inkscape:window-y="24"
     inkscape:window-maximized="1"
     inkscape:current-layer="svg2704"
     inkscape:snap-global="false" />
  <defs
     id="defs2706">
    <linearGradient
       id="linearGradient2883"
       y2="609.51"
       gradientUnits="userSpaceOnUse"
       x2="302.86"
       gradientTransform="matrix(0.037768,0,0,0.01086,-1.5784068,17.955943)"
       y1="366.65"
       x1="302.86">
      <stop
         id="stop5050"
         style="stop-opacity:0"
         offset="0" />
      <stop
         id="stop5056"
         offset=".5" />
      <stop
         id="stop5052"
         style="stop-opacity:0"
         offset="1" />
    </linearGradient>
    <radialGradient
       id="radialGradient2880"
       xlink:href="#linearGradient5060"
       gradientUnits="userSpaceOnUse"
       cy="486.65"
       cx="605.71"
       gradientTransform="matrix(0.022183,0,0,0.01086,7.8125932,17.955943)"
       r="117.14" />
    <linearGradient
       id="linearGradient5060">
      <stop
         id="stop5062"
         offset="0" />
      <stop
         id="stop5064"
         style="stop-opacity:0"
         offset="1" />
    </linearGradient>
    <radialGradient
       id="radialGradient2877"
       xlink:href="#linearGradient5060"
       gradientUnits="userSpaceOnUse"
       cy="486.65"
       cx="605.71"
       gradientTransform="matrix(-0.022183,0,0,0.01086,16.330893,17.955943)"
       r="117.14" />
    <linearGradient
       id="linearGradient2872"
       y2="104.28"
       gradientUnits="userSpaceOnUse"
       x2="53.991"
       gradientTransform="matrix(0.19046,0,0,0.24853,0.16269217,-2.9097567)"
       y1="87.896"
       x1="53.991">
      <stop
         id="stop2223-6"
         style="stop-color:#7a7a7a"
         offset="0" />
      <stop
         id="stop2219-1"
         style="stop-color:#474747"
         offset="1" />
    </linearGradient>
    <linearGradient
       id="linearGradient8490"
       y2="35.281"
       gradientUnits="userSpaceOnUse"
       x2="24.688"
       gradientTransform="matrix(0.73759,0,0,0.53933,-2.1373068,2.0468433)"
       y1="35.281"
       x1="7.0625">
      <stop
         id="stop6311"
         offset="0" />
      <stop
         id="stop6313"
         style="stop-color:#bbb;stop-opacity:0"
         offset="1" />
    </linearGradient>
    <linearGradient
       id="linearGradient8487"
       y2="33.759"
       gradientUnits="userSpaceOnUse"
       x2="12.222"
       gradientTransform="matrix(0.73759,0,0,0.53933,-2.7241068,2.7619433)"
       y1="37.206"
       x1="12.277">
      <stop
         id="stop4238-4"
         style="stop-color:#eee"
         offset="0" />
      <stop
         id="stop4240-3"
         style="stop-color:#eee;stop-opacity:0"
         offset="1" />
    </linearGradient>
    <linearGradient
       id="linearGradient2869"
       y2="8.3495"
       gradientUnits="userSpaceOnUse"
       x2="4.459"
       gradientTransform="matrix(0.98925,0,0,1.4696,0.12903,-10.339)"
       y1="13.499"
       x1="9.599">
      <stop
         id="stop3486-2"
         style="stop-color:#969696"
         offset="0" />
      <stop
         id="stop3488-0"
         style="stop-color:#b4b4b4"
         offset="1" />
    </linearGradient>
    <radialGradient
       id="radialGradient4072"
       gradientUnits="userSpaceOnUse"
       cy="4.2333"
       cx="7.2203"
       gradientTransform="matrix(1.5194,0.0037157,-0.0030247,1.2368,-3.7373,0.067833)"
       r="12">
      <stop
         id="stop7064-4"
         style="stop-color:#e6e6e6"
         offset="0" />
      <stop
         id="stop7060-2"
         style="stop-color:#c8c8c8"
         offset="1" />
    </radialGradient>
    <radialGradient
       id="radialGradient3248"
       gradientUnits="userSpaceOnUse"
       cy="42"
       cx="24"
       gradientTransform="matrix(0.52381,0,1.4569e-8,0.21429,-0.49953683,12.074943)"
       r="21">
      <stop
         id="stop6312-6"
         style="stop-color:#fff"
         offset="0" />
      <stop
         id="stop6314-6"
         style="stop-color:#fff;stop-opacity:0"
         offset="1" />
    </radialGradient>
    <radialGradient
       id="radialGradient8471"
       xlink:href="#linearGradient4035"
       gradientUnits="userSpaceOnUse"
       cy="206.43"
       cx="141.75"
       gradientTransform="matrix(0.18615,-0.0031402,0.0013777,0.18068,-15.013,-20.636)"
       r="78.728" />
    <radialGradient
       id="radialGradient8464"
       gradientUnits="userSpaceOnUse"
       cy="191.85"
       cx="142.62"
       gradientTransform="matrix(0.092476,0,0,-0.087162,-1.4837068,24.940943)"
       r="78.728">
      <stop
         id="stop7611-3"
         style="stop-color:#fff"
         offset="0" />
      <stop
         id="stop7677-2"
         style="stop-color:#e7e7e7"
         offset=".47026" />
      <stop
         id="stop7613-4"
         style="stop-color:#8c8c8c"
         offset=".67184" />
      <stop
         id="stop7617-3"
         style="stop-color:#ddd"
         offset=".83543" />
      <stop
         id="stop7615-6"
         style="stop-color:#a8a8a8"
         offset="1" />
    </radialGradient>
    <linearGradient
       id="linearGradient4035">
      <stop
         id="stop4037"
         style="stop-color:#f5f5f5"
         offset="0" />
      <stop
         id="stop4039"
         style="stop-color:#e7e7e7"
         offset=".47026" />
      <stop
         id="stop4041"
         style="stop-color:#8c8c8c"
         offset=".69349" />
      <stop
         id="stop4043"
         style="stop-color:#ddd"
         offset=".83543" />
      <stop
         id="stop4045"
         style="stop-color:#a8a8a8"
         offset="1" />
    </linearGradient>
    <radialGradient
       id="radialGradient8475"
       xlink:href="#linearGradient4035"
       gradientUnits="userSpaceOnUse"
       cy="143.83"
       cx="127.32"
       gradientTransform="matrix(0.10006,-0.023376,0.0082168,0.059717,-5.2741,-0.91135)"
       r="78.728" />
    <radialGradient
       id="radialGradient8498"
       fx="113.67"
       fy="98"
       xlink:href="#radialGradient4241"
       gradientUnits="userSpaceOnUse"
       cy="97.588"
       cx="113.07"
       gradientTransform="matrix(2.4957,0,0,2.4957,-223.98,-53.226)"
       r="2.5631" />
    <radialGradient
       id="radialGradient4241"
       fx="113.67"
       fy="98"
       gradientUnits="userSpaceOnUse"
       cy="97.588"
       cx="113.07"
       r="2.5631">
      <stop
         id="stop4243"
         style="stop-color:#eee"
         offset="0" />
      <stop
         id="stop4245"
         style="stop-color:#cecece"
         offset=".16" />
      <stop
         id="stop4247"
         style="stop-color:#888"
         offset=".4675" />
      <stop
         id="stop4249"
         style="stop-color:#555"
         offset="1" />
    </radialGradient>
    <linearGradient
       id="linearGradient2831"
       y2="33.332"
       gradientUnits="userSpaceOnUse"
       x2="57.411"
       gradientTransform="matrix(0,0.39055,-0.38724,0,22.223,-1.7244)"
       y1="33.332"
       x1="8.5273">
      <stop
         id="stop4224"
         style="stop-color:#fff"
         offset="0" />
      <stop
         id="stop4226"
         style="stop-color:#fff;stop-opacity:0"
         offset="1" />
    </linearGradient>
    <linearGradient
       id="linearGradient2834"
       y2="23.891"
       gradientUnits="userSpaceOnUse"
       x2="1.31"
       gradientTransform="matrix(0,-0.33674,-0.33543,0,20.014,15.582)"
       y1="23.891"
       x1="28.671">
      <stop
         id="stop2266"
         style="stop-color:#d7e866"
         offset="0" />
      <stop
         id="stop2268"
         style="stop-color:#8cab2a"
         offset="1" />
    </linearGradient>
    <linearGradient
       id="linearGradient5605"
       y2="6.5747"
       gradientUnits="userSpaceOnUse"
       x2="21.478"
       gradientTransform="matrix(.47644 0 0 .40577 -36.625 -.80551)"
       y1="1.6845"
       x1="21.478">
      <stop
         id="stop6453"
         style="stop-color:#eeeeec"
         offset="0" />
      <stop
         id="stop6455"
         style="stop-color:#fff"
         offset="1" />
    </linearGradient>
    <linearGradient
       id="linearGradient2459"
       y2="609.51001"
       gradientUnits="userSpaceOnUse"
       x2="302.85999"
       gradientTransform="matrix(0.02543493,0,0,0.00555356,-25.870956,14.16711)"
       y1="366.64999"
       x1="302.85999">
      <stop
         id="stop5050-3"
         style="stop-opacity:0"
         offset="0" />
      <stop
         id="stop5056-6"
         offset=".5" />
      <stop
         id="stop5052-7"
         style="stop-opacity:0"
         offset="1" />
    </linearGradient>
    <radialGradient
       id="radialGradient2456"
       xlink:href="#linearGradient5060"
       gradientUnits="userSpaceOnUse"
       cy="486.64999"
       cx="605.71002"
       gradientTransform="matrix(-0.00870435,0,0,0.00555356,-17.573053,14.16711)"
       r="117.14" />
    <radialGradient
       id="radialGradient2453"
       xlink:href="#linearGradient5060"
       gradientUnits="userSpaceOnUse"
       cy="486.64999"
       cx="605.71002"
       gradientTransform="matrix(0.00870435,0,0,0.00555356,-15.783069,14.16711)"
       r="117.14" />
    <linearGradient
       id="linearGradient2448"
       y2="47.013"
       gradientUnits="userSpaceOnUse"
       x2="25.132"
       gradientTransform="matrix(0.3777932,0,0,0.36123452,-25.742075,-0.54978532)"
       y1="0.98521"
       x1="25.132">
      <stop
         id="stop3602"
         style="stop-color:#f4f4f4"
         offset="0" />
      <stop
         id="stop3604"
         style="stop-color:#dbdbdb"
         offset="1" />
    </linearGradient>
    <linearGradient
       id="linearGradient2450"
       y2="2.9061999"
       xlink:href="#linearGradient3104"
       gradientUnits="userSpaceOnUse"
       x2="-51.785999"
       gradientTransform="matrix(0.30506801,0,0,0.33806068,-3.2973808,-0.95239932)"
       y1="50.785999"
       x1="-51.785999" />
    <linearGradient
       id="linearGradient3104">
      <stop
         id="stop3106"
         style="stop-color:#aaa"
         offset="0" />
      <stop
         id="stop3108"
         style="stop-color:#c8c8c8"
         offset="1" />
    </linearGradient>
    <radialGradient
       id="radialGradient2445"
       gradientUnits="userSpaceOnUse"
       cy="123.0157"
       cx="141.46779"
       gradientTransform="matrix(0.1366478,0,0,-0.14763402,-25.420551,18.125249)"
       r="139.56"
       fx="141.46779"
       fy="123.0157">
      <stop
         id="stop41"
         style="stop-color:#b7b8b9"
         offset="0" />
      <stop
         id="stop47"
         style="stop-color:#ececec"
         offset=".18851" />
      <stop
         id="stop49"
         style="stop-color:#fafafa;stop-opacity:0"
         offset=".25718" />
      <stop
         id="stop51"
         style="stop-color:#fff;stop-opacity:0"
         offset=".30111" />
      <stop
         id="stop53"
         style="stop-color:#fafafa;stop-opacity:0"
         offset=".53130" />
      <stop
         id="stop55"
         style="stop-color:#ebecec;stop-opacity:0"
         offset=".84490" />
      <stop
         id="stop57"
         style="stop-color:#e1e2e3;stop-opacity:0"
         offset="1" />
    </radialGradient>
    <linearGradient
       id="linearGradient2442"
       y2="46.016998"
       gradientUnits="userSpaceOnUse"
       x2="24"
       gradientTransform="matrix(0.3777932,0,0,0.36939863,-25.742075,-0.19155132)"
       y1="2"
       x1="24">
      <stop
         id="stop3213"
         style="stop-color:#fff"
         offset="0" />
      <stop
         id="stop3215"
         style="stop-color:#fff;stop-opacity:0"
         offset="1" />
    </linearGradient>
    <linearGradient
       id="linearGradient2439"
       y2="3.3638999"
       xlink:href="#linearGradient3104"
       gradientUnits="userSpaceOnUse"
       x2="22.004"
       gradientTransform="matrix(0.3777932,0,0,0.3777932,-26.490899,-0.97752332)"
       y1="47.813"
       x1="22.004" />
    <filter
       id="filter3248"
       y="-0.16434"
       width="1.2969"
       x="-0.14846"
       height="1.3286999">
      <feGaussianBlur
         id="feGaussianBlur3250"
         stdDeviation="0.77391625" />
    </filter>
    <linearGradient
       id="linearGradient2432"
       y2="5.4565001"
       gradientUnits="userSpaceOnUse"
       x2="36.358002"
       gradientTransform="matrix(0.37692427,0,0,0.39316938,-25.680192,-0.24411232)"
       y1="8.059"
       x1="32.891998">
      <stop
         id="stop8591"
         style="stop-color:#fefefe"
         offset="0" />
      <stop
         id="stop8593"
         style="stop-color:#cbcbcb"
         offset="1" />
    </linearGradient>
    <radialGradient
       inkscape:collect="always"
       xlink:href="#radialGradient4241"
       id="radialGradient6796"
       gradientUnits="userSpaceOnUse"
       gradientTransform="matrix(2.4957,0,0,2.4957,-223.98,-53.226)"
       cx="113.07"
       cy="97.588"
       fx="113.67"
       fy="98"
       r="2.5631" />
  </defs>
  <rect
     x="2.9536932"
     y="21.937944"
     width="18.236"
     height="2.6373999"
     style="opacity:0.40206;fill:url(#linearGradient2883)"
     id="rect2723" />
  <path
     inkscape:connector-curvature="0"
     d="m 21.180893,21.937943 v 2.6373 c 1.1423,0.005 2.7616,-0.59088 2.7616,-1.3188 0,-0.72793 -1.2748,-1.3185 -2.7616,-1.3185 z"
     style="opacity:0.40206;fill:url(#radialGradient2880)"
     id="path2725" />
  <path
     inkscape:connector-curvature="0"
     d="m 2.9625932,21.937943 v 2.6373 c -1.1424,0.005 -2.76160003,-0.59088 -2.76160003,-1.3188 0,-0.72793 1.27480003,-1.3185 2.76160003,-1.3185 z"
     style="opacity:0.40206;fill:url(#radialGradient2877)"
     id="path2727" />
  <path
     inkscape:connector-curvature="0"
     d="m 23.571893,19.074943 c -0.46639,3.38 -0.35138,3.9815 -1.1959,3.9815 -0.33079,0.04823 -13.3369998,0 -20.6539998,0 -0.91714003,0 -0.68541,0.06576 -1.14980003,-3.9786 l 22.99999983,-0.0029 v -4.9e-5 z"
     style="fill:url(#linearGradient2872);stroke:#353537;stroke-linejoin:round"
     id="rect2992" />
  <path
     inkscape:connector-curvature="0"
     d="M 2.7718932,19.574943 H 16.071893 v 3 H 3.0718932 Z"
     style="fill:url(#linearGradient8490);fill-rule:evenodd"
     id="rect9146" />
  <path
     inkscape:connector-curvature="0"
     d="m 3.0718932,22.574943 c 0,0 -0.2,-2.1635 -0.2,-2.1635 1.3539,1.7146 6.3194,2.1635 9.7425998,2.1635 z"
     style="opacity:0.81142997;fill:url(#linearGradient8487);fill-rule:evenodd"
     id="path9148" />
  <path
     inkscape:connector-curvature="0"
     d="M 2.5,2 0.5226,18.483 c -0.014949,0 -0.022616,0.0044 -0.022616,0.01667 h 23 c 0,-0.01232 -0.0077,-0.01667 -0.02261,-0.01667 L 21.500374,2 c -0.099,-0.8274 -1.167,-1.5 -2,-1.5 h -15 c -0.8333,0 -1.9007,0.6726 -2,1.5 z"
     style="fill:url(#radialGradient4072);stroke:url(#linearGradient2869);stroke-linecap:round;stroke-linejoin:round"
     id="rect2990" />
  <path
     inkscape:connector-curvature="0"
     d="M 1.5709932,19.074943 H 22.572993"
     style="opacity:0.6;fill:none;stroke:#ffffff;stroke-linecap:round;stroke-linejoin:round"
     id="path2215" />
  <rect
     x="1.0718932"
     y="19.574944"
     width="22"
     height="3"
     style="opacity:0.2;fill:url(#radialGradient3248)"
     id="rect6300-3" />
  <path
     inkscape:connector-curvature="0"
     d="m 14.531,1.8125 c -0.27749,0 -0.52468,0.080669 -0.71875,0.21875 -0.19407,0.138081 -0.33544,0.35016 -0.34375,0.59375 -0.02564,0.74969 -0.40816,1.2893 -1.125,1.7812 -0.71102,0.48797 -1.7547,0.89986 -3,1.2812 -0.010197,0.00312 -0.021024,-0.00312 -0.03125,0 -0.471,0.098904 -1.245,0.37608 -2,0.65625 -0.7654,0.2842 -1.4645,0.5582 -1.781,0.7813 -1.5978,1.0054 -2.5829,2.3417 -2.7187,3.813 -0.12364,1.3391 0.47939,2.6794 1.6562,3.75 1.7217,1.5662 4.5353,2.5 7.5312,2.5 2.9959,0 5.8094,-0.93383 7.5312,-2.5 1.075,-0.97766 1.6562,-2.1551 1.6562,-3.375 0,-0.09948 0.0114,-0.24227 0,-0.375 -0.12,-1.2916 -0.916,-2.4839 -2.188,-3.438 -0.036,-0.5044 -0.344,-4.875 -0.344,-4.875 -0.017,-0.2437 -0.176,-0.4572 -0.375,-0.5938 -0.199,-0.1365 -0.442,-0.2187 -0.719,-0.2187 h -3.0312 z m 0,0.53125 h 3.0312 c 0.06724,0 0.12597,0.018412 0.15625,0.03125 l 0.375,5.125 c -0.0035,0.020687 -0.0035,0.041813 0,0.0625 0.0091,0.011612 0.01964,0.022101 0.03125,0.03125 0.01556,0.025516 0.03698,0.046944 0.0625,0.0625 1.232,0.84283 1.959,2.1272 2.0625,3.25 0.12887,1.3951 -0.69926,2.5486 -2.1875,3.4062 -1.4882,0.85766 -3.6257,1.375 -6.0625,1.375 -2.4368,0 -4.5743,-0.51734 -6.0625,-1.375 -1.4877,-0.857 -2.3158,-2.011 -2.187,-3.406 0.1109,-1.2003 0.9556,-2.5362 2.3438,-3.406 0.0116,-0.0091 0.0221,-0.0196 0.0312,-0.0312 0.0046,-0.0041 0.0687,-0.0477 0.1562,-0.0938 0.0876,-0.0461 0.2082,-0.0951 0.3438,-0.1562 0.2712,-0.1224 0.601,-0.2644 0.9688,-0.4063 0.7355,-0.2837 1.5683,-0.5498 1.9687,-0.625 0.010399,8.695e-4 0.020851,8.695e-4 0.03125,0 1.2093,-0.36821 2.3581,-0.8066 3.25,-1.4062 0.87385,-0.5875 1.5033,-1.369 1.5625,-2.4062 0.02028,-0.00976 0.06108,-0.03125 0.125,-0.03125 z"
     style="fill:url(#radialGradient8471)"
     id="path8469" />
  <path
     inkscape:connector-curvature="0"
     d="m 12.071893,13.574943 c -1.6825,0 -2.9722998,-0.84474 -2.9994998,-1.9652 -3e-4,-0.013 -5e-4,-0.024 -5e-4,-0.036 0,-0.406 0.1691,-0.791 0.4903,-1.1177 0.5436998,-0.5518997 1.4816998,-0.8812997 2.5096998,-0.8812997 1.028,0 1.9662,0.32942 2.5096,0.8812997 0.33072,0.33567 0.50019,0.73466 0.48986,1.1533 -0.028,1.12 -1.318,1.965 -3,1.965 v -6.3e-5 3e-6 z m 0.05026,-2.746 c -1.5809,0 -2.4364998,0.21014 -2.4174998,0.97447 0.01833,0.75242 1.0781998,1.3536 2.3672998,1.3536 1.2892,0 2.349,-0.60139 2.3673,-1.3536 0.01876,-0.76453 -0.73621,-0.97447 -2.3171,-0.97447 z"
     style="fill:url(#radialGradient8464)"
     id="path9156" />
  <path
     inkscape:connector-curvature="0"
     d="M 4.9688,1.75 C 4.9015,1.7681 4.8449,1.8134 4.8125,1.875 4.7992,1.8943 4.7887,1.9153 4.7812,1.9375 L 4.7188,2.1562 3.875,5.4062 3.75,5.9375 c -0.0059,0.031 -0.0059,0.0628 0,0.0937 0.0041,0.0331 0.0147,0.0649 0.0312,0.0938 0.0325,0.0616 0.0891,0.1069 0.1563,0.125 0.040995,0.010584 0.084005,0.010584 0.125,0 l 0.40625,-0.125 6.875,-2.0312 H 11.375 c 0.01041,6.516e-4 0.02084,6.516e-4 0.03125,0 0.01041,6.516e-4 0.02084,6.516e-4 0.03125,0 0.022,-0.0075 0.043,-0.018 0.062,-0.0313 0.46,-0.2538 0.695,-0.7426 0.75,-1.1875 0.028,-0.2282 0.008,-0.4565 -0.062,-0.6562 C 12.1465,2.1052 12.0605,1.9975 11.9685,1.9062 11.8755,1.815 11.7565,1.7452 11.5935,1.75 H 11.56225 5.18725 5.031 C 5.0099,1.7474 4.9889,1.7474 4.9682,1.75 Z m 0.5,0.6875 H 11.375 C 11.36,2.5153 11.34,2.5681 11.312,2.6562 11.263,2.8181 11.167,2.9496 11.188,2.9375 L 4.9375,4.75 Z"
     style="fill:url(#radialGradient8475)"
     id="path8473" />
  <g
     transform="matrix(-0.097811,0,0,0.10767,8.2340932,-3.2433567)"
     id="g9158">
    <path
       inkscape:connector-curvature="0"
       d="m 48.3,190.28 c 0.31446,4.2476 5.0238,7.7116 10.514,7.7116 5.4879,0 9.6432,-3.464 9.2763,-7.7116 -0.36437,-4.2251 -5.0712,-7.6367 -10.507,-7.6367 -5.438,0.002 -9.5933,3.4116 -9.2838,7.6367 z"
       style="fill:#e6e6e6"
       id="path9160" />
    <path
       inkscape:connector-curvature="0"
       d="m 51.851,187.29 c -0.50163,0.53906 -1.0756,1.4026 -1.0756,2.5506 0,0.0824 0.005,0.16471 0.01,0.25206 0.21713,2.9274 3.8932,5.4006 8.026,5.4006 2.3534,0 4.5046,-0.81109 5.7525,-2.1737 0.53656,-0.58149 1.148,-1.5448 1.0382,-2.8276 -0.25206,-2.9024 -3.9232,-5.3557 -8.021,-5.3557 -2.3359,0.002 -4.4797,0.8061 -5.73,2.1538 h -2e-5 z"
       style="fill:url(#radialGradient6796)"
       id="path9162" />
  </g>
  <g
     transform="matrix(0.097811,0,0,0.10767,15.848893,-3.2433567)"
     id="g9190">
    <path
       inkscape:connector-curvature="0"
       d="m 48.3,190.28 c 0.31446,4.2476 5.0238,7.7116 10.514,7.7116 5.4879,0 9.6432,-3.464 9.2763,-7.7116 -0.36437,-4.2251 -5.0712,-7.6367 -10.507,-7.6367 -5.438,0.002 -9.5933,3.4116 -9.2838,7.6367 z"
       style="fill:#e6e6e6"
       id="path9192" />
    <path
       inkscape:connector-curvature="0"
       d="m 51.851,187.29 c -0.50163,0.53906 -1.0756,1.4026 -1.0756,2.5506 0,0.0824 0.005,0.16471 0.01,0.25206 0.21713,2.9274 3.8932,5.4006 8.026,5.4006 2.3534,0 4.5046,-0.81109 5.7525,-2.1737 0.53656,-0.58149 1.148,-1.5448 1.0382,-2.8276 -0.25206,-2.9024 -3.9232,-5.3557 -8.021,-5.3557 -2.3359,0.002 -4.4797,0.8061 -5.73,2.1538 h -2e-5 z"
       style="fill:url(#radialGradient8498)"
       id="path9194" />
  </g>
  <path
     d="M 19.26288,8.5323668 12.512195,15.680052 5.7615106,8.5323668 h 3.17684 V 2.4057745 H 16.08604 v 6.1265923 z"
     style="fill:#a2e844;fill-opacity:1;stroke:#000000;stroke-width:1.73189521;stroke-linecap:round;stroke-linejoin:round;stroke-miterlimit:4;stroke-dasharray:none;stroke-opacity:1"
     id="path4348-6"
     inkscape:connector-curvature="0" />
  <rect
     style="opacity:1;fill:#ffffff;fill-opacity:1;stroke:#3f3d41;stroke-width:1.31838214;stroke-linecap:square;stroke-linejoin:round;stroke-miterlimit:4;stroke-dasharray:none;stroke-dashoffset:0;stroke-opacity:1"
     id="rect3386"
     width="21.528236"
     height="11.989985"
     x="1.1518958"
     y="11.247448" />
  <text
     xml:space="preserve"
     style="font-style:normal;font-weight:normal;line-height:0%;font-family:sans-serif;letter-spacing:0px;word-spacing:0px;fill:#000000;fill-opacity:1;stroke:none;stroke-width:1px;stroke-linecap:butt;stroke-linejoin:miter;stroke-opacity:1"
     x="2.3473048"
     y="17.736753"
     id="text3303"
     transform="scale(0.81970599,1.2199496)"><tspan
       sodipodi:role="line"
       id="tspan3305"
       x="2.3473048"
       y="17.736753"
       style="font-style:normal;font-variant:normal;font-weight:bold;font-stretch:normal;font-size:10.29008102px;line-height:1.25;font-family:sans-serif;-inkscape-font-specification:'sans-serif Bold'">FMS</tspan></text>
  <g
     id="g5600"
     transform="translate(36.952 1.0738)">
    <rect
       id="rect5480"
       style="stroke:#548820;stroke-width:.94229;fill:url(#linearGradient5605)"
       rx="1.0142"
       ry=".86373"
       height="4.0577"
       width="19.058"
       y="-.60262"
       x="-34.481" />
    <rect
       id="rect6467"
       style="fill:#c8cdc3"
       height="1"
       width="6"
       y=".92623"
       x="-32.952" />
    <rect
       id="rect6469"
       style="fill:#969696"
       height="2"
       width="1"
       y=".42623"
       x="-25.952" />
  </g>
</svg>
