<?xml version="1.0" encoding="UTF-8" standalone="no"?>
<!-- Created with Inkscape (http://www.inkscape.org/) -->

<svg
   xmlns:dc="http://purl.org/dc/elements/1.1/"
   xmlns:cc="http://creativecommons.org/ns#"
   xmlns:rdf="http://www.w3.org/1999/02/22-rdf-syntax-ns#"
   xmlns:svg="http://www.w3.org/2000/svg"
   xmlns="http://www.w3.org/2000/svg"
   xmlns:xlink="http://www.w3.org/1999/xlink"
   xmlns:sodipodi="http://sodipodi.sourceforge.net/DTD/sodipodi-0.dtd"
   xmlns:inkscape="http://www.inkscape.org/namespaces/inkscape"
   id="svg2527"
   height="48"
   width="48"
   version="1.0"
   sodipodi:docname="settings.svg"
   inkscape:version="0.92.5 (2060ec1f9f, 2020-04-08)">
  <metadata
     id="metadata908">
    <rdf:RDF>
      <cc:Work
         rdf:about="">
        <dc:format>image/svg+xml</dc:format>
        <dc:type
           rdf:resource="http://purl.org/dc/dcmitype/StillImage" />
      </cc:Work>
    </rdf:RDF>
  </metadata>
  <sodipodi:namedview
     pagecolor="#ffffff"
     bordercolor="#666666"
     borderopacity="1"
     objecttolerance="10"
     gridtolerance="10"
     guidetolerance="10"
     inkscape:pageopacity="0"
     inkscape:pageshadow="2"
     inkscape:window-width="640"
     inkscape:window-height="480"
     id="namedview906"
     showgrid="false"
     inkscape:current-layer="svg2527" />
  <defs
     id="defs2529">
    <radialGradient
       id="radialGradient2436"
       gradientUnits="userSpaceOnUse"
       cy="4.625"
       cx="62.625"
       gradientTransform="matrix(2.1647,0,0,0.75294,-111.56,36.518)"
       r="10.625">
      <stop
         id="stop8840"
         offset="0" />
      <stop
         id="stop8842"
         style="stop-opacity:0"
         offset="1" />
    </radialGradient>
    <linearGradient
       id="linearGradient2517"
       y2="45"
       gradientUnits="userSpaceOnUse"
       x2="37.201"
       y1="1"
       x1="37.201">
      <stop
         id="stop3399"
         style="stop-color:#aaa"
         offset="0" />
      <stop
         id="stop3401"
         style="stop-color:#8c8c8c"
         offset="1" />
    </linearGradient>
    <linearGradient
       id="linearGradient2515"
       y2="45.017"
       gradientUnits="userSpaceOnUse"
       x2="20.759"
       y1="1"
       x1="20.759">
      <stop
         id="stop3311"
         style="stop-color:#f6f6f6"
         offset="0" />
      <stop
         id="stop3313"
         style="stop-color:#d2d2d2"
         offset="1" />
    </linearGradient>
    <linearGradient
       id="linearGradient2512"
       y2="20.895"
       gradientUnits="userSpaceOnUse"
       x2="84.639"
       gradientTransform="matrix(0.32448,0,0,0.32448,3.2333,2.5577)"
       y1="105.1"
       x1="86.133003"
       xlink:href="#linearGradient2517">
      <stop
         id="stop5130"
         style="stop-color:#e5e5e5"
         offset="0" />
      <stop
         id="stop5132"
         style="stop-color:#ababab"
         offset="1" />
    </linearGradient>
  </defs>
  <path
     inkscape:connector-curvature="0"
     d="m 47,40 c 0,4.4183 -10.297,8 -23,8 -12.703,0 -23,-3.5817 -23,-8 0,-4.4183 10.297,-8 23,-8 12.703,0 23,3.5817 23,8 z"
     style="opacity:0.3;fill:url(#radialGradient2436);fill-rule:evenodd"
     id="path8836" />
  <path
     inkscape:connector-curvature="0"
     d="M 21.031,1.5 C 20.185,1.5 19.5,2.2019 19.5,3.0625 V 6.0937 C 17.987,6.4969 16.541,7.1057 15.219,7.875 L 13.062,5.7188 C 12.758,5.4145 12.394,5.2533 12,5.25 11.606,5.2467 11.205,5.3883 10.906,5.6875 L 6.6875,9.9062 C 6.0892,10.505 6.1102,11.454 6.7188,12.062 L 8.875,14.219 C 8.1057,15.541 7.4969,16.987 7.0938,18.5 H 4.0626 C 3.2019,18.5 2.5,19.185 2.5,20.031 v 5.9375 c 0,0.847 0.7019,1.532 1.5625,1.532 h 3.0312 c 0.40311,1.5129 1.012,2.9586 1.7812,4.2812 l -2.1561,2.157 c -0.6086,0.608 -0.6296,1.557 -0.0313,2.156 l 4.2188,4.2188 c 0.5983,0.5983 1.5477,0.57728 2.1562,-0.03125 l 2.157,-2.157 c 1.3227,0.76926 2.7683,1.3781 4.2812,1.7812 v 3.0312 c 0,0.86059 0.68512,1.5625 1.5312,1.5625 h 5.9375 c 0.847,0 1.532,-0.702 1.532,-1.562 v -3.0312 c 1.5129,-0.40311 2.9586,-1.012 4.2812,-1.7812 l 2.1562,2.1562 c 0.60853,0.60853 1.5579,0.62956 2.1562,0.03125 l 4.2188,-4.2188 c 0.5983,-0.5983 0.57728,-1.5477 -0.03125,-2.1562 l -2.156,-2.157 c 0.769,-1.322 1.378,-2.768 1.781,-4.281 h 3.0312 c 0.86059,0 1.5625,-0.68512 1.5625,-1.5312 v -5.9375 c 0,-0.847 -0.702,-1.532 -1.562,-1.532 h -3.0312 c -0.404,-1.513 -1.013,-2.959 -1.782,-4.281 l 2.1562,-2.1562 c 0.60853,-0.60853 0.62956,-1.5579 0.03125,-2.1562 l -4.218,-4.2193 c -0.599,-0.5983 -1.548,-0.5773 -2.156,0.0313 l -2.157,2.1562 C 31.4605,7.105 30.0145,6.4962 28.5015,6.0931 V 3.0619 c 0,-0.8607 -0.685,-1.5626 -1.531,-1.5626 H 21.033 Z M 24,16.5 c 3.588,0 6.5,2.912 6.5,6.5 0,3.588 -2.912,6.5 -6.5,6.5 -3.588,0 -6.5,-2.912 -6.5,-6.5 0,-3.588 2.912,-6.5 6.5,-6.5 z"
     style="display:block;fill:url(#linearGradient2515);stroke:#3f4242;stroke-linejoin:round;stroke-opacity:1;stroke-width:2.002;stroke-miterlimit:4;stroke-dasharray:none"
     id="rect3267" />
  <path
     inkscape:connector-curvature="0"
     d="m 24,9.5 c -7.4439,0 -13.5,6.0561 -13.5,13.5 0,7.4439 6.0561,13.5 13.5,13.5 7.4439,0 13.5,-6.0561 13.5,-13.5 C 37.5,15.556 31.444,9.5 24,9.5 Z"
     style="fill:none;stroke:#71736f;stroke-width:1.0015748;stroke-miterlimit:4;stroke-dasharray:none;stroke-opacity:1"
     id="path28" />
  <path
     inkscape:connector-curvature="0"
     d="m 24,10 c -7.1683,-5e-7 -13,5.8317 -13,13 0,7.1683 5.8317,13 13,13 7.1683,-10e-7 13,-5.8317 13,-13 0,-7.1683 -5.8317,-13 -13,-13 z m 0,6 c 3.864,0 7,3.136 7,7 0,3.864 -3.136,7 -7,7 -3.864,0 -7,-3.136 -7,-7 0,-3.864 3.136,-7 7,-7 z"
     style="opacity:0.05"
     id="path3315" />
</svg>
