<?xml version="1.0" encoding="UTF-8" standalone="no"?>
<!-- Created with Inkscape (http://www.inkscape.org/) -->

<svg
   xmlns:dc="http://purl.org/dc/elements/1.1/"
   xmlns:cc="http://creativecommons.org/ns#"
   xmlns:rdf="http://www.w3.org/1999/02/22-rdf-syntax-ns#"
   xmlns:svg="http://www.w3.org/2000/svg"
   xmlns="http://www.w3.org/2000/svg"
   xmlns:xlink="http://www.w3.org/1999/xlink"
   xmlns:sodipodi="http://sodipodi.sourceforge.net/DTD/sodipodi-0.dtd"
   xmlns:inkscape="http://www.inkscape.org/namespaces/inkscape"
   id="svg3508"
   height="48"
   width="48"
   version="1.0"
   inkscape:version="0.91 r13725"
   sodipodi:docname="showonmap.svg">
  <metadata
     id="metadata51">
    <rdf:RDF>
      <cc:Work
         rdf:about="">
        <dc:format>image/svg+xml</dc:format>
        <dc:type
           rdf:resource="http://purl.org/dc/dcmitype/StillImage" />
        <dc:title></dc:title>
      </cc:Work>
    </rdf:RDF>
  </metadata>
  <sodipodi:namedview
     pagecolor="#ffffff"
     bordercolor="#666666"
     borderopacity="1"
     objecttolerance="10"
     gridtolerance="10"
     guidetolerance="10"
     inkscape:pageopacity="0"
     inkscape:pageshadow="2"
     inkscape:window-width="1407"
     inkscape:window-height="833"
     id="namedview49"
     showgrid="false"
     inkscape:zoom="4.9166667"
     inkscape:cx="-12.508474"
     inkscape:cy="24"
     inkscape:window-x="44"
     inkscape:window-y="24"
     inkscape:window-maximized="0"
     inkscape:current-layer="svg3508" />
  <defs
     id="defs3510">
    <linearGradient
       id="linearGradient5060">
      <stop
         id="stop5062"
         offset="0" />
      <stop
         id="stop5064"
         style="stop-opacity:0"
         offset="1" />
    </linearGradient>
    <linearGradient
       id="linearGradient3104">
      <stop
         id="stop3106"
         style="stop-color:#aaa"
         offset="0" />
      <stop
         id="stop3108"
         style="stop-color:#c8c8c8"
         offset="1" />
    </linearGradient>
    <filter
       id="filter3248"
       y="-.16434"
       width="1.2969"
       x="-.14846"
       height="1.3287">
      <feGaussianBlur
         id="feGaussianBlur3250"
         stdDeviation="0.77391625" />
    </filter>
    <linearGradient
       id="linearGradient2432"
       y2="5.4565"
       gradientUnits="userSpaceOnUse"
       x2="36.358"
       gradientTransform="matrix(.99770 0 0 1.0407 .16380 -1.1058)"
       y1="8.059"
       x1="32.892">
      <stop
         id="stop8591"
         style="stop-color:#fefefe"
         offset="0" />
      <stop
         id="stop8593"
         style="stop-color:#cbcbcb"
         offset="1" />
    </linearGradient>
    <linearGradient
       id="linearGradient2439"
       y2="3.3639"
       xlink:href="#linearGradient3104"
       gradientUnits="userSpaceOnUse"
       x2="22.004"
       gradientTransform="translate(-1.9821 -3.0471)"
       y1="47.813"
       x1="22.004" />
    <linearGradient
       id="linearGradient2442"
       y2="46.017"
       gradientUnits="userSpaceOnUse"
       x2="24"
       gradientTransform="matrix(1 0 0 .97778 0 -.96667)"
       y1="2"
       x1="24">
      <stop
         id="stop3213"
         style="stop-color:#fff"
         offset="0" />
      <stop
         id="stop3215"
         style="stop-color:#fff;stop-opacity:0"
         offset="1" />
    </linearGradient>
    <radialGradient
       id="radialGradient2445"
       gradientUnits="userSpaceOnUse"
       cy="112.3"
       cx="102"
       gradientTransform="matrix(.36170 0 0 -.39078 .85106 47.517)"
       r="139.56">
      <stop
         id="stop41"
         style="stop-color:#b7b8b9"
         offset="0" />
      <stop
         id="stop47"
         style="stop-color:#ececec"
         offset=".18851" />
      <stop
         id="stop49"
         style="stop-color:#fafafa;stop-opacity:0"
         offset=".25718" />
      <stop
         id="stop51"
         style="stop-color:#fff;stop-opacity:0"
         offset=".30111" />
      <stop
         id="stop53"
         style="stop-color:#fafafa;stop-opacity:0"
         offset=".53130" />
      <stop
         id="stop55"
         style="stop-color:#ebecec;stop-opacity:0"
         offset=".84490" />
      <stop
         id="stop57"
         style="stop-color:#e1e2e3;stop-opacity:0"
         offset="1" />
    </radialGradient>
    <linearGradient
       id="linearGradient2448"
       y2="47.013"
       gradientUnits="userSpaceOnUse"
       x2="25.132"
       gradientTransform="matrix(1 0 0 .95617 -1.0065e-7 -1.9149)"
       y1=".98521"
       x1="25.132">
      <stop
         id="stop3602"
         style="stop-color:#f4f4f4"
         offset="0" />
      <stop
         id="stop3604"
         style="stop-color:#dbdbdb"
         offset="1" />
    </linearGradient>
    <linearGradient
       id="linearGradient2450"
       y2="2.9062"
       xlink:href="#linearGradient3104"
       gradientUnits="userSpaceOnUse"
       x2="-51.786"
       gradientTransform="matrix(.80750 0 0 .89483 59.41 -2.9806)"
       y1="50.786"
       x1="-51.786" />
    <radialGradient
       id="radialGradient2453"
       xlink:href="#linearGradient5060"
       gradientUnits="userSpaceOnUse"
       cy="486.65"
       cx="605.71"
       gradientTransform="matrix(.023040 0 0 0.0147 26.361 37.04)"
       r="117.14" />
    <radialGradient
       id="radialGradient2456"
       xlink:href="#linearGradient5060"
       gradientUnits="userSpaceOnUse"
       cy="486.65"
       cx="605.71"
       gradientTransform="matrix(-.023040 0 0 0.0147 21.623 37.04)"
       r="117.14" />
    <linearGradient
       id="linearGradient2459"
       y2="609.51"
       gradientUnits="userSpaceOnUse"
       x2="302.86"
       gradientTransform="matrix(.067325 0 0 0.0147 -.34114 37.04)"
       y1="366.65"
       x1="302.86">
      <stop
         id="stop5050"
         style="stop-opacity:0"
         offset="0" />
      <stop
         id="stop5056"
         offset=".5" />
      <stop
         id="stop5052"
         style="stop-opacity:0"
         offset="1" />
    </linearGradient>
    <radialGradient
       cx="18.247644"
       cy="15.716079"
       r="29.993349"
       fx="18.247644"
       fy="15.716079"
       id="radialGradient3968"
       xlink:href="#linearGradient3962"
       gradientUnits="userSpaceOnUse"
       gradientTransform="matrix(0.37131583,0,0,0.37132364,-22.750175,-17.059873)" />
    <linearGradient
       id="linearGradient3962">
      <stop
         id="stop3964"
         style="stop-color:#d3e9ff;stop-opacity:1"
         offset="0" />
      <stop
         id="stop4134"
         style="stop-color:#d3e9ff;stop-opacity:1"
         offset="0.15517241" />
      <stop
         id="stop4346"
         style="stop-color:#4074ae;stop-opacity:1"
         offset="0.75" />
      <stop
         id="stop3966"
         style="stop-color:#36486c;stop-opacity:1"
         offset="1" />
    </linearGradient>
    <radialGradient
       cx="15.601279"
       cy="12.142302"
       r="43.526714"
       fx="15.601279"
       fy="12.142302"
       id="radialGradient4132"
       xlink:href="#linearGradient4350"
       gradientUnits="userSpaceOnUse"
       gradientTransform="matrix(0.64528475,0,0,0.64529833,16.870265,15.785176)" />
    <linearGradient
       id="linearGradient4350">
      <stop
         id="stop4352"
         style="stop-color:#ffffff;stop-opacity:1"
         offset="0" />
      <stop
         id="stop4354"
         style="stop-color:#ffffff;stop-opacity:0"
         offset="1" />
    </linearGradient>
    <radialGradient
       cx="18.247644"
       cy="15.716079"
       r="29.993349"
       fx="18.247644"
       fy="15.716079"
       id="radialGradient3968-8"
       xlink:href="#linearGradient3962"
       gradientUnits="userSpaceOnUse"
       gradientTransform="matrix(0.64528475,0,0,0.64529833,16.870265,15.785176)" />
    <radialGradient
       cx="15.115514"
       cy="63.965389"
       r="12.289036"
       fx="15.115514"
       fy="63.965389"
       id="radialGradient4120"
       xlink:href="#linearGradient5060"
       gradientUnits="userSpaceOnUse"
       gradientTransform="matrix(1.0608534,0,0,0.48799105,16.870264,9.1564784)" />
  </defs>
  <rect
     id="rect2879"
     style="opacity:.3;fill:url(#linearGradient2459)"
     height="3.5701"
     width="32.508"
     y="42.43"
     x="7.7378" />
  <path
     id="path2881"
     style="opacity:.3;fill:url(#radialGradient2456)"
     d="m7.7378 42.43v3.57c-1.1865 0.007-2.8683-0.8-2.8683-1.785 0-0.986 1.324-1.785 2.8683-1.785z" />
  <path
     id="path2883"
     style="opacity:.3;fill:url(#radialGradient2453)"
     d="m40.246 42.43v3.57c1.187 0.007 2.869-0.8 2.869-1.785 0-0.986-1.325-1.785-2.869-1.785z" />
  <path
     id="path4160"
     style="stroke-linejoin:round;stroke:url(#linearGradient2450);stroke-width:.99992;fill:url(#linearGradient2448)"
     d="m6.5 0.4972h24.061c1.407 0.47465 8.965 5.8822 10.939 9.6268v34.379h-35v-44.006z" />
  <path
     id="path4191"
     style="fill:url(#radialGradient2445)"
     d="m7.3617 44c-0.1993 0-0.3617-0.175-0.3617-0.391v-42.204c0-0.2155 0.1624-0.3906 0.3617-0.3906 7.4833 0.108 15.775-0.16158 23.249 0.0269l10.283 8.866 0.106 33.702c0 0.216-0.162 0.391-0.362 0.391h-33.276z" />
  <path
     id="path2435"
     style="opacity:.6;stroke-linejoin:round;stroke:url(#linearGradient2442);stroke-width:.99992;fill:none"
     d="m40.5 10.259v33.263h-33v-42.044c7.562-0.0003 15.304-0.0003 22.866-0.0003" />
  <path
     id="path3475"
     style="stroke:url(#linearGradient2439);stroke-width:1px;fill:none"
     d="m11 8.5h2.344-2.344zm2.688 0h2.187-2.187zm2.531 0h1.937-1.937zm2.25 0h0.843-0.843zm1.187 0h1.875-1.875zm2.25 0h4.938-4.938zm5.25 0h3.782-3.782zm4.094 0h1.156-1.156zm-20.25 2h3.656-3.656zm4.062 0h1.75-1.75zm2.063 0h0.875-0.875zm1.219 0h1.594-1.594zm1.937 0h1.625-1.625zm1.938 0h2.593-2.593zm2.937 0h3.375-3.375zm3.688 0h2.25-2.25zm2.562 0h0.563-0.563zm-20.406 1.969h3.094-3.094zm3.406 0h5.063-5.063zm5.375 0h2.469-2.469zm2.781 0h2.313-2.313zm2.626 0h1.968-1.968zm2.281 0l3.093 0.031-3.093-0.031zm3.375 0.031h5.031-5.031zm-19.844 2h4.281-4.281zm4.625 0h4.625-4.625zm4.937 0h1.844-1.844zm2.157 0h4.343-4.343zm4.625 0h2.968-2.968zm3.312 0h1.188-1.188zm1.5 0h0.656-0.656zm1 0h1.844-1.844zm-22.156 2h1.594-1.594zm2.094 0h5.906-5.906zm-2.094 3.969h3.094-3.094zm3.406 0h5.063-5.063zm5.375 0h2.469-2.469zm2.781 0h2.313-2.313zm2.626 0h1.968-1.968zm2.281 0l3.093 0.031-3.093-0.031zm3.375 0.031h5.031-5.031zm-19.844 2h2.344-2.344zm2.688 0h2.156-2.156zm2.531 0h1.937-1.937zm2.25 0h0.843-0.843zm1.187 0h1.875-1.875zm2.25 0h4.906-4.906zm5.25 0h3.75-3.75zm4.063 0h1.187-1.187zm1.5 0h2.812-2.812zm-21.719 2h3.938-3.938zm4.25 0h4.219-4.219zm4.531 0h1.625-1.625zm1.938 0h3.969-3.969zm4.281 0h5-5zm5.344 0h1.844-1.844zm-20.344 2h4.281-4.281zm4.625 0h4.625-4.625zm4.937 0h1.844-1.844zm2.157 0h4.343-4.343zm4.625 0h2.968-2.968zm3.312 0h1.188-1.188zm1.5 0h0.656-0.656zm1 0h1.844-1.844zm-22.156 2h3.656-3.656zm4.062 0h1.75-1.75zm2.063 0h0.875-0.875zm1.219 0h1.594-1.594zm1.937 0h1.625-1.625zm1.938 0h2.593-2.593zm2.937 0h3.375-3.375zm3.688 0h2.25-2.25zm2.562 0h0.563-0.563zm-20.406 3.969h3.094-3.094zm3.406 0h5.063-5.063zm5.375 0h2.469-2.469zm2.781 0h2.313-2.313zm2.626 0h1.968-1.968zm2.281 0l3.093 0.031-3.093-0.031zm3.375 0.031h5.031-5.031zm-19.844 2h3.656-3.656zm4.062 0h1.75-1.75zm2.063 0h0.875-0.875zm1.219 0h1.594-1.594zm1.937 0h1.625-1.625zm1.938 0h2.593-2.593zm2.937 0h3.375-3.375zm3.688 0h2.25-2.25zm2.562 0h0.563-0.563zm-20.406 2h3.875-3.875zm4.219 0h1.219-1.219zm1.531 0h2.781-2.781zm3.094 0h4.094-4.094zm4.437 0h2.781-2.781zm3.063 0h0.594-0.594zm0.906 0h3.531-3.531zm3.906 0h1.844-1.844zm-21.156 2h3.875-3.875zm4.219 0h1.75-1.75zm2.062 0h2.75-2.75zm3.063 0h2.968-2.968zm3.312 0h1.188-1.188zm1.5 0h0.656-0.656zm1 0h1.844-1.844z" />
  <path
     id="rect2878"
     style="opacity:.3;fill:#cf9372"
     d="m10 7v30 1 2h17v-2h10v-31h-27z" />
  <path
     id="path12038"
     style="opacity:.4;fill-rule:evenodd;filter:url(#filter3248)"
     d="m28.617 0.92126c4.283 0 2.154 8.4831 2.154 8.4831s10.357-1.8023 10.357 2.8186c0-2.6095-11.302-10.728-12.511-11.302z" />
  <path
     id="path4474"
     style="fill:url(#linearGradient2432);fill-rule:evenodd"
     d="m28.617 0.92126c3.187 0 2.336 7.6618 2.336 7.6618s10.175-0.981 10.175 3.6399c0-1.126 0.086-1.932-0.134-2.2834-1.578-2.5242-8.395-8.1884-10.857-8.9308-0.184-0.05556-0.593-0.08754-1.52-0.08754z" />
  <path
     inkscape:connector-curvature="0"
     style="fill:url(#radialGradient4120);fill-opacity:1;stroke:none;stroke-opacity:1"
     id="path4112"
     d="m 45.942474,40.371029 a 13.036865,5.996942 0 1 1 -26.073729,0 13.036865,5.996942 0 1 1 26.073729,0 z" />
  <path
     inkscape:connector-curvature="0"
     style="fill:url(#radialGradient3968-8);fill-opacity:1;fill-rule:nonzero;stroke:#39396c;stroke-width:0.64529186;stroke-miterlimit:4;stroke-opacity:1"
     id="path3214-0"
     d="m 45.237202,30.940177 c 0,6.910896 -5.60249,12.513322 -12.512434,12.513322 -6.910576,0 -12.512751,-5.60249 -12.512751,-12.513322 0,-6.910577 5.602175,-12.512433 12.512751,-12.512433 6.909944,0 12.512434,5.601856 12.512434,12.512433 l 0,0 z" />
  <g
     style="fill:#000000;fill-opacity:0.71344999;fill-rule:nonzero;stroke:none;stroke-miterlimit:4"
     id="g4136"
     transform="matrix(0.63391603,0,0,0.63391603,16.948395,15.935475)">
    <g
       id="g4138">
      <g
         id="g4142">
        <path
           inkscape:connector-curvature="0"
           id="path4144"
           d="m 44.0713,20.7144 c 0,0.2627 0,0 0,0 l -0.5449,0.6172 c -0.334,-0.3936 -0.709,-0.7246 -1.0898,-1.0703 l -0.8359,0.123 -0.7637,-0.8633 0,1.0684 0.6543,0.4951 0.4355,0.4932 0.582,-0.6582 c 0.1465,0.2744 0.291,0.5488 0.4365,0.8232 l 0,0.8223 -0.6553,0.7402 -1.1992,0.8232 -0.9082,0.9063 -0.582,-0.6602 0.291,-0.7402 -0.5811,-0.6582 -0.9814,-2.0977 -0.8359,-0.9453 -0.2188,0.2461 0.3281,1.1934 0.6172,0.6992 c 0.3525,1.0176 0.7012,1.9902 1.1641,2.9629 0.7178,0 1.3945,-0.0762 2.1074,-0.166 l 0,0.5762 -0.8721,2.1392 -0.7998,0.9043 -0.6543,1.4004 c 0,0.7676 0,1.5352 0,2.3027 l 0.2188,0.9063 -0.3633,0.4102 -0.8008,0.4941 -0.8359,0.6992 0.6914,0.7813 -0.9453,0.8242 0.1816,0.5332 -1.418,1.6055 -0.9443,0 -0.7998,0.4941 -0.5098,0 0,-0.6582 -0.2168,-1.3184 c -0.2813,-0.8262 -0.5742,-1.6465 -0.8721,-2.4668 0,-0.6055 0.0361,-1.2051 0.0723,-1.8105 l 0.3643,-0.8223 -0.5098,-0.9883 0.0371,-1.3574 -0.6914,-0.7813 0.3457,-1.1309 -0.5625,-0.6382 -0.9824,0 -0.3271,-0.3701 -0.9814,0.6177 -0.3994,-0.4536 -0.9092,0.7817 c -0.6172,-0.6997 -1.2354,-1.3989 -1.8535,-2.0981 l -0.7266,-1.7285 0.6543,-0.9863 -0.3633,-0.4111 0.7988,-1.8936 c 0.6563,-0.8164 1.3418,-1.5996 2.0352,-2.3857 l 1.2363,-0.3291 1.3809,-0.1641 0.9453,0.2471 1.3447,1.3564 0.4727,-0.5342 0.6533,-0.082 1.2363,0.4111 0.9453,0 0.6543,-0.5762 0.291,-0.4111 -0.6553,-0.4111 -1.0908,-0.082 c -0.3027,-0.4199 -0.584,-0.8613 -0.9434,-1.2344 l -0.3643,0.1641 -0.1455,1.0703 -0.6543,-0.7402 -0.1445,-0.8242 -0.7266,-0.5742 -0.292,0 0.7275,0.8223 -0.291,0.7402 -0.5811,0.1641 0.3633,-0.7402 -0.6553,-0.3281 -0.5801,-0.6582 -1.0918,0.2461 -0.1445,0.3281 -0.6543,0.4121 -0.3633,0.9053 -0.9082,0.4521 -0.4004,-0.4521 -0.4355,0 0,-1.4814 0.9453,-0.4941 0.7266,0 -0.1465,-0.5752 -0.5801,-0.5762 0.9805,-0.2061 0.5449,-0.6162 0.4355,-0.7412 0.8008,0 -0.2188,-0.5752 0.5098,-0.3291 0,0.6582 1.0898,0.2461 1.0898,-0.9043 0.0732,-0.4121 0.9443,-0.6577 c -0.3418,0.0425 -0.6836,0.0737 -1.0176,0.1646 l 0,-0.7411 0.3633,-0.8228 -0.3633,0 -0.7984,0.7402 -0.2188,0.4116 0.2188,0.5767 -0.3643,0.9863 -0.5811,-0.3291 -0.5078,-0.5752 -0.8008,0.5752 -0.291,-1.3159 1.3809,-0.9048 0,-0.4941 0.873,-0.5757 1.3809,-0.3296 0.9453,0.3296 1.7441,0.3291 -0.4355,0.4932 -0.9453,0 0.9453,0.9873 0.7266,-0.8223 0.2207,-0.3618 c 0,0 2.7871,2.498 4.3799,5.2305 1.5928,2.7334 2.3408,5.9551 2.3408,6.6094 z" />
      </g>
    </g>
    <g
       id="g4146">
      <g
         id="g4150">
        <path
           inkscape:connector-curvature="0"
           id="path4152"
           d="m 26.0703,9.2363 -0.0732,0.4932 0.5098,0.3291 0.8711,-0.5757 -0.4355,-0.4937 -0.582,0.3296 -0.29,-0.0825" />
      </g>
    </g>
    <g
       id="g4154">
      <g
         id="g4158">
        <path
           inkscape:connector-curvature="0"
           id="path4160-4"
           d="m 26.8701,5.8633 -1.8906,-0.7407 -2.1797,0.2466 -2.6904,0.7402 -0.5088,0.4941 1.6719,1.1514 0,0.6582 -0.6543,0.6582 0.873,1.729 0.5801,-0.3301 0.7285,-1.1514 c 1.123,-0.3472 2.1299,-0.7407 3.1973,-1.2344 l 0.873,-2.2212" />
      </g>
    </g>
    <g
       id="g4162">
      <g
         id="g4166">
        <path
           inkscape:connector-curvature="0"
           id="path4168"
           d="m 28.833,12.7749 -0.291,-0.7412 -0.5098,0.165 0.1465,0.9043 0.6543,-0.3281" />
      </g>
    </g>
    <g
       id="g4170">
      <g
         id="g4174">
        <path
           inkscape:connector-curvature="0"
           id="path4176"
           d="m 29.123,12.6089 -0.1455,0.9883 0.7998,-0.165 0.5811,-0.5752 -0.5088,-0.4941 C 29.6787,11.9078 29.4824,11.483 29.2685,11.0465 l -0.4355,0 0,0.4932 0.29,0.3291 0,0.7402" />
      </g>
    </g>
    <g
       id="g4178">
      <g
         id="g4182">
        <path
           inkscape:connector-curvature="0"
           id="path4184"
           d="m 18.3652,28.2422 -0.582,-1.1523 -1.0903,-0.2466 -0.5815,-1.5625 -1.4536,0.1641 -1.2354,-0.9043 -1.3091,1.1514 0,0.1816 c -0.396,-0.1143 -0.8828,-0.1299 -1.2354,-0.3467 l -0.291,-0.8223 0,-0.9053 -0.8721,0.082 c 0.0728,-0.5762 0.145,-1.1514 0.2183,-1.7275 l -0.5093,0 -0.5083,0.6582 -0.5093,0.2461 -0.7271,-0.4102 -0.0728,-0.9053 0.1455,-0.9873 1.0908,-0.8223 0.8721,0 0.145,-0.4941 1.0903,0.2461 0.7998,0.9883 0.1455,-1.6465 1.3813,-1.1514 0.5088,-1.2344 1.0176,-0.4111 0.5815,-0.8223 1.3081,-0.248 0.6548,-0.9863 c -0.6543,0 -1.3086,0 -1.9629,0 l 1.2358,-0.5762 0.8716,0 1.2363,-0.4121 0.1455,-0.4922 -0.4365,-0.4121 -0.5088,-0.165 0.1455,-0.4932 -0.3633,-0.7402 -0.8726,0.3281 0.1455,-0.6577 -1.0176,-0.5762 -0.7993,1.3979 0.0723,0.4941 -0.7993,0.3301 -0.5093,1.0693 -0.2178,-0.9873 -1.3813,-0.5762 -0.2183,-0.7402 1.8174,-1.0703 0.7998,-0.7402 0.0728,-0.9048 -0.436,-0.2471 -0.5815,-0.0825 -0.3633,0.9053 c 0,0 -0.6079,0.1191 -0.7642,0.1577 -1.9961,1.8394 -6.0293,5.8101 -6.9663,13.3062 0.0371,0.1738 0.6792,1.1816 0.6792,1.1816 l 1.5264,0.9043 1.5264,0.4121 0.6548,0.8232 1.0171,0.7402 0.5815,-0.082 0.436,0.1963 0,0.1328 -0.5811,1.563 -0.4365,0.6582 0.1455,0.3301 -0.3633,1.2324 1.3086,2.3867 1.3081,1.1523 0.582,0.8223 -0.0732,1.7285 0.4365,0.9863 -0.4365,1.8926 c 0,0 -0.0342,-0.0117 0.0215,0.1777 0.0562,0.1895 2.3291,1.4512 2.4736,1.3438 0.144,-0.1094 0.2671,-0.2051 0.2671,-0.2051 l -0.145,-0.4102 0.5811,-0.5762 0.2183,-0.5762 0.9453,-0.3301 0.7266,-1.8105 -0.2178,-0.4922 0.5078,-0.7402 1.0908,-0.248 0.582,-1.3164 -0.1455,-1.6445 0.8721,-1.2344 0.1455,-1.2344 C 20.7331,29.4607 19.5495,28.8513 18.365,28.242" />
      </g>
    </g>
    <g
       id="g4186">
      <g
         id="g4190">
        <path
           inkscape:connector-curvature="0"
           id="path4192"
           d="m 16.7656,9.5649 0.7266,0.4937 0.582,0 0,-0.5757 -0.7266,-0.3291 -0.582,0.4111" />
      </g>
    </g>
    <g
       id="g4194">
      <g
         id="g4198">
        <path
           inkscape:connector-curvature="0"
           id="path4200"
           d="m 14.876,8.9072 -0.3638,0.9048 0.7271,0 0.3638,-0.8228 C 15.9166,8.7675 16.2286,8.5444 16.5479,8.331 l 0.7271,0.2471 c 0.4844,0.3291 0.9688,0.6582 1.4536,0.9868 L 19.4561,8.9072 18.6558,8.5781 18.292,7.8374 16.9111,7.6728 16.8383,7.2612 16.184,7.4262 15.8936,8.002 15.5298,7.2613 l -0.145,0.3291 0.0728,0.8228 -0.5816,0.494" />
      </g>
    </g>
    <g
       id="g4202">
      <g
         style="opacity:0.75"
         id="g4204">
        <path
           inkscape:connector-curvature="0"
           id="path4206"
           d="" />
      </g>
      <g
         id="g4208">
        <path
           inkscape:connector-curvature="0"
           id="path4210"
           d="" />
      </g>
    </g>
    <g
       id="g4212">
      <g
         style="opacity:0.75"
         id="g4214">
        <path
           inkscape:connector-curvature="0"
           id="path4216"
           d="" />
      </g>
      <g
         id="g4218">
        <path
           inkscape:connector-curvature="0"
           id="path4220"
           d="" />
      </g>
    </g>
    <g
       id="g4222">
      <g
         id="g4226">
        <path
           inkscape:connector-curvature="0"
           id="path4228"
           d="M 17.4922,6.8496 17.856,6.521 18.5831,6.3564 c 0.498,-0.2422 0.998,-0.4053 1.5264,-0.5762 l -0.29,-0.4937 -0.9385,0.1348 -0.4434,0.4419 -0.731,0.106 -0.6499,0.3052 -0.3159,0.1528 -0.1929,0.2583 0.9443,0.1641" />
      </g>
    </g>
    <g
       id="g4230">
      <g
         id="g4234">
        <path
           inkscape:connector-curvature="0"
           id="path4236"
           d="m 18.7285,14.6665 0.4365,-0.6582 -0.6548,-0.4932 0.2183,1.1514" />
      </g>
    </g>
  </g>
  <path
     inkscape:connector-curvature="0"
     style="fill:none;fill-opacity:1;fill-rule:nonzero;stroke:url(#radialGradient4132);stroke-width:0.64529186;stroke-miterlimit:4;stroke-opacity:1"
     id="path4122"
     d="m 44.601747,30.940199 c 0,6.559922 -5.317968,11.877829 -11.876988,11.877829 -6.559619,0 -11.877286,-5.317966 -11.877286,-11.877829 0,-6.559619 5.317667,-11.876984 11.877286,-11.876984 6.55902,0 11.876988,5.317365 11.876988,11.876984 l 0,0 z" />
</svg>
