<?xml version="1.0" ?><svg version="1.1" viewBox="4.45047999164672E-06 -0.167998999357224 158.613246281942 157.844009131193" xmlns="http://www.w3.org/2000/svg" xmlns:xlink="http://www.w3.org/1999/xlink"><defs><linearGradient id="def0" x1="0.423757" x2="0.539192" y1="0.57629" y2="0.460856"><stop offset="0" stop-color="#333333"/><stop offset="0.57265" stop-color="#000000"/><stop offset="1" stop-color="#4D4D4D"/></linearGradient><linearGradient id="def1" x1="0.259922" x2="0.640064" y1="1.59588" y2="-0.13955"><stop offset="0" stop-color="#FFFFFF" style="stop-opacity:0.803921568627451"/><stop offset="1" stop-color="#A7A8AC" style="stop-opacity:0.803921568627451"/></linearGradient><linearGradient id="def2" x1="0.247569" x2="0.629575" y1="0.752431" y2="0.370427"><stop offset="0" stop-color="#DDD8D5"/><stop offset="0.154195" stop-color="#919493"/><stop offset="0.264045" stop-color="#465052"/><stop offset="0.383318" stop-color="#929798"/><stop offset="0.573034" stop-color="#DFDFDF"/><stop offset="0.764409" stop-color="#B4B8BB"/><stop offset="0.876404" stop-color="#8A9197"/><stop offset="1" stop-color="#D0D2D3"/></linearGradient><linearGradient id="def3" x1="0.499995" x2="0.499995" y1="1.00001" y2="1.08989E-06"><stop offset="0" stop-color="#5D5C62"/><stop offset="0.47191" stop-color="#979799"/><stop offset="0.727843" stop-color="#8E8F92"/><stop offset="0.994382" stop-color="#85878C"/><stop offset="1" stop-color="#85878C"/></linearGradient><linearGradient id="def4" x1="1.08608" x2="0.252989" y1="-0.0861109" y2="0.746963"><stop offset="0" stop-color="#B8F8F9"/><stop offset="0.262799" stop-color="#99F5F7"/><stop offset="0.723549" stop-color="#B3E2FF"/><stop offset="1" stop-color="#B3E2FF"/></linearGradient><linearGradient id="def5" x1="0.5" x2="0.5" y1="0.999994" y2="3.23001E-06"><stop offset="0" stop-color="#FFFFFF" style="stop-opacity:0"/><stop offset="1" stop-color="#FFFFFF" style="stop-opacity:0.752941176470588"/></linearGradient></defs><g><path d="M67.3693,66.4307C63.4053,70.404,63.3973,76.836,67.3693,80.8L141.268,154.703C145.239,158.667,151.669,158.667,155.641,154.703L155.641,154.703C159.604,150.731,159.604,144.291,155.641,140.327L81.7373,66.4307C79.756,64.4467,77.1573,63.4547,74.5573,63.4547L74.5573,63.4547C71.9573,63.4547,69.356,64.4467,67.3693,66.4307z" fill="url(#def0)"/><path d="M155.691,141.431C156.321,142.059 155.976,143.419 154.927,144.469 153.879,145.517 152.516,145.86 151.888,145.231L87.0533,80.392C86.42,79.7707 86.7627,78.408 87.812,77.356 88.86,76.3107 90.2213,75.9667 90.852,76.5893L155.691,141.431z" fill="url(#def1)"/><path d="M86.156,99.5853L100.249,113.68 114.619,99.3107 100.524,85.2173 86.156,99.5853z" fill="url(#def2)"/><path d="M4.45048E-06,55.8293C4.45048E-06,86.7587,25.072,111.835,56.0013,111.835L56.0013,111.835C86.9253,111.835,111.999,86.7587,111.999,55.8293L111.999,55.8293C111.999,24.9093,86.9253,-0.167999,56.0013,-0.167999L56.0013,-0.167999C25.072,-0.167999,4.45048E-06,24.9093,4.45048E-06,55.8293z" fill="url(#def3)"/><path d="M5.804,55.6107C5.804,83.22,28.1813,105.603,55.7853,105.603L55.7853,105.603C83.3827,105.603,105.765,83.22,105.765,55.6107L105.765,55.6107C105.765,28.0133,83.3827,5.63867,55.7853,5.63867L55.7853,5.63867C28.1813,5.63867,5.804,28.0133,5.804,55.6107z" fill="url(#def4)"/><path d="M107.075,44.2853C107.075,67.1053 84.208,85.6093 55.9973,85.6093 27.7893,85.6093 4.92267,67.1053 4.92267,44.2853 4.92267,21.4653 27.7907,0.575989 55.9987,0.575989 84.2093,0.575989 107.075,21.4653 107.075,44.2853z" fill="url(#def5)"/><path d="M55.8907,16.4949C64.952,16.4949 73.428,18.0936 80.6707,20.8669 74.2093,15.6496 65.4933,12.4429 55.8907,12.4429 46.288,12.4429 37.5693,15.6496 31.1093,20.8669 38.352,18.0936 46.8267,16.4949 55.8907,16.4949z" fill="#FFFFFF"/><path d="M76.7453,59.3627L35.1693,59.3627 35.1693,51.4307 76.7453,51.4307 76.7453,59.3627z" fill="#1A1A1A"/></g></svg>