<?xml version="1.0" encoding="UTF-8" standalone="no"?>
<!-- Created with Inkscape (http://www.inkscape.org/) -->
<svg
   xmlns:svg="http://www.w3.org/2000/svg"
   xmlns="http://www.w3.org/2000/svg"
   version="1.0"
   width="2700"
   height="1350"
   id="svg2729">
  <defs
     id="defs2732" />
  <path
     d="M 1515.,549.1 L 1505.,553.0 L 1493.,553.9 L 1482.,552.6 L 1471.,549.5 L 1463.,549.1 L 1456.,542.6 L 1438.,533.4 L 1417.,524.3 L 1408.,514.7 L 1404.,497.3 L 1409.,481.1 L 1408.,470.3 L 1401.,461.1 L 1400.,452.0 L 1403.,446.3 L 1409.,435.4 L 1414.,435.0 L 1419.,436.3 L 1425.,432.8 L 1424.,424.1 L 1427.,420.2 L 1432.,411.0 L 1431.,407.5 L 1438.,403.6 L 1443.,394.0 L 1449.,391.4 L 1457.,391.9 L 1470.,390.6 L 1475.,394.0 L 1490.,402.8 L 1495.,401.9 L 1498.,410.2 L 1509.,417.6 L 1517.,417.6 L 1529.,410.6 L 1534.,408.4 L 1547.,406.2 L 1554.,402.8 L 1562.,404.9 L 1570.,411.9 L 1568.,420.6 L 1563.,428.0 L 1561.,436.3 L 1563.,447.2 L 1570.,450.7 L 1578.,452.0 L 1579.,457.2 L 1576.,466.3 L 1579.,472.9 L 1587.,475.1 L 1584.,482.9 L 1576.,482.5 L 1572.,482.5 L 1572.,492.0 L 1576.,501.6 L 1572.,506.8 L 1572.,513.4 L 1579.,514.7 L 1578.,522.5 L 1571.,529.9 L 1569.,528.6 L 1569.,536.9 L 1574.,539.9 L 1584.,541.7 L 1592.,547.3 L 1598.,556.1 L 1603.,560.4 L 1608.,560.4 L 1609.,556.5 L 1607.,550.0 L 1607.,543.0 L 1608.,536.5 L 1608.,529.9 L 1611.,527.7 L 1617.,529.5 L 1625.,536.5 L 1630.,545.6 L 1633.,547.8 L 1636.,544.3 L 1636.,539.1 L 1639.,533.0 L 1644.,532.5 L 1650.,531.2 L 1659.,531.7 L 1665.,534.7 L 1665.,538.6 L 1660.,542.6 L 1656.,544.3 L 1652.,547.8 L 1648.,549.5 L 1646.,553.9 L 1649.,556.9 L 1650.,562.6 L 1650.,571.3 L 1653.,578.3 L 1657.,580.9 L 1659.,586.1 L 1665.,586.5 L 1674.,585.7 L 1680.,587.8 L 1677.,593.1 L 1684.,593.1 L 1691.,594.8 L 1694.,595.7 L 1686.,600.9 L 1681.,600.5 L 1677.,599.6 L 1670.,601.3 L 1668.,604.8 L 1666.,615.3 L 1660.,617.5 L 1657.,616.1 L 1654.,618.8 L 1653.,624.9 L 1660.,624.4 L 1665.,624.0 L 1668.,620.5 L 1675.,620.5 L 1689.,611.8 L 1697.,611.4 L 1706.,609.2 L 1715.,612.7 L 1722.,622.7 L 1732.,634.4 L 1742.,635.3 L 1747.,641.8 L 1755.,647.1 L 1764.,651.9 L 1773.,658.0 L 1775.,663.2 L 1782.,655.8 L 1790.,656.2 L 1797.,661.4 L 1795.,666.2 L 1791.,667.5 L 1799.,672.8 L 1808.,671.0 L 1811.,667.1 L 1816.,663.6 L 1824.,664.1 L 1826.,659.7 L 1833.,656.6 L 1842.,651.9 L 1842.,648.4 L 1854.,652.7 L 1859.,654.5 L 1862.,658.8 L 1863.,663.6 L 1862.,668.8 L 1856.,667.5 L 1849.,669.7 L 1845.,679.3 L 1839.,681.0 L 1832.,678.4 L 1815.,675.4 L 1813.,685.0 L 1809.,697.2 L 1814.,701.5 L 1816.,707.2 L 1820.,714.1 L 1820.,720.2 L 1813.,723.7 L 1802.,724.6 L 1793.,731.6 L 1792.,738.5 L 1795.,756.4 L 1799.,762.5 L 1795.,777.7 L 1782.,795.1 L 1788.,815.2 L 1782.,818.7 L 1777.,819.1 L 1772.,815.2 L 1768.,812.6 L 1761.,816.0 L 1761.,821.3 L 1760.,829.5 L 1756.,835.2 L 1741.,838.7 L 1731.,844.8 L 1730.,840.0 L 1731.,833.9 L 1728.,825.6 L 1724.,820.8 L 1725.,812.1 L 1725.,806.5 L 1738.,797.3 L 1743.,793.0 L 1748.,788.2 L 1752.,778.6 L 1748.,772.9 L 1741.,769.0 L 1739.,776.4 L 1734.,774.7 L 1728.,774.2 L 1723.,776.8 L 1715.,769.0 L 1706.,758.6 L 1701.,761.2 L 1700.,768.1 L 1699.,774.2 L 1694.,772.1 L 1690.,766.8 L 1679.,759.0 L 1677.,757.2 L 1677.,752.5 L 1676.,745.1 L 1674.,739.4 L 1668.,733.7 L 1661.,728.5 L 1657.,721.1 L 1660.,714.6 L 1669.,714.6 L 1674.,717.6 L 1679.,715.4 L 1674.,709.8 L 1668.,705.0 L 1665.,698.9 L 1656.,696.3 L 1670.,678.4 L 1669.,671.5 L 1659.,674.9 L 1653.,677.6 L 1643.,673.6 L 1641.,667.5 L 1637.,673.2 L 1632.,674.5 L 1630.,669.3 L 1624.,670.2 L 1618.,673.2 L 1616.,670.2 L 1616.,663.6 L 1610.,661.9 L 1603.,661.4 L 1600.,657.1 L 1593.,663.2 L 1594.,668.4 L 1594.,671.9 L 1588.,672.8 L 1587.,675.8 L 1588.,678.4 L 1587.,682.8 L 1583.,682.8 L 1580.,695.4 L 1579.,700.2 L 1580.,703.2 L 1584.,713.7 L 1581.,719.4 L 1579.,725.0 L 1581.,731.6 L 1587.,732.0 L 1590.,734.6 L 1599.,749.0 L 1608.,752.9 L 1618.,758.1 L 1627.,761.2 L 1634.,767.7 L 1643.,770.3 L 1649.,773.4 L 1650.,780.3 L 1647.,787.7 L 1645.,795.1 L 1647.,803.0 L 1650.,817.3 L 1650.,821.7 L 1643.,824.7 L 1638.,825.6 L 1630.,823.9 L 1626.,828.7 L 1620.,832.2 L 1613.,829.1 L 1605.,823.0 L 1595.,820.8 L 1586.,820.0 L 1580.,824.3 L 1575.,820.0 L 1567.,812.1 L 1563.,803.0 L 1568.,795.6 L 1572.,789.5 L 1573.,784.7 L 1579.,779.9 L 1586.,779.9 L 1591.,776.8 L 1597.,769.4 L 1596.,765.5 L 1587.,761.2 L 1582.,755.5 L 1577.,751.2 L 1574.,752.5 L 1569.,759.0 L 1563.,759.9 L 1548.,748.1 L 1538.,745.9 L 1528.,744.2 L 1525.,734.2 L 1522.,718.9 L 1525.,712.0 L 1528.,708.0 L 1531.,704.6 L 1534.,703.2 L 1540.,707.2 L 1543.,702.8 L 1542.,698.9 L 1536.,688.4 L 1539.,684.5 L 1533.,682.8 L 1527.,683.7 L 1524.,681.5 L 1522.,684.5 L 1519.,688.4 L 1514.,680.2 L 1508.,678.4 L 1502.,677.6 L 1494.,677.1 L 1489.,673.2 L 1487.,661.0 L 1481.,654.5 L 1479.,653.2 L 1474.,655.8 L 1474.,664.9 L 1472.,668.0 L 1468.,665.8 L 1465.,659.3 L 1465.,653.2 L 1466.,647.5 L 1470.,644.9 L 1477.,644.5 L 1483.,642.7 L 1488.,632.3 L 1486.,627.0 L 1484.,622.2 L 1482.,614.8 L 1481.,610.1 L 1485.,606.1 L 1488.,605.7 L 1490.,600.9 L 1485.,598.7 L 1479.,595.2 L 1475.,589.6 L 1468.,583.5 L 1474.,581.3 L 1482.,584.4 L 1484.,577.4 L 1490.,578.3 L 1495.,580.4 L 1500.,579.1 L 1501.,573.0 L 1503.,568.2 L 1508.,564.3 L 1516.,555.6 L 1518.,552.1 L 1515.,549.1 z"
     id="path2814"
     style="fill:#000000;fill-opacity:1;fill-rule:evenodd;stroke:none;stroke-width:1px;stroke-linecap:butt;stroke-linejoin:miter;stroke-opacity:1" />
  <path
     d="M 1733.,530.4 L 1738.,539.9 L 1731.,545.6 L 1728.,549.1 L 1734.,551.3 L 1733.,559.1 L 1731.,561.7 L 1725.,563.5 L 1723.,567.4 L 1728.,574.3 L 1741.,579.1 L 1745.,580.0 L 1750.,583.9 L 1755.,587.4 L 1758.,594.4 L 1769.,599.2 L 1774.,604.0 L 1789.,601.8 L 1794.,599.2 L 1801.,599.6 L 1809.,598.7 L 1812.,596.1 L 1818.,593.9 L 1823.,591.3 L 1829.,584.8 L 1836.,581.7 L 1838.,577.4 L 1838.,572.6 L 1839.,566.9 L 1845.,565.6 L 1853.,566.5 L 1866.,566.5 L 1870.,562.6 L 1869.,556.9 L 1865.,550.4 L 1868.,538.2 L 1870.,530.8 L 1869.,526.9 L 1864.,531.2 L 1859.,528.2 L 1850.,521.2 L 1845.,516.0 L 1843.,508.1 L 1838.,506.8 L 1834.,511.2 L 1826.,509.5 L 1819.,503.4 L 1820.,496.0 L 1809.,491.6 L 1807.,494.6 L 1806.,499.4 L 1799.,498.6 L 1796.,494.2 L 1792.,493.8 L 1788.,499.4 L 1772.,505.1 L 1763.,506.0 L 1752.,507.3 L 1742.,516.4 L 1737.,515.6 L 1735.,523.8 L 1732.,526.9 L 1733.,530.4 z"
     id="path3586"
     style="fill:#000000;fill-opacity:1;fill-rule:evenodd;stroke:none;stroke-width:1px;stroke-linecap:butt;stroke-linejoin:miter;stroke-opacity:1" />
  <path
     d="M 1996.,645.8 L 2001.,642.3 L 2008.,643.1 L 2015.,645.3 L 2021.,646.6 L 2026.,644.9 L 2031.,644.0 L 2037.,644.5 L 2042.,647.5 L 2041.,651.4 L 2037.,651.0 L 2036.,658.0 L 2038.,661.4 L 2045.,669.7 L 2048.,677.6 L 2047.,685.8 L 2052.,689.7 L 2055.,690.2 L 2050.,695.0 L 2047.,697.2 L 2042.,698.5 L 2039.,694.5 L 2031.,685.4 L 2029.,681.5 L 2027.,679.7 L 2022.,684.1 L 2018.,688.4 L 2012.,689.3 L 2007.,688.0 L 2004.,690.2 L 2004.,695.4 L 2005.,704.1 L 2012.,703.2 L 2017.,704.6 L 2007.,708.0 L 2007.,712.8 L 2009.,718.5 L 2011.,720.7 L 2014.,723.3 L 2013.,728.9 L 2013.,732.9 L 2011.,735.5 L 2006.,734.2 L 2003.,730.2 L 1998.,725.9 L 1993.,725.0 L 1984.,729.8 L 1980.,729.4 L 1977.,727.2 L 1966.,715.0 L 1963.,711.5 L 1958.,702.8 L 1958.,698.5 L 1961.,686.3 L 1958.,678.9 L 1961.,674.5 L 1969.,673.2 L 1974.,671.0 L 1977.,670.6 L 1982.,675.8 L 1987.,679.7 L 1991.,678.9 L 1993.,675.8 L 1998.,673.6 L 1999.,671.5 L 1998.,668.0 L 1996.,665.8 L 1994.,666.7 L 1991.,669.7 L 1987.,671.0 L 1986.,669.3 L 1988.,664.5 L 1990.,663.2 L 1991.,659.3 L 1989.,655.8 L 1988.,651.4 L 1987.,647.1 L 1992.,646.2 L 1996.,645.8 z"
     id="path3588"
     style="fill:#000000;fill-opacity:1;fill-rule:evenodd;stroke:none;stroke-width:1px;stroke-linecap:butt;stroke-linejoin:miter;stroke-opacity:1" />
  <path
     d="M 2080.,471.6 L 2081.,474.6 L 2082.,475.9 L 2085.,477.2 L 2088.,478.1 L 2090.,477.2 L 2092.,475.1 L 2093.,474.2 L 2095.,471.6 L 2092.,466.3 L 2092.,464.2 L 2090.,462.9 L 2083.,464.2 L 2081.,467.2 L 2080.,471.6 z"
     id="path3590"
     style="fill:#000000;fill-opacity:1;fill-rule:evenodd;stroke:none;stroke-width:1px;stroke-linecap:butt;stroke-linejoin:miter;stroke-opacity:1" />
  <path
     d="M 2018.,572.6 L 2012.,567.8 L 2011.,560.4 L 2017.,554.3 L 2020.,553.4 L 2025.,555.6 L 2028.,557.8 L 2027.,565.2 L 2025.,572.2 L 2026.,575.6 L 2032.,575.2 L 2034.,571.3 L 2034.,566.9 L 2035.,563.9 L 2040.,565.2 L 2043.,569.6 L 2038.,577.4 L 2036.,580.4 L 2043.,580.0 L 2046.,578.3 L 2052.,582.2 L 2052.,587.8 L 2043.,590.9 L 2038.,588.7 L 2032.,588.3 L 2028.,589.6 L 2021.,587.8 L 2020.,587.0 L 2016.,586.1 L 2013.,588.7 L 2010.,596.1 L 2005.,599.2 C 2005.,599.2 2004.,598.7 2002.,597.9 C 2001.,597.0 1996.,594.8 1996.,594.8 L 1995.,591.3 L 1988.,588.3 L 1982.,589.6 L 1977.,590.0 L 1968.,594.4 L 1962.,593.1 L 1960.,587.0 L 1957.,583.9 L 1949.,578.3 L 1947.,571.3 L 1945.,568.2 L 1945.,561.7 L 1947.,560.0 L 1952.,564.3 L 1954.,566.5 L 1959.,568.2 L 1964.,567.4 L 1967.,566.5 L 1970.,558.7 L 1969.,556.1 L 1967.,553.9 L 1965.,545.2 L 1967.,542.1 L 1970.,540.4 L 1979.,540.8 L 1981.,538.2 L 1984.,538.6 L 1988.,539.9 L 1988.,543.0 L 1988.,545.6 L 1993.,546.5 L 1994.,549.5 L 1990.,554.7 L 1986.,553.9 L 1984.,553.4 L 1987.,560.8 L 1989.,562.6 L 1993.,560.4 L 1997.,556.5 L 2000.,555.6 L 2004.,557.4 L 2006.,564.3 L 2008.,570.0 L 2011.,572.2 L 2015.,573.5 L 2018.,572.6 z"
     id="path3592"
     style="fill:#000000;fill-opacity:1;fill-rule:evenodd;stroke:none;stroke-width:1px;stroke-linecap:butt;stroke-linejoin:miter;stroke-opacity:1" />
  <path
     d="M 1910.,249.9 L 1920.,245.5 L 1927.,240.8 L 1936.,235.5 L 1940.,235.1 L 1946.,232.9 L 1947.,228.6 L 1950.,225.5 L 1955.,226.8 L 1959.,231.2 L 1959.,236.0 L 1963.,237.7 L 1968.,238.6 L 1970.,240.3 L 1973.,243.4 L 1982.,248.6 L 1991.,247.3 L 1999.,248.2 L 2003.,245.5 L 2011.,247.3 L 2009.,249.5 L 2005.,250.8 L 2001.,254.3 L 2001.,257.3 L 2001.,260.4 L 1993.,259.9 L 1988.,258.6 L 1982.,259.0 L 1975.,261.2 L 1971.,262.1 L 1966.,259.5 L 1961.,256.4 L 1954.,256.4 L 1951.,259.0 L 1957.,263.4 L 1959.,269.9 L 1950.,272.5 L 1935.,265.1 L 1928.,268.2 L 1921.,266.0 L 1916.,260.4 L 1911.,256.0 L 1910.,249.9 z"
     id="path3594"
     style="fill:#000000;fill-opacity:1;fill-rule:evenodd;stroke:none;stroke-width:1px;stroke-linecap:butt;stroke-linejoin:miter;stroke-opacity:1" />
  <path
     d="M 2314.,824.0 L 2312.,822.5 L 2311.,821.2 L 2307.,820.3 L 2303.,820.9 L 2299.,822.5 L 2298.,829.5 L 2299.,832.3 L 2300.,833.8 L 2303.,835.7 L 2306.,836.3 L 2312.,842.2 L 2313.,844.6 L 2321.,848.3 L 2324.,847.4 L 2327.,846.2 L 2329.,844.3 L 2331.,837.5 L 2333.,835.7 L 2336.,832.3 L 2337.,829.8 L 2336.,828.0 L 2334.,825.2 L 2332.,822.8 L 2330.,819.1 L 2327.,817.5 L 2322.,816.9 L 2320.,813.8 L 2318.,815.7 L 2317.,819.4 L 2315.,821.5 L 2318.,823.7 L 2320.,824.6 L 2321.,826.5 L 2319.,829.8 L 2316.,831.1 L 2312.,829.8 L 2311.,828.3 L 2311.,826.8 L 2312.,825.8 L 2314.,824.0 z"
     id="path3596"
     style="fill:#000000;fill-opacity:1;fill-rule:evenodd;stroke:none;stroke-width:1px;stroke-linecap:butt;stroke-linejoin:miter;stroke-opacity:1" />
  <path
     d="M 2448.,457.2 L 2443.,463.7 L 2440.,466.8 L 2437.,468.0 L 2433.,478.2 L 2434.,480.6 L 2435.,483.1 L 2442.,485.0 L 2444.,483.4 L 2447.,480.9 L 2450.,479.4 L 2454.,477.6 L 2458.,477.6 L 2462.,482.5 L 2461.,484.3 L 2458.,485.9 L 2455.,490.5 L 2462.,491.7 L 2470.,493.9 L 2473.,491.4 L 2474.,488.6 L 2477.,481.3 L 2482.,489.3 L 2484.,494.5 L 2486.,496.3 L 2488.,496.7 L 2491.,492.7 L 2491.,488.6 L 2490.,485.3 L 2487.,480.0 L 2485.,477.6 L 2485.,474.5 L 2489.,473.6 L 2493.,470.8 L 2494.,468.6 L 2493.,462.8 L 2492.,459.4 L 2492.,456.6 L 2490.,453.5 L 2486.,448.6 L 2483.,444.3 L 2481.,442.1 L 2479.,448.9 L 2475.,448.6 L 2471.,445.2 L 2472.,442.8 L 2469.,440.0 L 2460.,444.6 L 2461.,451.7 L 2460.,455.1 L 2457.,456.3 L 2452.,455.7 L 2448.,457.2 z"
     id="path3598"
     style="fill:#000000;fill-opacity:1;fill-rule:evenodd;stroke:none;stroke-width:1px;stroke-linecap:butt;stroke-linejoin:miter;stroke-opacity:1" />
  <path
     d="M 2595.,906.5 L 2599.,905.9 L 2603.,906.5 L 2607.,908.1 L 2612.,912.4 L 2613.,907.4 L 2614.,905.0 L 2616.,913.0 L 2620.,912.4 L 2621.,914.5 L 2620.,920.7 L 2617.,920.1 L 2615.,918.8 L 2612.,921.9 L 2612.,925.0 L 2615.,928.1 L 2617.,924.1 L 2619.,926.2 L 2623.,935.8 L 2619.,935.2 L 2615.,933.9 L 2610.,930.8 L 2607.,929.9 L 2603.,931.5 L 2600.,931.8 L 2589.,932.4 L 2583.,929.3 L 2575.,926.5 L 2570.,926.5 L 2564.,924.4 C 2564.,924.4 2564.,917.1 2565.,916.6 L 2569.,913.9 L 2574.,917.9 L 2571.,921.3 L 2576.,918.5 L 2579.,917.0 L 2582.,913.9 L 2585.,908.4 L 2589.,909.0 L 2592.,907.8 L 2595.,906.5 z"
     id="path3600"
     style="fill:#000000;fill-opacity:1;fill-rule:evenodd;stroke:none;stroke-width:1px;stroke-linecap:butt;stroke-linejoin:miter;stroke-opacity:1" />
  <path
     d="M 2641.,800.3 L 2638.,804.0 L 2639.,808.9 L 2643.,809.8 L 2646.,810.4 L 2650.,811.1 L 2653.,809.2 L 2656.,806.7 L 2658.,803.7 L 2659.,801.2 L 2657.,801.5 L 2654.,800.9 L 2654.,800.6 L 2651.,801.8 L 2650.,799.7 L 2648.,797.2 L 2647.,795.0 L 2645.,794.1 L 2643.,794.1 L 2642.,795.7 L 2643.,796.6 L 2643.,797.5 L 2641.,800.3 z"
     id="path3602"
     style="fill:#000000;fill-opacity:1;fill-rule:evenodd;stroke:none;stroke-width:1px;stroke-linecap:butt;stroke-linejoin:miter;stroke-opacity:1" />
  <path
     d="M 2583.,1013. L 2583.,1009. L 2585.,1007. L 2591.,1003. L 2595.,1004. L 2600.,1008. L 2601.,1014. L 2597.,1017. L 2591.,1018. L 2586.,1018. L 2585.,1022. L 2583.,1026. L 2577.,1030. L 2571.,1031. L 2568.,1030. L 2566.,1022. L 2566.,1017. L 2568.,1013. L 2566.,1010. L 2567.,1005. L 2569.,1003. L 2571.,1002. L 2574.,1004. L 2576.,1005. L 2575.,1009. L 2576.,1012. L 2578.,1013. L 2583.,1013. z"
     id="path3604"
     style="fill:#000000;fill-opacity:1;fill-rule:evenodd;stroke:none;stroke-width:1px;stroke-linecap:butt;stroke-linejoin:miter;stroke-opacity:1" />
  <path
     d="M 2568.,932.1 L 2571.,939.5 L 2570.,942.9 L 2570.,943.5 L 2573.,944.7 L 2575.,943.8 L 2580.,944.1 L 2586.,941.9 L 2586.,941.6 L 2590.,943.2 L 2590.,946.9 L 2590.,948.7 L 2590.,952.4 L 2592.,953.9 L 2598.,958.3 L 2602.,958.3 L 2608.,956.1 L 2609.,953.9 L 2610.,952.7 L 2612.,948.7 L 2612.,945.3 L 2611.,942.5 L 2610.,939.2 L 2608.,937.0 L 2605.,935.8 L 2602.,937.3 L 2599.,937.6 L 2596.,936.7 L 2593.,937.0 L 2590.,936.4 L 2586.,937.9 L 2582.,939.5 L 2579.,939.5 L 2575.,935.2 L 2575.,932.7 L 2573.,930.8 L 2570.,930.2 L 2568.,932.1 z"
     id="path3606"
     style="fill:#000000;fill-opacity:1;fill-rule:evenodd;stroke:none;stroke-width:1px;stroke-linecap:butt;stroke-linejoin:miter;stroke-opacity:1" />
  <path
     d="M 2665.,525.3 L 2667.,524.7 L 2670.,525.0 L 2671.,526.5 L 2671.,528.7 L 2675.,530.5 L 2675.,533.0 L 2675.,534.2 L 2672.,533.6 L 2668.,534.2 L 2667.,536.7 L 2666.,538.8 L 2666.,541.9 L 2664.,541.0 L 2662.,537.0 L 2661.,534.2 L 2661.,531.1 L 2662.,529.3 L 2662.,528.1 L 2665.,525.3 z"
     id="path3608"
     style="fill:#000000;fill-opacity:1;fill-rule:evenodd;stroke:none;stroke-width:1px;stroke-linecap:butt;stroke-linejoin:miter;stroke-opacity:1" />
  <path
     d="M 2291.,928.1 L 2293.,927.5 L 2295.,927.2 L 2297.,927.2 L 2299.,927.8 L 2301.,927.5 L 2302.,925.0 L 2300.,923.1 L 2296.,921.6 L 2292.,922.5 L 2291.,923.1 L 2290.,925.9 L 2291.,928.1 z"
     id="path3610"
     style="fill:#000000;fill-opacity:1;fill-rule:evenodd;stroke:none;stroke-width:1px;stroke-linecap:butt;stroke-linejoin:miter;stroke-opacity:1" />
  <path
     d="M 2376.,1003. L 2372.,1008. L 2371.,1010. L 2374.,1015. L 2377.,1018. L 2384.,1019. L 2386.,1017. L 2388.,1014. L 2389.,1010. L 2388.,1008. L 2387.,1005. L 2385.,1003. L 2383.,1002. L 2380.,1002. L 2376.,1003. z"
     id="path3612"
     style="fill:#000000;fill-opacity:1;fill-rule:evenodd;stroke:none;stroke-width:1px;stroke-linecap:butt;stroke-linejoin:miter;stroke-opacity:1" />
  <path
     d="M 2105.,438.8 L 2102.,435.4 L 2094.,431.1 L 2095.,429.2 L 2098.,427.7 L 2101.,427.4 C 2101.,427.4 2104.,428.9 2105.,429.5 C 2107.,430.1 2111.,431.7 2111.,431.7 L 2113.,430.8 L 2114.,430.8 C 2114.,430.8 2119.,431.1 2120.,431.7 C 2122.,432.3 2122.,433.8 2122.,433.8 L 2122.,434.1 L 2122.,436.3 L 2121.,440.0 L 2121.,440.6 L 2121.,444.9 C 2121.,444.9 2124.,445.8 2126.,446.5 C 2127.,447.1 2129.,447.1 2129.,447.1 L 2132.,447.7 L 2138.,449.2 L 2138.,449.5 L 2140.,451.4 L 2140.,443.4 L 2142.,441.8 L 2148.,440.3 L 2162.,448.3 L 2161.,456.9 L 2152.,460.9 L 2148.,459.1 L 2145.,457.5 L 2140.,459.4 L 2136.,461.9 L 2136.,468.0 L 2135.,469.2 L 2132.,471.1 L 2128.,471.1 L 2123.,470.5 L 2117.,468.6 L 2117.,465.6 L 2113.,462.5 L 2110.,460.6 L 2108.,460.9 L 2105.,464.0 L 2103.,464.9 L 2101.,464.0 L 2097.,461.2 L 2092.,457.9 L 2087.,456.9 L 2084.,456.6 L 2080.,455.4 L 2078.,453.9 L 2078.,452.9 L 2078.,450.2 L 2079.,448.3 L 2081.,446.8 L 2085.,443.7 L 2091.,441.5 L 2093.,441.5 L 2097.,442.8 L 2102.,444.3 L 2104.,445.5 L 2108.,445.2 L 2109.,442.1 L 2108.,440.9 L 2105.,438.8 z"
     id="path3614"
     style="fill:#000000;fill-opacity:1;fill-rule:evenodd;stroke:none;stroke-width:1px;stroke-linecap:butt;stroke-linejoin:miter;stroke-opacity:1" />
  <path
     d="M 2125.,483.4 L 2124.,489.0 L 2127.,491.4 L 2129.,492.0 L 2132.,490.5 L 2135.,488.6 L 2136.,487.4 L 2138.,485.9 L 2139.,485.3 L 2140.,483.1 L 2139.,480.6 L 2138.,479.1 L 2136.,478.8 L 2134.,480.0 L 2132.,479.7 L 2129.,477.9 L 2128.,477.6 L 2126.,480.3 L 2125.,483.4 z"
     id="path3616"
     style="fill:#000000;fill-opacity:1;fill-rule:evenodd;stroke:none;stroke-width:1px;stroke-linecap:butt;stroke-linejoin:miter;stroke-opacity:1" />
  <path
     d="M 2122.,860.6 L 2121.,862.2 L 2120.,865.3 L 2120.,867.1 L 2121.,869.3 L 2122.,869.9 L 2125.,871.1 L 2126.,871.7 L 2128.,874.8 L 2126.,877.6 L 2125.,880.3 L 2123.,882.5 L 2125.,884.7 L 2126.,886.5 L 2128.,887.7 L 2133.,888.4 L 2134.,885.9 L 2133.,879.4 L 2134.,876.6 L 2133.,873.0 L 2131.,870.5 L 2130.,868.6 L 2129.,867.4 L 2126.,867.7 L 2125.,867.4 L 2125.,864.3 L 2127.,860.9 L 2126.,859.4 L 2122.,860.6 z"
     id="path3618"
     style="fill:#000000;fill-opacity:1;fill-rule:evenodd;stroke:none;stroke-width:1px;stroke-linecap:butt;stroke-linejoin:miter;stroke-opacity:1" />
  <path
     d="M 2028.,908.1 L 2030.,907.8 L 2031.,906.2 L 2032.,905.6 L 2034.,906.5 L 2037.,907.4 L 2039.,909.3 L 2041.,911.1 L 2045.,914.5 L 2049.,917.6 L 2050.,918.5 L 2053.,918.5 L 2054.,918.8 L 2057.,921.6 L 2060.,924.1 L 2061.,926.8 L 2064.,929.9 L 2065.,930.2 L 2067.,930.5 L 2069.,930.5 L 2071.,930.8 L 2074.,932.1 L 2081.,934.5 L 2082.,937.3 L 2083.,941.0 L 2085.,943.5 L 2086.,945.6 L 2089.,946.9 L 2092.,947.2 L 2095.,945.6 L 2098.,945.3 L 2102.,946.2 L 2104.,948.1 L 2104.,952.1 L 2102.,954.6 L 2098.,956.4 L 2096.,956.1 L 2093.,954.6 L 2092.,952.4 L 2088.,949.6 L 2085.,948.7 L 2083.,949.9 L 2080.,952.7 L 2076.,952.7 L 2072.,951.5 L 2070.,947.8 L 2065.,953.9 L 2057.,952.4 L 2053.,951.2 L 2049.,952.1 L 2044.,952.7 L 2039.,950.9 L 2036.,949.3 L 2033.,944.4 L 2034.,941.6 L 2036.,938.9 L 2041.,935.8 L 2045.,932.7 L 2047.,930.2 L 2048.,927.2 L 2046.,925.6 L 2040.,926.5 L 2028.,924.4 L 2025,924.12181 L 2022.,918.2 L 2025.,916.7 L 2028.,917.0 L 2032.,916.7 L 2033.,915.1 L 2032.,912.4 L 2029.,910.5 L 2028.,908.1 z"
     id="path3620"
     style="fill:#000000;fill-opacity:1;fill-rule:evenodd;stroke:none;stroke-width:1px;stroke-linecap:butt;stroke-linejoin:miter;stroke-opacity:1" />
  <path
     d="M 2066.,986.0 L 2063.,990.6 L 2063.,994.3 L 2068.,996.7 L 2072.,996.4 L 2074.,995.8 L 2076.,994.3 L 2077.,992.4 L 2077.,990.3 L 2076.,987.8 L 2075.,985.7 L 2071.,984.4 L 2069.,985.4 L 2066.,986.0 z"
     id="path3622"
     style="fill:#000000;fill-opacity:1;fill-rule:evenodd;stroke:none;stroke-width:1px;stroke-linecap:butt;stroke-linejoin:miter;stroke-opacity:1" />
  <path
     d="M 2007.,934.5 L 2004.,938.5 L 2002.,943.2 L 2001.,944.7 L 1995.,945.3 L 1996.,946.9 L 1996.,949.0 L 1993.,949.0 L 1992.,948.1 L 1992.,945.6 L 1990.,944.1 L 1988.,942.5 L 1986.,939.5 L 1987.,937.6 L 1989.,935.8 L 1990.,933.3 L 1990.,930.8 L 1990.,929.6 L 1992.,928.1 L 1999.,924.4 L 1994.,922.2 L 1994.,920.7 L 1999.,919.1 L 2003.,919.1 L 2005.,920.4 L 2007.,923.1 L 2006.,926.8 L 2006.,929.6 L 2007.,934.5 z"
     id="path3624"
     style="fill:#000000;fill-opacity:1;fill-rule:evenodd;stroke:none;stroke-width:1px;stroke-linecap:butt;stroke-linejoin:miter;stroke-opacity:1" />
  <path
     d="M 2019.,913.9 L 2017.,913.9 L 2016.,915.8 L 2017.,917.0 L 2020.,917.3 L 2022.,915.4 L 2023.,913.3 L 2024.,910.2 L 2022.,908.4 L 2020.,907.1 L 2018.,907.8 L 2018.,908.7 L 2018.,911.1 L 2019.,913.9 z"
     id="path3626"
     style="fill:#000000;fill-opacity:1;fill-rule:evenodd;stroke:none;stroke-width:1px;stroke-linecap:butt;stroke-linejoin:miter;stroke-opacity:1" />
  <path
     d="M 2045.,487.1 L 2043.,483.1 L 2040.,480.6 L 2037.,481.6 L 2035.,483.1 L 2034.,486.5 L 2034.,488.6 L 2036.,491.4 L 2038.,493.0 L 2041.,494.2 L 2043.,495.1 L 2045.,495.1 L 2049.,494.2 C 2049.,494.2 2050.,493.9 2052.,493.3 C 2054.,492.7 2056.,492.3 2056.,492.3 L 2058.,491.7 L 2059.,489.9 L 2061.,486.8 L 2061.,483.1 L 2060.,478.5 L 2058.,476.6 L 2055.,474.8 L 2053.,472.9 L 2049.,471.1 L 2046.,471.4 L 2043.,472.0 L 2042.,472.6 L 2042.,475.1 L 2043.,475.7 L 2046.,476.3 L 2048.,476.9 C 2048.,476.9 2049.,477.9 2050.,478.2 C 2052.,478.5 2053.,479.1 2053.,479.1 L 2054.,482.5 L 2053.,484.6 L 2051.,486.5 L 2048.,489.6 L 2045.,487.1 z"
     id="path3628"
     style="fill:#000000;fill-opacity:1;fill-rule:evenodd;stroke:none;stroke-width:1px;stroke-linecap:butt;stroke-linejoin:miter;stroke-opacity:1" />
  <path
     d="M 1944.,969.3 L 1950.,969.3 L 1952.,968.4 L 1954.,965.6 L 1954.,962.9 L 1952.,959.5 L 1947.,960.1 L 1944.,960.4 L 1940.,960.7 L 1940.,962.9 L 1941.,965.0 L 1941.,966.0 L 1944.,969.3 z"
     id="path3630"
     style="fill:#000000;fill-opacity:1;fill-rule:evenodd;stroke:none;stroke-width:1px;stroke-linecap:butt;stroke-linejoin:miter;stroke-opacity:1" />
  <path
     d="M 1929.,997.4 L 1920.,995.8 L 1917.,997.4 L 1913.,1000. L 1912.,1003. L 1912.,1009. L 1914.,1011. L 1920.,1012. L 1924.,1012. L 1929.,1012. L 1931.,1009. L 1932.,1004. L 1932.,1002. L 1931.,999.8 L 1929.,997.4 z"
     id="path3632"
     style="fill:#000000;fill-opacity:1;fill-rule:evenodd;stroke:none;stroke-width:1px;stroke-linecap:butt;stroke-linejoin:miter;stroke-opacity:1" />
  <path
     d="M 1948.,893.0 L 1944.,889.9 L 1942.,887.1 L 1940.,884.3 L 1941.,893.3 L 1944.,896.0 L 1947.,897.9 L 1949.,898.5 L 1952.,898.2 C 1952.,898.2 1953.,897.9 1955.,897.6 C 1957.,897.3 1959.,897.3 1959.,897.3 L 1959.,895.7 L 1953.,893.3 L 1951.,893.3 L 1948.,893.0 z"
     id="path3634"
     style="fill:#000000;fill-opacity:1;fill-rule:evenodd;stroke:none;stroke-width:1px;stroke-linecap:butt;stroke-linejoin:miter;stroke-opacity:1" />
  <path
     d="M 1972.,869.0 L 1969.,868.0 L 1970.,866.8 L 1972.,865.9 L 1975.,867.1 L 1977.,869.9 L 1975.,872.3 L 1972.,872.0 L 1972.,869.0 z"
     id="path3636"
     style="fill:#000000;fill-opacity:1;fill-rule:evenodd;stroke:none;stroke-width:1px;stroke-linecap:butt;stroke-linejoin:miter;stroke-opacity:1" />
  <path
     d="M 1980.,603.8 L 1975.,606.3 L 1975.,610.0 L 1979.,614.9 L 1981.,616.7 L 1988.,621.1 L 1992.,618.3 L 1995.,610.0 L 1992.,605.7 L 1992.,600.1 L 1989.,598.9 L 1984.,597.0 L 1982.,597.0 L 1980.,598.3 L 1980.,600.1 L 1980.,603.8 z"
     id="path3638"
     style="fill:#000000;fill-opacity:1;fill-rule:evenodd;stroke:none;stroke-width:1px;stroke-linecap:butt;stroke-linejoin:miter;stroke-opacity:1" />
  <path
     d="M 1995.,511.7 L 1995.,506.2 L 1995.,504.0 L 1997.,501.6 L 2003.,499.7 L 2006.,500.3 L 2010.,504.0 L 2008.,506.5 L 2008.,511.1 L 2006.,513.0 L 2003.,515.4 L 1999.,517.0 L 1997.,515.4 L 1995.,511.7 z"
     id="path3640"
     style="fill:#000000;fill-opacity:1;fill-rule:evenodd;stroke:none;stroke-width:1px;stroke-linecap:butt;stroke-linejoin:miter;stroke-opacity:1" />
  <path
     d="M 1922.,567.8 L 1919.,564.1 L 1916.,561.0 L 1915.,558.9 L 1915.,556.4 L 1918.,555.2 L 1922.,556.1 L 1924.,562.6 L 1928.,566.9 L 1930.,566.9 L 1931.,564.7 L 1931.,562.2 L 1933.,561.9 L 1934.,564.1 L 1935.,565.6 L 1938.,566.6 L 1932.,569.9 L 1931.,572.4 L 1932.,576.1 L 1933.,577.3 L 1935.,578.9 C 1935.,578.9 1938.,580.1 1940.,580.1 C 1941.,580.1 1944.,579.8 1944.,579.8 L 1946.,580.4 L 1947.,583.5 L 1944.,585.6 L 1939.,584.4 L 1936.,583.8 L 1932.,582.9 L 1928.,580.1 L 1927.,579.2 L 1926.,576.4 L 1926.,572.1 L 1924.,569.6 L 1922.,567.8 z"
     id="path3642"
     style="fill:#000000;fill-opacity:1;fill-rule:evenodd;stroke:none;stroke-width:1px;stroke-linecap:butt;stroke-linejoin:miter;stroke-opacity:1" />
  <path
     d="M 1887.,616.4 L 1885.,607.5 L 1883.,606.3 L 1880.,601.0 L 1884.,600.7 L 1886.,601.7 L 1891.,605.4 L 1891.,606.6 L 1891.,609.7 L 1892.,614.6 L 1893.,616.7 L 1895.,619.2 L 1903.,622.6 L 1906.,623.8 L 1909.,626.3 L 1906.,630.3 L 1904.,630.6 L 1896.,627.5 L 1890.,625.7 L 1890.,629.1 L 1894.,635.8 L 1888.,637.1 L 1883.,641.4 L 1880.,638.6 L 1878.,634.0 L 1877.,630.3 C 1877.,630.3 1875.,626.6 1875.,625.1 C 1874.,623.5 1873.,621.4 1873.,621.4 L 1871.,619.2 L 1869.,617.4 L 1867.,616.4 L 1866.,619.5 L 1866.,622.3 L 1867.,624.8 L 1868.,627.2 L 1868.,631.2 C 1868.,631.2 1868.,631.5 1869.,633.4 C 1870.,635.2 1870.,636.8 1870.,636.8 L 1871.,638.9 L 1870.,640.5 L 1868.,641.1 L 1866.,641.4 L 1864.,637.4 L 1862.,635.5 L 1860.,634.6 L 1859.,632.1 L 1859.,627.8 L 1855.,628.8 L 1853.,634.0 L 1848.,631.2 L 1849.,638.3 L 1851.,640.5 L 1853.,642.9 L 1853.,644.2 L 1854.,647.2 L 1852.,648.5 L 1848.,646.3 L 1846.,644.5 L 1844.,640.5 L 1840.,629.4 L 1839.,627.2 L 1842.,625.4 L 1845.,623.8 L 1851.,617.4 L 1853.,616.1 L 1855.,613.7 L 1856.,614.3 L 1859.,617.1 L 1861.,616.4 L 1863.,612.7 C 1863.,612.7 1863.,613.1 1862.,611.2 C 1862.,609.4 1862.,608.4 1862.,608.4 L 1869.,609.1 L 1871.,610.6 L 1873.,614.0 L 1877.,616.7 L 1881.,619.2 L 1883.,620.1 L 1886.,620.1 L 1888.,620.1 L 1887.,616.4 z"
     id="path3644"
     style="fill:#000000;fill-opacity:1;fill-rule:evenodd;stroke:none;stroke-width:1px;stroke-linecap:butt;stroke-linejoin:miter;stroke-opacity:1" />
  <path
     d="M 1831.,623.8 L 1830.,620.4 L 1829.,618.9 L 1827.,617.4 L 1823.,617.4 L 1822.,618.3 L 1821.,620.8 L 1821.,622.3 L 1821.,624.1 L 1822.,625.1 L 1825.,626.3 L 1827.,626.9 L 1829.,626.9 L 1830.,626.3 L 1831.,623.8 z"
     id="path3646"
     style="fill:#000000;fill-opacity:1;fill-rule:evenodd;stroke:none;stroke-width:1px;stroke-linecap:butt;stroke-linejoin:miter;stroke-opacity:1" />
  <path
     d="M 1866.,588.1 L 1866.,584.4 L 1867.,582.9 L 1869.,581.3 L 1871.,580.1 L 1872.,580.1 L 1874.,580.7 L 1876.,582.0 L 1877.,582.9 L 1877.,584.7 L 1876.,587.2 L 1876.,587.8 L 1875.,590.6 L 1873.,590.9 L 1871.,590.3 L 1868.,590.9 L 1867.,590.6 L 1866.,588.1 z"
     id="path3648"
     style="fill:#000000;fill-opacity:1;fill-rule:evenodd;stroke:none;stroke-width:1px;stroke-linecap:butt;stroke-linejoin:miter;stroke-opacity:1" />
  <path
     d="M 1873.,646.6 L 1871.,642.9 L 1872.,641.1 L 1872.,639.8 L 1874.,639.2 L 1875.,639.2 L 1877.,640.2 L 1878.,640.8 L 1878.,642.6 L 1879.,643.2 L 1878.,644.8 L 1877.,646.0 L 1875.,647.5 L 1873.,646.6 z"
     id="path3650"
     style="fill:#000000;fill-opacity:1;fill-rule:evenodd;stroke:none;stroke-width:1px;stroke-linecap:butt;stroke-linejoin:miter;stroke-opacity:1" />
  <path
     d="M 202.0,955.8 L 198.9,952.7 L 197.6,941.6 L 197.6,939.8 L 202.0,937.9 L 206.3,936.1 L 208.1,934.2 L 213.0,935.5 L 216.1,936.7 L 221.0,937.3 L 222.9,937.3 L 224.7,938.5 L 225.4,940.4 L 224.1,947.2 L 222.9,951.5 L 222.9,952.1 L 217.4,953.9 L 212.4,952.7 L 209.3,954.6 L 207.5,954.6 L 202.0,955.8 z"
     id="path3652"
     style="fill:#000000;fill-opacity:1;fill-rule:evenodd;stroke:none;stroke-width:1px;stroke-linecap:butt;stroke-linejoin:miter;stroke-opacity:1" />
  <path
     d="M 171.2,984.1 L 177.9,983.5 L 182.2,982.9 L 185.9,982.3 L 189.6,982.9 L 192.7,982.9 L 201.3,984.1 L 209.3,990.3 L 218.6,987.2 L 224.7,988.4 L 222.3,992.7 L 205.0,994.0 L 201.3,992.7 L 195.2,997.7 L 190.9,997.1 L 186.6,994.6 L 180.4,1000. L 177.9,993.4 L 171.2,994.0 L 167.5,992.1 L 163.2,992.1 L 163.2,987.8 L 160.7,984.7 L 158.8,980.4 L 163.2,980.4 L 171.2,984.1 z"
     id="path3654"
     style="fill:#000000;fill-opacity:1;fill-rule:evenodd;stroke:none;stroke-width:1px;stroke-linecap:butt;stroke-linejoin:miter;stroke-opacity:1" />
  <path
     d="M 96.69,982.3 L 91.76,977.3 L 86.22,974.3 L 79.44,974.9 L 76.36,979.2 L 76.98,984.1 L 80.67,990.3 L 91.76,993.4 L 95.46,989.0 L 96.69,982.3 z"
     id="path3656"
     style="fill:#000000;fill-opacity:1;fill-rule:evenodd;stroke:none;stroke-width:1px;stroke-linecap:butt;stroke-linejoin:miter;stroke-opacity:1" />
  <path
     d="M 607.5,826.5 L 609.2,823.9 L 614.0,830.8 L 614.0,833.0 L 617.0,835.6 L 620.5,843.0 L 625.7,846.5 L 630.1,850.4 L 632.7,853.1 L 637.9,859.2 L 645.8,859.2 L 647.1,858.7 L 646.2,853.5 L 644.9,850.0 L 645.3,844.3 L 649.7,848.3 L 650.6,850.9 L 657.1,856.1 L 665.4,855.2 L 667.6,845.2 L 668.9,839.1 L 668.4,830.0 L 669.3,823.4 L 669.7,815.6 L 666.7,808.2 L 662.8,805.6 L 657.1,803.8 L 651.9,803.4 L 641.9,791.7 L 640.1,786.0 L 635.3,789.5 L 634.0,794.3 L 629.7,796.9 L 624.9,796.0 L 616.2,797.7 L 612.2,799.9 L 607.5,809.5 L 601.4,815.2 L 601.4,818.7 L 604.4,825.6 L 607.5,826.5 z"
     id="path3658"
     style="fill:#000000;fill-opacity:1;fill-rule:evenodd;stroke:none;stroke-width:1px;stroke-linecap:butt;stroke-linejoin:miter;stroke-opacity:1" />
  <path
     d="M 705.9,805.2 L 700.2,801.7 L 698.5,798.2 L 701.1,797.3 L 704.1,797.7 L 703.7,791.2 L 701.5,787.7 L 697.6,786.0 L 695.0,782.9 L 689.3,771.2 L 694.1,768.1 L 697.6,760.7 L 700.2,758.1 L 700.7,765.1 L 701.5,770.7 L 701.5,773.8 L 707.2,784.2 L 708.5,786.0 L 712.0,791.2 L 712.8,797.3 L 712.0,803.0 L 712.8,806.5 L 715.5,809.5 L 719.4,812.6 L 722.9,816.0 L 725.9,822.1 L 723.7,824.7 L 722.0,825.6 L 722.4,837.8 L 722.0,838.2 L 717.2,838.2 L 713.7,835.6 L 709.8,832.6 L 713.3,830.0 L 715.9,826.1 L 715.0,821.3 L 712.0,814.7 L 709.8,811.2 L 708.5,809.5 L 705.9,805.2 z"
     id="path3660"
     style="fill:#000000;fill-opacity:1;fill-rule:evenodd;stroke:none;stroke-width:1px;stroke-linecap:butt;stroke-linejoin:miter;stroke-opacity:1" />
  <path
     d="M 622.3,889.2 L 614.0,887.0 L 609.6,890.9 L 604.8,890.1 L 605.7,886.2 L 609.2,884.0 L 609.2,877.0 L 610.5,876.6 L 614.9,876.1 L 618.8,877.4 L 624.4,879.6 L 627.9,880.5 L 633.6,883.5 L 638.8,888.3 L 642.3,890.9 L 641.4,893.6 L 640.1,894.9 L 636.2,894.9 L 632.3,894.0 L 627.9,892.7 L 626.2,891.8 L 622.3,889.2 z"
     id="path3662"
     style="fill:#000000;fill-opacity:1;fill-rule:evenodd;stroke:none;stroke-width:1px;stroke-linecap:butt;stroke-linejoin:miter;stroke-opacity:1" />
  <path
     d="M 845.2,799.1 L 845.7,805.2 L 849.2,806.5 L 852.6,806.0 L 853.5,802.1 L 851.3,797.7 L 848.7,797.3 L 845.2,799.1 z"
     id="path3664"
     style="fill:#000000;fill-opacity:1;fill-rule:evenodd;stroke:none;stroke-width:1px;stroke-linecap:butt;stroke-linejoin:miter;stroke-opacity:1" />
  <path
     d="M 796.0,688.0 L 793.4,691.9 L 791.7,691.9 L 788.6,690.2 L 786.4,692.4 L 786.4,695.0 L 789.1,697.6 L 792.1,698.5 L 794.3,698.5 L 798.2,696.7 L 799.5,693.2 L 799.9,691.1 L 799.5,690.2 L 796.0,688.0 z"
     id="path3666"
     style="fill:#000000;fill-opacity:1;fill-rule:evenodd;stroke:none;stroke-width:1px;stroke-linecap:butt;stroke-linejoin:miter;stroke-opacity:1" />
  <path
     d="M 840.0,691.9 L 840.4,700.2 L 836.1,701.5 L 833.5,702.4 L 824.8,711.1 L 823.0,715.4 L 822.2,718.5 L 822.6,723.7 L 824.3,725.9 L 827.4,729.4 L 829.1,733.3 C 829.1,733.3 830.9,734.6 832.6,735.0 C 834.3,735.5 842.6,734.6 842.6,734.6 L 845.7,734.2 L 849.6,732.4 L 853.5,728.5 L 855.3,723.7 L 857.0,719.4 L 857.4,714.6 L 857.0,708.9 L 855.3,706.3 L 852.2,698.9 L 853.1,694.1 L 852.2,691.5 L 847.4,689.3 L 843.1,688.9 L 840.0,691.9 z"
     id="path3668"
     style="fill:#000000;fill-opacity:1;fill-rule:evenodd;stroke:none;stroke-width:1px;stroke-linecap:butt;stroke-linejoin:miter;stroke-opacity:1" />
  <path
     d="M 1367.,362.7 L 1385.,350.4 L 1389.,354.1 L 1394.,355.3 L 1402.,361.5 L 1411.,367.6 L 1412.,372.6 L 1414.,384.9 L 1409.,392.9 L 1406.,398.4 L 1402.,420.6 L 1400.,424.3 L 1397.,438.5 L 1396.,442.1 L 1390.,460.0 L 1383.,471.1 L 1381.,476.6 L 1377.,482.8 L 1366.,508.0 L 1350.,499.4 L 1338.,489.0 L 1335.,486.5 L 1330.,482.8 L 1324.,466.2 L 1324.,463.7 L 1329.,458.2 L 1330.,456.3 L 1334.,455.7 C 1334.,455.7 1341.,455.7 1343.,456.3 C 1346.,456.9 1353.,459.4 1353.,459.4 L 1363.,463.1 L 1367.,461.9 L 1370.,456.9 L 1370.,451.4 L 1372.,444.6 L 1372.,434.1 L 1368.,424.3 L 1365.,419.4 L 1360.,413.2 C 1360.,413.2 1356.,410.7 1356.,407.7 C 1356.,404.6 1356.,400.9 1356.,400.9 L 1357.,394.7 L 1359.,377.5 L 1360.,375.0 L 1364.,368.9 L 1367.,362.7 z"
     id="path3672"
     style="fill:#000000;fill-opacity:1;fill-rule:evenodd;stroke:none;stroke-width:1px;stroke-linecap:butt;stroke-linejoin:miter;stroke-opacity:1" />
  <path
     d="M 1268.,298.0 L 1279.,300.5 L 1287.,300.5 L 1294.,297.4 L 1295.,294.3 L 1297.,286.9 L 1297.,285.7 L 1293.,282.0 L 1288.,278.9 L 1283.,277.1 L 1277.,277.1 L 1271.,278.9 L 1267.,282.0 L 1263.,286.9 L 1263.,290.0 L 1263.,293.1 L 1268.,298.0 z"
     id="path3674"
     style="fill:#000000;fill-opacity:1;fill-rule:evenodd;stroke:none;stroke-width:1px;stroke-linecap:butt;stroke-linejoin:miter;stroke-opacity:1" />
  <path
     d="M 1240.,269.1 L 1251.,259.8 L 1261.,255.5 L 1264.,253.7 L 1283.,246.9 C 1283.,246.9 1293.,246.3 1295.,246.9 C 1298.,247.5 1315.,253.1 1315.,253.1 C 1315.,253.1 1317.,253.7 1320.,254.3 C 1323.,254.9 1332.,257.4 1332.,257.4 C 1332.,257.4 1357.,266.6 1361.,269.1 C 1366.,271.6 1361.,277.7 1361.,277.7 L 1372.,286.9 L 1395.,290.6 L 1399.,276.5 L 1399.,252.5 L 1397.,248.8 L 1369.,229.1 L 1356.,216.1 L 1340.,209.3 L 1322.,210.6 L 1302.,221.0 L 1280.,220.4 L 1277.,203.2 C 1277.,203.2 1270.,188.4 1266.,185.3 C 1261.,182.2 1240.,174.2 1237.,173.6 C 1235.,173.0 1213.,176.1 1213.,176.1 L 1205.,179.2 L 1200.,186.6 L 1197.,190.9 L 1193.,200.7 L 1187.,203.2 L 1176.,203.8 C 1176.,203.8 1155.,208.1 1147.,210.0 C 1139.,211.8 1122.,208.7 1122.,208.7 L 1097.,203.8 L 1080.,205.7 L 1086.,213.7 L 1093.,216.7 L 1102.,218.0 L 1115.,222.9 C 1115.,222.9 1117.,224.7 1120.,226.0 C 1122.,227.2 1133.,234.6 1133.,234.6 C 1133.,234.6 1135.,235.2 1138.,236.4 C 1141.,237.7 1147.,239.5 1147.,239.5 C 1147.,239.5 1151.,239.5 1155.,240.8 C 1159.,242.0 1162.,243.2 1162.,243.2 L 1167.,244.5 C 1167.,244.5 1172.,245.1 1175.,246.3 C 1178.,247.5 1182.,248.8 1182.,248.8 L 1196.,253.1 L 1205.,256.2 C 1205.,256.2 1211.,254.3 1212.,256.8 C 1213.,259.2 1216.,262.9 1216.,262.9 L 1225.,268.5 L 1234.,272.8 L 1240.,269.1 z"
     id="path3676"
     style="fill:#000000;fill-opacity:1;fill-rule:evenodd;stroke:none;stroke-width:1px;stroke-linecap:butt;stroke-linejoin:miter;stroke-opacity:1" />
  <path
     d="M 1016.,258.6 L 1021.,261.7 L 1027.,266.6 C 1027.,266.6 1036.,272.8 1038.,274.0 C 1041.,275.2 1046.,277.1 1046.,277.1 L 1049.,277.1 L 1056.,276.5 L 1063.,276.5 L 1071.,275.9 C 1071.,275.9 1074.,275.9 1077.,274.6 C 1080.,273.4 1088.,271.6 1088.,271.6 L 1093.,269.7 L 1099.,265.4 L 1103.,262.3 L 1104.,259.8 L 1098.,256.2 L 1092.,254.3 L 1087.,250.0 L 1076.,245.7 L 1064.,246.9 L 1051.,245.1 L 1042.,246.9 L 1029.,251.2 L 1022.,253.1 L 1016.,258.6 z"
     id="path3678"
     style="fill:#000000;fill-opacity:1;fill-rule:evenodd;stroke:none;stroke-width:1px;stroke-linecap:butt;stroke-linejoin:miter;stroke-opacity:1" />
  <path
     d="M 1762.,264.2 L 1758.,269.1 L 1754.,272.8 L 1754.,274.0 L 1755.,275.9 L 1759.,278.3 L 1765.,280.2 L 1768.,279.6 L 1774.,279.6 L 1778.,282.0 L 1784.,283.9 L 1790.,284.5 L 1793.,282.6 L 1794.,278.3 L 1795.,272.2 L 1795.,268.5 L 1794.,264.8 L 1786.,262.3 L 1782.,261.1 L 1773.,261.7 L 1770.,261.7 L 1762.,264.2 z"
     id="path3680"
     style="fill:#000000;fill-opacity:1;fill-rule:evenodd;stroke:none;stroke-width:1px;stroke-linecap:butt;stroke-linejoin:miter;stroke-opacity:1" />
  <path
     d="M 1473.,248.8 L 1461.,238.3 L 1453.,239.5 L 1451.,246.9 L 1450.,252.5 L 1448.,262.3 L 1446.,269.1 L 1446.,277.7 L 1447.,281.4 L 1436.,293.7 L 1430.,298.0 L 1418.,311.6 L 1417.,315.3 L 1424.,319.6 L 1430.,321.4 L 1439.,322.7 L 1452.,328.2 L 1457.,319.6 C 1457.,319.6 1458.,314.7 1458.,312.2 C 1458.,309.7 1462.,298.0 1462.,298.0 L 1462.,293.1 L 1468.,289.4 L 1481.,286.3 L 1486.,286.9 L 1515.,302.3 L 1516.,302.3 L 1524.,303.6 L 1532.,303.6 L 1538.,318.4 L 1533.,328.8 L 1527.,342.4 C 1527.,342.4 1527.,352.8 1527.,355.3 C 1526.,357.8 1523.,361.5 1523.,361.5 L 1515.,367.0 L 1514.,374.4 L 1515.,378.1 L 1516.,385.5 L 1520.,389.2 L 1527.,393.5 C 1527.,393.5 1537.,394.1 1540.,394.1 C 1543.,394.1 1557.,396.6 1557.,396.6 L 1584.,409.5 L 1587.,415.7 L 1597.,424.3 L 1608.,429.8 L 1612.,431.7 L 1616.,431.7 L 1620.,429.8 L 1625.,424.9 L 1634.,424.3 C 1634.,424.3 1638.,426.1 1641.,425.5 C 1643.,424.9 1649.,422.4 1649.,422.4 L 1646.,416.3 L 1636.,394.1 L 1638.,384.9 C 1638.,384.9 1627.,375.0 1624.,376.3 C 1621.,377.5 1608.,381.8 1608.,381.8 C 1608.,381.8 1600.,388.0 1596.,387.3 C 1593.,386.7 1573.,370.7 1573.,370.7 L 1571.,355.3 L 1579.,343.6 L 1609.,308.5 L 1619.,290.6 L 1632.,279.6 L 1629.,264.2 L 1617.,254.9 L 1576.,240.1 L 1548.,229.7 C 1548.,229.7 1524.,235.8 1521.,236.4 C 1518.,237.1 1489.,241.4 1489.,241.4 L 1473.,248.8 z"
     id="path3682"
     style="fill:#000000;fill-opacity:1;fill-rule:evenodd;stroke:none;stroke-width:1px;stroke-linecap:butt;stroke-linejoin:miter;stroke-opacity:1" />
  <path
     d="M 1346.,573.9 L 1348.,587.5 L 1351.,590.6 L 1356.,593.7 L 1362.,594.9 L 1374.,597.3 L 1377.,599.2 L 1383.,604.7 L 1383.,613.4 L 1389.,617.1 L 1398.,615.2 L 1407.,617.7 L 1410.,617.7 L 1425.,619.5 L 1430.,614.6 L 1433.,608.4 L 1433.,601.0 L 1434.,595.5 L 1438.,590.0 L 1448.,590.6 L 1452.,593.0 L 1456.,593.0 L 1456.,582.0 L 1460.,579.5 L 1463.,572.1 L 1462.,567.8 L 1454.,558.5 L 1451.,554.9 L 1444.,553.0 L 1438.,552.4 L 1429.,552.4 L 1412.,545.0 L 1406.,545.0 L 1408.,550.5 L 1415.,554.2 L 1422.,558.5 L 1424.,559.8 L 1426.,562.9 L 1426.,564.1 L 1428.,569.6 L 1428.,574.6 L 1425.,576.4 L 1420.,576.4 L 1414.,572.1 L 1409.,567.8 L 1403.,562.2 L 1396.,554.9 L 1386.,548.1 L 1397.,538.8 L 1402.,536.4 L 1409.,536.4 L 1410.,531.5 L 1404.,527.8 L 1398.,529.6 L 1385.,533.9 L 1380.,527.8 L 1377.,525.9 L 1374.,532.1 L 1375.,536.4 L 1375.,543.2 L 1372.,544.4 L 1364.,538.8 L 1360.,546.8 L 1354.,556.1 L 1350.,559.2 L 1348.,570.9 L 1346.,573.9 z"
     id="path3684"
     style="fill:#000000;fill-opacity:1;fill-rule:evenodd;stroke:none;stroke-width:1px;stroke-linecap:butt;stroke-linejoin:miter;stroke-opacity:1" />
  <path
     d="M 1337.,652.2 L 1330.,663.9 L 1330.,670.0 L 1332.,676.2 L 1334.,681.1 L 1335.,683.6 L 1341.,686.0 L 1347.,687.9 L 1351.,682.3 L 1358.,677.4 L 1360.,675.6 L 1366.,670.0 L 1364.,662.6 L 1363.,654.6 L 1366.,642.9 L 1367.,636.8 L 1364.,624.4 L 1358.,626.3 L 1356.,631.8 L 1356.,642.9 L 1353.,647.9 L 1346.,651.5 L 1341.,649.7 L 1337.,652.2 z"
     id="path3686"
     style="fill:#000000;fill-opacity:1;fill-rule:evenodd;stroke:none;stroke-width:1px;stroke-linecap:butt;stroke-linejoin:miter;stroke-opacity:1" />
  <path
     d="M 1842.,344.8 L 1836.,345.5 L 1834.,346.1 L 1831.,347.3 L 1830.,349.2 L 1831.,351.6 L 1831.,352.2 L 1838.,355.3 L 1840.,356.5 L 1846.,357.2 L 1848.,356.5 L 1847.,352.8 L 1848.,352.2 L 1853.,351.0 L 1855.,348.5 L 1853.,346.1 L 1849.,341.1 L 1842.,344.8 z"
     id="path3688"
     style="fill:#000000;fill-opacity:1;fill-rule:evenodd;stroke:none;stroke-width:1px;stroke-linecap:butt;stroke-linejoin:miter;stroke-opacity:1" />
  <path
     d="M 1912.,1022. L 1906.,1029. L 1903.,1031. L 1900.,1037. L 1899.,1039. L 1901.,1045. L 1903.,1046. L 1905.,1048. L 1909.,1053. L 1912.,1059. L 1908.,1062. L 1899.,1064. L 1885.,1066. L 1886.,1076. L 1888.,1080. L 1891.,1092. L 1896.,1093. L 1906.,1095. L 1909.,1096. L 1912.,1098. L 1914.,1103. L 1913.,1104. L 1907.,1107. L 1906.,1109. C 1906.,1109. 1906.,1112. 1908.,1114. C 1911.,1116. 1916.,1116. 1916.,1116. L 1922.,1113. L 1933.,1109. L 1936.,1101. L 1947.,1091. L 1952.,1086. L 1956.,1082. L 1953.,1077. L 1944.,1069. L 1945.,1053. L 1933.,1055. L 1928.,1056. L 1924.,1055. L 1921.,1039. L 1922.,1036. L 1926.,1030. L 1933.,1026. L 1936.,1021. L 1936.,1016. L 1933.,1015. L 1926.,1021. L 1925.,1022. C 1925.,1022. 1925.,1022. 1922.,1022. C 1919.,1021. 1914.,1022. 1912.,1022. z"
     id="path3690"
     style="fill:#000000;fill-opacity:1;fill-rule:evenodd;stroke:none;stroke-width:1px;stroke-linecap:butt;stroke-linejoin:miter;stroke-opacity:1" />
  <path
     d="M 1968.,1046. L 1961.,1055. L 1964.,1061. L 1972.,1072. L 1966.,1078. L 1963.,1083. L 1968.,1090. L 1975.,1090. L 1981.,1087. L 1983.,1082. L 1983.,1077. L 1986.,1075. L 1991.,1072. L 2002.,1062. L 2006.,1057. L 2007.,1051. L 2003.,1046. L 1998.,1044. L 1990.,1040. L 1983.,1039. L 1976.,1040. L 1968.,1046. z"
     id="path3692"
     style="fill:#000000;fill-opacity:1;fill-rule:evenodd;stroke:none;stroke-width:1px;stroke-linecap:butt;stroke-linejoin:miter;stroke-opacity:1" />
  <path
     d="M 2014.,942.2 L 2008.,952.1 L 2007.,957.6 L 2007.,963.2 L 2007.,967.5 L 2007.,969.3 L 2009.,980.4 L 2006.,984.1 L 1994.,983.5 L 1990.,982.3 L 1984.,978.0 L 1972.,963.2 L 1968.,965.6 L 1962.,971.2 L 1955.,973.6 L 1951.,976.1 L 1947.,977.3 L 1947.,981.0 L 1954.,983.5 L 1970.,989.0 L 1979.,992.1 L 1986.,993.4 L 1987.,994.0 L 1991.,997.7 L 2001.,1002. L 2019.,1005. L 2033.,1018. L 2052.,1024. L 2059.,1032. L 2065.,1036. L 2073.,1043. L 2074.,1044. L 2079.,1046. L 2086.,1045. L 2084.,1038. L 2081.,1025. L 2085.,1018. L 2093.,1002. L 2117.,1005. L 2121.,998.9 L 2117.,990.3 L 2113.,984.1 L 2108.,978.0 L 2095.,974.9 L 2088.,982.9 L 2081.,994.0 L 2069.,1002. L 2049.,995.8 L 2050.,988.4 L 2057.,980.4 L 2061.,972.4 L 2057.,964.4 L 2050.,959.5 L 2044.,956.4 L 2026.,949.0 L 2020.,943.5 L 2014.,942.2 z"
     id="path3694"
     style="fill:#000000;fill-opacity:1;fill-rule:evenodd;stroke:none;stroke-width:1px;stroke-linecap:butt;stroke-linejoin:miter;stroke-opacity:1" />
  <path
     d="M 2100.,1096. L 2110.,1101. L 2121.,1104. L 2136.,1109. L 2142.,1110. L 2148.,1109. L 2153.,1107. L 2167.,1105. L 2175.,1103. L 2183.,1101. L 2179.,1107. L 2166.,1121. L 2162.,1123. L 2126.,1128. L 2117.,1125. L 2108.,1116. L 2100.,1112. L 2090.,1104. L 2082.,1100. L 2082.,1095. L 2089.,1093. L 2100.,1096. z"
     id="path3696"
     style="fill:#000000;fill-opacity:1;fill-rule:evenodd;stroke:none;stroke-width:1px;stroke-linecap:butt;stroke-linejoin:miter;stroke-opacity:1" />
  <path
     d="M 2065.,1110. L 2061.,1113. L 2057.,1121. L 2061.,1123. L 2071.,1126. L 2077.,1124. L 2081.,1121. L 2082.,1117. L 2079.,1114. L 2074.,1110. L 2065.,1110. z"
     id="path3698"
     style="fill:#000000;fill-opacity:1;fill-rule:evenodd;stroke:none;stroke-width:1px;stroke-linecap:butt;stroke-linejoin:miter;stroke-opacity:1" />
  <path
     d="M 2014.,1131. L 2002.,1133. L 2000.,1138. L 2002.,1139. L 2008.,1142. L 2014.,1142. L 2018.,1140. L 2022.,1135. L 2020.,1133. L 2017.,1131. L 2014.,1131. z"
     id="path3700"
     style="fill:#000000;fill-opacity:1;fill-rule:evenodd;stroke:none;stroke-width:1px;stroke-linecap:butt;stroke-linejoin:miter;stroke-opacity:1" />
  <path
     d="M 961.9,1010. L 955.8,1018. L 955.2,1024. L 953.3,1025. L 958.9,1026. L 964.4,1024. L 965.0,1019. L 967.5,1014. L 968.7,1013. L 965.6,1010. L 961.9,1010. z"
     id="path3702"
     style="fill:#000000;fill-opacity:1;fill-rule:evenodd;stroke:none;stroke-width:1px;stroke-linecap:butt;stroke-linejoin:miter;stroke-opacity:1" />
  <path
     d="M 1013.,951.5 L 1024.,963.2 L 1029.,966.3 L 1035.,968.1 L 1042.,963.2 L 1043.,958.3 L 1045.,947.8 L 1048.,942.9 L 1049.,935.5 L 1043.,934.8 L 1037.,935.5 L 1027.,927.5 L 1023.,925.0 L 1018.,923.1 L 1013.,925.0 L 1011.,927.5 L 1005.,943.5 L 1000.,948.4 L 997.1,951.5 L 992.1,953.9 L 988.4,957.0 L 986.0,961.9 L 989.0,961.9 L 992.1,959.5 L 998.3,957.0 L 1003.,955.8 L 1006.,955.2 L 1007.,953.9 L 1013.,951.5 z"
     id="path3704"
     style="fill:#000000;fill-opacity:1;fill-rule:evenodd;stroke:none;stroke-width:1px;stroke-linecap:butt;stroke-linejoin:miter;stroke-opacity:1" />
  <path
     d="M 933.0,984.1 L 915.1,993.4 L 918.2,995.8 L 915.8,1002. L 915.8,1004. L 920.7,1006. L 925.0,1005. L 928.1,1003. L 930.5,1001. L 934.8,999.5 L 939.2,999.5 L 945.9,997.7 L 949.0,995.8 L 949.6,993.4 L 945.3,990.3 L 941.6,989.0 L 939.8,987.2 L 933.0,984.1 z"
     id="path3706"
     style="fill:#000000;fill-opacity:1;fill-rule:evenodd;stroke:none;stroke-width:1px;stroke-linecap:butt;stroke-linejoin:miter;stroke-opacity:1" />
  <path
     d="M 966.9,958.3 L 962.6,960.1 L 958.3,963.2 L 959.5,965.0 L 966.3,966.3 L 969.3,965.0 L 973.0,963.2 L 972.4,962.6 L 966.9,958.3 z"
     id="path3708"
     style="fill:#000000;fill-opacity:1;fill-rule:evenodd;stroke:none;stroke-width:1px;stroke-linecap:butt;stroke-linejoin:miter;stroke-opacity:1" />
  <path
     d="M 278.3,1062. L 277.1,1067. L 279.6,1069. L 283.3,1071. L 289.4,1069. L 288.2,1063. L 287.6,1061. L 282.6,1060. L 278.3,1062. z"
     id="path3710"
     style="fill:#000000;fill-opacity:1;fill-rule:evenodd;stroke:none;stroke-width:1px;stroke-linecap:butt;stroke-linejoin:miter;stroke-opacity:1" />
  <path
     d="M 84.99,949.0 L 84.99,949.0 z"
     id="path3712"
     style="fill:#000000;fill-opacity:1;fill-rule:evenodd;stroke:none;stroke-width:1px;stroke-linecap:butt;stroke-linejoin:miter;stroke-opacity:1" />
  <path
     d="M 89.91,952.7 L 92.99,957.0 L 97.30,960.1 L 101.0,960.7 L 103.4,960.1 L 102.8,955.2 L 95.46,949.6 L 92.99,943.5 L 92.38,937.3 L 92.38,935.5 L 91.14,931.8 L 85.60,929.9 L 81.91,935.5 L 80.06,940.4 L 80.06,941.0 L 81.91,942.9 L 84.37,946.6 L 84.99,947.8 L 89.91,952.7 z"
     id="path3714"
     style="fill:#000000;fill-opacity:1;fill-rule:evenodd;stroke:none;stroke-width:1px;stroke-linecap:butt;stroke-linejoin:miter;stroke-opacity:1" />
  <path
     d="M 2443.,949.7 L 2449.,949.7 L 2454.,951.5 L 2458.,952.3 L 2462.,951.0 L 2464.,944.5 L 2460.,940.6 L 2454.,938.0 L 2460.,931.4 L 2464.,934.9 L 2470.,935.4 L 2470.,929.7 L 2466.,925.8 L 2463.,921.4 L 2457.,919.3 L 2453.,924.5 L 2447.,928.4 L 2443.,929.3 L 2440.,932.8 L 2439.,935.4 L 2439.,938.4 L 2439.,941.0 L 2440.,943.2 L 2441.,945.4 L 2443.,949.7 z"
     id="path3716"
     style="fill:#000000;fill-opacity:1;fill-rule:evenodd;stroke:none;stroke-width:1px;stroke-linecap:butt;stroke-linejoin:miter;stroke-opacity:1" />
  <path
     d="M 766.8,539.1 L 768.6,549.5 L 774.3,558.2 L 778.2,567.4 L 779.9,570.4 L 784.7,583.9 C 784.7,583.9 791.2,587.8 793.0,588.3 C 794.7,588.7 800.8,597.0 800.8,597.0 L 806.0,595.2 L 814.3,591.8 L 810.4,585.2 L 806.0,581.7 L 802.6,575.6 L 803.9,570.9 L 808.2,568.2 L 813.4,568.2 L 816.1,576.1 L 816.9,578.3 L 823.9,583.9 L 825.2,584.4 L 832.2,584.8 C 832.2,584.8 835.2,584.4 837.4,584.8 C 839.6,585.2 840.4,586.1 840.4,586.1 L 840.4,595.7 L 841.8,597.0 L 844.4,600.0 C 844.4,600.0 848.3,605.3 849.6,607.0 C 850.9,608.7 851.8,609.6 851.8,609.6 L 858.7,613.1 L 862.2,613.5 L 867.0,620.1 L 852.2,623.1 L 847.8,623.1 L 848.7,628.3 C 848.7,628.3 850.5,631.4 852.2,632.3 C 853.9,633.1 856.6,634.4 856.6,634.4 C 856.6,634.4 855.3,632.3 858.3,635.7 C 861.3,639.2 868.3,651.4 868.3,651.4 L 873.1,665.8 L 867.4,668.0 L 863.1,674.1 C 863.1,674.1 864.4,676.7 864.8,678.4 C 865.3,680.2 871.8,685.4 874.4,686.7 C 877.0,688.0 888.3,692.8 888.3,692.8 L 891.8,694.5 L 894.9,698.5 L 897.5,703.7 C 897.5,703.7 910.6,713.7 912.7,715.0 C 914.9,716.3 916.7,717.2 916.7,717.2 L 920.6,725.0 L 920.1,729.4 L 920.1,731.6 L 923.2,743.7 L 926.7,748.1 L 923.6,756.8 L 925.8,761.2 L 929.7,765.1 C 929.7,765.1 931.0,766.8 932.8,767.7 C 934.5,768.6 935.8,769.9 937.6,770.3 C 939.3,770.7 940.6,771.2 940.6,771.2 L 943.7,771.6 L 946.3,770.3 L 948.0,767.3 L 950.2,760.7 L 951.5,758.6 L 953.7,756.4 L 958.0,751.2 L 961.1,749.4 L 963.3,749.4 L 968.0,749.8 L 972.4,752.0 L 973.3,752.9 L 975.0,757.7 L 975.4,758.6 L 976.3,761.2 L 976.3,762.0 L 980.2,768.1 L 983.7,772.1 L 989.4,776.0 L 992.9,777.3 L 995.5,777.3 L 997.7,774.2 L 996.4,769.9 L 995.5,766.0 L 995.0,760.3 L 996.4,757.2 L 998.1,755.1 L 1009.,756.8 L 1011.,759.0 C 1011.,759.0 1015.,761.6 1016.,762.5 C 1018.,763.3 1024.,765.5 1024.,765.5 C 1024.,765.5 1025.,766.4 1027.,766.8 C 1029.,767.3 1041.,766.8 1041.,766.8 L 1042.,765.1 L 1046.,759.4 L 1058.,759.0 L 1058.,767.3 L 1061.,778.2 L 1069.,782.1 L 1076.,785.6 L 1069.,798.2 L 1068.,799.5 L 1068.,806.5 L 1066.,813.4 L 1056.,819.1 L 1053.,819.5 L 1039.,817.8 L 1033.,817.3 L 1015.,844.3 L 1013.,855.7 L 1012.,860.0 L 1012.,866.1 L 1012.,874.0 L 1015.,878.3 L 1016.,890.1 L 1017.,895.7 L 1018.,899.2 L 1020.,900.5 L 1025.,901.8 L 1028.,901.8 L 1029.,895.7 L 1027.,889.2 L 1034.,886.6 L 1043.,894.9 L 1048.,897.0 C 1048.,897.0 1056.,902.3 1059.,902.7 C 1061.,903.1 1067.,904.9 1067.,904.9 C 1067.,904.9 1069.,905.3 1071.,905.3 C 1074.,905.3 1087.,901.4 1087.,901.4 L 1094.,896.2 L 1096.,890.1 L 1096.,887.0 L 1100.,876.1 C 1100.,876.1 1099.,874.8 1101.,875.3 C 1103.,875.7 1110.,877.4 1115.,879.6 C 1119.,881.8 1121.,882.2 1121.,882.2 L 1122.,888.8 L 1114.,907.1 L 1107.,917.9 L 1103.,921.4 L 1103.,927.1 L 1107.,932.3 C 1107.,932.3 1113.,934.5 1115.,934.9 C 1117.,935.4 1127.,934.9 1127.,934.9 L 1149.,940.2 C 1149.,940.2 1151.,937.1 1153.,936.7 C 1155.,936.2 1170.,928.4 1172.,927.5 C 1175.,926.7 1176.,924.5 1176.,924.5 L 1176.,918.8 L 1172.,914.5 L 1164.,911.8 L 1155.,910.5 L 1151.,907.5 L 1145.,906.2 L 1143.,901.4 L 1154.,893.1 C 1154.,893.1 1156.,892.2 1158.,892.7 C 1160.,893.1 1186.,897.0 1186.,897.0 L 1194.,896.6 C 1194.,896.6 1196.,898.8 1199.,899.2 C 1202.,899.7 1208.,901.0 1208.,901.0 L 1211.,896.6 L 1214.,894.4 L 1218.,891.8 L 1225.,891.4 L 1228.,892.2 L 1232.,894.9 L 1241.,905.3 L 1243.,906.6 L 1251.,907.5 L 1256.,905.8 L 1258.,900.1 L 1257.,897.5 L 1254.,892.2 L 1255.,887.5 L 1264.,880.9 L 1268.,882.7 L 1271.,883.5 L 1274.,881.4 L 1279.,878.3 L 1282.,877.9 L 1289.,887.5 L 1299.,888.3 L 1299.,880.5 L 1299.,870.5 L 1300.,868.3 L 1304.,863.9 L 1306.,857.0 L 1299.,846.5 L 1290.,836.5 L 1289.,828.7 L 1289.,822.6 C 1289.,822.6 1287.,817.8 1288.,815.6 C 1289.,813.4 1292.,806.0 1292.,806.0 L 1300.,802.5 L 1309.,793.4 L 1308.,787.7 L 1310.,778.2 L 1309.,774.2 L 1307.,770.3 L 1304.,769.4 C 1304.,769.4 1301.,770.7 1299.,770.7 C 1297.,770.7 1292.,770.7 1292.,770.7 L 1281.,761.6 L 1283.,756.4 L 1286.,751.2 L 1288.,746.4 L 1277.,735.9 L 1274.,723.7 L 1271.,718.9 L 1271.,712.8 L 1270.,708.9 L 1265.,704.1 L 1259.,701.5 L 1252.,698.0 C 1252.,698.0 1245.,698.0 1244.,699.8 C 1243.,701.5 1242.,703.7 1242.,703.7 C 1242.,703.7 1246.,714.6 1246.,716.3 C 1247.,718.1 1247.,718.5 1248.,720.2 C 1248.,722.0 1249.,725.5 1249.,725.5 L 1249.,732.4 L 1248.,735.9 L 1246.,740.3 L 1245.,744.2 L 1246.,749.0 L 1250.,759.4 L 1251.,766.8 L 1249.,772.1 L 1250.,775.1 L 1238.,778.2 L 1235.,773.4 L 1226.,755.5 L 1208.,746.4 L 1201.,740.7 L 1198.,734.6 L 1190.,725.9 L 1190.,722.4 L 1193.,712.4 L 1196.,707.6 L 1208.,702.4 L 1208.,693.2 L 1208.,690.2 L 1199.,670.6 L 1192.,668.4 L 1189.,676.7 L 1184.,678.4 L 1175.,681.0 L 1166.,686.7 L 1164.,688.9 L 1165.,706.7 L 1166.,710.7 L 1158.,722.0 L 1144.,737.7 L 1142.,744.6 L 1144.,755.9 L 1151.,775.5 L 1161.,777.3 L 1172.,777.3 L 1183.,780.8 L 1180.,798.2 L 1177.,805.6 L 1167.,818.2 L 1154.,830.4 L 1136.,848.7 L 1135.,853.1 L 1137.,860.0 L 1142.,872.7 L 1144.,875.3 L 1149.,884.8 L 1147.,889.6 L 1135.,887.9 L 1124.,870.9 L 1123.,867.0 L 1104.,847.8 L 1102.,844.3 L 1100.,835.2 L 1103.,826.9 L 1109.,821.7 L 1114.,818.2 L 1125.,813.4 L 1130.,811.7 L 1137.,809.5 L 1142.,807.8 L 1146.,793.0 L 1144.,789.0 L 1138.,777.7 L 1133.,768.1 L 1136.,752.9 L 1131.,748.5 L 1125.,740.7 L 1123.,728.9 L 1129.,715.9 L 1134.,714.1 L 1138.,715.4 L 1144.,715.0 L 1151.,712.0 L 1152.,711.1 L 1153.,708.0 L 1153.,704.1 L 1149.,701.1 L 1144.,701.5 L 1134.,691.1 L 1141.,688.9 L 1141.,681.5 L 1138.,678.4 L 1131.,673.2 L 1125.,668.8 L 1114.,658.0 L 1111.,651.0 L 1117.,637.5 L 1120.,631.8 L 1134.,626.2 L 1140.,624.0 L 1144.,603.5 L 1139.,599.6 L 1125.,587.4 L 1120.,571.7 L 1122.,565.2 L 1118.,554.7 L 1143.,550.0 L 1149.,544.3 L 1156.,538.2 L 1161.,538.2 L 1168.,538.6 L 1176.,540.8 L 1195.,545.2 L 1208.,546.5 C 1208.,546.5 1213.,546.0 1215.,546.5 C 1217.,546.9 1230.,550.8 1236.,552.1 C 1242.,553.4 1249.,554.7 1252.,555.6 C 1254.,556.5 1253.,556.1 1255.,556.5 C 1258.,556.9 1265.,560.8 1265.,560.8 L 1268.,571.7 L 1268.,578.7 L 1275.,593.5 L 1279.,603.1 L 1285.,613.1 L 1282.,617.0 L 1276.,629.6 L 1275.,632.7 L 1272.,640.5 L 1269.,645.3 L 1264.,644.9 L 1251.,634.9 L 1241.,631.4 L 1237.,632.7 L 1233.,644.9 C 1233.,644.9 1233.,647.9 1233.,649.7 C 1232.,651.4 1235.,670.6 1235.,670.6 L 1238.,672.8 L 1243.,678.4 L 1254.,682.8 L 1269.,693.2 L 1274.,691.9 L 1281.,687.6 L 1285.,679.3 C 1285.,679.3 1286.,676.7 1289.,674.1 C 1292.,671.5 1308.,662.7 1308.,662.7 L 1324.,661.0 L 1328.,653.6 L 1323.,635.7 L 1319.,624.4 L 1325.,611.8 L 1329.,604.0 L 1334.,595.2 L 1335.,587.4 L 1334.,582.6 L 1330.,577.8 L 1323.,572.6 L 1309.,571.7 L 1302.,564.8 L 1296.,558.7 L 1289.,558.2 C 1289.,558.2 1281.,558.7 1279.,558.2 C 1277.,557.8 1274.,554.7 1274.,554.7 L 1281.,552.1 L 1286.,549.5 L 1301.,540.8 L 1317.,531.7 L 1325.,523.8 L 1322.,516.0 L 1330.,511.2 L 1323.,504.7 L 1309.,506.4 L 1300.,501.2 L 1283.,488.6 L 1282.,478.5 L 1285.,465.9 L 1294.,462.0 L 1316.,447.6 L 1320.,435.0 L 1321.,428.5 L 1336.,401.5 L 1347.,381.0 L 1354.,360.1 L 1355.,348.3 L 1348.,340.9 L 1345.,333.5 L 1338.,321.8 L 1332.,319.6 L 1329.,315.2 L 1318.,310.9 L 1293.,310.4 L 1283.,307.4 L 1267.,309.6 L 1258.,304.3 C 1258.,304.3 1235.,295.2 1233.,293.9 C 1231.,292.6 1211.,296.9 1211.,296.9 L 1182.,305.2 L 1160.,311.7 L 1165.,323.9 L 1158.,329.6 L 1145.,321.8 L 1127.,318.3 L 1113.,318.3 L 1091.,323.5 L 1081.,330.5 L 1080.,339.2 L 1080.,344.8 L 1085.,357.0 L 1090.,364.0 L 1097.,370.1 L 1092.,380.5 L 1068.,393.2 L 1054.,408.4 L 1028.,402.8 L 1015.,404.1 L 1004.,398.0 L 1001.,379.2 L 995.5,361.8 L 997.7,354.0 L 990.7,345.3 L 983.3,331.8 L 981.5,329.2 L 984.6,323.5 L 988.1,321.3 L 1002.,314.8 L 1013.,312.6 L 1020.,310.9 L 1038.,304.8 L 1034.,300.0 L 1020.,291.7 L 999.8,284.3 L 995.0,281.7 L 972.4,266.5 L 967.2,270.8 L 965.0,273.0 L 967.2,278.2 L 965.0,283.4 C 965.0,283.4 948.4,288.2 946.3,288.7 C 944.1,289.1 925.4,292.6 925.4,292.6 L 925.4,297.4 L 933.2,303.9 L 948.0,308.3 L 951.1,310.9 L 961.5,330.9 L 957.6,336.6 L 932.8,347.0 L 910.6,337.4 C 910.6,337.4 884.0,326.5 882.3,326.1 C 880.5,325.7 880.1,325.2 880.1,325.2 L 876.6,313.5 L 880.5,310.9 L 894.0,305.6 L 902.7,303.0 L 903.6,293.9 C 903.6,293.9 877.5,269.1 874.0,266.5 C 870.5,263.8 863.5,278.6 863.5,278.6 L 859.6,270.8 L 854.4,262.5 L 849.2,257.7 L 842.2,254.7 L 836.1,257.7 L 834.8,260.4 L 834.3,263.8 L 826.5,261.2 L 822.6,257.7 L 812.1,253.4 L 807.8,251.6 L 803.4,249.9 L 799.9,249.9 L 799.1,256.4 L 798.2,266.5 L 793.8,271.2 L 794.3,275.2 C 794.3,275.2 801.3,282.1 802.1,284.3 C 803.0,286.5 803.9,290.0 803.9,290.0 L 807.3,293.5 L 813.9,298.2 L 799.9,295.6 L 794.3,299.1 L 783.0,304.3 L 781.7,311.3 L 782.5,313.5 L 785.1,319.6 L 789.5,325.2 L 779.0,325.7 L 776.4,323.1 L 774.3,321.8 L 770.3,326.1 L 769.5,331.3 L 768.2,342.2 L 768.6,349.6 L 767.7,354.0 L 772.1,358.8 L 776.4,359.6 L 783.0,359.6 L 786.4,358.8 L 790.8,357.9 L 793.4,358.8 L 793.8,366.2 L 795.6,370.1 L 799.5,373.1 L 796.9,383.2 L 793.8,383.6 L 780.3,379.2 L 771.2,380.5 L 765.5,380.5 L 760.3,381.4 L 759.0,385.8 L 761.2,391.4 L 760.8,397.5 C 760.8,397.5 760.8,398.8 759.9,400.6 C 759.0,402.3 758.6,404.5 759.0,406.2 C 759.4,408.0 760.8,409.3 760.8,409.3 L 765.5,409.3 L 768.6,406.7 L 771.6,403.6 L 775.1,401.5 L 777.3,401.0 L 779.5,401.5 L 775.1,409.3 L 776.9,411.5 L 775.6,415.8 L 772.5,419.7 L 769.0,421.5 L 766.8,421.9 L 762.5,423.2 L 760.8,421.5 L 756.8,417.6 L 752.0,417.6 L 749.9,420.2 L 750.3,424.5 L 750.3,426.3 L 747.3,436.7 L 748.6,438.0 L 752.9,437.2 L 755.5,436.3 L 752.0,444.1 L 744.6,450.2 L 739.8,455.0 L 731.6,456.8 L 728.5,456.3 L 725.0,455.0 L 722.9,457.6 L 722.9,458.9 L 724.2,466.8 L 723.7,470.3 L 726.8,472.9 L 731.6,479.0 L 732.9,484.2 L 733.3,485.1 L 740.3,490.3 L 741.6,497.3 L 742.9,501.2 L 747.3,502.9 L 751.2,504.2 L 753.8,504.2 L 759.0,502.5 L 764.2,499.9 L 769.9,498.1 L 778.6,497.3 L 781.2,497.7 L 787.3,496.4 L 792.5,490.3 L 793.0,487.2 L 794.3,479.0 L 793.4,474.2 L 790.8,471.1 L 780.3,469.4 L 775.1,475.1 L 771.6,481.6 L 757.7,492.0 L 753.8,495.5 L 751.6,491.6 L 762.1,470.7 L 758.6,464.2 L 760.3,452.0 L 766.8,453.3 L 773.4,452.0 L 777.3,450.2 L 782.5,453.7 L 787.3,454.6 L 789.1,454.1 L 796.9,454.6 L 798.6,458.5 C 798.6,458.5 801.3,462.4 801.7,464.2 C 802.1,465.9 802.1,473.7 802.1,473.7 L 804.7,477.7 L 810.8,483.3 L 813.4,485.1 L 823.9,489.0 L 826.9,494.2 C 826.9,494.2 826.9,494.2 827.8,496.0 C 828.7,497.7 830.0,502.1 830.0,502.1 C 830.0,502.1 830.0,502.9 830.4,504.7 C 830.9,506.4 833.5,511.6 833.9,513.4 C 834.3,515.1 832.6,517.7 832.6,517.7 L 830.4,523.8 L 828.3,526.0 L 824.8,528.2 L 823.9,524.3 L 823.0,516.4 L 823.0,512.9 L 821.7,509.0 L 818.7,504.7 L 813.4,502.5 C 813.4,502.5 812.6,501.6 810.4,501.6 C 808.2,501.6 804.7,503.4 804.7,503.4 L 797.8,510.8 L 798.6,515.6 L 795.2,523.4 L 790.8,525.6 L 789.5,526.9 L 779.0,524.3 L 775.6,521.2 L 773.4,518.6 L 772.1,508.1 L 772.5,507.3 L 762.9,515.1 L 758.6,520.8 L 754.2,521.6 L 753.8,523.4 L 756.0,525.6 L 759.0,526.0 L 762.1,524.7 L 764.2,524.3 L 766.0,525.1 L 769.0,529.9 L 770.3,533.0 L 766.8,539.1 z M 1048.,553.0 L 1049.,567.8 L 1054.,580.0 L 1054.,585.2 L 1049.,597.4 L 1049.,614.8 L 1041.,624.4 L 1041.,626.2 L 1055.,636.6 L 1063.,640.1 L 1073.,643.6 L 1073.,647.1 L 1079.,658.4 L 1080.,658.4 L 1089.,633.1 L 1091.,622.7 L 1093.,607.9 L 1093.,595.7 L 1091.,585.2 L 1081.,573.9 L 1065.,546.9 L 1050.,526.9 L 1037.,510.3 L 1032.,503.4 L 1046.,498.1 L 1032.,463.3 L 1000.,450.2 L 991.1,447.6 L 982.4,452.0 L 978.9,457.2 L 974.6,470.3 L 968.5,488.6 C 968.5,488.6 966.7,491.2 965.9,494.6 C 965.0,498.1 964.1,506.8 964.1,506.8 L 967.6,513.8 L 977.2,525.1 L 1002.,543.4 L 1011.,538.2 L 1018.,533.0 L 1032.,535.6 L 1035.,547.8 L 1048.,553.0 z"
     id="path3670"
     style="fill:#000000;fill-opacity:1;fill-rule:evenodd;stroke:none;stroke-width:1px;stroke-linecap:butt;stroke-linejoin:miter;stroke-opacity:1" />
</svg>
