<?xml version="1.0" encoding="UTF-8" standalone="no"?>
<!-- Created with Inkscape (http://www.inkscape.org/) -->
<svg
   xmlns:svg="http://www.w3.org/2000/svg"
   xmlns="http://www.w3.org/2000/svg"
   version="1.0"
   width="725.85449pt"
   height="362.7959pt"
   viewBox="0 0 725.85449 362.7959"
   id="svg2412"
   xml:space="preserve"><defs
   id="defs2624" />
	<g
   style="fill-rule:nonzero;stroke:#ffffff;stroke-width:0;stroke-miterlimit:4"
   id="Layer_x0020_1">
		<path
   d="M 351.8,80.91 L 355.5,80.24 L 355.9,79.11 L 358.0,79.74 L 364.4,78.86 L 366.0,77.99 L 365.5,77.24 L 366.1,76.24 L 366.1,74.74 L 364.1,73.86 L 358.3,68.24 L 356.4,67.99 L 358.5,66.74 L 358.6,64.86 L 356.8,64.61 L 355.0,65.49 L 356.4,63.36 L 352.8,63.36 L 352.0,64.24 L 352.0,66.11 L 351.0,66.99 L 353.4,69.11 L 352.5,70.61 L 356.3,71.11 L 357.0,71.74 L 357.0,72.74 L 355.0,73.99 L 354.3,75.24 L 352.6,76.49 L 354.2,77.57 L 356.9,77.74 L 353.6,78.49 L 351.8,80.91 z "
   style="stroke:none"
   id="path2415" />
		<path
   d="M 342.9,77.61 L 346.6,77.74 L 350.3,75.86 L 351.3,74.24 L 350.4,73.49 L 350.4,72.61 L 351.9,71.86 L 350.9,70.11 L 347.9,69.24 L 346.0,69.99 L 345.6,72.36 L 343.8,71.36 L 342.9,71.99 L 343.5,72.49 L 343.0,73.49 L 345.0,74.11 L 343.8,74.86 L 344.3,75.49 L 343.0,76.36 L 342.9,77.61 z "
   style="stroke:none"
   id="path2417" />
		<path
   d="M 317.4,52.99 L 322.5,54.11 L 327.3,53.99 L 336.3,50.86 L 331.4,47.99 L 328.3,48.86 L 321.9,48.99 L 320.1,50.11 L 318.8,47.99 L 316.8,47.99 L 315.3,48.99 L 315.3,49.49 L 318.5,49.99 L 318.9,51.49 L 317.4,52.99 z "
   style="stroke:none"
   id="path2419" />
		<path
   d="M 453.0,214.1 L 458.7,212.4 L 459.8,210.4 L 461.5,208.8 L 461.5,206.4 L 462.5,206.6 L 463.5,207.6 L 465.3,212.4 L 464.0,213.1 L 463.2,213.8 L 464.2,214.8 L 458.0,232.1 L 454.8,233.3 L 451.7,232.1 L 450.0,226.8 L 452.3,221.6 L 451.8,215.6 L 453.0,214.1 z "
   style="stroke:none"
   id="path2421" />
		<path
   d="M 524.8,161.8 L 523.5,166.3 L 524.5,168.9 L 527.3,169.1 L 528.2,167.4 L 527.8,165.6 L 524.8,161.8 L 524.8,161.8 z "
   style="stroke:none"
   id="path2423" />
		<path
   d="M 555.3,171.6 L 556.7,173.6 L 559.7,175.4 L 560.2,177.1 L 562.7,178.8 L 563.2,181.4 L 564.5,182.1 L 566.5,186.6 L 567.8,188.4 L 573.5,193.3 L 576.2,193.1 L 576.8,188.1 L 574.2,185.3 L 573.7,183.8 L 571.7,183.6 L 571.8,180.8 L 570.3,180.1 L 569.3,178.9 L 565.7,177.6 L 562.3,173.6 L 561.2,173.4 L 561.2,172.1 L 559.3,170.9 L 556.5,170.4 L 555.3,171.6 L 555.3,171.6 z "
   style="stroke:none"
   id="path2425" />
		<path
   d="M 368.5,101.7 L 369.4,102.8 L 370.0,102.3 L 369.9,101.1 L 368.6,100.9 L 368.5,101.7 z "
   style="stroke:none"
   id="path2427" />
		<path
   d="M 379.7,100.9 L 380.3,101.4 L 380.3,102.3 L 379.6,102.8 L 379.8,103.3 L 381.2,103.3 L 381.5,102.5 L 382.6,102.5 L 382.5,99.74 L 381.9,99.16 L 379.7,99.16 L 379.7,100.9 z "
   style="stroke:none"
   id="path2429" />
		<path
   d="M 380.4,97.07 L 381.3,98.16 L 381.8,98.07 L 381.8,95.66 L 380.4,95.82 L 380.4,97.07 z "
   style="stroke:none"
   id="path2431" />
		<path
   d="M 388.0,105.2 L 393.8,104.9 L 393.8,105.4 L 393.3,106.1 L 393.8,106.6 L 393.8,107.7 L 392.5,107.6 L 391.0,107.1 L 390.5,106.4 L 387.9,105.6 L 388.0,105.2 z "
   style="stroke:none"
   id="path2433" />
		<path
   d="M 410.4,110.0 L 410.3,110.7 L 414.8,110.8 L 414.9,109.9 L 410.4,110.0 z "
   style="stroke:none"
   id="path2435" />
		<path
   d="M 595.5,171.4 L 597.5,169.3 L 598.0,168.1 L 599.6,168.2 L 601.1,169.8 L 602.8,170.8 L 603.1,171.6 L 601.8,171.8 L 601.5,173.2 L 600.1,173.4 L 601.1,174.4 L 599.5,174.6 L 600.4,176.1 L 600.9,178.1 L 602.4,179.2 L 602.3,179.9 L 600.3,179.9 L 599.8,183.7 L 597.9,184.4 L 598.0,187.2 L 596.3,189.7 L 594.4,189.6 L 593.1,188.3 L 592.0,188.9 L 591.3,188.1 L 590.3,188.8 L 585.0,188.1 L 584.4,185.6 L 585.1,184.7 L 582.6,182.8 L 583.4,181.8 L 583.0,180.4 L 582.9,178.3 L 583.9,176.9 L 585.8,178.7 L 586.9,178.9 L 587.5,177.2 L 592.5,173.4 L 592.8,171.4 L 593.9,172.1 L 594.6,171.1 L 595.5,171.4 z "
   style="stroke:none"
   id="path2437" />
		<path
   d="M 604.1,193.3 L 603.6,188.9 L 602.4,188.7 L 602.5,186.9 L 603.8,185.6 L 604.0,184.1 L 604.6,182.8 L 604.0,181.9 L 605.6,180.1 L 607.3,179.3 L 613.5,179.6 L 614.3,178.4 L 615.5,178.3 L 615.6,179.3 L 613.6,180.8 L 605.6,181.8 L 605.5,183.7 L 606.1,184.2 L 610.0,183.8 L 609.0,184.8 L 607.5,185.6 L 609.9,187.8 L 610.0,189.7 L 610.6,190.1 L 610.3,190.9 L 611.6,191.8 L 611.4,192.8 L 610.0,192.8 L 609.5,191.3 L 608.3,190.7 L 606.9,188.8 L 606.5,187.3 L 605.3,187.7 L 606.1,188.7 L 605.5,190.8 L 606.1,193.6 L 605.3,193.3 L 604.9,192.7 L 604.1,193.3 z "
   style="stroke:none"
   id="path2439" />
		<path
   d="M 576.3,194.3 L 578.8,193.4 L 581.9,194.3 L 583.0,195.7 L 586.0,195.6 L 586.8,195.1 L 588.9,195.6 L 592.0,195.6 L 590.3,196.9 L 594.4,197.3 L 593.5,198.3 L 595.1,197.8 L 595.8,198.2 L 595.6,199.4 L 594.4,199.8 L 594.0,198.9 L 593.1,199.3 L 590.9,198.4 L 578.1,197.1 L 577.1,195.6 L 576.3,195.1 L 576.3,194.3 z "
   style="stroke:none"
   id="path2441" />
		<path
   d="M 597.0,199.1 L 598.8,200.2 L 600.6,200.2 L 600.1,198.7 L 597.6,198.3 L 597.0,199.1 z "
   style="stroke:none"
   id="path2443" />
		<path
   d="M 603.1,200.9 L 604.6,202.1 L 605.5,202.2 L 606.3,201.7 L 604.9,200.4 L 603.1,200.9 z "
   style="stroke:none"
   id="path2445" />
		<path
   d="M 612.1,201.1 L 612.3,202.2 L 614.6,202.4 L 618.9,198.9 L 617.0,198.6 L 612.1,201.1 z "
   style="stroke:none"
   id="path2447" />
		<path
   d="M 626.8,184.4 L 629.5,185.6 L 630.9,186.9 L 630.1,187.8 L 631.1,189.4 L 634.9,189.9 L 636.5,191.4 L 639.0,191.2 L 642.8,194.7 L 643.5,196.1 L 641.3,197.2 L 640.6,198.4 L 643.3,198.6 L 644.5,197.9 L 647.1,199.9 L 651.9,200.2 L 653.8,197.3 L 656.4,197.3 L 657.9,198.2 L 658.1,199.2 L 660.9,202.3 L 665.0,202.9 L 666.6,202.8 L 665.4,201.8 L 665.0,200.7 L 663.1,199.9 L 659.5,195.9 L 660.6,194.7 L 659.6,193.6 L 658.1,193.3 L 657.1,192.4 L 656.9,190.9 L 653.8,188.8 L 641.0,184.4 L 639.6,186.1 L 638.1,186.6 L 636.1,188.2 L 633.9,187.6 L 633.5,184.7 L 632.6,182.9 L 626.8,183.6 L 626.8,184.4 z "
   style="stroke:none"
   id="path2449" />
		<path
   d="M 662.4,193.2 L 664.0,194.1 L 667.5,193.7 L 669.9,192.6 L 669.9,190.3 L 668.8,190.3 L 668.9,191.4 L 667.5,192.4 L 662.8,192.6 L 662.4,193.2 z "
   style="stroke:none"
   id="path2451" />
		<path
   d="M 619.9,179.7 L 620.6,182.1 L 621.5,180.8 L 622.3,181.2 L 622.6,179.9 L 622.4,178.4 L 621.5,179.1 L 620.9,177.7 L 620.1,178.8 L 619.9,179.7 z "
   style="stroke:none"
   id="path2453" />
		<path
   d="M 621.9,187.4 L 625.8,187.2 L 626.8,188.3 L 626.8,188.9 L 624.5,188.3 L 622.8,188.9 L 621.4,188.1 L 621.3,187.3 L 621.9,187.4 z "
   style="stroke:none"
   id="path2455" />
		<path
   d="M 609.5,167.2 L 610.6,166.4 L 613.5,166.6 L 613.0,167.7 L 613.9,169.1 L 615.8,169.6 L 616.5,170.1 L 616.4,168.7 L 615.9,167.3 L 616.8,167.3 L 618.3,167.8 L 618.0,165.3 L 617.1,164.2 L 617.4,162.8 L 616.4,162.2 L 614.4,163.7 L 613.5,165.4 L 611.9,164.4 L 610.3,165.3 L 609.0,165.6 L 609.5,167.2 z "
   style="stroke:none"
   id="path2457" />
		<path
   d="M 599.5,164.9 L 603.1,161.9 L 604.6,159.8 L 603.5,159.4 L 599.5,164.9 z "
   style="stroke:none"
   id="path2459" />
		<path
   d="M 617.4,188.2 L 619.4,188.3 L 618.3,189.7 L 617.4,188.2 z "
   style="stroke:none"
   id="path2461" />
		<path
   d="M 675.1,193.4 L 676.0,195.8 L 677.1,195.7 L 677.3,194.6 L 675.1,193.4 z "
   style="stroke:none"
   id="path2463" />
		<path
   d="M 649.9,203.9 L 648.9,206.8 L 649.5,207.4 L 648.1,209.6 L 648.9,211.3 L 646.4,217.3 L 644.5,217.3 L 639.6,213.6 L 637.0,212.8 L 636.0,211.1 L 638.5,208.3 L 638.3,206.2 L 632.9,205.3 L 631.1,204.6 L 629.8,206.9 L 628.9,206.2 L 626.8,206.4 L 624.4,210.4 L 625.3,211.8 L 624.5,213.1 L 623.9,211.4 L 622.4,211.6 L 621.6,213.1 L 620.4,209.9 L 616.8,210.6 L 615.3,212.4 L 613.5,213.2 L 613.9,214.7 L 612.6,214.3 L 612.1,215.1 L 612.8,215.9 L 611.6,216.8 L 611.1,215.3 L 609.3,217.1 L 609.9,218.3 L 607.8,220.8 L 602.1,222.3 L 600.5,223.3 L 597.0,223.7 L 593.9,226.2 L 592.9,225.7 L 592.0,230.8 L 592.8,233.3 L 591.3,235.3 L 593.1,233.9 L 593.5,235.3 L 592.3,235.8 L 596.9,247.2 L 594.9,250.9 L 598.1,252.7 L 601.9,252.3 L 604.1,250.7 L 612.5,249.7 L 617.4,246.7 L 628.4,245.4 L 633.3,247.3 L 634.0,248.8 L 635.4,249.2 L 636.4,251.8 L 639.5,250.1 L 641.3,248.1 L 641.5,249.4 L 640.1,251.2 L 639.5,252.4 L 640.8,252.4 L 641.9,251.1 L 642.5,252.8 L 644.1,252.1 L 643.9,253.6 L 644.8,257.4 L 651.9,259.9 L 654.1,258.8 L 655.3,259.1 L 655.3,257.9 L 657.5,260.1 L 660.5,259.1 L 661.4,257.7 L 665.5,257.7 L 665.9,254.7 L 667.4,251.3 L 670.5,247.2 L 672.5,240.3 L 672.5,238.3 L 671.0,236.2 L 672.0,234.6 L 670.5,232.1 L 667.0,229.3 L 666.6,227.2 L 665.6,226.4 L 664.8,227.3 L 664.1,224.8 L 662.3,222.2 L 657.9,219.4 L 656.1,212.2 L 654.5,210.7 L 652.8,210.3 L 651.0,203.7 L 649.9,203.9 L 649.9,203.9 z "
   style="stroke:none"
   id="path2465" />
		<path
   d="M 655.0,263.9 L 655.4,265.4 L 656.6,266.6 L 655.8,267.7 L 658.5,270.1 L 659.5,269.9 L 659.9,268.4 L 661.8,268.2 L 662.4,266.4 L 662.1,263.8 L 659.5,264.7 L 655.0,263.9 z "
   style="stroke:none"
   id="path2467" />
		<path
   d="M 605.5,134.2 L 605.6,136.6 L 606.4,137.1 L 609.1,131.3 L 607.3,131.1 L 606.6,132.6 L 605.4,133.4 L 605.5,134.2 z "
   style="stroke:none"
   id="path2469" />
		<path
   d="M 606.4,144.9 L 605.4,147.1 L 605.6,148.3 L 604.9,149.6 L 604.8,151.8 L 606.9,152.4 L 606.4,153.3 L 606.8,154.2 L 606.1,155.4 L 607.1,157.2 L 608.0,155.6 L 607.8,153.7 L 609.1,153.8 L 609.5,154.4 L 610.1,153.8 L 612.6,155.7 L 613.6,155.7 L 612.6,154.6 L 612.0,153.4 L 608.5,152.7 L 607.9,150.7 L 609.1,149.1 L 610.0,148.9 L 609.9,146.1 L 609.0,145.3 L 609.8,144.9 L 608.3,144.2 L 606.4,144.9 z "
   style="stroke:none"
   id="path2471" />
		<path
   d="M 609.3,158.6 L 609.3,160.4 L 610.8,161.1 L 610.0,162.3 L 611.0,163.3 L 611.6,161.6 L 613.0,161.6 L 613.5,160.9 L 611.1,159.2 L 610.4,158.2 L 609.3,158.6 z "
   style="stroke:none"
   id="path2473" />
		<path
   d="M 613.8,157.1 L 615.1,158.1 L 613.6,159.6 L 614.8,160.9 L 615.9,160.9 L 615.3,160.1 L 615.5,159.2 L 616.3,159.7 L 616.6,158.9 L 615.9,158.1 L 615.6,156.7 L 613.8,157.1 z "
   style="stroke:none"
   id="path2475" />
		<path
   d="M 649.9,72.11 L 650.5,73.24 L 649.0,74.49 L 649.9,80.36 L 649.0,82.86 L 649.8,85.36 L 649.0,87.11 L 649.3,88.24 L 650.5,88.36 L 650.9,87.61 L 652.0,88.49 L 652.3,89.11 L 652.8,88.61 L 651.8,86.86 L 650.5,85.86 L 651.1,83.36 L 651.6,82.36 L 654.0,82.24 L 651.9,78.11 L 651.1,71.86 L 649.9,72.11 z "
   style="stroke:none"
   id="path2477" />
		<path
   d="M 649.1,89.99 L 647.8,94.36 L 645.4,95.24 L 645.4,97.99 L 646.8,98.49 L 645.1,99.86 L 644.6,103.7 L 642.6,106.2 L 641.6,106.3 L 638.6,107.4 L 636.8,109.7 L 630.9,110.1 L 628.1,112.2 L 626.8,112.8 L 626.8,113.9 L 625.1,114.2 L 625.0,116.1 L 626.8,115.4 L 625.5,117.8 L 626.8,118.9 L 628.0,117.7 L 628.9,115.3 L 627.9,113.4 L 629.9,113.2 L 629.9,114.4 L 631.1,115.3 L 632.8,114.2 L 634.3,113.7 L 633.6,112.7 L 630.6,112.7 L 634.4,111.6 L 635.6,112.1 L 635.8,113.6 L 638.3,113.7 L 638.8,110.8 L 640.1,111.6 L 642.5,111.1 L 643.6,111.7 L 646.8,110.4 L 647.3,109.6 L 646.6,108.4 L 648.4,103.6 L 649.8,101.9 L 648.0,99.74 L 647.9,98.11 L 646.5,97.24 L 648.0,95.99 L 651.3,96.99 L 653.8,95.36 L 655.6,94.86 L 656.0,93.86 L 657.5,93.36 L 658.0,92.36 L 656.8,92.24 L 655.4,92.74 L 652.6,92.74 L 651.4,91.36 L 649.1,89.99 z "
   style="stroke:none"
   id="path2479" />
		<path
   d="M 660.9,89.86 L 659.4,91.99 L 660.3,92.24 L 662.5,90.49 L 662.3,89.36 L 660.9,89.86 z "
   style="stroke:none"
   id="path2481" />
		<path
   d="M 694.5,223.4 L 696.5,225.7 L 697.5,226.1 L 699.3,226.2 L 698.8,225.1 L 697.3,224.8 L 696.0,223.4 L 694.5,223.4 z "
   style="stroke:none"
   id="path2483" />
		<path
   d="M 721.6,216.8 L 720.6,217.8 L 721.8,218.9 L 723.0,218.4 L 723.0,217.4 L 721.6,216.8 z "
   style="stroke:none"
   id="path2485" />
		<path
   d="M 711.1,251.6 L 713.5,254.9 L 714.8,255.2 L 715.6,258.1 L 713.4,261.3 L 716.4,262.8 L 715.5,264.4 L 716.3,265.4 L 717.6,265.3 L 720.5,260.8 L 721.8,260.6 L 722.5,258.7 L 723.1,258.2 L 722.0,257.2 L 720.9,257.8 L 718.0,257.7 L 717.6,256.4 L 716.0,256.1 L 715.8,254.9 L 715.0,253.8 L 714.8,252.4 L 713.5,252.3 L 711.8,250.9 L 711.1,251.6 L 711.1,251.6 z "
   style="stroke:none"
   id="path2487" />
		<path
   d="M 711.1,263.1 L 708.5,267.7 L 704.1,270.2 L 702.0,270.6 L 701.4,271.9 L 699.6,272.9 L 699.4,275.2 L 702.8,275.6 L 703.8,275.9 L 705.4,275.2 L 707.0,274.9 L 708.0,273.3 L 708.4,271.3 L 710.8,269.8 L 712.1,270.2 L 711.8,268.8 L 713.9,266.9 L 713.9,264.6 L 712.8,264.8 L 712.1,265.4 L 711.6,263.2 L 711.1,263.1 z "
   style="stroke:none"
   id="path2489" />
		<path
   d="M 576.3,184.4 L 575.8,185.3 L 578.7,188.3 L 578.5,186.8 L 576.3,184.4 L 576.3,184.4 z "
   style="stroke:none"
   id="path2491" />
		<path
   d="M 646.0,33.16 L 649.2,33.82 L 651.2,33.16 L 646.8,32.16 L 645.7,32.16 L 646.0,33.16 z "
   style="stroke:none"
   id="path2493" />
		<path
   d="M 640.0,30.49 L 649.8,30.82 L 651.2,30.16 L 652.7,30.66 L 654.3,30.32 L 655.7,29.16 L 647.8,28.66 L 646.3,29.16 L 644.2,28.32 L 639.8,28.49 L 639.0,29.32 L 640.0,30.49 z "
   style="stroke:none"
   id="path2495" />
		<path
   d="M 657.5,29.49 L 659.3,30.82 L 667.3,30.82 L 667.3,29.99 L 659.2,29.66 L 658.3,28.82 L 657.5,29.49 L 657.5,29.49 z "
   style="stroke:none"
   id="path2497" />
		<path
   d="M 564.8,24.32 L 574.8,23.49 L 573.5,22.16 L 569.7,21.82 L 567.5,22.32 L 564.7,23.66 L 564.8,24.32 L 564.8,24.32 z "
   style="stroke:none"
   id="path2499" />
		<path
   d="M 550.8,21.49 L 560.3,23.16 L 563.0,22.82 L 564.3,20.99 L 562.3,19.99 L 560.0,20.49 L 560.2,18.66 L 557.7,18.16 L 550.7,18.66 L 548.5,19.66 L 553.2,20.49 L 550.8,21.49 L 550.8,21.49 z "
   style="stroke:none"
   id="path2501" />
		<path
   d="M 472.0,32.99 L 469.8,34.49 L 469.7,35.82 L 466.5,36.82 L 468.7,37.66 L 470.5,37.49 L 471.5,38.82 L 475.3,38.99 L 477.0,39.82 L 477.7,38.16 L 476.3,37.66 L 474.3,36.16 L 475.2,34.99 L 476.2,34.99 L 476.2,34.16 L 474.0,34.16 L 472.7,32.82 L 472.0,32.99 L 472.0,32.99 z "
   style="stroke:none"
   id="path2503" />
		<path
   d="M 474.5,33.16 L 476.7,33.49 L 479.2,32.49 L 480.5,31.49 L 484.7,31.16 L 484.8,29.99 L 499.8,28.16 L 501.5,27.32 L 500.7,26.82 L 477.7,29.82 L 477.0,31.16 L 475.3,31.32 L 474.3,31.99 L 474.5,33.16 L 474.5,33.16 z "
   style="stroke:none"
   id="path2505" />
		<path
   d="M 454.8,19.16 L 458.7,19.99 L 461.0,19.82 L 460.8,18.66 L 455.3,18.32 L 454.8,19.16 L 454.8,19.16 z "
   style="stroke:none"
   id="path2507" />
		<path
   d="M 400.3,20.49 L 403.2,21.66 L 414.8,21.99 L 417.0,20.66 L 413.2,19.32 L 412.5,20.32 L 409.5,19.32 L 408.0,19.99 L 404.3,19.32 L 400.3,20.49 L 400.3,20.49 z "
   style="stroke:none"
   id="path2509" />
		<path
   d="M 396.3,20.16 L 402.0,22.16 L 405.7,22.66 L 407.2,23.32 L 405.0,23.99 L 402.5,23.16 L 400.2,24.16 L 398.5,25.99 L 396.0,26.82 L 391.7,26.16 L 393.2,24.82 L 387.2,22.82 L 387.8,21.99 L 386.0,22.16 L 385.8,20.99 L 387.8,20.66 L 389.0,21.49 L 391.7,21.49 L 392.3,20.66 L 393.8,21.82 L 395.5,22.32 L 396.2,20.99 L 396.3,20.16 L 396.3,20.16 z "
   style="stroke:none"
   id="path2511" />
		<path
   d="M 386.0,69.99 L 387.3,70.66 L 387.7,69.49 L 386.5,68.66 L 386.0,69.99 z "
   style="stroke:none"
   id="path2513" />
		<path
   d="M 428.3,111.4 L 430.7,111.6 L 431.5,110.8 L 431.0,110.1 L 429.3,110.4 L 428.3,111.4 z "
   style="stroke:none"
   id="path2515" />
		<path
   d="M 234.9,27.86 L 242.9,29.11 L 246.0,30.74 L 248.1,30.86 L 248.4,32.24 L 250.0,32.36 L 250.1,33.61 L 253.1,35.74 L 253.0,36.61 L 251.8,36.11 L 250.8,36.99 L 251.4,37.36 L 254.4,37.49 L 255.6,36.99 L 256.8,37.61 L 259.1,37.86 L 260.4,38.86 L 260.4,39.61 L 254.8,38.86 L 252.9,39.36 L 255.6,39.74 L 255.8,40.24 L 253.5,40.86 L 256.5,41.86 L 257.6,41.74 L 256.9,40.86 L 261.5,40.74 L 260.5,41.74 L 261.1,42.61 L 260.5,43.74 L 261.1,45.24 L 260.0,45.74 L 260.4,46.86 L 258.8,46.24 L 258.4,43.49 L 256.8,43.61 L 257.0,44.36 L 256.8,45.61 L 256.9,47.11 L 258.3,47.36 L 255.4,48.49 L 256.5,49.74 L 257.6,49.99 L 258.3,51.24 L 259.3,51.74 L 260.1,50.99 L 262.8,50.99 L 258.9,53.11 L 261.0,53.61 L 262.0,54.49 L 261.5,55.36 L 262.3,56.36 L 264.0,56.86 L 265.9,58.74 L 268.5,59.49 L 270.4,58.74 L 272.6,59.49 L 272.8,60.99 L 276.6,60.86 L 276.9,58.11 L 277.6,56.99 L 277.9,55.49 L 279.3,55.11 L 279.5,53.86 L 281.0,53.61 L 281.3,52.61 L 280.3,50.99 L 281.6,50.24 L 285.3,49.24 L 286.9,48.11 L 287.5,49.49 L 294.5,47.61 L 295.9,46.11 L 296.0,44.99 L 298.1,44.61 L 298.5,43.49 L 300.5,44.74 L 302.6,43.74 L 303.8,44.11 L 310.6,43.36 L 317.5,40.86 L 311.9,39.49 L 311.4,37.61 L 315.3,38.86 L 316.4,39.49 L 319.6,39.61 L 319.5,37.99 L 317.9,36.99 L 317.8,38.11 L 315.9,36.74 L 317.5,35.86 L 319.3,35.86 L 319.0,34.61 L 315.8,33.99 L 322.0,33.61 L 320.0,32.36 L 318.4,32.61 L 318.6,31.49 L 324.3,29.86 L 322.4,28.11 L 318.6,27.24 L 320.8,26.24 L 322.6,26.99 L 326.9,26.86 L 326.0,25.99 L 323.0,25.74 L 319.0,24.49 L 320.4,22.74 L 324.1,22.49 L 323.1,21.11 L 321.8,20.49 L 323.4,20.36 L 324.6,21.11 L 326.4,20.99 L 326.8,19.61 L 334.0,18.74 L 337.0,17.74 L 334.5,16.61 L 327.3,16.49 L 324.3,18.11 L 321.4,17.11 L 314.8,19.36 L 317.5,16.99 L 315.9,16.74 L 312.0,17.11 L 306.0,16.49 L 300.1,17.24 L 298.9,16.61 L 301.6,15.74 L 319.5,15.49 L 311.6,14.74 L 310.1,13.61 L 286.5,13.74 L 282.5,15.86 L 281.0,15.61 L 282.4,14.49 L 272.5,14.61 L 273.9,15.24 L 273.1,16.99 L 264.4,15.74 L 261.8,15.99 L 261.0,16.99 L 259.3,16.49 L 256.0,16.36 L 255.6,17.11 L 254.4,17.11 L 253.6,15.86 L 247.1,15.74 L 246.9,17.49 L 243.1,16.49 L 240.8,18.11 L 235.4,18.49 L 233.8,17.99 L 226.9,20.11 L 233.0,20.61 L 230.3,22.61 L 216.6,23.24 L 216.4,24.74 L 221.1,25.36 L 222.5,24.86 L 224.0,25.36 L 228.8,24.99 L 229.8,25.86 L 220.3,26.61 L 225.1,27.36 L 223.8,28.11 L 228.8,28.86 L 232.9,27.74 L 234.9,27.86 z "
   style="stroke:none"
   id="path2517" />
		<path
   d="M 255.1,44.86 L 254.5,46.11 L 255.5,46.49 L 256.0,45.49 L 255.1,44.86 z "
   style="stroke:none"
   id="path2519" />
		<path
   d="M 321.4,31.74 L 322.9,32.24 L 324.5,31.86 L 323.3,31.24 L 321.4,31.74 z "
   style="stroke:none"
   id="path2521" />
		<path
   d="M 0,351.68164 L 76.04,352.6 L 56.05,351.2 L 56.55,347.7 L 51.30,346.2 L 53.30,344.9 L 70.30,345.2 L 73.05,344.7 L 66.80,342.5 L 47.80,341.0 L 50.05,339.2 L 44.30,338.7 L 46.30,337.5 L 53.55,337.5 L 55.05,338.0 L 57.55,337.0 L 69.30,337.7 L 68.80,335.8 L 70.05,334.5 L 86.04,333.5 L 90.29,331.8 L 131.7,332.3 L 131.7,330.8 L 133.7,330.5 L 136.5,333.0 L 138.5,332.8 L 138.5,331.8 L 144.5,332.8 L 147.0,332.0 L 159.2,333.3 L 158.2,332.3 L 158.2,330.8 L 162.0,330.3 L 156.5,329.6 L 154.5,330.8 L 154.5,328.1 L 156.2,328.1 L 158.5,328.8 L 177.5,329.1 L 178.7,329.6 L 180.2,329.6 L 183.5,328.6 L 187.0,328.8 L 188.5,329.6 L 190.2,329.1 L 199.7,330.5 L 201.7,329.3 L 204.0,330.1 L 207.7,330.1 L 209.5,330.5 L 228.2,328.1 L 224.5,321.9 L 228.0,321.9 L 227.0,320.6 L 228.0,318.4 L 226.2,317.4 L 223.7,318.6 L 224.0,317.4 L 225.5,316.4 L 226.7,315.9 L 227.7,317.1 L 229.7,317.1 L 230.5,315.2 L 234.0,313.9 L 233.7,312.2 L 236.0,312.2 L 237.2,312.9 L 238.2,311.9 L 240.7,311.4 L 241.2,310.4 L 246.0,309.7 L 246.2,310.6 L 247.0,311.1 L 247.2,311.9 L 246.3,311.9 L 246.0,311.3 L 244.8,311.2 L 245.0,311.8 L 238.7,312.8 L 238.8,313.7 L 237.2,314.3 L 240.2,315.0 L 240.2,315.8 L 234.3,316.3 L 230.7,318.4 L 231.3,319.9 L 236.0,320.1 L 236.1,321.1 L 237.2,321.6 L 237.6,323.5 L 238.6,323.7 L 239.5,324.8 L 238.7,325.6 L 240.2,326.2 L 241.0,327.1 L 240.2,327.9 L 241.0,328.7 L 240.8,329.7 L 239.5,331.9 L 236.8,332.8 L 235.7,332.2 L 235.6,333.4 L 233.5,334.6 L 191.5,336.9 L 192.9,337.9 L 206.6,339.9 L 206.6,340.4 L 199.1,340.6 L 199.4,341.6 L 200.7,342.2 L 203.0,341.6 L 209.6,341.7 L 209.2,342.3 L 202.1,343.1 L 243.3,348.1 L 245.8,349.2 L 301.6,344.0 L 301.3,342.6 L 300.8,341.7 L 304.1,341.3 L 301.5,340.7 L 292.1,340.6 L 291.2,339.7 L 293.7,338.0 L 305.3,336.0 L 306.5,335.1 L 321.0,333.8 L 325.7,332.3 L 329.7,332.0 L 330.8,331.0 L 329.5,330.3 L 339.8,327.3 L 339.7,326.2 L 339.0,325.2 L 340.2,325.2 L 340.6,325.7 L 341.6,326.0 L 342.3,324.6 L 343.8,325.5 L 345.6,325.7 L 345.8,326.3 L 346.5,327.1 L 347.8,325.2 L 350.2,324.3 L 352.7,325.5 L 358.1,325.3 L 359.1,325.8 L 361.2,325.3 L 363.5,326.0 L 377.9,323.1 L 379.7,323.7 L 381.6,322.9 L 386.8,324.6 L 388.7,323.1 L 426.7,322.0 L 429.9,321.2 L 430.8,320.1 L 433.2,319.7 L 436.1,322.0 L 441.1,322.9 L 443.4,322.5 L 444.1,320.2 L 453.7,318.6 L 457.2,317.1 L 459.3,318.1 L 465.2,316.9 L 464.6,315.9 L 467.4,315.0 L 477.1,315.3 L 478.9,316.1 L 478.1,316.9 L 503.4,318.9 L 504.2,319.7 L 503.3,320.7 L 501.9,321.5 L 500.1,321.9 L 500.7,324.0 L 506.2,325.3 L 507.9,325.1 L 508.6,324.0 L 507.6,323.5 L 517.2,321.9 L 520.7,319.6 L 528.0,318.8 L 528.0,317.3 L 537.8,316.8 L 541.0,315.4 L 544.5,316.3 L 550.2,315.4 L 551.5,316.4 L 553.3,316.4 L 554.3,315.7 L 556.3,316.3 L 562.4,315.5 L 561.8,314.5 L 563.3,314.0 L 565.7,314.8 L 572.3,314.2 L 582.7,316.4 L 589.9,313.9 L 600.2,316.8 L 609.3,315.7 L 611.4,316.4 L 613.8,315.8 L 615.5,316.4 L 617.8,315.7 L 621.2,316.8 L 624.3,317.0 L 626.7,315.2 L 639.4,314.9 L 649.8,317.0 L 651.9,315.9 L 654.9,317.1 L 657.3,318.8 L 667.5,319.6 L 668.8,320.6 L 672.7,320.5 L 673.5,319.5 L 678.0,321.4 L 684.4,321.7 L 687.1,323.0 L 705.5,325.3 L 707.3,326.1 L 706.3,327.7 L 704.8,329.2 L 693.5,332.0 L 692.8,332.5 L 691.1,331.9 L 690.5,333.4 L 691.4,334.0 L 690.9,335.1 L 691.4,337.1 L 693.0,337.3 L 694.3,337.9 L 694.0,339.1 L 699.3,339.6 L 698.4,340.4 L 685.9,341.3 L 686.1,342.6 L 687.6,344.1 L 687.1,345.3 L 688.5,346.3 L 724.6,351.3 L 725.8,351.9 L 725.8,362.7 L 0.006,362.7 L 0,351.68164 z "
   style="stroke:none"
   id="path2523" />
		<path
   d="M 253.1,345.1 L 273.0,344.0 L 275.9,343.3 L 275.4,341.8 L 270.2,340.9 L 273.2,340.0 L 270.5,339.1 L 264.1,339.3 L 257.4,340.8 L 255.2,341.9 L 254.4,342.8 L 253.2,343.1 L 253.1,345.1 L 253.1,345.1 z "
   style="stroke:none"
   id="path2525" />
		<path
   d="M 236.4,344.6 L 237.8,345.1 L 241.6,344.9 L 241.9,343.3 L 236.7,343.9 L 236.4,344.6 z "
   style="stroke:none"
   id="path2527" />
		<path
   d="M 219.8,341.5 L 222.0,342.1 L 223.8,341.2 L 225.6,340.9 L 226.3,340.2 L 222.3,340.0 L 222.3,341.1 L 220.2,340.9 L 219.8,341.5 L 219.8,341.5 z "
   style="stroke:none"
   id="path2529" />
		<path
   d="M 201.2,337.5 L 204.7,338.8 L 214.1,339.1 L 214.9,337.9 L 213.7,337.3 L 201.2,337.5 L 201.2,337.5 z "
   style="stroke:none"
   id="path2531" />
		<path
   d="M 210.4,329.1 L 211.4,328.6 L 212.8,328.4 L 213.2,329.3 L 212.5,329.7 L 210.2,329.7 L 210.4,329.1 L 210.4,329.1 z "
   style="stroke:none"
   id="path2533" />
		<path
   d="M 210.1,322.9 L 212.2,322.9 L 211.4,321.4 L 210.1,322.9 z "
   style="stroke:none"
   id="path2535" />
		<path
   d="M 212.2,325.7 L 216.6,324.5 L 219.8,324.5 L 219.6,323.2 L 217.8,321.9 L 218.0,320.8 L 220.5,319.9 L 223.53272,322.5 L 223.5,323.5 L 224.8,324.4 L 225.4,325.9 L 223.8,328.1 L 217.8,328.3 L 220.7,327.1 L 218.4,326.2 L 216.9,326.9 L 212.5,326.9 L 212.2,325.7 L 212.2,325.7 z "
   style="stroke:none"
   id="path2537" />
		<path
   d="M 205.5,328.1 L 204.4,328.8 L 205.3,329.1 L 206.4,328.7 L 205.5,328.1 z "
   style="stroke:none"
   id="path2539" />
		<path
   d="M 32.68,341.3 L 33.13,341.7 L 35.51,342.0 L 35.68,342.4 L 40.91,342.6 L 41.02,341.7 L 40.06,341.5 L 40.00,340.9 L 36.93,340.9 L 36.99,340.3 L 33.93,340.3 L 33.81,340.9 L 32.62,341.0 L 32.68,341.3 L 32.68,341.3 z "
   style="stroke:none"
   id="path2541" />
		<path
   d="M 192.2,137.6 L 193.8,135.6 L 196.3,134.8 L 199.5,134.9 L 203.3,135.9 L 207.8,138.6 L 209.3,139.1 L 210.5,140.3 L 212.5,140.4 L 212.7,142.1 L 206.3,141.8 L 207.0,140.4 L 203.8,138.4 L 197.3,137.1 L 198.0,136.1 L 196.3,135.9 L 193.5,137.8 L 192.2,137.6 L 192.2,137.6 z "
   style="stroke:none"
   id="path2543" />
		<path
   d="M 215.3,142.1 L 217.2,144.4 L 216.3,145.3 L 218.3,145.6 L 219.5,145.4 L 220.7,144.3 L 225.2,144.6 L 223.7,143.3 L 222.0,142.9 L 222.0,141.8 L 218.0,141.3 L 215.3,142.1 L 215.3,142.1 z "
   style="stroke:none"
   id="path2545" />
		<path
   d="M 214.2,143.8 L 213.2,144.1 L 213.2,145.3 L 214.7,145.3 L 215.5,143.9 L 214.2,143.8 z "
   style="stroke:none"
   id="path2547" />
		<path
   d="M 205.0,144.1 L 208.7,144.4 L 207.0,146.1 L 205.0,144.9 L 205.0,144.1 z "
   style="stroke:none"
   id="path2549" />
		<path
   d="M 227.0,144.8 L 229.0,145.8 L 230.5,145.1 L 229.7,144.4 L 227.0,144.8 L 227.0,144.8 z "
   style="stroke:none"
   id="path2551" />
		<path
   d="M 239.8,158.9 L 238.8,160.4 L 240.2,160.8 L 239.8,158.9 z "
   style="stroke:none"
   id="path2553" />
		<path
   d="M 241.2,285.3 L 240.5,286.6 L 241.3,287.4 L 243.0,287.1 L 245.0,287.3 L 245.3,286.1 L 246.5,285.8 L 245.7,284.9 L 244.2,284.6 L 243.5,286.1 L 242.5,286.4 L 242.2,285.4 L 241.2,285.3 z "
   style="stroke:none"
   id="path2555" />
		<path
   d="M 234.0,268.6 L 235.2,266.9 L 234.0,266.6 L 233.3,267.3 L 234.0,268.6 z "
   style="stroke:none"
   id="path2557" />
		<path
   d="M 94.56,73.49 L 95.06,74.74 L 96.31,74.74 L 97.56,75.24 L 97.81,74.24 L 96.56,73.49 L 97.31,72.99 L 94.56,72.74 L 94.56,73.49 z "
   style="stroke:none"
   id="path2559" />
		<path
   d="M 53.06,65.11 L 51.06,66.36 L 51.81,67.24 L 54.93,66.74 L 55.81,65.49 L 55.18,64.99 L 53.06,65.11 z "
   style="stroke:none"
   id="path2561" />
		<path
   d="M 31.56,71.24 L 31.56,71.74 L 33.93,71.99 L 33.93,71.11 L 31.56,71.24 z "
   style="stroke:none"
   id="path2563" />
		<path
   d="M 26.56,72.86 L 25.68,73.49 L 25.68,74.36 L 27.43,74.36 L 28.06,73.36 L 27.68,72.61 L 26.56,72.86 z "
   style="stroke:none"
   id="path2565" />
		<path
   d="M 25.43,60.49 L 27.43,61.61 L 29.06,61.61 L 28.81,60.24 L 26.43,59.86 L 25.43,60.49 z "
   style="stroke:none"
   id="path2567" />
		<path
   d="M 16.56,54.11 L 21.18,55.11 L 22.81,54.61 L 22.93,53.86 L 19.31,52.99 L 16.93,53.24 L 16.56,54.11 z "
   style="stroke:none"
   id="path2569" />
		<path
   d="M 0,50.59814 L 1.062,49.36 L 1.062,47.99 L 2.437,47.86 L 2.812,49.61 L 8.187,49.86 L 8.812,50.86 L 10.56,51.61 L 13.56,51.74 L 15.81,50.74 L 15.93,49.49 L 19.56,49.24 L 19.68,48.24 L 16.18,46.74 L 10.93,46.74 L 11.93,47.99 L 11.06,48.11 L 8.937,46.24 L 9.187,45.11 L 2.937,43.74 L 1.687,42.86 L 0.458,42.53 L 0.437,41.45 L 0.021,41.30663 L 0,50.59814 z "
   style="stroke:none"
   id="path2571" />
		<path
   d="M 0.021,37.59814 L 0.041,39.11 L 0.541,39.14 L 1.062,38.24 L 4.187,38.24 L 4.062,37.49 L 0.021,37.59 L 0.021,37.59814 z "
   style="stroke:none"
   id="path2573" />
		<path
   d="M 189.8,49.49 L 189.7,52.16 L 188.0,52.99 L 190.7,53.16 L 191.0,54.82 L 193.5,53.49 L 195.8,52.82 L 198.3,53.82 L 200.3,53.82 L 197.2,51.32 L 193.8,50.32 L 192.7,49.49 L 191.8,50.49 L 190.8,49.49 L 189.8,49.49 L 189.8,49.49 z "
   style="stroke:none"
   id="path2575" />
		<path
   d="M 194.5,54.49 L 194.0,55.99 L 195.0,56.49 L 196.5,55.99 L 197.3,54.99 L 194.5,54.49 z "
   style="stroke:none"
   id="path2577" />
		<path
   d="M 207.2,45.99 L 210.8,45.66 L 211.8,44.66 L 210.8,44.16 L 208.0,44.32 L 207.3,45.16 L 207.2,45.99 z "
   style="stroke:none"
   id="path2579" />
		<path
   d="M 255.7,84.99 L 254.7,86.16 L 255.2,86.99 L 256.7,86.82 L 257.0,85.16 L 255.7,84.99 L 255.7,84.99 z "
   style="stroke:none"
   id="path2581" />
		<path
   d="M 240.2,86.82 L 239.2,88.66 L 239.7,89.66 L 241.8,89.32 L 241.0,88.16 L 241.8,87.49 L 241.5,86.82 L 240.2,86.82 L 240.2,86.82 z "
   style="stroke:none"
   id="path2583" />
		<path
   d="M 233.0,81.49 L 235.5,82.49 L 238.3,82.49 L 237.7,81.82 L 234.5,81.32 L 234.0,80.66 L 233.0,81.49 L 233.0,81.49 z "
   style="stroke:none"
   id="path2585" />
		<path
   d="M 206.0,27.66 L 205.8,25.99 L 204.3,26.66 L 204.5,25.16 L 208.7,24.49 L 210.3,22.99 L 212.2,23.32 L 213.0,20.99 L 215.3,21.66 L 216.8,20.66 L 220.0,20.66 L 223.5,19.16 L 229.2,18.32 L 226.8,17.66 L 237.8,15.99 L 237.0,15.16 L 221.8,13.82 L 213.8,14.82 L 209.3,14.16 L 207.8,14.32 L 209.2,15.49 L 207.3,14.99 L 196.8,14.82 L 196.5,16.66 L 194.2,15.82 L 180.5,16.66 L 186.0,17.49 L 186.8,18.32 L 195.7,19.66 L 188.5,21.66 L 186.0,19.49 L 184.3,20.49 L 182.3,19.49 L 177.7,18.66 L 177.5,17.82 L 173.0,18.16 L 171.3,19.49 L 169.3,19.66 L 168.8,20.66 L 171.7,21.49 L 180.5,22.16 L 173.8,22.32 L 175.8,23.66 L 181.2,23.99 L 182.2,22.82 L 183.5,23.49 L 184.7,23.49 L 184.8,22.32 L 188.3,23.49 L 193.5,24.16 L 191.7,25.32 L 186.3,24.82 L 187.8,25.99 L 183.8,26.16 L 182.8,27.16 L 184.3,27.49 L 186.2,27.32 L 186.7,26.82 L 187.5,26.99 L 187.5,27.49 L 195.0,27.82 L 195.5,26.99 L 196.2,27.82 L 197.2,26.66 L 200.0,28.16 L 206.0,27.66 L 206.0,27.66 z "
   style="stroke:none"
   id="path2587" />
		<path
   d="M 178.2,27.16 L 178.8,28.32 L 189.0,29.99 L 190.8,29.16 L 201.8,29.16 L 202.0,29.99 L 201.0,31.32 L 195.2,30.82 L 194.0,30.49 L 193.2,31.16 L 185.0,31.49 L 184.2,30.82 L 183.3,31.49 L 179.3,31.16 L 177.8,30.66 L 177.7,28.99 L 176.0,27.82 L 178.2,27.16 L 178.2,27.16 z "
   style="stroke:none"
   id="path2589" />
		<path
   d="M 172.2,28.82 L 170.0,29.99 L 168.7,29.99 L 168.7,31.16 L 172.2,30.66 L 173.3,31.49 L 174.5,31.32 L 173.8,29.99 L 172.2,28.82 z "
   style="stroke:none"
   id="path2591" />
		<path
   d="M 168.8,26.32 L 169.0,27.82 L 174.5,27.99 L 173.8,27.16 L 171.8,26.16 L 168.8,26.32 L 168.8,26.32 z "
   style="stroke:none"
   id="path2593" />
		<path
   d="M 166.3,24.82 L 170.8,24.66 L 170.8,23.49 L 169.3,22.99 L 166.0,22.99 L 166.3,24.82 L 166.3,24.82 z "
   style="stroke:none"
   id="path2595" />
		<path
   d="M 160.2,32.49 L 167.0,32.49 L 165.0,34.32 L 166.8,35.16 L 168.3,35.16 L 168.3,36.32 L 166.8,37.16 L 164.8,36.49 L 164.2,37.82 L 159.8,35.99 L 157.2,35.66 L 156.3,33.99 L 158.2,33.99 L 158.7,35.16 L 160.0,34.99 L 161.5,33.82 L 160.0,33.66 L 160.2,32.49 L 160.2,32.49 z "
   style="stroke:none"
   id="path2597" />
		<path
   d="M 161.0,30.99 L 163.7,29.66 L 167.0,29.66 L 166.5,28.82 L 164.8,27.32 L 160.2,26.82 L 161.2,27.99 L 158.8,27.99 L 160.7,29.66 L 161.0,30.99 L 161.0,30.99 z "
   style="stroke:none"
   id="path2599" />
		<path
   d="M 152.8,24.16 L 162.8,24.49 L 161.8,23.16 L 156.7,22.32 L 153.8,20.99 L 150.2,21.49 L 150.8,22.82 L 151.8,22.82 L 153.2,22.16 L 154.0,22.66 L 152.3,23.49 L 152.8,24.16 L 152.8,24.16 z "
   style="stroke:none"
   id="path2601" />
		<path
   d="M 130.5,27.49 L 135.7,27.49 L 138.5,29.16 L 141.5,28.49 L 140.8,27.82 L 142.3,27.16 L 144.2,27.16 L 144.3,28.32 L 145.7,29.32 L 149.3,28.49 L 149.2,30.49 L 132.8,31.32 L 133.5,30.16 L 131.5,29.82 L 131.0,30.82 L 127.7,30.49 L 128.7,29.49 L 130.8,28.99 L 129.8,28.32 L 130.5,27.49 L 130.5,27.49 z "
   style="stroke:none"
   id="path2603" />
		<path
   d="M 126.3,27.16 L 127.3,27.82 L 128.2,27.49 L 128.5,25.99 L 129.8,25.82 L 127.2,25.16 L 115.7,27.99 L 121.8,28.66 L 124.2,27.16 L 126.3,27.16 L 126.3,27.16 z "
   style="stroke:none"
   id="path2605" />
		<path
   d="M 149.0,32.66 L 151.7,32.99 L 151.5,34.49 L 150.2,34.99 L 151.7,36.99 L 155.7,39.82 L 158.0,39.82 L 159.3,41.16 L 154.7,41.16 L 154.5,42.49 L 148.8,42.99 L 148.7,41.49 L 144.0,43.16 L 134.8,43.32 L 134.0,42.32 L 127.7,41.66 L 126.0,40.66 L 136.5,39.99 L 134.0,38.99 L 125.5,39.32 L 124.7,38.32 L 130.2,37.66 L 123.5,36.66 L 126.3,34.32 L 122.3,34.99 L 118.8,37.99 L 114.5,38.16 L 109.5,36.66 L 112.3,33.66 L 114.0,33.32 L 112.2,32.32 L 112.3,31.32 L 127.8,32.32 L 130.0,33.16 L 128.3,34.32 L 130.7,34.49 L 131.7,33.66 L 133.3,35.16 L 135.0,34.49 L 136.8,34.32 L 137.5,35.49 L 139.2,35.99 L 140.7,34.49 L 144.8,35.99 L 145.3,37.66 L 146.8,36.99 L 146.7,35.82 L 144.8,33.82 L 148.8,34.16 L 149.0,32.66 L 149.0,32.66 z "
   style="stroke:none"
   id="path2607" />
		<path
   d="M 423.5,60.82 L 428.7,60.99 L 433.3,57.99 L 435.0,59.16 L 436.5,58.66 L 438.3,60.32 L 438.3,58.99 L 436.3,57.49 L 435.2,55.66 L 433.7,55.99 L 432.5,55.49 L 433.0,57.16 L 429.7,58.99 L 426.3,57.99 L 424.3,57.82 L 424.7,58.99 L 425.2,59.82 L 423.3,59.66 L 423.5,60.82 L 423.5,60.82 z "
   style="stroke:none"
   id="path2609" />
		<path
   d="M 344.4,94.74 L 347.1,93.74 L 352.1,93.74 L 354.3,94.49 L 358.1,94.49 L 360.0,93.49 L 360.8,90.36 L 360.6,88.61 L 356.5,85.86 L 353.4,85.24 L 355.3,83.11 L 357.1,83.36 L 357.8,84.11 L 360.1,83.99 L 359.5,82.36 L 359.9,81.99 L 363.6,82.49 L 364.8,80.99 L 366.0,80.36 L 368.4,77.86 L 368.9,78.49 L 369.8,77.24 L 370.8,77.99 L 374.4,77.11 L 373.0,76.24 L 371.8,75.99 L 374.1,74.49 L 378.4,73.49 L 380.1,74.11 L 381.3,72.99 L 380.1,71.24 L 380.4,69.86 L 379.9,69.11 L 379.9,67.49 L 382.0,66.36 L 383.6,65.99 L 384.4,66.11 L 383.4,67.61 L 383.5,69.24 L 384.8,70.11 L 382.9,70.74 L 383.6,71.74 L 385.0,71.74 L 386.0,71.24 L 386.1,72.49 L 387.3,72.86 L 388.5,71.86 L 389.6,71.86 L 392.1,73.36 L 395.1,72.11 L 400.5,71.49 L 400.9,72.74 L 403.9,70.49 L 404.9,71.11 L 405.9,70.99 L 405.4,69.86 L 406.1,69.24 L 404.5,68.49 L 407.4,65.86 L 407.6,63.99 L 408.8,62.99 L 409.8,64.36 L 408.5,64.99 L 410.1,66.61 L 412.0,66.74 L 412.0,65.24 L 410.9,63.24 L 411.0,62.24 L 420.4,61.24 L 421.8,60.24 L 420.1,59.11 L 409.9,60.74 L 409.3,59.74 L 408.8,60.49 L 406.1,59.74 L 406.9,58.49 L 406.8,56.99 L 406.3,56.24 L 406.3,54.74 L 414.0,50.36 L 412.4,49.11 L 411.5,46.99 L 410.1,48.61 L 407.5,49.11 L 405.1,52.86 L 397.8,55.74 L 398.6,57.24 L 397.8,58.99 L 401.5,60.99 L 400.0,62.74 L 397.6,63.11 L 395.1,69.11 L 392.6,68.74 L 391.9,70.61 L 389.0,70.24 L 388.6,67.86 L 386.5,65.86 L 387.5,65.11 L 384.1,62.61 L 381.3,63.11 L 380.6,64.24 L 376.3,64.24 L 374.6,63.36 L 375.4,62.36 L 373.8,61.86 L 374.5,60.86 L 373.9,59.86 L 374.3,59.11 L 373.3,58.49 L 374.5,57.74 L 373.4,57.11 L 374.5,56.24 L 375.6,56.61 L 376.9,56.24 L 377.0,55.11 L 383.4,53.49 L 382.6,52.61 L 387.3,50.61 L 390.0,48.36 L 390.3,46.61 L 393.0,45.74 L 394.0,44.49 L 393.0,43.61 L 394.1,42.49 L 395.1,42.99 L 394.6,43.86 L 395.5,44.61 L 398.3,43.86 L 399.5,41.99 L 402.5,41.11 L 404.5,41.74 L 405.5,40.74 L 407.8,39.74 L 409.5,40.36 L 413.3,38.74 L 414.3,38.99 L 413.3,40.36 L 414.3,40.49 L 416.4,38.86 L 417.5,39.61 L 419.5,38.24 L 420.8,39.49 L 422.6,38.86 L 444.5,44.74 L 446.4,45.99 L 444.8,47.61 L 440.8,48.74 L 430.5,47.24 L 432.8,49.11 L 433.1,51.49 L 436.0,52.61 L 438.8,52.99 L 439.9,51.99 L 437.4,51.24 L 437.5,50.24 L 443.3,51.11 L 444.8,51.74 L 445.9,51.24 L 444.3,50.11 L 444.3,48.86 L 448.1,47.99 L 450.9,48.49 L 451.8,48.24 L 451.5,43.61 L 456.6,43.74 L 457.1,44.74 L 454.3,45.86 L 455.3,46.99 L 459.1,46.99 L 459.5,45.86 L 462.3,45.61 L 462.8,44.36 L 467.1,43.36 L 468.0,43.74 L 467.8,44.74 L 467.6,47.11 L 468.9,45.24 L 481.5,42.99 L 484.6,43.36 L 485.5,42.24 L 484.6,41.11 L 490.4,40.99 L 500.6,44.11 L 502.3,43.99 L 502.5,42.74 L 498.3,40.86 L 498.3,38.99 L 497.3,38.49 L 500.9,37.49 L 503.0,34.61 L 504.9,33.74 L 507.1,34.11 L 505.8,34.86 L 509.3,35.61 L 508.0,37.86 L 509.8,38.99 L 509.4,41.61 L 511.4,43.74 L 508.4,46.36 L 505.9,47.49 L 509.1,47.74 L 512.8,46.11 L 514.4,43.74 L 512.0,42.24 L 512.6,40.36 L 512.3,38.86 L 510.5,37.99 L 513.5,36.86 L 514.1,34.61 L 515.4,35.74 L 516.1,38.24 L 520.3,38.99 L 519.1,37.61 L 516.5,36.86 L 518.9,36.11 L 519.6,35.11 L 527.6,36.74 L 526.0,35.49 L 525.1,34.11 L 531.8,32.74 L 537.6,33.36 L 537.3,31.86 L 540.0,30.11 L 561.8,27.99 L 563.3,29.36 L 564.6,29.74 L 564.9,28.61 L 563.4,27.74 L 566.4,27.61 L 567.4,26.36 L 572.5,24.99 L 576.9,25.86 L 575.6,27.11 L 579.4,27.74 L 583.0,27.11 L 587.4,27.24 L 592.5,28.61 L 591.6,30.24 L 589.0,30.86 L 591.3,31.86 L 588.4,32.11 L 586.9,31.74 L 580.6,33.11 L 585.3,33.61 L 586.8,32.61 L 589.0,33.24 L 601.8,33.49 L 610.0,36.24 L 608.8,38.36 L 609.4,38.61 L 612.8,36.61 L 611.3,35.49 L 615.8,35.11 L 618.5,36.61 L 620.3,35.86 L 622.9,36.86 L 623.9,36.74 L 625.3,38.61 L 626.8,38.99 L 630.4,36.86 L 633.5,38.11 L 635.8,37.49 L 641.4,37.86 L 645.9,35.86 L 647.0,34.11 L 649.8,34.99 L 656.0,35.36 L 657.3,36.49 L 660.9,35.99 L 663.8,36.24 L 663.5,37.86 L 659.6,39.36 L 659.5,42.86 L 661.3,40.11 L 665.3,38.11 L 666.1,38.11 L 670.8,39.11 L 679.6,38.36 L 684.3,38.99 L 686.0,41.11 L 687.9,41.49 L 688.0,42.74 L 689.8,41.11 L 695.4,40.74 L 698.3,41.86 L 701.6,40.36 L 703.5,40.61 L 702.0,41.61 L 705.3,43.24 L 707.0,43.11 L 707.0,41.74 L 706.8,40.61 L 710.9,40.36 L 712.9,40.99 L 725.8,41.18 L 725.8,50.95 L 723.4,51.61 L 721.1,50.99 L 722.6,52.49 L 722.5,53.99 L 724.3,54.11 L 725.4,54.99 L 723.6,56.49 L 721.8,56.24 L 720.6,54.74 L 719.1,56.24 L 716.1,56.36 L 706.3,60.61 L 704.0,59.24 L 702.0,59.99 L 699.5,60.24 L 697.9,61.61 L 697.9,59.99 L 693.3,61.24 L 693.0,62.61 L 694.4,62.36 L 693.9,64.11 L 692.3,63.24 L 690.4,64.49 L 689.6,65.24 L 691.5,66.11 L 692.6,68.61 L 690.4,68.61 L 689.3,71.24 L 683.3,75.49 L 681.1,77.86 L 679.8,78.86 L 678.5,77.99 L 677.0,71.74 L 677.1,68.61 L 679.9,65.24 L 694.0,58.49 L 694.0,56.49 L 696.1,55.61 L 692.5,55.24 L 691.3,57.49 L 688.9,58.24 L 686.0,59.99 L 684.9,59.36 L 686.3,57.49 L 684.4,57.61 L 681.3,56.74 L 673.6,61.74 L 674.5,61.99 L 675.6,61.36 L 676.1,62.11 L 675.1,62.99 L 667.6,62.61 L 669.0,61.49 L 650.1,62.86 L 636.1,71.24 L 639.0,71.61 L 639.1,73.11 L 640.6,73.36 L 643.3,71.86 L 645.6,72.11 L 645.3,73.11 L 643.8,74.36 L 644.6,76.24 L 637.1,80.11 L 637.8,81.24 L 638.8,81.49 L 639.9,79.99 L 642.8,78.36 L 645.4,77.86 L 646.4,77.24 L 645.8,75.24 L 645.8,73.86 L 647.0,73.61 L 647.6,75.24 L 645.9,83.36 L 634.6,94.36 L 631.5,95.86 L 629.6,94.74 L 624.9,97.99 L 624.4,99.86 L 619.5,102.4 L 622.5,104.6 L 624.1,106.9 L 623.9,110.4 L 620.6,111.8 L 617.6,112.2 L 618.1,109.4 L 618.8,108.8 L 617.3,107.7 L 617.6,105.8 L 616.3,104.8 L 615.5,105.9 L 614.9,104.8 L 615.9,102.8 L 613.5,101.1 L 610.0,102.9 L 607.5,103.3 L 608.8,101.9 L 609.8,100.1 L 607.9,98.86 L 602.6,102.7 L 600.0,103.1 L 600.3,104.3 L 604.5,106.8 L 606.1,105.7 L 607.6,105.7 L 609.4,106.7 L 603.4,111.4 L 606.1,113.6 L 606.4,115.3 L 608.4,117.1 L 607.4,118.6 L 608.3,119.9 L 606.9,120.7 L 608.4,121.7 L 609.0,122.4 L 607.6,123.9 L 608.5,125.1 L 606.9,125.3 L 605.9,126.9 L 603.9,127.7 L 604.9,128.7 L 603.5,131.4 L 601.1,132.3 L 600.5,133.6 L 598.1,134.4 L 597.9,135.4 L 593.8,136.2 L 592.1,135.7 L 591.4,136.9 L 591.3,137.8 L 585.5,138.8 L 587.1,141.7 L 584.6,145.1 L 583.5,145.4 L 582.0,144.2 L 582.9,142.3 L 585.5,141.2 L 584.3,140.2 L 584.1,137.7 L 582.1,137.7 L 577.6,141.1 L 576.1,143.3 L 578.0,144.9 L 579.4,147.2 L 582.1,149.8 L 583.1,152.3 L 583.6,155.4 L 582.1,159.1 L 577.6,162.2 L 576.0,163.9 L 574.5,164.1 L 574.1,161.2 L 570.8,159.6 L 569.0,156.8 L 565.8,154.7 L 564.9,156.1 L 562.9,161.4 L 565.9,166.2 L 571.8,172.1 L 572.0,176.6 L 572.9,178.6 L 571.4,179.1 L 566.8,175.6 L 564.0,168.1 L 561.1,164.2 L 562.0,154.9 L 558.6,146.9 L 557.6,148.2 L 556.1,148.6 L 555.8,150.1 L 554.6,149.4 L 554.0,149.9 L 553.0,148.8 L 553.8,146.2 L 552.8,143.3 L 551.1,143.2 L 552.0,142.2 L 550.0,141.1 L 546.4,135.3 L 545.5,134.8 L 544.9,137.7 L 544.0,137.3 L 542.8,137.8 L 540.4,137.6 L 538.8,138.4 L 538.4,140.6 L 534.8,142.3 L 532.5,145.4 L 529.1,147.2 L 529.0,148.3 L 526.6,149.1 L 526.3,150.2 L 524.4,151.2 L 525.1,154.9 L 524.5,157.9 L 523.5,158.6 L 524.5,159.7 L 524.3,161.1 L 522.3,162.2 L 522.8,162.9 L 520.9,163.6 L 519.9,165.4 L 518.5,165.2 L 517.0,162.9 L 516.6,160.3 L 514.0,156.3 L 509.6,141.7 L 510.1,139.9 L 509.4,138.8 L 510.1,138.2 L 507.9,137.2 L 508.0,138.8 L 505.9,140.2 L 502.4,137.3 L 504.9,136.1 L 501.9,135.2 L 499.8,133.8 L 499.6,131.9 L 497.3,131.2 L 495.8,130.1 L 493.5,131.3 L 492.1,130.1 L 490.5,131.2 L 479.8,130.4 L 478.1,128.4 L 477.6,126.7 L 476.6,126.8 L 475.3,128.1 L 471.4,127.9 L 466.6,125.2 L 464.5,121.4 L 463.3,120.6 L 461.0,121.2 L 460.3,122.6 L 461.1,124.7 L 464.6,128.6 L 463.8,129.6 L 465.0,130.7 L 466.4,130.4 L 466.0,128.9 L 467.4,129.2 L 467.5,131.3 L 467.0,132.4 L 468.9,133.8 L 472.1,133.8 L 476.1,128.8 L 476.9,131.7 L 479.8,134.2 L 482.4,135.4 L 484.1,137.2 L 481.5,139.9 L 479.5,141.1 L 479.1,143.9 L 477.5,144.2 L 476.8,145.3 L 474.4,146.1 L 474.4,147.7 L 470.5,148.1 L 468.1,150.6 L 464.0,151.6 L 461.6,153.6 L 454.6,155.7 L 451.4,155.7 L 450.3,154.3 L 450.1,152.3 L 448.9,151.1 L 449.6,149.6 L 448.6,146.6 L 442.0,138.9 L 441.8,136.1 L 440.5,133.7 L 438.3,132.7 L 438.1,130.7 L 434.8,125.4 L 433.4,124.9 L 433.6,123.2 L 432.1,124.4 L 432.1,125.7 L 429.9,123.6 L 430.8,126.2 L 431.4,127.1 L 432.0,129.2 L 434.8,133.1 L 435.9,135.6 L 438.3,138.2 L 438.6,144.3 L 441.1,144.9 L 443.3,150.7 L 450.3,155.9 L 450.5,158.6 L 453.3,160.6 L 455.5,159.8 L 457.1,160.2 L 465.3,157.1 L 466.8,158.6 L 466.0,160.2 L 466.6,160.8 L 460.0,172.8 L 454.8,177.9 L 451.3,179.9 L 445.9,186.4 L 444.4,187.2 L 441.5,192.7 L 441.4,194.3 L 442.8,193.2 L 443.0,193.9 L 442.4,194.9 L 443.0,201.8 L 445.0,203.4 L 444.4,205.1 L 445.0,207.3 L 445.1,210.6 L 445.8,211.2 L 443.6,214.9 L 437.5,217.9 L 437.4,219.1 L 436.5,219.6 L 435.6,218.2 L 435.4,220.1 L 433.3,222.7 L 434.5,225.3 L 434.6,228.6 L 433.6,231.6 L 428.6,234.2 L 429.1,235.7 L 427.8,239.8 L 423.5,245.1 L 418.6,248.8 L 402.4,251.8 L 400.0,250.9 L 399.3,248.4 L 399.9,246.3 L 394.6,237.8 L 391.6,228.1 L 391.4,225.4 L 388.8,220.3 L 387.1,219.4 L 386.0,215.8 L 388.1,209.3 L 390.9,205.8 L 389.5,200.2 L 390.3,198.4 L 386.6,191.7 L 382.1,186.3 L 380.6,183.3 L 382.6,180.9 L 382.0,179.3 L 383.0,177.7 L 382.5,176.7 L 383.9,176.1 L 382.5,173.2 L 381.5,173.9 L 380.0,171.9 L 377.5,172.6 L 374.9,171.8 L 372.1,168.8 L 366.6,169.2 L 359.3,172.1 L 354.9,170.9 L 347.8,172.9 L 337.6,166.9 L 336.1,164.3 L 336.6,163.4 L 335.6,162.8 L 335.0,161.4 L 332.5,159.4 L 332.4,158.6 L 328.8,156.4 L 329.4,155.6 L 328.0,151.9 L 330.5,149.6 L 332.5,148.9 L 330.1,148.6 L 328.8,149.2 L 330.4,146.4 L 330.9,144.6 L 329.8,142.6 L 330.1,140.3 L 328.3,139.1 L 337.0,125.4 L 340.9,123.9 L 343.6,121.1 L 343.1,118.7 L 344.8,115.4 L 349.4,113.1 L 351.5,109.6 L 354.6,110.8 L 356.9,110.4 L 358.8,110.8 L 361.3,109.3 L 364.4,108.7 L 365.1,107.9 L 371.6,106.9 L 374.0,107.8 L 380.3,106.7 L 381.8,107.3 L 382.5,106.4 L 384.1,106.7 L 384.9,107.6 L 384.5,109.1 L 385.6,110.4 L 383.4,112.9 L 386.4,114.3 L 387.3,115.6 L 394.0,116.3 L 395.0,117.9 L 401.9,120.3 L 403.9,119.6 L 404.5,116.4 L 406.6,115.4 L 420.4,119.1 L 423.6,118.7 L 425.4,118.9 L 427.4,118.3 L 428.9,119.6 L 431.0,119.1 L 433.3,116.8 L 433.1,114.2 L 435.0,113.3 L 435.1,109.3 L 435.6,107.4 L 429.5,109.2 L 426.0,107.2 L 423.5,108.8 L 420.5,107.3 L 419.1,107.8 L 417.4,105.1 L 415.5,104.6 L 417.0,103.2 L 415.8,101.7 L 416.6,100.4 L 418.1,100.4 L 432.4,97.36 L 433.3,96.74 L 434.8,97.49 L 436.1,97.74 L 436.9,98.61 L 442.6,98.99 L 445.9,98.49 L 447.0,96.74 L 439.4,91.49 L 437.6,91.24 L 440.3,89.11 L 440.0,87.99 L 440.4,87.11 L 436.4,87.49 L 434.0,88.61 L 434.1,89.86 L 436.4,90.36 L 431.4,92.11 L 430.1,90.86 L 429.1,90.24 L 430.6,88.99 L 428.0,88.24 L 427.4,86.74 L 425.9,87.61 L 424.6,89.24 L 422.4,89.74 L 423.1,90.61 L 421.9,90.99 L 420.9,93.74 L 418.8,95.61 L 419.9,97.36 L 421.6,98.11 L 416.8,99.74 L 414.0,98.99 L 411.1,100.8 L 409.4,100.3 L 409.5,102.4 L 411.1,104.3 L 409.8,105.4 L 410.5,106.1 L 409.3,107.1 L 409.9,107.7 L 408.4,107.8 L 405.9,105.4 L 407.0,104.4 L 403.3,101.9 L 402.3,100.4 L 402.1,97.36 L 396.9,94.49 L 395.3,94.36 L 394.1,92.61 L 393.9,91.36 L 392.3,90.74 L 391.1,91.86 L 389.6,89.99 L 387.3,90.86 L 393.9,97.24 L 396.1,98.61 L 398.5,98.99 L 400.3,100.2 L 400.6,101.2 L 398.5,100.7 L 396.9,100.9 L 396.8,101.9 L 398.1,102.8 L 396.5,103.7 L 396.4,104.8 L 394.9,104.9 L 395.8,103.4 L 394.4,100.9 L 388.0,97.86 L 383.4,94.11 L 383.3,92.86 L 379.9,91.99 L 378.3,93.49 L 375.5,95.11 L 370.9,93.74 L 369.4,94.99 L 369.4,96.74 L 366.9,98.61 L 364.5,99.61 L 362.6,101.3 L 363.3,103.8 L 360.9,106.3 L 358.5,107.4 L 353.1,108.4 L 350.5,108.1 L 349.6,106.7 L 347.9,107.1 L 345.4,106.8 L 344.8,104.3 L 343.8,103.4 L 345.0,101.6 L 346.0,98.74 L 344.6,97.24 L 346.1,96.36 L 344.4,94.74 L 344.4,94.74 z M 427.5,187.4 L 432.2,185.9 L 430.0,185.4 L 432.0,184.1 L 431.0,182.9 L 432.5,182.8 L 432.7,180.4 L 431.3,180.9 L 429.3,179.8 L 426.7,183.1 L 426.5,185.8 L 427.5,187.4 L 427.5,187.4 z M 388.8,63.82 L 390.8,63.82 L 391.5,61.99 L 390.2,61.82 L 388.8,63.82 z M 463.2,99.99 L 462.7,102.3 L 461.2,103.4 L 462.3,105.3 L 463.3,106.1 L 464.8,106.6 L 466.5,107.8 L 472.2,106.9 L 471.3,105.8 L 472.5,104.6 L 470.8,102.4 L 471.5,101.1 L 470.0,100.6 L 469.8,98.82 L 471.2,98.99 L 472.0,99.82 L 473.2,99.16 L 471.2,96.82 L 469.7,96.49 L 468.3,96.66 L 468.8,95.49 L 466.3,94.32 L 465.3,92.49 L 467.3,91.82 L 466.3,90.82 L 470.8,90.32 L 469.8,88.99 L 470.2,87.66 L 469.3,86.66 L 465.3,86.66 L 458.5,89.99 L 457.7,91.66 L 459.2,93.49 L 459.5,95.99 L 463.2,99.99 z M 480.0,91.16 L 482.0,95.32 L 483.2,93.82 L 484.7,94.32 L 486.2,92.66 L 485.8,91.49 L 487.7,90.66 L 486.3,89.66 L 486.8,87.82 L 483.7,87.99 L 480.0,91.16 L 480.0,91.16 z M 572.3,77.82 L 576.2,78.49 L 579.3,75.82 L 582.2,74.49 L 582.8,72.99 L 584.3,72.16 L 584.3,69.82 L 582.7,70.99 L 577.2,76.82 L 574.3,76.99 L 572.3,77.82 L 572.3,77.82 z "
   style="stroke:none"
   id="path2611" />
		<path
   d="M 231.5,292.4 L 228.2,292.3 L 225.8,293.9 L 224.0,294.1 L 222.3,293.6 L 225.5,292.6 L 221.0,291.8 L 221.7,290.3 L 222.8,289.6 L 221.7,288.6 L 221.5,287.3 L 220.2,287.8 L 220.0,289.9 L 218.8,290.6 L 218.0,289.9 L 219.3,288.6 L 218.0,288.8 L 216.7,290.9 L 215.7,290.1 L 216.2,288.6 L 215.2,288.6 L 214.7,287.4 L 216.0,287.1 L 217.2,288.3 L 217.0,285.9 L 215.0,285.4 L 213.3,284.4 L 213.2,282.9 L 215.0,284.1 L 214.3,283.1 L 213.5,280.9 L 214.8,277.6 L 214.2,277.3 L 213.7,278.3 L 212.8,278.1 L 213.5,277.1 L 213.2,275.9 L 212.2,275.8 L 211.3,275.4 L 212.8,274.4 L 214.5,275.3 L 216.2,273.3 L 214.7,272.6 L 216.2,271.4 L 215.2,271.1 L 216.2,270.6 L 215.7,269.6 L 216.7,267.3 L 217.0,265.1 L 215.8,265.3 L 215.0,266.6 L 214.7,268.9 L 213.3,269.3 L 213.2,267.3 L 215.7,261.1 L 215.0,258.9 L 215.0,257.8 L 216.0,256.1 L 217.3,251.8 L 219.2,248.4 L 219.3,247.3 L 218.7,246.4 L 219.5,237.9 L 220.7,235.4 L 221.0,230.8 L 221.7,229.9 L 221.0,228.9 L 221.7,218.8 L 211.7,212.9 L 209.8,210.1 L 210.0,208.8 L 208.2,207.8 L 202.2,194.9 L 200.0,194.3 L 199.3,191.8 L 199.3,190.6 L 202.3,187.4 L 200.0,186.6 L 200.5,185.4 L 199.7,184.1 L 202.0,179.8 L 203.3,179.8 L 203.8,178.4 L 205.2,178.8 L 205.3,177.1 L 206.8,175.3 L 207.3,173.1 L 206.5,170.4 L 208.0,169.6 L 207.0,167.9 L 205.0,166.3 L 205.2,164.4 L 203.2,163.8 L 201.8,164.4 L 201.2,166.8 L 200.2,166.8 L 196.7,164.8 L 195.7,165.9 L 194.7,164.8 L 193.8,162.9 L 192.3,162.6 L 192.3,161.1 L 190.3,161.8 L 189.7,159.3 L 187.3,156.3 L 187.3,154.4 L 184.3,154.9 L 181.0,153.6 L 178.5,153.3 L 174.7,149.8 L 171.8,148.3 L 170.5,149.8 L 166.5,149.6 L 152.7,143.4 L 150.5,141.8 L 150.3,139.6 L 150.8,137.9 L 150.3,136.4 L 146.7,133.3 L 146.5,131.8 L 145.3,131.9 L 143.0,129.3 L 142.8,128.1 L 140.8,127.8 L 140.5,126.1 L 137.3,123.9 L 135.5,118.9 L 133.7,117.6 L 132.0,117.3 L 131.5,120.1 L 134.2,122.4 L 134.8,124.1 L 137.5,127.3 L 139.7,131.8 L 143.0,134.8 L 142.0,135.9 L 137.5,132.3 L 136.3,129.3 L 131.5,126.9 L 133.2,124.3 L 130.0,121.9 L 125.0,113.3 L 123.7,112.6 L 119.5,112.1 L 119.3,110.4 L 118.5,109.9 L 113.7,102.9 L 112.2,96.66 L 113.3,88.82 L 113.8,87.49 L 112.3,85.66 L 111.5,82.32 L 110.3,82.82 L 104.5,79.82 L 106.2,79.32 L 106.8,78.32 L 105.7,77.66 L 107.2,75.66 L 105.7,75.82 L 104.7,75.16 L 103.5,73.32 L 103.0,73.99 L 102.0,73.66 L 100.8,72.66 L 101.8,71.99 L 100.2,72.16 L 101.2,69.99 L 99.39,71.16 L 99.72,68.82 L 98.22,69.32 L 97.39,67.82 L 95.22,66.82 L 95.56,69.66 L 97.06,68.82 L 96.89,70.16 L 97.06,71.66 L 95.39,70.82 L 93.06,67.66 L 94.89,65.66 L 93.72,65.16 L 93.39,64.49 L 92.06,66.82 L 91.72,65.32 L 90.56,64.49 L 91.89,64.16 L 90.89,62.99 L 89.56,63.16 L 88.39,62.82 L 89.22,64.16 L 90.39,67.66 L 87.39,63.82 L 85.56,63.49 L 84.72,62.49 L 81.39,61.99 L 80.39,60.82 L 78.72,61.82 L 78.06,60.82 L 72.22,60.82 L 71.56,58.82 L 69.89,59.66 L 67.72,58.32 L 65.56,58.99 L 63.72,58.16 L 64.72,60.49 L 59.39,62.32 L 57.39,61.82 L 57.89,60.32 L 59.56,59.49 L 59.72,57.99 L 54.06,60.32 L 55.06,61.16 L 52.06,62.49 L 53.56,63.49 L 40.72,69.82 L 36.72,70.16 L 34.89,70.99 L 36.56,68.99 L 44.06,66.32 L 45.89,64.49 L 45.72,62.49 L 44.39,63.32 L 43.72,62.32 L 43.39,63.49 L 41.72,62.66 L 39.72,62.66 L 39.06,63.66 L 36.39,63.49 L 37.22,61.82 L 34.72,60.66 L 33.89,61.16 L 31.56,60.49 L 28.22,56.99 L 31.56,55.49 L 33.72,56.99 L 36.72,57.99 L 35.72,56.32 L 31.56,54.82 L 31.56,53.82 L 32.89,53.82 L 34.06,54.82 L 34.56,54.16 L 38.89,53.82 L 37.72,52.32 L 38.56,50.49 L 36.72,51.16 L 28.56,51.66 L 24.56,49.16 L 33.56,47.32 L 31.56,48.49 L 32.89,49.16 L 38.22,48.49 L 40.06,47.49 L 37.72,46.66 L 33.39,46.32 L 26.72,44.16 L 28.22,43.16 L 32.89,43.32 L 35.56,40.82 L 45.72,37.99 L 48.06,38.49 L 49.22,39.32 L 50.06,38.16 L 86.06,42.99 L 91.89,41.32 L 93.22,41.32 L 96.39,42.66 L 95.89,40.99 L 98.06,41.66 L 100.0,41.32 L 98.22,40.49 L 101.2,40.49 L 102.0,41.66 L 102.7,40.66 L 104.2,41.66 L 104.8,40.49 L 106.7,40.49 L 109.8,41.99 L 111.7,40.49 L 111.8,41.99 L 114.2,41.99 L 114.7,40.66 L 131.2,42.82 L 132.7,43.49 L 130.3,44.49 L 144.5,45.99 L 145.8,48.16 L 147.5,47.16 L 146.3,45.16 L 144.7,43.99 L 148.8,42.99 L 148.3,44.32 L 150.0,43.82 L 152.5,44.99 L 165.5,44.49 L 166.2,43.49 L 164.5,42.99 L 163.3,42.32 L 165.2,41.32 L 166.8,41.49 L 170.3,42.99 L 167.3,43.66 L 169.5,44.49 L 168.8,46.32 L 170.5,46.66 L 170.7,44.49 L 173.5,44.32 L 174.8,42.66 L 172.7,42.82 L 174.2,41.32 L 169.5,40.82 L 168.7,38.49 L 171.5,37.49 L 171.0,35.99 L 171.0,34.82 L 170.0,33.32 L 172.7,32.49 L 180.5,33.16 L 177.8,34.99 L 174.8,34.82 L 173.0,36.16 L 174.8,37.49 L 174.5,38.32 L 177.8,39.82 L 176.8,41.99 L 180.2,42.82 L 181.0,44.49 L 182.2,44.32 L 183.8,42.16 L 186.2,43.66 L 184.8,44.49 L 186.3,46.32 L 188.0,46.66 L 190.3,43.82 L 192.5,43.32 L 190.8,41.32 L 193.8,40.99 L 193.8,40.16 L 189.8,39.82 L 187.7,39.16 L 186.0,40.16 L 182.7,37.99 L 182.0,35.99 L 183.3,33.82 L 187.3,32.82 L 191.2,32.82 L 191.7,33.32 L 188.8,34.66 L 188.7,36.49 L 189.8,36.49 L 192.3,38.49 L 192.8,37.99 L 190.3,35.66 L 191.8,35.82 L 192.3,36.49 L 193.3,36.49 L 192.7,35.32 L 193.5,34.82 L 192.7,33.82 L 196.3,32.99 L 198.2,33.16 L 200.2,34.49 L 200.7,35.66 L 205.8,36.82 L 205.2,35.32 L 202.7,34.99 L 200.8,33.99 L 200.7,32.66 L 208.0,33.66 L 208.7,34.82 L 211.3,36.16 L 212.2,37.99 L 213.0,36.99 L 214.8,36.99 L 215.0,37.99 L 216.0,38.16 L 217.0,36.99 L 219.2,37.32 L 218.0,38.32 L 220.2,39.99 L 219.8,38.16 L 220.8,38.32 L 222.0,39.66 L 222.7,38.82 L 224.7,38.66 L 224.2,40.32 L 225.8,39.99 L 228.0,40.82 L 222.0,41.16 L 226.8,44.16 L 227.8,43.32 L 229.5,44.82 L 230.3,44.16 L 233.5,45.32 L 233.0,46.16 L 235.2,46.99 L 236.2,46.16 L 236.7,46.99 L 238.2,45.82 L 239.3,46.66 L 235.2,50.16 L 233.3,49.82 L 227.0,47.16 L 226.5,48.66 L 225.0,48.82 L 227.3,49.32 L 227.5,50.32 L 231.3,50.82 L 229.8,51.99 L 232.8,52.49 L 232.7,53.16 L 231.7,54.99 L 228.8,54.66 L 225.8,52.66 L 225.7,54.32 L 229.8,56.49 L 224.5,55.82 L 223.0,54.99 L 218.5,54.49 L 220.0,53.32 L 212.5,51.32 L 211.0,52.32 L 207.8,52.16 L 204.7,51.16 L 206.0,50.16 L 210.0,50.32 L 211.3,51.16 L 212.3,50.32 L 215.3,49.99 L 214.0,47.99 L 218.3,46.32 L 217.0,44.49 L 214.7,44.16 L 207.8,39.99 L 207.2,40.82 L 204.0,38.32 L 202.7,40.16 L 195.0,41.32 L 199.0,42.49 L 196.7,43.32 L 199.0,45.16 L 198.3,46.66 L 195.2,47.82 L 194.3,47.16 L 192.3,48.16 L 189.8,47.32 L 189.5,48.32 L 187.2,49.49 L 186.2,51.99 L 182.2,52.32 L 179.7,54.99 L 175.0,55.99 L 175.0,57.66 L 173.5,59.16 L 172.5,58.82 L 171.7,61.82 L 170.7,62.66 L 172.3,62.82 L 173.2,63.66 L 174.8,62.82 L 176.2,65.32 L 176.2,66.82 L 183.2,66.66 L 190.7,69.82 L 197.5,70.32 L 197.0,75.32 L 200.3,77.49 L 201.7,78.99 L 203.2,77.99 L 204.5,78.66 L 204.7,76.82 L 205.7,75.99 L 204.0,74.66 L 204.7,72.82 L 202.0,71.66 L 209.2,69.16 L 209.5,66.32 L 205.5,63.66 L 205.2,62.82 L 207.3,59.49 L 206.0,58.99 L 206.8,58.16 L 205.8,57.16 L 206.7,55.49 L 208.5,55.32 L 208.8,56.32 L 213.2,56.16 L 214.2,55.49 L 217.7,57.49 L 223.0,58.49 L 222.8,60.16 L 222.0,61.16 L 222.3,62.32 L 221.2,62.99 L 222.0,63.82 L 223.2,63.32 L 225.2,63.49 L 224.2,64.82 L 225.0,65.32 L 226.0,64.16 L 229.2,63.99 L 231.7,62.49 L 231.7,59.82 L 233.3,59.99 L 235.3,63.16 L 234.2,64.49 L 236.3,63.82 L 236.2,64.82 L 237.3,65.32 L 238.3,66.16 L 238.5,67.66 L 240.7,69.66 L 246.8,71.32 L 241.0,73.99 L 242.2,74.49 L 247.3,72.49 L 251.0,74.82 L 249.7,75.66 L 251.3,76.66 L 249.2,77.49 L 250.8,79.16 L 248.5,81.49 L 251.0,80.99 L 250.2,82.66 L 250.8,82.16 L 254.7,81.66 L 254.3,82.99 L 256.0,84.16 L 254.5,84.99 L 252.5,86.99 L 251.0,86.82 L 249.3,85.32 L 248.0,85.82 L 247.2,85.32 L 244.0,85.16 L 245.2,84.32 L 244.3,83.32 L 245.8,83.32 L 246.2,80.66 L 248.7,79.32 L 248.2,77.66 L 246.3,77.66 L 243.0,79.66 L 228.7,80.49 L 227.7,81.82 L 225.5,81.99 L 222.8,83.82 L 221.0,86.99 L 225.2,83.49 L 228.5,83.49 L 232.3,82.32 L 233.7,83.32 L 232.8,84.16 L 228.8,84.99 L 231.5,85.66 L 231.2,86.82 L 232.7,86.99 L 233.2,88.49 L 234.0,87.32 L 235.5,88.16 L 234.2,88.82 L 235.0,89.49 L 236.8,89.82 L 237.0,88.49 L 239.0,90.49 L 238.2,90.99 L 234.7,91.99 L 233.5,91.49 L 232.8,93.32 L 229.8,93.49 L 230.8,91.82 L 232.0,91.16 L 231.8,89.49 L 231.0,90.49 L 227.3,90.66 L 227.2,91.66 L 222.0,93.32 L 219.7,95.82 L 221.0,96.82 L 218.5,96.99 L 216.8,99.49 L 215.2,99.32 L 213.8,97.49 L 213.7,100.8 L 211.5,104.4 L 210.3,104.8 L 209.3,104.3 L 209.2,105.9 L 208.2,106.6 L 210.0,107.3 L 209.7,109.8 L 208.3,109.9 L 208.5,111.1 L 206.0,111.4 L 206.3,112.9 L 199.7,117.3 L 198.5,119.3 L 201.7,127.8 L 201.5,130.8 L 200.2,130.9 L 196.5,126.3 L 196.2,123.3 L 195.0,121.8 L 192.8,121.1 L 190.8,121.9 L 191.3,120.4 L 188.3,120.4 L 187.8,119.4 L 187.0,120.4 L 186.0,119.4 L 184.8,120.3 L 182.3,121.3 L 181.2,120.3 L 179.8,120.9 L 181.5,122.6 L 179.3,122.3 L 178.5,120.9 L 177.3,121.6 L 172.3,121.8 L 171.2,123.1 L 169.7,123.3 L 167.2,125.3 L 166.0,137.1 L 167.3,140.6 L 168.5,142.4 L 172.2,144.8 L 175.0,144.8 L 177.7,144.1 L 178.3,144.9 L 179.0,143.3 L 180.0,143.3 L 181.0,139.4 L 185.3,138.3 L 186.0,138.9 L 187.5,137.9 L 188.3,139.1 L 186.8,141.1 L 185.3,147.3 L 184.3,147.4 L 185.0,149.4 L 187.7,149.8 L 190.3,149.3 L 195.2,150.4 L 194.2,159.8 L 196.3,161.8 L 196.5,162.9 L 199.0,164.4 L 200.0,163.4 L 202.3,161.9 L 206.7,163.6 L 207.3,165.1 L 209.0,163.6 L 210.2,163.4 L 212.0,161.6 L 211.7,160.8 L 210.3,159.8 L 210.8,159.1 L 212.3,159.8 L 213.3,158.9 L 216.0,158.4 L 219.0,156.9 L 218.8,157.9 L 217.7,158.4 L 218.5,159.8 L 220.5,159.6 L 222.0,158.4 L 221.2,157.4 L 222.2,157.1 L 223.3,158.6 L 225.0,158.9 L 224.7,159.9 L 229.3,160.3 L 229.5,161.1 L 236.2,160.6 L 236.2,163.8 L 231.7,165.1 L 230.7,166.3 L 232.5,166.4 L 235.2,165.3 L 237.0,165.1 L 238.8,163.9 L 237.7,162.8 L 239.0,161.8 L 240.2,162.9 L 239.8,163.8 L 243.2,164.8 L 244.7,166.3 L 245.3,168.8 L 245.8,168.1 L 247.7,170.3 L 252.8,169.6 L 254.2,170.8 L 255.7,170.1 L 257.3,171.6 L 259.7,172.9 L 260.5,174.8 L 260.0,177.4 L 262.7,178.6 L 259.7,181.8 L 259.0,183.4 L 258.3,184.1 L 255.0,184.8 L 258.0,185.3 L 259.5,186.9 L 260.7,186.3 L 261.8,184.4 L 260.2,183.8 L 261.5,181.9 L 265.5,182.6 L 262.7,185.8 L 265.5,185.3 L 266.2,182.9 L 267.2,183.8 L 267.5,182.9 L 273.0,185.3 L 272.2,185.9 L 273.2,187.3 L 274.7,186.8 L 282.5,187.4 L 286.5,189.8 L 287.7,191.4 L 291.7,192.1 L 292.3,194.4 L 292.5,199.1 L 291.2,200.4 L 290.5,202.1 L 289.3,201.9 L 288.7,203.6 L 287.3,204.9 L 286.5,206.8 L 285.3,207.8 L 284.3,207.9 L 284.5,216.9 L 283.5,217.9 L 282.7,221.6 L 281.3,222.9 L 280.7,226.1 L 278.5,227.3 L 273.0,228.3 L 271.3,229.8 L 266.3,231.9 L 265.2,232.1 L 264.7,238.8 L 261.7,242.4 L 260.3,242.4 L 259.7,244.1 L 258.3,243.8 L 257.3,247.8 L 254.3,250.8 L 251.5,251.9 L 249.0,251.1 L 246.8,252.1 L 248.2,254.6 L 248.2,256.6 L 245.8,258.8 L 240.0,259.9 L 237.2,261.1 L 238.2,262.3 L 235.8,264.6 L 233.3,264.3 L 232.0,263.6 L 232.7,268.8 L 230.3,272.3 L 227.7,272.9 L 226.7,274.9 L 230.2,277.1 L 230.3,279.1 L 227.0,280.3 L 226.3,282.6 L 223.8,284.4 L 224.5,286.4 L 223.8,287.3 L 226.5,290.1 L 231.7,291.6 L 231.5,292.4 L 231.5,292.4 z M 179.3,87.49 L 182.0,87.66 L 183.2,86.82 L 184.5,87.66 L 185.8,86.66 L 186.2,87.99 L 193.2,87.49 L 192.0,85.99 L 190.3,84.82 L 188.8,83.16 L 185.3,83.32 L 179.3,86.32 L 179.3,87.49 L 179.3,87.49 z M 187.5,89.16 L 186.5,90.99 L 187.5,92.16 L 186.2,93.32 L 186.3,96.99 L 187.2,96.66 L 188.5,97.49 L 189.5,96.16 L 188.7,94.99 L 188.8,92.99 L 190.7,90.32 L 192.0,90.16 L 194.8,90.66 L 194.8,91.82 L 194.2,93.16 L 195.3,93.16 L 196.2,93.82 L 196.3,95.66 L 195.2,97.66 L 196.7,98.66 L 202.2,96.99 L 203.5,95.82 L 205.2,96.66 L 203.7,94.99 L 208.8,93.99 L 209.7,92.66 L 211.3,91.16 L 216.8,88.16 L 220.2,87.49 L 218.7,87.16 L 214.0,88.66 L 208.3,92.16 L 204.7,93.16 L 201.3,95.66 L 197.7,96.66 L 196.3,97.32 L 198.0,94.66 L 199.3,90.82 L 201.2,91.16 L 202.3,90.99 L 200.0,89.16 L 198.5,88.49 L 192.0,88.82 L 189.7,89.82 L 188.7,89.82 L 187.5,89.16 L 187.5,89.16 z M 161.7,73.49 L 161.3,74.66 L 162.7,74.99 L 165.0,76.99 L 166.2,76.32 L 167.2,77.66 L 167.7,79.16 L 168.8,78.99 L 165.7,73.49 L 161.7,73.49 L 161.7,73.49 z M 128.7,59.16 L 132.7,59.49 L 133.5,58.32 L 136.5,60.32 L 137.5,61.82 L 135.3,61.66 L 137.2,63.16 L 138.8,62.49 L 138.2,59.82 L 136.0,58.82 L 135.5,57.82 L 137.8,57.32 L 138.2,55.82 L 136.2,56.49 L 133.7,56.66 L 131.5,55.99 L 129.2,58.32 L 128.7,59.16 L 128.7,59.16 z M 115.3,51.16 L 117.5,50.82 L 119.0,49.66 L 119.0,51.16 L 121.0,50.66 L 122.8,49.49 L 125.3,48.99 L 125.3,47.82 L 120.7,47.66 L 122.2,46.49 L 119.3,46.32 L 117.8,47.32 L 113.7,47.16 L 111.2,48.49 L 116.5,48.32 L 115.2,49.66 L 115.3,51.16 L 115.3,51.16 z "
   style="stroke:none"
   id="path2613" />
		<path
   d="M 158.0,327.4 L 170.3,327.2 L 168.5,325.7 L 166.0,325.7 L 158.0,327.4 z "
   style="stroke:none"
   id="path2615" />
		<path
   d="M 480.8,39.82 L 482.3,41.49 L 484.0,41.16 L 483.8,39.99 L 482.7,39.49 L 480.8,39.82 z "
   style="stroke:none"
   id="path2617" />
		<path
   d="M 725.8,362.7 L 0.006,362.7 L 0.00684,0 L 725.84766,0 L 725.8,362.7 z "
   style="fill:none;stroke:none"
   id="path2619" />
		<path
   d="M 699.1,337.6 L 700.2,339.0 L 700.9,338.2 L 703.2,337.8 L 702.8,337.3 L 699.5,337.0 L 699.1,337.6 L 699.1,337.6 z "
   style="stroke:none"
   id="path2621" />
	</g>
</svg>